%TF.GenerationSoftware,KiCad,Pcbnew,(5.1.10)-1*%
%TF.CreationDate,2021-07-01T22:54:37+02:00*%
%TF.ProjectId,BytesCounter,42797465-7343-46f7-956e-7465722e6b69,rev?*%
%TF.SameCoordinates,Original*%
%TF.FileFunction,Legend,Top*%
%TF.FilePolarity,Positive*%
%FSLAX46Y46*%
G04 Gerber Fmt 4.6, Leading zero omitted, Abs format (unit mm)*
G04 Created by KiCad (PCBNEW (5.1.10)-1) date 2021-07-01 22:54:37*
%MOMM*%
%LPD*%
G01*
G04 APERTURE LIST*
%ADD10C,0.300000*%
%ADD11C,0.275000*%
%ADD12C,0.250000*%
%ADD13C,0.010000*%
%ADD14C,0.254000*%
%ADD15C,0.200000*%
%ADD16C,0.120000*%
%ADD17C,0.100000*%
%ADD18C,0.150000*%
G04 APERTURE END LIST*
D10*
X113047619Y-89678571D02*
X114952380Y-89678571D01*
X128547619Y-89678571D02*
X130452380Y-89678571D01*
X129500000Y-90630952D02*
X129500000Y-88726190D01*
D11*
X118302380Y-40497619D02*
X118302380Y-39397619D01*
X118564285Y-39397619D01*
X118721428Y-39450000D01*
X118826190Y-39554761D01*
X118878571Y-39659523D01*
X118930952Y-39869047D01*
X118930952Y-40026190D01*
X118878571Y-40235714D01*
X118826190Y-40340476D01*
X118721428Y-40445238D01*
X118564285Y-40497619D01*
X118302380Y-40497619D01*
X119402380Y-40497619D02*
X119402380Y-39764285D01*
X119402380Y-39397619D02*
X119350000Y-39450000D01*
X119402380Y-39502380D01*
X119454761Y-39450000D01*
X119402380Y-39397619D01*
X119402380Y-39502380D01*
X119873809Y-40445238D02*
X119978571Y-40497619D01*
X120188095Y-40497619D01*
X120292857Y-40445238D01*
X120345238Y-40340476D01*
X120345238Y-40288095D01*
X120292857Y-40183333D01*
X120188095Y-40130952D01*
X120030952Y-40130952D01*
X119926190Y-40078571D01*
X119873809Y-39973809D01*
X119873809Y-39921428D01*
X119926190Y-39816666D01*
X120030952Y-39764285D01*
X120188095Y-39764285D01*
X120292857Y-39816666D01*
X120816666Y-39764285D02*
X120816666Y-40864285D01*
X120816666Y-39816666D02*
X120921428Y-39764285D01*
X121130952Y-39764285D01*
X121235714Y-39816666D01*
X121288095Y-39869047D01*
X121340476Y-39973809D01*
X121340476Y-40288095D01*
X121288095Y-40392857D01*
X121235714Y-40445238D01*
X121130952Y-40497619D01*
X120921428Y-40497619D01*
X120816666Y-40445238D01*
X121969047Y-40497619D02*
X121864285Y-40445238D01*
X121811904Y-40340476D01*
X121811904Y-39397619D01*
X122859523Y-40497619D02*
X122859523Y-39921428D01*
X122807142Y-39816666D01*
X122702380Y-39764285D01*
X122492857Y-39764285D01*
X122388095Y-39816666D01*
X122859523Y-40445238D02*
X122754761Y-40497619D01*
X122492857Y-40497619D01*
X122388095Y-40445238D01*
X122335714Y-40340476D01*
X122335714Y-40235714D01*
X122388095Y-40130952D01*
X122492857Y-40078571D01*
X122754761Y-40078571D01*
X122859523Y-40026190D01*
X123278571Y-39764285D02*
X123540476Y-40497619D01*
X123802380Y-39764285D02*
X123540476Y-40497619D01*
X123435714Y-40759523D01*
X123383333Y-40811904D01*
X123278571Y-40864285D01*
D10*
D12*
X124790476Y-64997619D02*
X124790476Y-63897619D01*
X125209523Y-63897619D01*
X125314285Y-63950000D01*
X125366666Y-64002380D01*
X125419047Y-64107142D01*
X125419047Y-64264285D01*
X125366666Y-64369047D01*
X125314285Y-64421428D01*
X125209523Y-64473809D01*
X124790476Y-64473809D01*
X125890476Y-64997619D02*
X125890476Y-63897619D01*
X127042857Y-64892857D02*
X126990476Y-64945238D01*
X126833333Y-64997619D01*
X126728571Y-64997619D01*
X126571428Y-64945238D01*
X126466666Y-64840476D01*
X126414285Y-64735714D01*
X126361904Y-64526190D01*
X126361904Y-64369047D01*
X126414285Y-64159523D01*
X126466666Y-64054761D01*
X126571428Y-63950000D01*
X126728571Y-63897619D01*
X126833333Y-63897619D01*
X126990476Y-63950000D01*
X127042857Y-64002380D01*
X128090476Y-64997619D02*
X127461904Y-64997619D01*
X127776190Y-64997619D02*
X127776190Y-63897619D01*
X127671428Y-64054761D01*
X127566666Y-64159523D01*
X127461904Y-64211904D01*
X128719047Y-64369047D02*
X128614285Y-64316666D01*
X128561904Y-64264285D01*
X128509523Y-64159523D01*
X128509523Y-64107142D01*
X128561904Y-64002380D01*
X128614285Y-63950000D01*
X128719047Y-63897619D01*
X128928571Y-63897619D01*
X129033333Y-63950000D01*
X129085714Y-64002380D01*
X129138095Y-64107142D01*
X129138095Y-64159523D01*
X129085714Y-64264285D01*
X129033333Y-64316666D01*
X128928571Y-64369047D01*
X128719047Y-64369047D01*
X128614285Y-64421428D01*
X128561904Y-64473809D01*
X128509523Y-64578571D01*
X128509523Y-64788095D01*
X128561904Y-64892857D01*
X128614285Y-64945238D01*
X128719047Y-64997619D01*
X128928571Y-64997619D01*
X129033333Y-64945238D01*
X129085714Y-64892857D01*
X129138095Y-64788095D01*
X129138095Y-64578571D01*
X129085714Y-64473809D01*
X129033333Y-64421428D01*
X128928571Y-64369047D01*
X130133333Y-64997619D02*
X129609523Y-64997619D01*
X129609523Y-63897619D01*
X130866666Y-64421428D02*
X130500000Y-64421428D01*
X130500000Y-64997619D02*
X130500000Y-63897619D01*
X131023809Y-63897619D01*
X132019047Y-64997619D02*
X131390476Y-64997619D01*
X131704761Y-64997619D02*
X131704761Y-63897619D01*
X131600000Y-64054761D01*
X131495238Y-64159523D01*
X131390476Y-64211904D01*
X132961904Y-64264285D02*
X132961904Y-64997619D01*
X132700000Y-63845238D02*
X132438095Y-64630952D01*
X133119047Y-64630952D01*
X133538095Y-64997619D02*
X133538095Y-63897619D01*
X134166666Y-64997619D02*
X133695238Y-64369047D01*
X134166666Y-63897619D02*
X133538095Y-64526190D01*
X135161904Y-63897619D02*
X134638095Y-63897619D01*
X134585714Y-64421428D01*
X134638095Y-64369047D01*
X134742857Y-64316666D01*
X135004761Y-64316666D01*
X135109523Y-64369047D01*
X135161904Y-64421428D01*
X135214285Y-64526190D01*
X135214285Y-64788095D01*
X135161904Y-64892857D01*
X135109523Y-64945238D01*
X135004761Y-64997619D01*
X134742857Y-64997619D01*
X134638095Y-64945238D01*
X134585714Y-64892857D01*
X135895238Y-63897619D02*
X136000000Y-63897619D01*
X136104761Y-63950000D01*
X136157142Y-64002380D01*
X136209523Y-64107142D01*
X136261904Y-64316666D01*
X136261904Y-64578571D01*
X136209523Y-64788095D01*
X136157142Y-64892857D01*
X136104761Y-64945238D01*
X136000000Y-64997619D01*
X135895238Y-64997619D01*
X135790476Y-64945238D01*
X135738095Y-64892857D01*
X135685714Y-64788095D01*
X135633333Y-64578571D01*
X135633333Y-64316666D01*
X135685714Y-64107142D01*
X135738095Y-64002380D01*
X135790476Y-63950000D01*
X135895238Y-63897619D01*
D11*
X106878571Y-64921428D02*
X107035714Y-64973809D01*
X107088095Y-65026190D01*
X107140476Y-65130952D01*
X107140476Y-65288095D01*
X107088095Y-65392857D01*
X107035714Y-65445238D01*
X106930952Y-65497619D01*
X106511904Y-65497619D01*
X106511904Y-64397619D01*
X106878571Y-64397619D01*
X106983333Y-64450000D01*
X107035714Y-64502380D01*
X107088095Y-64607142D01*
X107088095Y-64711904D01*
X107035714Y-64816666D01*
X106983333Y-64869047D01*
X106878571Y-64921428D01*
X106511904Y-64921428D01*
X108083333Y-64764285D02*
X108083333Y-65497619D01*
X107611904Y-64764285D02*
X107611904Y-65340476D01*
X107664285Y-65445238D01*
X107769047Y-65497619D01*
X107926190Y-65497619D01*
X108030952Y-65445238D01*
X108083333Y-65392857D01*
X108502380Y-64764285D02*
X109078571Y-64764285D01*
X108502380Y-65497619D01*
X109078571Y-65497619D01*
X109392857Y-64764285D02*
X109969047Y-64764285D01*
X109392857Y-65497619D01*
X109969047Y-65497619D01*
X110807142Y-65445238D02*
X110702380Y-65497619D01*
X110492857Y-65497619D01*
X110388095Y-65445238D01*
X110335714Y-65340476D01*
X110335714Y-64921428D01*
X110388095Y-64816666D01*
X110492857Y-64764285D01*
X110702380Y-64764285D01*
X110807142Y-64816666D01*
X110859523Y-64921428D01*
X110859523Y-65026190D01*
X110335714Y-65130952D01*
X111330952Y-65497619D02*
X111330952Y-64764285D01*
X111330952Y-64973809D02*
X111383333Y-64869047D01*
X111435714Y-64816666D01*
X111540476Y-64764285D01*
X111645238Y-64764285D01*
D10*
D13*
%TO.C,G\u002A\u002A\u002A*%
G36*
X104515875Y-75650356D02*
G01*
X107272834Y-75645296D01*
X107272834Y-86333539D01*
X104515875Y-86328478D01*
X101896500Y-86323670D01*
X101896500Y-86185834D01*
X107082334Y-86185834D01*
X107082334Y-75793000D01*
X101896500Y-75793000D01*
X101896500Y-86185834D01*
X101896500Y-86323670D01*
X101758917Y-86323417D01*
X101758917Y-75655417D01*
X104515875Y-75650356D01*
G37*
X104515875Y-75650356D02*
X107272834Y-75645296D01*
X107272834Y-86333539D01*
X104515875Y-86328478D01*
X101896500Y-86323670D01*
X101896500Y-86185834D01*
X107082334Y-86185834D01*
X107082334Y-75793000D01*
X101896500Y-75793000D01*
X101896500Y-86185834D01*
X101896500Y-86323670D01*
X101758917Y-86323417D01*
X101758917Y-75655417D01*
X104515875Y-75650356D01*
G36*
X102246922Y-80417917D02*
G01*
X102247905Y-80292143D01*
X102250791Y-80197588D01*
X102257071Y-80123138D01*
X102268236Y-80057681D01*
X102285779Y-79990104D01*
X102311190Y-79909293D01*
X102317946Y-79888750D01*
X102355653Y-79784403D01*
X102398612Y-79680766D01*
X102440019Y-79593728D01*
X102458457Y-79560667D01*
X102494729Y-79508399D01*
X102548937Y-79439469D01*
X102615237Y-79360342D01*
X102687781Y-79277487D01*
X102760723Y-79197367D01*
X102828218Y-79126451D01*
X102884419Y-79071203D01*
X102923481Y-79038091D01*
X102936884Y-79031500D01*
X102963699Y-79020616D01*
X103014498Y-78992081D01*
X103078206Y-78952125D01*
X103165430Y-78895082D01*
X103225499Y-78856431D01*
X103266582Y-78831236D01*
X103296850Y-78814559D01*
X103324471Y-78801465D01*
X103335834Y-78796463D01*
X103395013Y-78770299D01*
X103452250Y-78744571D01*
X103571606Y-78696222D01*
X103721039Y-78644748D01*
X103888828Y-78593749D01*
X104063253Y-78546823D01*
X104203667Y-78513767D01*
X104324459Y-78486388D01*
X104451259Y-78455877D01*
X104577410Y-78424037D01*
X104696257Y-78392672D01*
X104801144Y-78363584D01*
X104885414Y-78338575D01*
X104942412Y-78319449D01*
X104965482Y-78308007D01*
X104965667Y-78307385D01*
X104948617Y-78292245D01*
X104936128Y-78290667D01*
X104910757Y-78285179D01*
X104848353Y-78269390D01*
X104752679Y-78244310D01*
X104627495Y-78210951D01*
X104476563Y-78170324D01*
X104303645Y-78123441D01*
X104112502Y-78071311D01*
X103906896Y-78014948D01*
X103756086Y-77973435D01*
X103498225Y-77902086D01*
X103278549Y-77840719D01*
X103094318Y-77788497D01*
X102942789Y-77744585D01*
X102821220Y-77708144D01*
X102726870Y-77678341D01*
X102656997Y-77654337D01*
X102608859Y-77635298D01*
X102579713Y-77620387D01*
X102568542Y-77611256D01*
X102558131Y-77595412D01*
X102549857Y-77572850D01*
X102543480Y-77538948D01*
X102538757Y-77489082D01*
X102535447Y-77418628D01*
X102533309Y-77322962D01*
X102532102Y-77197463D01*
X102531583Y-77037505D01*
X102531500Y-76901906D01*
X102531609Y-76716390D01*
X102532122Y-76568560D01*
X102533318Y-76453772D01*
X102535474Y-76367377D01*
X102538868Y-76304729D01*
X102543780Y-76261182D01*
X102550488Y-76232090D01*
X102559269Y-76212806D01*
X102570402Y-76198684D01*
X102573833Y-76195167D01*
X102637542Y-76160130D01*
X102695863Y-76152834D01*
X102724253Y-76159474D01*
X102789340Y-76178642D01*
X102887752Y-76209209D01*
X103016116Y-76250049D01*
X103171059Y-76300031D01*
X103349208Y-76358029D01*
X103547191Y-76422913D01*
X103761634Y-76493556D01*
X103989165Y-76568830D01*
X104226411Y-76647606D01*
X104469999Y-76728756D01*
X104716557Y-76811153D01*
X104962711Y-76893666D01*
X105205090Y-76975170D01*
X105440319Y-77054535D01*
X105665027Y-77130632D01*
X105875840Y-77202335D01*
X106069385Y-77268515D01*
X106242291Y-77328043D01*
X106391184Y-77379791D01*
X106512690Y-77422632D01*
X106603439Y-77455437D01*
X106660056Y-77477077D01*
X106676414Y-77484325D01*
X106715971Y-77517274D01*
X106730593Y-77540394D01*
X106733591Y-77568788D01*
X106736347Y-77634538D01*
X106738779Y-77732669D01*
X106740809Y-77858203D01*
X106742354Y-78006164D01*
X106743333Y-78171577D01*
X106743667Y-78345315D01*
X106743559Y-78546911D01*
X106743099Y-78710427D01*
X106742075Y-78840117D01*
X106740282Y-78940234D01*
X106737510Y-79015033D01*
X106733550Y-79068766D01*
X106728195Y-79105687D01*
X106721235Y-79130050D01*
X106712463Y-79146108D01*
X106703951Y-79155883D01*
X106667512Y-79179124D01*
X106601254Y-79209825D01*
X106515912Y-79243302D01*
X106455243Y-79264350D01*
X106366279Y-79294672D01*
X106292097Y-79321928D01*
X106242171Y-79342521D01*
X106226727Y-79351049D01*
X106221735Y-79381955D01*
X106239824Y-79435234D01*
X106241348Y-79438374D01*
X106323416Y-79612588D01*
X106385642Y-79762726D01*
X106432319Y-79899490D01*
X106447435Y-79952250D01*
X106476468Y-80048981D01*
X106509959Y-80145426D01*
X106541079Y-80222041D01*
X106543588Y-80227417D01*
X106562734Y-80275124D01*
X106589099Y-80350545D01*
X106619892Y-80444531D01*
X106652320Y-80547932D01*
X106683591Y-80651598D01*
X106710913Y-80746379D01*
X106731494Y-80823125D01*
X106742541Y-80872685D01*
X106743667Y-80883102D01*
X106726209Y-80899134D01*
X106683342Y-80921287D01*
X106674875Y-80924904D01*
X106547927Y-80977052D01*
X106432315Y-81023433D01*
X106334231Y-81061656D01*
X106259863Y-81089329D01*
X106215403Y-81104061D01*
X106206603Y-81105834D01*
X106173376Y-81113384D01*
X106113071Y-81133643D01*
X106034428Y-81163024D01*
X105946183Y-81197941D01*
X105857075Y-81234805D01*
X105775843Y-81270029D01*
X105711224Y-81300028D01*
X105671957Y-81321214D01*
X105664167Y-81328503D01*
X105671411Y-81357070D01*
X105690716Y-81414368D01*
X105718446Y-81489810D01*
X105729671Y-81519067D01*
X105768516Y-81621459D01*
X105808954Y-81731649D01*
X105842620Y-81826820D01*
X105844382Y-81831965D01*
X105893589Y-81976012D01*
X105842378Y-81996006D01*
X105780383Y-82020202D01*
X105737660Y-82036868D01*
X105696171Y-82046873D01*
X105673480Y-82028472D01*
X105665252Y-82010409D01*
X105650930Y-81973514D01*
X105625088Y-81905979D01*
X105591146Y-81816775D01*
X105552524Y-81714871D01*
X105544477Y-81693593D01*
X105442604Y-81424102D01*
X105399927Y-81473635D01*
X105372526Y-81503903D01*
X105321140Y-81559268D01*
X105250979Y-81634168D01*
X105167254Y-81723044D01*
X105075176Y-81820336D01*
X105060917Y-81835364D01*
X104970694Y-81931425D01*
X104890883Y-82018320D01*
X104825994Y-82090983D01*
X104780536Y-82144344D01*
X104759020Y-82173335D01*
X104757974Y-82175815D01*
X104769056Y-82198437D01*
X104789724Y-82201926D01*
X104819079Y-82207400D01*
X104883474Y-82223926D01*
X104977527Y-82249973D01*
X105095857Y-82284009D01*
X105233083Y-82324504D01*
X105383824Y-82369928D01*
X105431334Y-82384427D01*
X105682834Y-82461472D01*
X105896904Y-82527257D01*
X106076623Y-82582820D01*
X106225067Y-82629198D01*
X106345315Y-82667430D01*
X106440444Y-82698555D01*
X106513532Y-82723609D01*
X106567656Y-82743632D01*
X106605895Y-82759662D01*
X106631325Y-82772736D01*
X106647026Y-82783893D01*
X106656074Y-82794172D01*
X106658592Y-82798404D01*
X106665426Y-82832527D01*
X106671161Y-82904584D01*
X106675627Y-83010188D01*
X106678656Y-83144951D01*
X106680079Y-83304484D01*
X106680167Y-83358692D01*
X106680309Y-83529485D01*
X106679361Y-83663193D01*
X106675260Y-83765055D01*
X106665946Y-83840307D01*
X106649355Y-83894188D01*
X106623428Y-83931934D01*
X106586100Y-83958785D01*
X106535312Y-83979977D01*
X106469001Y-84000748D01*
X106421854Y-84014899D01*
X106359613Y-84033803D01*
X106262991Y-84063066D01*
X106138140Y-84100827D01*
X105991213Y-84145227D01*
X105828361Y-84194407D01*
X105655736Y-84246508D01*
X105525640Y-84285753D01*
X104805029Y-84503084D01*
X105699205Y-84496733D01*
X105917134Y-84495236D01*
X106096677Y-84494235D01*
X106241779Y-84493887D01*
X106356389Y-84494347D01*
X106444450Y-84495772D01*
X106509910Y-84498317D01*
X106556715Y-84502138D01*
X106588810Y-84507391D01*
X106610142Y-84514232D01*
X106624657Y-84522817D01*
X106636300Y-84533301D01*
X106636774Y-84533775D01*
X106649724Y-84548464D01*
X106659806Y-84566910D01*
X106667378Y-84594184D01*
X106672799Y-84635358D01*
X106676427Y-84695503D01*
X106678619Y-84779692D01*
X106679733Y-84892996D01*
X106680127Y-85040487D01*
X106680167Y-85148667D01*
X106680022Y-85319489D01*
X106679356Y-85453039D01*
X106677820Y-85554378D01*
X106675064Y-85628566D01*
X106670739Y-85680665D01*
X106664496Y-85715735D01*
X106655987Y-85738838D01*
X106644863Y-85755034D01*
X106637833Y-85762500D01*
X106629897Y-85769696D01*
X106619645Y-85776026D01*
X106604474Y-85781547D01*
X106581780Y-85786313D01*
X106548958Y-85790380D01*
X106503405Y-85793804D01*
X106489667Y-85794443D01*
X106489667Y-85614334D01*
X106489667Y-84680759D01*
X105140292Y-84684266D01*
X104867808Y-84684926D01*
X104634609Y-84685333D01*
X104437651Y-84685408D01*
X104273885Y-84685074D01*
X104140264Y-84684256D01*
X104033743Y-84682874D01*
X103951273Y-84680854D01*
X103889809Y-84678116D01*
X103846304Y-84674585D01*
X103817710Y-84670183D01*
X103800981Y-84664833D01*
X103793070Y-84658458D01*
X103790931Y-84650981D01*
X103790917Y-84650129D01*
X103796363Y-84640867D01*
X103814469Y-84628850D01*
X103847888Y-84613204D01*
X103899274Y-84593053D01*
X103971279Y-84567523D01*
X104066556Y-84535739D01*
X104187758Y-84496828D01*
X104337539Y-84449915D01*
X104518550Y-84394125D01*
X104733446Y-84328583D01*
X104984880Y-84252416D01*
X105135000Y-84207096D01*
X106479084Y-83801709D01*
X106484792Y-83354661D01*
X106490501Y-82907613D01*
X106251959Y-82833740D01*
X106051343Y-82771784D01*
X105848299Y-82709398D01*
X105646967Y-82647828D01*
X105451491Y-82588321D01*
X105266009Y-82532124D01*
X105094665Y-82480484D01*
X104941600Y-82434647D01*
X104810954Y-82395861D01*
X104706869Y-82365373D01*
X104633486Y-82344428D01*
X104594948Y-82334274D01*
X104590433Y-82333501D01*
X104558774Y-82349556D01*
X104548677Y-82362348D01*
X104503362Y-82427741D01*
X104447527Y-82491935D01*
X104390557Y-82545757D01*
X104378034Y-82554567D01*
X104378034Y-82223450D01*
X104541028Y-82050933D01*
X104615911Y-81971654D01*
X104709482Y-81872559D01*
X104811377Y-81764623D01*
X104911234Y-81658823D01*
X104942137Y-81626075D01*
X105039026Y-81521279D01*
X105106081Y-81443693D01*
X105144527Y-81391761D01*
X105155587Y-81363928D01*
X105152334Y-81359036D01*
X105118991Y-81350522D01*
X105055702Y-81341167D01*
X104974775Y-81332712D01*
X104955084Y-81331088D01*
X104851639Y-81322224D01*
X104729025Y-81310588D01*
X104610111Y-81298372D01*
X104584667Y-81295598D01*
X104390775Y-81274932D01*
X104238296Y-81260415D01*
X104126765Y-81252013D01*
X104055715Y-81249692D01*
X104024680Y-81253418D01*
X104023385Y-81254591D01*
X104027868Y-81277737D01*
X104045394Y-81333611D01*
X104073657Y-81415487D01*
X104110351Y-81516638D01*
X104143435Y-81604834D01*
X104190667Y-81729093D01*
X104237103Y-81851347D01*
X104278745Y-81961068D01*
X104311599Y-82047731D01*
X104324826Y-82082683D01*
X104378034Y-82223450D01*
X104378034Y-82554567D01*
X104341834Y-82580035D01*
X104318358Y-82587500D01*
X104295357Y-82582580D01*
X104273942Y-82563460D01*
X104250159Y-82523598D01*
X104220052Y-82456454D01*
X104182554Y-82362878D01*
X104143078Y-82260278D01*
X104105833Y-82160609D01*
X104075763Y-82077247D01*
X104061317Y-82034795D01*
X104039659Y-81976195D01*
X104020551Y-81938695D01*
X104012472Y-81931334D01*
X103984968Y-81938640D01*
X103928654Y-81957953D01*
X103853948Y-81985366D01*
X103771268Y-82016969D01*
X103691030Y-82048855D01*
X103623654Y-82077117D01*
X103622489Y-82077627D01*
X103552011Y-82107509D01*
X103485507Y-82134141D01*
X103473417Y-82138712D01*
X103314123Y-82198503D01*
X103190698Y-82246519D01*
X103098923Y-82284591D01*
X103034579Y-82314550D01*
X102993449Y-82338225D01*
X102972463Y-82356053D01*
X102947210Y-82374674D01*
X102947210Y-82063758D01*
X102974511Y-82061890D01*
X103033489Y-82046456D01*
X103116591Y-82019786D01*
X103216258Y-81984210D01*
X103264710Y-81965835D01*
X103387654Y-81918357D01*
X103514693Y-81869287D01*
X103632044Y-81823951D01*
X103725923Y-81787673D01*
X103738000Y-81783005D01*
X103817874Y-81751822D01*
X103881214Y-81726514D01*
X103918783Y-81710801D01*
X103924984Y-81707731D01*
X103922874Y-81685838D01*
X103908256Y-81637771D01*
X103885923Y-81575991D01*
X103860667Y-81512963D01*
X103837278Y-81461147D01*
X103820550Y-81433007D01*
X103818785Y-81431518D01*
X103788870Y-81429672D01*
X103733468Y-81437898D01*
X103696156Y-81446421D01*
X103637496Y-81458763D01*
X103637496Y-81271107D01*
X103697561Y-81250169D01*
X103757625Y-81229230D01*
X103716371Y-81120657D01*
X103694543Y-81050693D01*
X103689859Y-81004238D01*
X103694442Y-80992759D01*
X103724886Y-80986448D01*
X103796259Y-80986861D01*
X103907705Y-80993936D01*
X104058368Y-81007609D01*
X104247391Y-81027819D01*
X104373000Y-81042361D01*
X104494724Y-81056099D01*
X104627597Y-81069942D01*
X104765022Y-81083331D01*
X104900398Y-81095704D01*
X105027126Y-81106500D01*
X105138606Y-81115159D01*
X105228240Y-81121121D01*
X105289429Y-81123823D01*
X105315571Y-81122707D01*
X105315916Y-81122474D01*
X105314378Y-81098720D01*
X105299941Y-81046393D01*
X105275612Y-80976153D01*
X105271648Y-80965654D01*
X105244173Y-80892136D01*
X105212892Y-80806163D01*
X105181123Y-80717163D01*
X105152184Y-80634564D01*
X105129394Y-80567795D01*
X105116070Y-80526284D01*
X105113981Y-80517707D01*
X105131502Y-80506728D01*
X105176504Y-80485225D01*
X105212647Y-80469306D01*
X105274638Y-80445645D01*
X105313411Y-80444342D01*
X105338739Y-80471083D01*
X105360400Y-80531552D01*
X105368414Y-80559898D01*
X105388097Y-80614394D01*
X105409093Y-80649258D01*
X105413010Y-80652507D01*
X105427350Y-80650291D01*
X105423618Y-80626943D01*
X105411549Y-80587520D01*
X105391437Y-80521526D01*
X105367532Y-80442898D01*
X105366373Y-80439084D01*
X105300394Y-80278140D01*
X105210334Y-80146733D01*
X105099073Y-80048625D01*
X105042572Y-80016204D01*
X104976694Y-79986541D01*
X104921867Y-79971256D01*
X104860641Y-79967560D01*
X104775562Y-79972667D01*
X104771921Y-79972972D01*
X104639834Y-79986725D01*
X104517009Y-80004360D01*
X104412252Y-80024263D01*
X104334369Y-80044818D01*
X104298917Y-80059677D01*
X104246189Y-80083361D01*
X104193818Y-80099446D01*
X104056385Y-80144002D01*
X103917730Y-80211002D01*
X103787012Y-80294103D01*
X103673390Y-80386964D01*
X103586024Y-80483242D01*
X103545996Y-80548024D01*
X103519181Y-80626870D01*
X103510743Y-80719504D01*
X103521118Y-80832290D01*
X103550742Y-80971589D01*
X103583063Y-81087929D01*
X103637496Y-81271107D01*
X103637496Y-81458763D01*
X103627726Y-81460819D01*
X103585833Y-81459962D01*
X103561071Y-81446980D01*
X103542617Y-81417517D01*
X103515454Y-81356438D01*
X103483216Y-81272619D01*
X103449540Y-81174937D01*
X103449050Y-81173436D01*
X103412585Y-81056818D01*
X103388829Y-80965741D01*
X103375205Y-80886271D01*
X103369132Y-80804472D01*
X103367985Y-80735417D01*
X103374400Y-80601956D01*
X103397349Y-80496156D01*
X103441430Y-80405062D01*
X103511239Y-80315720D01*
X103520507Y-80305636D01*
X103590050Y-80243846D01*
X103685665Y-80175748D01*
X103793710Y-80109690D01*
X103900539Y-80054017D01*
X103992000Y-80017232D01*
X104064163Y-79993780D01*
X104125033Y-79972306D01*
X104150750Y-79962068D01*
X104198027Y-79944038D01*
X104268939Y-79920452D01*
X104351709Y-79894811D01*
X104434557Y-79870615D01*
X104505706Y-79851365D01*
X104553377Y-79840563D01*
X104563500Y-79839388D01*
X104598733Y-79837519D01*
X104663524Y-79832808D01*
X104745268Y-79826187D01*
X104764584Y-79824540D01*
X104923112Y-79824740D01*
X105064438Y-79857271D01*
X105202285Y-79925684D01*
X105233340Y-79945790D01*
X105314703Y-80021832D01*
X105394600Y-80139195D01*
X105472533Y-80296876D01*
X105548004Y-80493874D01*
X105617307Y-80717737D01*
X105604093Y-80739947D01*
X105562636Y-80764206D01*
X105548954Y-80769614D01*
X105500318Y-80792292D01*
X105474789Y-80814127D01*
X105473667Y-80818209D01*
X105480992Y-80851433D01*
X105499546Y-80905848D01*
X105524198Y-80968901D01*
X105549815Y-81028040D01*
X105571266Y-81070710D01*
X105582593Y-81084667D01*
X105606542Y-81077435D01*
X105661956Y-81057681D01*
X105740882Y-81028321D01*
X105835367Y-80992269D01*
X105847284Y-80987666D01*
X105963421Y-80943259D01*
X106084752Y-80897718D01*
X106195475Y-80856932D01*
X106267417Y-80831112D01*
X106350028Y-80801829D01*
X106420421Y-80776459D01*
X106466524Y-80759368D01*
X106473792Y-80756516D01*
X106507247Y-80726005D01*
X106502625Y-80684640D01*
X106492414Y-80670859D01*
X106477849Y-80641955D01*
X106456154Y-80583887D01*
X106431602Y-80508260D01*
X106427356Y-80494171D01*
X106401080Y-80412215D01*
X106375106Y-80341527D01*
X106354611Y-80296072D01*
X106352835Y-80293087D01*
X106335312Y-80254971D01*
X106309776Y-80186778D01*
X106280023Y-80099084D01*
X106257060Y-80026334D01*
X106217692Y-79902065D01*
X106180290Y-79796448D01*
X106138174Y-79692110D01*
X106084665Y-79571678D01*
X106069870Y-79539500D01*
X106050730Y-79505265D01*
X106050730Y-79181314D01*
X106286073Y-79103559D01*
X106379975Y-79072224D01*
X106458989Y-79045276D01*
X106514503Y-79025690D01*
X106537583Y-79016640D01*
X106541343Y-78994022D01*
X106544451Y-78934170D01*
X106546828Y-78842176D01*
X106548396Y-78723136D01*
X106549077Y-78582143D01*
X106548791Y-78424291D01*
X106548167Y-78328760D01*
X106542584Y-77650045D01*
X104648167Y-77007314D01*
X104375967Y-76915018D01*
X104115144Y-76826688D01*
X103868490Y-76743263D01*
X103638794Y-76665681D01*
X103428847Y-76594881D01*
X103241440Y-76531803D01*
X103079364Y-76477386D01*
X102945408Y-76432567D01*
X102842363Y-76398287D01*
X102773020Y-76375484D01*
X102740169Y-76365098D01*
X102737875Y-76364542D01*
X102733642Y-76384775D01*
X102729848Y-76441810D01*
X102726649Y-76530117D01*
X102724202Y-76644165D01*
X102722661Y-76778425D01*
X102722181Y-76920125D01*
X102722362Y-77475750D01*
X103679973Y-77739642D01*
X103897160Y-77799251D01*
X104121241Y-77860309D01*
X104344855Y-77920841D01*
X104560643Y-77978871D01*
X104761245Y-78032423D01*
X104939302Y-78079520D01*
X105087454Y-78118188D01*
X105145584Y-78133124D01*
X105328755Y-78180553D01*
X105471520Y-78220098D01*
X105574700Y-78253492D01*
X105639114Y-78282472D01*
X105665581Y-78308771D01*
X105654923Y-78334125D01*
X105607958Y-78360268D01*
X105525508Y-78388935D01*
X105408391Y-78421861D01*
X105295842Y-78451020D01*
X104980433Y-78531389D01*
X105126508Y-78560343D01*
X105314910Y-78613089D01*
X105493374Y-78696160D01*
X105667417Y-78812882D01*
X105842555Y-78966579D01*
X105905073Y-79029662D01*
X106050730Y-79181314D01*
X106050730Y-79505265D01*
X105981785Y-79381944D01*
X105867063Y-79226803D01*
X105733889Y-79082393D01*
X105590448Y-78957030D01*
X105444927Y-78859026D01*
X105357250Y-78815652D01*
X105230018Y-78764199D01*
X105127253Y-78728065D01*
X105035310Y-78704138D01*
X104940544Y-78689306D01*
X104829310Y-78680457D01*
X104747817Y-78676680D01*
X104589454Y-78674148D01*
X104443903Y-78678880D01*
X104324926Y-78690389D01*
X104313900Y-78692072D01*
X104249022Y-78705572D01*
X104158763Y-78728567D01*
X104051237Y-78758542D01*
X103934555Y-78792979D01*
X103816830Y-78829363D01*
X103706174Y-78865177D01*
X103610699Y-78897904D01*
X103538519Y-78925028D01*
X103497745Y-78944033D01*
X103494584Y-78946225D01*
X103459082Y-78964883D01*
X103420500Y-78979039D01*
X103367712Y-79003028D01*
X103308697Y-79040209D01*
X103302086Y-79045129D01*
X103256266Y-79077184D01*
X103224718Y-79094179D01*
X103220782Y-79095000D01*
X103190573Y-79108337D01*
X103137834Y-79143823D01*
X103070935Y-79194675D01*
X102998250Y-79254108D01*
X102928148Y-79315339D01*
X102869002Y-79371583D01*
X102837631Y-79405501D01*
X102781421Y-79472265D01*
X102726855Y-79536988D01*
X102698991Y-79569983D01*
X102634780Y-79664163D01*
X102572013Y-79789559D01*
X102515486Y-79935185D01*
X102469992Y-80090057D01*
X102467475Y-80100417D01*
X102455649Y-80177850D01*
X102448210Y-80284814D01*
X102445169Y-80408734D01*
X102446539Y-80537034D01*
X102452330Y-80657139D01*
X102462555Y-80756473D01*
X102466836Y-80782197D01*
X102481851Y-80844850D01*
X102507452Y-80934950D01*
X102539955Y-81040084D01*
X102573057Y-81140200D01*
X102612146Y-81254486D01*
X102659626Y-81393347D01*
X102710203Y-81541300D01*
X102758583Y-81682861D01*
X102771160Y-81719667D01*
X102809825Y-81829469D01*
X102845193Y-81923695D01*
X102874582Y-81995672D01*
X102895308Y-82038723D01*
X102903173Y-82048075D01*
X102938262Y-82058738D01*
X102947210Y-82063758D01*
X102947210Y-82374674D01*
X102925957Y-82390346D01*
X102871921Y-82410408D01*
X102828293Y-82424011D01*
X102810140Y-82450801D01*
X102806667Y-82500853D01*
X102806667Y-82578247D01*
X103785625Y-82857614D01*
X103991841Y-82916261D01*
X104194155Y-82973420D01*
X104387180Y-83027593D01*
X104565528Y-83077287D01*
X104723812Y-83121003D01*
X104856644Y-83157246D01*
X104958636Y-83184521D01*
X105015855Y-83199238D01*
X105147365Y-83233744D01*
X105239824Y-83263637D01*
X105292852Y-83290648D01*
X105306072Y-83316509D01*
X105279103Y-83342950D01*
X105211569Y-83371705D01*
X105103089Y-83404503D01*
X104963059Y-83440663D01*
X104871766Y-83464073D01*
X104746063Y-83497526D01*
X104592204Y-83539299D01*
X104416441Y-83587664D01*
X104225030Y-83640897D01*
X104024223Y-83697272D01*
X103820275Y-83755064D01*
X103727417Y-83781566D01*
X102817250Y-84041949D01*
X102811701Y-84828142D01*
X102806152Y-85614334D01*
X106489667Y-85614334D01*
X106489667Y-85794443D01*
X106442517Y-85796639D01*
X106363689Y-85798942D01*
X106264318Y-85800767D01*
X106141800Y-85802171D01*
X105993531Y-85803208D01*
X105816907Y-85803933D01*
X105609324Y-85804403D01*
X105368177Y-85804673D01*
X105090864Y-85804797D01*
X104774780Y-85804832D01*
X104648167Y-85804834D01*
X104317157Y-85804818D01*
X104025877Y-85804732D01*
X103771722Y-85804523D01*
X103552089Y-85804133D01*
X103364373Y-85803508D01*
X103205971Y-85802592D01*
X103074278Y-85801330D01*
X102966691Y-85799666D01*
X102880605Y-85797546D01*
X102813417Y-85794913D01*
X102762523Y-85791712D01*
X102725318Y-85787888D01*
X102699199Y-85783386D01*
X102681562Y-85778149D01*
X102669802Y-85772124D01*
X102661317Y-85765253D01*
X102658500Y-85762501D01*
X102648044Y-85750672D01*
X102639466Y-85735433D01*
X102632583Y-85712781D01*
X102627206Y-85678713D01*
X102623152Y-85629227D01*
X102620233Y-85560320D01*
X102618264Y-85467988D01*
X102617059Y-85348230D01*
X102616432Y-85197041D01*
X102616197Y-85010420D01*
X102616167Y-84850942D01*
X102616660Y-84639528D01*
X102618087Y-84449597D01*
X102620369Y-84284622D01*
X102623430Y-84148075D01*
X102627191Y-84043428D01*
X102631575Y-83974152D01*
X102636502Y-83943720D01*
X102636525Y-83943679D01*
X102670538Y-83908089D01*
X102715900Y-83881938D01*
X102752430Y-83869604D01*
X102823377Y-83847733D01*
X102923793Y-83817735D01*
X103048731Y-83781017D01*
X103193244Y-83738985D01*
X103352385Y-83693048D01*
X103521206Y-83644612D01*
X103694760Y-83595086D01*
X103868100Y-83545877D01*
X104036279Y-83498392D01*
X104194350Y-83454038D01*
X104337365Y-83414224D01*
X104460377Y-83380357D01*
X104558439Y-83353844D01*
X104626604Y-83336093D01*
X104659924Y-83328510D01*
X104661793Y-83328334D01*
X104687484Y-83323856D01*
X104687919Y-83318697D01*
X104666261Y-83311162D01*
X104607806Y-83293224D01*
X104516488Y-83266029D01*
X104396237Y-83230725D01*
X104250984Y-83188462D01*
X104084660Y-83140385D01*
X103901198Y-83087643D01*
X103704528Y-83031384D01*
X103673683Y-83022585D01*
X103404090Y-82945110D01*
X103175136Y-82878033D01*
X102986885Y-82821373D01*
X102839398Y-82775149D01*
X102732738Y-82739380D01*
X102666965Y-82714087D01*
X102642625Y-82700093D01*
X102631634Y-82668644D01*
X102623748Y-82606432D01*
X102618748Y-82510124D01*
X102616409Y-82376387D01*
X102616167Y-82302740D01*
X102615624Y-82165685D01*
X102613381Y-82061746D01*
X102608516Y-81981711D01*
X102600109Y-81916370D01*
X102587238Y-81856512D01*
X102568983Y-81792926D01*
X102563404Y-81775160D01*
X102534916Y-81683666D01*
X102508408Y-81595561D01*
X102489057Y-81528102D01*
X102487249Y-81521417D01*
X102461956Y-81441654D01*
X102430397Y-81360034D01*
X102425646Y-81349250D01*
X102402296Y-81288327D01*
X102374507Y-81202388D01*
X102347441Y-81107649D01*
X102341437Y-81084667D01*
X102316976Y-80990454D01*
X102293103Y-80900965D01*
X102274134Y-80832314D01*
X102270601Y-80820084D01*
X102260973Y-80764590D01*
X102253462Y-80675717D01*
X102248592Y-80562389D01*
X102246890Y-80433529D01*
X102246922Y-80417917D01*
G37*
X102246922Y-80417917D02*
X102247905Y-80292143D01*
X102250791Y-80197588D01*
X102257071Y-80123138D01*
X102268236Y-80057681D01*
X102285779Y-79990104D01*
X102311190Y-79909293D01*
X102317946Y-79888750D01*
X102355653Y-79784403D01*
X102398612Y-79680766D01*
X102440019Y-79593728D01*
X102458457Y-79560667D01*
X102494729Y-79508399D01*
X102548937Y-79439469D01*
X102615237Y-79360342D01*
X102687781Y-79277487D01*
X102760723Y-79197367D01*
X102828218Y-79126451D01*
X102884419Y-79071203D01*
X102923481Y-79038091D01*
X102936884Y-79031500D01*
X102963699Y-79020616D01*
X103014498Y-78992081D01*
X103078206Y-78952125D01*
X103165430Y-78895082D01*
X103225499Y-78856431D01*
X103266582Y-78831236D01*
X103296850Y-78814559D01*
X103324471Y-78801465D01*
X103335834Y-78796463D01*
X103395013Y-78770299D01*
X103452250Y-78744571D01*
X103571606Y-78696222D01*
X103721039Y-78644748D01*
X103888828Y-78593749D01*
X104063253Y-78546823D01*
X104203667Y-78513767D01*
X104324459Y-78486388D01*
X104451259Y-78455877D01*
X104577410Y-78424037D01*
X104696257Y-78392672D01*
X104801144Y-78363584D01*
X104885414Y-78338575D01*
X104942412Y-78319449D01*
X104965482Y-78308007D01*
X104965667Y-78307385D01*
X104948617Y-78292245D01*
X104936128Y-78290667D01*
X104910757Y-78285179D01*
X104848353Y-78269390D01*
X104752679Y-78244310D01*
X104627495Y-78210951D01*
X104476563Y-78170324D01*
X104303645Y-78123441D01*
X104112502Y-78071311D01*
X103906896Y-78014948D01*
X103756086Y-77973435D01*
X103498225Y-77902086D01*
X103278549Y-77840719D01*
X103094318Y-77788497D01*
X102942789Y-77744585D01*
X102821220Y-77708144D01*
X102726870Y-77678341D01*
X102656997Y-77654337D01*
X102608859Y-77635298D01*
X102579713Y-77620387D01*
X102568542Y-77611256D01*
X102558131Y-77595412D01*
X102549857Y-77572850D01*
X102543480Y-77538948D01*
X102538757Y-77489082D01*
X102535447Y-77418628D01*
X102533309Y-77322962D01*
X102532102Y-77197463D01*
X102531583Y-77037505D01*
X102531500Y-76901906D01*
X102531609Y-76716390D01*
X102532122Y-76568560D01*
X102533318Y-76453772D01*
X102535474Y-76367377D01*
X102538868Y-76304729D01*
X102543780Y-76261182D01*
X102550488Y-76232090D01*
X102559269Y-76212806D01*
X102570402Y-76198684D01*
X102573833Y-76195167D01*
X102637542Y-76160130D01*
X102695863Y-76152834D01*
X102724253Y-76159474D01*
X102789340Y-76178642D01*
X102887752Y-76209209D01*
X103016116Y-76250049D01*
X103171059Y-76300031D01*
X103349208Y-76358029D01*
X103547191Y-76422913D01*
X103761634Y-76493556D01*
X103989165Y-76568830D01*
X104226411Y-76647606D01*
X104469999Y-76728756D01*
X104716557Y-76811153D01*
X104962711Y-76893666D01*
X105205090Y-76975170D01*
X105440319Y-77054535D01*
X105665027Y-77130632D01*
X105875840Y-77202335D01*
X106069385Y-77268515D01*
X106242291Y-77328043D01*
X106391184Y-77379791D01*
X106512690Y-77422632D01*
X106603439Y-77455437D01*
X106660056Y-77477077D01*
X106676414Y-77484325D01*
X106715971Y-77517274D01*
X106730593Y-77540394D01*
X106733591Y-77568788D01*
X106736347Y-77634538D01*
X106738779Y-77732669D01*
X106740809Y-77858203D01*
X106742354Y-78006164D01*
X106743333Y-78171577D01*
X106743667Y-78345315D01*
X106743559Y-78546911D01*
X106743099Y-78710427D01*
X106742075Y-78840117D01*
X106740282Y-78940234D01*
X106737510Y-79015033D01*
X106733550Y-79068766D01*
X106728195Y-79105687D01*
X106721235Y-79130050D01*
X106712463Y-79146108D01*
X106703951Y-79155883D01*
X106667512Y-79179124D01*
X106601254Y-79209825D01*
X106515912Y-79243302D01*
X106455243Y-79264350D01*
X106366279Y-79294672D01*
X106292097Y-79321928D01*
X106242171Y-79342521D01*
X106226727Y-79351049D01*
X106221735Y-79381955D01*
X106239824Y-79435234D01*
X106241348Y-79438374D01*
X106323416Y-79612588D01*
X106385642Y-79762726D01*
X106432319Y-79899490D01*
X106447435Y-79952250D01*
X106476468Y-80048981D01*
X106509959Y-80145426D01*
X106541079Y-80222041D01*
X106543588Y-80227417D01*
X106562734Y-80275124D01*
X106589099Y-80350545D01*
X106619892Y-80444531D01*
X106652320Y-80547932D01*
X106683591Y-80651598D01*
X106710913Y-80746379D01*
X106731494Y-80823125D01*
X106742541Y-80872685D01*
X106743667Y-80883102D01*
X106726209Y-80899134D01*
X106683342Y-80921287D01*
X106674875Y-80924904D01*
X106547927Y-80977052D01*
X106432315Y-81023433D01*
X106334231Y-81061656D01*
X106259863Y-81089329D01*
X106215403Y-81104061D01*
X106206603Y-81105834D01*
X106173376Y-81113384D01*
X106113071Y-81133643D01*
X106034428Y-81163024D01*
X105946183Y-81197941D01*
X105857075Y-81234805D01*
X105775843Y-81270029D01*
X105711224Y-81300028D01*
X105671957Y-81321214D01*
X105664167Y-81328503D01*
X105671411Y-81357070D01*
X105690716Y-81414368D01*
X105718446Y-81489810D01*
X105729671Y-81519067D01*
X105768516Y-81621459D01*
X105808954Y-81731649D01*
X105842620Y-81826820D01*
X105844382Y-81831965D01*
X105893589Y-81976012D01*
X105842378Y-81996006D01*
X105780383Y-82020202D01*
X105737660Y-82036868D01*
X105696171Y-82046873D01*
X105673480Y-82028472D01*
X105665252Y-82010409D01*
X105650930Y-81973514D01*
X105625088Y-81905979D01*
X105591146Y-81816775D01*
X105552524Y-81714871D01*
X105544477Y-81693593D01*
X105442604Y-81424102D01*
X105399927Y-81473635D01*
X105372526Y-81503903D01*
X105321140Y-81559268D01*
X105250979Y-81634168D01*
X105167254Y-81723044D01*
X105075176Y-81820336D01*
X105060917Y-81835364D01*
X104970694Y-81931425D01*
X104890883Y-82018320D01*
X104825994Y-82090983D01*
X104780536Y-82144344D01*
X104759020Y-82173335D01*
X104757974Y-82175815D01*
X104769056Y-82198437D01*
X104789724Y-82201926D01*
X104819079Y-82207400D01*
X104883474Y-82223926D01*
X104977527Y-82249973D01*
X105095857Y-82284009D01*
X105233083Y-82324504D01*
X105383824Y-82369928D01*
X105431334Y-82384427D01*
X105682834Y-82461472D01*
X105896904Y-82527257D01*
X106076623Y-82582820D01*
X106225067Y-82629198D01*
X106345315Y-82667430D01*
X106440444Y-82698555D01*
X106513532Y-82723609D01*
X106567656Y-82743632D01*
X106605895Y-82759662D01*
X106631325Y-82772736D01*
X106647026Y-82783893D01*
X106656074Y-82794172D01*
X106658592Y-82798404D01*
X106665426Y-82832527D01*
X106671161Y-82904584D01*
X106675627Y-83010188D01*
X106678656Y-83144951D01*
X106680079Y-83304484D01*
X106680167Y-83358692D01*
X106680309Y-83529485D01*
X106679361Y-83663193D01*
X106675260Y-83765055D01*
X106665946Y-83840307D01*
X106649355Y-83894188D01*
X106623428Y-83931934D01*
X106586100Y-83958785D01*
X106535312Y-83979977D01*
X106469001Y-84000748D01*
X106421854Y-84014899D01*
X106359613Y-84033803D01*
X106262991Y-84063066D01*
X106138140Y-84100827D01*
X105991213Y-84145227D01*
X105828361Y-84194407D01*
X105655736Y-84246508D01*
X105525640Y-84285753D01*
X104805029Y-84503084D01*
X105699205Y-84496733D01*
X105917134Y-84495236D01*
X106096677Y-84494235D01*
X106241779Y-84493887D01*
X106356389Y-84494347D01*
X106444450Y-84495772D01*
X106509910Y-84498317D01*
X106556715Y-84502138D01*
X106588810Y-84507391D01*
X106610142Y-84514232D01*
X106624657Y-84522817D01*
X106636300Y-84533301D01*
X106636774Y-84533775D01*
X106649724Y-84548464D01*
X106659806Y-84566910D01*
X106667378Y-84594184D01*
X106672799Y-84635358D01*
X106676427Y-84695503D01*
X106678619Y-84779692D01*
X106679733Y-84892996D01*
X106680127Y-85040487D01*
X106680167Y-85148667D01*
X106680022Y-85319489D01*
X106679356Y-85453039D01*
X106677820Y-85554378D01*
X106675064Y-85628566D01*
X106670739Y-85680665D01*
X106664496Y-85715735D01*
X106655987Y-85738838D01*
X106644863Y-85755034D01*
X106637833Y-85762500D01*
X106629897Y-85769696D01*
X106619645Y-85776026D01*
X106604474Y-85781547D01*
X106581780Y-85786313D01*
X106548958Y-85790380D01*
X106503405Y-85793804D01*
X106489667Y-85794443D01*
X106489667Y-85614334D01*
X106489667Y-84680759D01*
X105140292Y-84684266D01*
X104867808Y-84684926D01*
X104634609Y-84685333D01*
X104437651Y-84685408D01*
X104273885Y-84685074D01*
X104140264Y-84684256D01*
X104033743Y-84682874D01*
X103951273Y-84680854D01*
X103889809Y-84678116D01*
X103846304Y-84674585D01*
X103817710Y-84670183D01*
X103800981Y-84664833D01*
X103793070Y-84658458D01*
X103790931Y-84650981D01*
X103790917Y-84650129D01*
X103796363Y-84640867D01*
X103814469Y-84628850D01*
X103847888Y-84613204D01*
X103899274Y-84593053D01*
X103971279Y-84567523D01*
X104066556Y-84535739D01*
X104187758Y-84496828D01*
X104337539Y-84449915D01*
X104518550Y-84394125D01*
X104733446Y-84328583D01*
X104984880Y-84252416D01*
X105135000Y-84207096D01*
X106479084Y-83801709D01*
X106484792Y-83354661D01*
X106490501Y-82907613D01*
X106251959Y-82833740D01*
X106051343Y-82771784D01*
X105848299Y-82709398D01*
X105646967Y-82647828D01*
X105451491Y-82588321D01*
X105266009Y-82532124D01*
X105094665Y-82480484D01*
X104941600Y-82434647D01*
X104810954Y-82395861D01*
X104706869Y-82365373D01*
X104633486Y-82344428D01*
X104594948Y-82334274D01*
X104590433Y-82333501D01*
X104558774Y-82349556D01*
X104548677Y-82362348D01*
X104503362Y-82427741D01*
X104447527Y-82491935D01*
X104390557Y-82545757D01*
X104378034Y-82554567D01*
X104378034Y-82223450D01*
X104541028Y-82050933D01*
X104615911Y-81971654D01*
X104709482Y-81872559D01*
X104811377Y-81764623D01*
X104911234Y-81658823D01*
X104942137Y-81626075D01*
X105039026Y-81521279D01*
X105106081Y-81443693D01*
X105144527Y-81391761D01*
X105155587Y-81363928D01*
X105152334Y-81359036D01*
X105118991Y-81350522D01*
X105055702Y-81341167D01*
X104974775Y-81332712D01*
X104955084Y-81331088D01*
X104851639Y-81322224D01*
X104729025Y-81310588D01*
X104610111Y-81298372D01*
X104584667Y-81295598D01*
X104390775Y-81274932D01*
X104238296Y-81260415D01*
X104126765Y-81252013D01*
X104055715Y-81249692D01*
X104024680Y-81253418D01*
X104023385Y-81254591D01*
X104027868Y-81277737D01*
X104045394Y-81333611D01*
X104073657Y-81415487D01*
X104110351Y-81516638D01*
X104143435Y-81604834D01*
X104190667Y-81729093D01*
X104237103Y-81851347D01*
X104278745Y-81961068D01*
X104311599Y-82047731D01*
X104324826Y-82082683D01*
X104378034Y-82223450D01*
X104378034Y-82554567D01*
X104341834Y-82580035D01*
X104318358Y-82587500D01*
X104295357Y-82582580D01*
X104273942Y-82563460D01*
X104250159Y-82523598D01*
X104220052Y-82456454D01*
X104182554Y-82362878D01*
X104143078Y-82260278D01*
X104105833Y-82160609D01*
X104075763Y-82077247D01*
X104061317Y-82034795D01*
X104039659Y-81976195D01*
X104020551Y-81938695D01*
X104012472Y-81931334D01*
X103984968Y-81938640D01*
X103928654Y-81957953D01*
X103853948Y-81985366D01*
X103771268Y-82016969D01*
X103691030Y-82048855D01*
X103623654Y-82077117D01*
X103622489Y-82077627D01*
X103552011Y-82107509D01*
X103485507Y-82134141D01*
X103473417Y-82138712D01*
X103314123Y-82198503D01*
X103190698Y-82246519D01*
X103098923Y-82284591D01*
X103034579Y-82314550D01*
X102993449Y-82338225D01*
X102972463Y-82356053D01*
X102947210Y-82374674D01*
X102947210Y-82063758D01*
X102974511Y-82061890D01*
X103033489Y-82046456D01*
X103116591Y-82019786D01*
X103216258Y-81984210D01*
X103264710Y-81965835D01*
X103387654Y-81918357D01*
X103514693Y-81869287D01*
X103632044Y-81823951D01*
X103725923Y-81787673D01*
X103738000Y-81783005D01*
X103817874Y-81751822D01*
X103881214Y-81726514D01*
X103918783Y-81710801D01*
X103924984Y-81707731D01*
X103922874Y-81685838D01*
X103908256Y-81637771D01*
X103885923Y-81575991D01*
X103860667Y-81512963D01*
X103837278Y-81461147D01*
X103820550Y-81433007D01*
X103818785Y-81431518D01*
X103788870Y-81429672D01*
X103733468Y-81437898D01*
X103696156Y-81446421D01*
X103637496Y-81458763D01*
X103637496Y-81271107D01*
X103697561Y-81250169D01*
X103757625Y-81229230D01*
X103716371Y-81120657D01*
X103694543Y-81050693D01*
X103689859Y-81004238D01*
X103694442Y-80992759D01*
X103724886Y-80986448D01*
X103796259Y-80986861D01*
X103907705Y-80993936D01*
X104058368Y-81007609D01*
X104247391Y-81027819D01*
X104373000Y-81042361D01*
X104494724Y-81056099D01*
X104627597Y-81069942D01*
X104765022Y-81083331D01*
X104900398Y-81095704D01*
X105027126Y-81106500D01*
X105138606Y-81115159D01*
X105228240Y-81121121D01*
X105289429Y-81123823D01*
X105315571Y-81122707D01*
X105315916Y-81122474D01*
X105314378Y-81098720D01*
X105299941Y-81046393D01*
X105275612Y-80976153D01*
X105271648Y-80965654D01*
X105244173Y-80892136D01*
X105212892Y-80806163D01*
X105181123Y-80717163D01*
X105152184Y-80634564D01*
X105129394Y-80567795D01*
X105116070Y-80526284D01*
X105113981Y-80517707D01*
X105131502Y-80506728D01*
X105176504Y-80485225D01*
X105212647Y-80469306D01*
X105274638Y-80445645D01*
X105313411Y-80444342D01*
X105338739Y-80471083D01*
X105360400Y-80531552D01*
X105368414Y-80559898D01*
X105388097Y-80614394D01*
X105409093Y-80649258D01*
X105413010Y-80652507D01*
X105427350Y-80650291D01*
X105423618Y-80626943D01*
X105411549Y-80587520D01*
X105391437Y-80521526D01*
X105367532Y-80442898D01*
X105366373Y-80439084D01*
X105300394Y-80278140D01*
X105210334Y-80146733D01*
X105099073Y-80048625D01*
X105042572Y-80016204D01*
X104976694Y-79986541D01*
X104921867Y-79971256D01*
X104860641Y-79967560D01*
X104775562Y-79972667D01*
X104771921Y-79972972D01*
X104639834Y-79986725D01*
X104517009Y-80004360D01*
X104412252Y-80024263D01*
X104334369Y-80044818D01*
X104298917Y-80059677D01*
X104246189Y-80083361D01*
X104193818Y-80099446D01*
X104056385Y-80144002D01*
X103917730Y-80211002D01*
X103787012Y-80294103D01*
X103673390Y-80386964D01*
X103586024Y-80483242D01*
X103545996Y-80548024D01*
X103519181Y-80626870D01*
X103510743Y-80719504D01*
X103521118Y-80832290D01*
X103550742Y-80971589D01*
X103583063Y-81087929D01*
X103637496Y-81271107D01*
X103637496Y-81458763D01*
X103627726Y-81460819D01*
X103585833Y-81459962D01*
X103561071Y-81446980D01*
X103542617Y-81417517D01*
X103515454Y-81356438D01*
X103483216Y-81272619D01*
X103449540Y-81174937D01*
X103449050Y-81173436D01*
X103412585Y-81056818D01*
X103388829Y-80965741D01*
X103375205Y-80886271D01*
X103369132Y-80804472D01*
X103367985Y-80735417D01*
X103374400Y-80601956D01*
X103397349Y-80496156D01*
X103441430Y-80405062D01*
X103511239Y-80315720D01*
X103520507Y-80305636D01*
X103590050Y-80243846D01*
X103685665Y-80175748D01*
X103793710Y-80109690D01*
X103900539Y-80054017D01*
X103992000Y-80017232D01*
X104064163Y-79993780D01*
X104125033Y-79972306D01*
X104150750Y-79962068D01*
X104198027Y-79944038D01*
X104268939Y-79920452D01*
X104351709Y-79894811D01*
X104434557Y-79870615D01*
X104505706Y-79851365D01*
X104553377Y-79840563D01*
X104563500Y-79839388D01*
X104598733Y-79837519D01*
X104663524Y-79832808D01*
X104745268Y-79826187D01*
X104764584Y-79824540D01*
X104923112Y-79824740D01*
X105064438Y-79857271D01*
X105202285Y-79925684D01*
X105233340Y-79945790D01*
X105314703Y-80021832D01*
X105394600Y-80139195D01*
X105472533Y-80296876D01*
X105548004Y-80493874D01*
X105617307Y-80717737D01*
X105604093Y-80739947D01*
X105562636Y-80764206D01*
X105548954Y-80769614D01*
X105500318Y-80792292D01*
X105474789Y-80814127D01*
X105473667Y-80818209D01*
X105480992Y-80851433D01*
X105499546Y-80905848D01*
X105524198Y-80968901D01*
X105549815Y-81028040D01*
X105571266Y-81070710D01*
X105582593Y-81084667D01*
X105606542Y-81077435D01*
X105661956Y-81057681D01*
X105740882Y-81028321D01*
X105835367Y-80992269D01*
X105847284Y-80987666D01*
X105963421Y-80943259D01*
X106084752Y-80897718D01*
X106195475Y-80856932D01*
X106267417Y-80831112D01*
X106350028Y-80801829D01*
X106420421Y-80776459D01*
X106466524Y-80759368D01*
X106473792Y-80756516D01*
X106507247Y-80726005D01*
X106502625Y-80684640D01*
X106492414Y-80670859D01*
X106477849Y-80641955D01*
X106456154Y-80583887D01*
X106431602Y-80508260D01*
X106427356Y-80494171D01*
X106401080Y-80412215D01*
X106375106Y-80341527D01*
X106354611Y-80296072D01*
X106352835Y-80293087D01*
X106335312Y-80254971D01*
X106309776Y-80186778D01*
X106280023Y-80099084D01*
X106257060Y-80026334D01*
X106217692Y-79902065D01*
X106180290Y-79796448D01*
X106138174Y-79692110D01*
X106084665Y-79571678D01*
X106069870Y-79539500D01*
X106050730Y-79505265D01*
X106050730Y-79181314D01*
X106286073Y-79103559D01*
X106379975Y-79072224D01*
X106458989Y-79045276D01*
X106514503Y-79025690D01*
X106537583Y-79016640D01*
X106541343Y-78994022D01*
X106544451Y-78934170D01*
X106546828Y-78842176D01*
X106548396Y-78723136D01*
X106549077Y-78582143D01*
X106548791Y-78424291D01*
X106548167Y-78328760D01*
X106542584Y-77650045D01*
X104648167Y-77007314D01*
X104375967Y-76915018D01*
X104115144Y-76826688D01*
X103868490Y-76743263D01*
X103638794Y-76665681D01*
X103428847Y-76594881D01*
X103241440Y-76531803D01*
X103079364Y-76477386D01*
X102945408Y-76432567D01*
X102842363Y-76398287D01*
X102773020Y-76375484D01*
X102740169Y-76365098D01*
X102737875Y-76364542D01*
X102733642Y-76384775D01*
X102729848Y-76441810D01*
X102726649Y-76530117D01*
X102724202Y-76644165D01*
X102722661Y-76778425D01*
X102722181Y-76920125D01*
X102722362Y-77475750D01*
X103679973Y-77739642D01*
X103897160Y-77799251D01*
X104121241Y-77860309D01*
X104344855Y-77920841D01*
X104560643Y-77978871D01*
X104761245Y-78032423D01*
X104939302Y-78079520D01*
X105087454Y-78118188D01*
X105145584Y-78133124D01*
X105328755Y-78180553D01*
X105471520Y-78220098D01*
X105574700Y-78253492D01*
X105639114Y-78282472D01*
X105665581Y-78308771D01*
X105654923Y-78334125D01*
X105607958Y-78360268D01*
X105525508Y-78388935D01*
X105408391Y-78421861D01*
X105295842Y-78451020D01*
X104980433Y-78531389D01*
X105126508Y-78560343D01*
X105314910Y-78613089D01*
X105493374Y-78696160D01*
X105667417Y-78812882D01*
X105842555Y-78966579D01*
X105905073Y-79029662D01*
X106050730Y-79181314D01*
X106050730Y-79505265D01*
X105981785Y-79381944D01*
X105867063Y-79226803D01*
X105733889Y-79082393D01*
X105590448Y-78957030D01*
X105444927Y-78859026D01*
X105357250Y-78815652D01*
X105230018Y-78764199D01*
X105127253Y-78728065D01*
X105035310Y-78704138D01*
X104940544Y-78689306D01*
X104829310Y-78680457D01*
X104747817Y-78676680D01*
X104589454Y-78674148D01*
X104443903Y-78678880D01*
X104324926Y-78690389D01*
X104313900Y-78692072D01*
X104249022Y-78705572D01*
X104158763Y-78728567D01*
X104051237Y-78758542D01*
X103934555Y-78792979D01*
X103816830Y-78829363D01*
X103706174Y-78865177D01*
X103610699Y-78897904D01*
X103538519Y-78925028D01*
X103497745Y-78944033D01*
X103494584Y-78946225D01*
X103459082Y-78964883D01*
X103420500Y-78979039D01*
X103367712Y-79003028D01*
X103308697Y-79040209D01*
X103302086Y-79045129D01*
X103256266Y-79077184D01*
X103224718Y-79094179D01*
X103220782Y-79095000D01*
X103190573Y-79108337D01*
X103137834Y-79143823D01*
X103070935Y-79194675D01*
X102998250Y-79254108D01*
X102928148Y-79315339D01*
X102869002Y-79371583D01*
X102837631Y-79405501D01*
X102781421Y-79472265D01*
X102726855Y-79536988D01*
X102698991Y-79569983D01*
X102634780Y-79664163D01*
X102572013Y-79789559D01*
X102515486Y-79935185D01*
X102469992Y-80090057D01*
X102467475Y-80100417D01*
X102455649Y-80177850D01*
X102448210Y-80284814D01*
X102445169Y-80408734D01*
X102446539Y-80537034D01*
X102452330Y-80657139D01*
X102462555Y-80756473D01*
X102466836Y-80782197D01*
X102481851Y-80844850D01*
X102507452Y-80934950D01*
X102539955Y-81040084D01*
X102573057Y-81140200D01*
X102612146Y-81254486D01*
X102659626Y-81393347D01*
X102710203Y-81541300D01*
X102758583Y-81682861D01*
X102771160Y-81719667D01*
X102809825Y-81829469D01*
X102845193Y-81923695D01*
X102874582Y-81995672D01*
X102895308Y-82038723D01*
X102903173Y-82048075D01*
X102938262Y-82058738D01*
X102947210Y-82063758D01*
X102947210Y-82374674D01*
X102925957Y-82390346D01*
X102871921Y-82410408D01*
X102828293Y-82424011D01*
X102810140Y-82450801D01*
X102806667Y-82500853D01*
X102806667Y-82578247D01*
X103785625Y-82857614D01*
X103991841Y-82916261D01*
X104194155Y-82973420D01*
X104387180Y-83027593D01*
X104565528Y-83077287D01*
X104723812Y-83121003D01*
X104856644Y-83157246D01*
X104958636Y-83184521D01*
X105015855Y-83199238D01*
X105147365Y-83233744D01*
X105239824Y-83263637D01*
X105292852Y-83290648D01*
X105306072Y-83316509D01*
X105279103Y-83342950D01*
X105211569Y-83371705D01*
X105103089Y-83404503D01*
X104963059Y-83440663D01*
X104871766Y-83464073D01*
X104746063Y-83497526D01*
X104592204Y-83539299D01*
X104416441Y-83587664D01*
X104225030Y-83640897D01*
X104024223Y-83697272D01*
X103820275Y-83755064D01*
X103727417Y-83781566D01*
X102817250Y-84041949D01*
X102811701Y-84828142D01*
X102806152Y-85614334D01*
X106489667Y-85614334D01*
X106489667Y-85794443D01*
X106442517Y-85796639D01*
X106363689Y-85798942D01*
X106264318Y-85800767D01*
X106141800Y-85802171D01*
X105993531Y-85803208D01*
X105816907Y-85803933D01*
X105609324Y-85804403D01*
X105368177Y-85804673D01*
X105090864Y-85804797D01*
X104774780Y-85804832D01*
X104648167Y-85804834D01*
X104317157Y-85804818D01*
X104025877Y-85804732D01*
X103771722Y-85804523D01*
X103552089Y-85804133D01*
X103364373Y-85803508D01*
X103205971Y-85802592D01*
X103074278Y-85801330D01*
X102966691Y-85799666D01*
X102880605Y-85797546D01*
X102813417Y-85794913D01*
X102762523Y-85791712D01*
X102725318Y-85787888D01*
X102699199Y-85783386D01*
X102681562Y-85778149D01*
X102669802Y-85772124D01*
X102661317Y-85765253D01*
X102658500Y-85762501D01*
X102648044Y-85750672D01*
X102639466Y-85735433D01*
X102632583Y-85712781D01*
X102627206Y-85678713D01*
X102623152Y-85629227D01*
X102620233Y-85560320D01*
X102618264Y-85467988D01*
X102617059Y-85348230D01*
X102616432Y-85197041D01*
X102616197Y-85010420D01*
X102616167Y-84850942D01*
X102616660Y-84639528D01*
X102618087Y-84449597D01*
X102620369Y-84284622D01*
X102623430Y-84148075D01*
X102627191Y-84043428D01*
X102631575Y-83974152D01*
X102636502Y-83943720D01*
X102636525Y-83943679D01*
X102670538Y-83908089D01*
X102715900Y-83881938D01*
X102752430Y-83869604D01*
X102823377Y-83847733D01*
X102923793Y-83817735D01*
X103048731Y-83781017D01*
X103193244Y-83738985D01*
X103352385Y-83693048D01*
X103521206Y-83644612D01*
X103694760Y-83595086D01*
X103868100Y-83545877D01*
X104036279Y-83498392D01*
X104194350Y-83454038D01*
X104337365Y-83414224D01*
X104460377Y-83380357D01*
X104558439Y-83353844D01*
X104626604Y-83336093D01*
X104659924Y-83328510D01*
X104661793Y-83328334D01*
X104687484Y-83323856D01*
X104687919Y-83318697D01*
X104666261Y-83311162D01*
X104607806Y-83293224D01*
X104516488Y-83266029D01*
X104396237Y-83230725D01*
X104250984Y-83188462D01*
X104084660Y-83140385D01*
X103901198Y-83087643D01*
X103704528Y-83031384D01*
X103673683Y-83022585D01*
X103404090Y-82945110D01*
X103175136Y-82878033D01*
X102986885Y-82821373D01*
X102839398Y-82775149D01*
X102732738Y-82739380D01*
X102666965Y-82714087D01*
X102642625Y-82700093D01*
X102631634Y-82668644D01*
X102623748Y-82606432D01*
X102618748Y-82510124D01*
X102616409Y-82376387D01*
X102616167Y-82302740D01*
X102615624Y-82165685D01*
X102613381Y-82061746D01*
X102608516Y-81981711D01*
X102600109Y-81916370D01*
X102587238Y-81856512D01*
X102568983Y-81792926D01*
X102563404Y-81775160D01*
X102534916Y-81683666D01*
X102508408Y-81595561D01*
X102489057Y-81528102D01*
X102487249Y-81521417D01*
X102461956Y-81441654D01*
X102430397Y-81360034D01*
X102425646Y-81349250D01*
X102402296Y-81288327D01*
X102374507Y-81202388D01*
X102347441Y-81107649D01*
X102341437Y-81084667D01*
X102316976Y-80990454D01*
X102293103Y-80900965D01*
X102274134Y-80832314D01*
X102270601Y-80820084D01*
X102260973Y-80764590D01*
X102253462Y-80675717D01*
X102248592Y-80562389D01*
X102246890Y-80433529D01*
X102246922Y-80417917D01*
D14*
%TO.C,S1*%
X116488880Y-73887000D02*
G75*
G03*
X116488880Y-73887000I-102880J0D01*
G01*
D15*
X120046000Y-75748000D02*
X117446000Y-75748000D01*
X113021000Y-75748000D02*
X115071000Y-75748000D01*
X108046000Y-75748000D02*
X110646000Y-75748000D01*
X113021000Y-87748000D02*
X115071000Y-87748000D01*
X108046000Y-87748000D02*
X110646000Y-87748000D01*
X120046000Y-87748000D02*
X117446000Y-87748000D01*
X120046000Y-75748000D02*
X120046000Y-87748000D01*
X108046000Y-87748000D02*
X108046000Y-75748000D01*
D14*
%TO.C,S2*%
X131728880Y-73887000D02*
G75*
G03*
X131728880Y-73887000I-102880J0D01*
G01*
D15*
X135286000Y-75748000D02*
X132686000Y-75748000D01*
X128261000Y-75748000D02*
X130311000Y-75748000D01*
X123286000Y-75748000D02*
X125886000Y-75748000D01*
X128261000Y-87748000D02*
X130311000Y-87748000D01*
X123286000Y-87748000D02*
X125886000Y-87748000D01*
X135286000Y-87748000D02*
X132686000Y-87748000D01*
X135286000Y-75748000D02*
X135286000Y-87748000D01*
X123286000Y-87748000D02*
X123286000Y-75748000D01*
D16*
%TO.C,U1*%
X107180000Y-43900000D02*
X107180000Y-30200000D01*
X107180000Y-43900000D02*
X134870000Y-43900000D01*
X134870000Y-43900000D02*
X134870000Y-30200000D01*
X134870000Y-30200000D02*
X107180000Y-30200000D01*
D15*
%TO.C,R14*%
X119096000Y-67411000D02*
X119096000Y-68461000D01*
%TO.C,R13*%
X119000000Y-60975000D02*
X119000000Y-62025000D01*
%TO.C,R10*%
X132697000Y-47204000D02*
X133747000Y-47204000D01*
%TO.C,R9*%
X131681000Y-54824000D02*
X132731000Y-54824000D01*
%TO.C,R8*%
X124569000Y-47204000D02*
X125619000Y-47204000D01*
%TO.C,R7*%
X123553000Y-54824000D02*
X124603000Y-54824000D01*
%TO.C,R6*%
X116441000Y-47204000D02*
X117491000Y-47204000D01*
%TO.C,R5*%
X115425000Y-54824000D02*
X116475000Y-54824000D01*
%TO.C,R4*%
X108313000Y-47204000D02*
X109363000Y-47204000D01*
%TO.C,R3*%
X123351000Y-62509000D02*
X122301000Y-62509000D01*
%TO.C,R2*%
X138015000Y-62764000D02*
X139065000Y-62764000D01*
%TO.C,R1*%
X107297000Y-54824000D02*
X108347000Y-54824000D01*
%TO.C,Q5*%
X120601000Y-62959000D02*
X120601000Y-64209000D01*
X117636000Y-64559000D02*
X120556000Y-64559000D01*
X117636000Y-64709000D02*
X117636000Y-64559000D01*
X120556000Y-64709000D02*
X117636000Y-64709000D01*
X120556000Y-64559000D02*
X120556000Y-64709000D01*
%TO.C,Q4*%
X131717000Y-52689000D02*
X131717000Y-51439000D01*
X134682000Y-51089000D02*
X131762000Y-51089000D01*
X134682000Y-50939000D02*
X134682000Y-51089000D01*
X131762000Y-50939000D02*
X134682000Y-50939000D01*
X131762000Y-51089000D02*
X131762000Y-50939000D01*
%TO.C,Q3*%
X123589000Y-52689000D02*
X123589000Y-51439000D01*
X126554000Y-51089000D02*
X123634000Y-51089000D01*
X126554000Y-50939000D02*
X126554000Y-51089000D01*
X123634000Y-50939000D02*
X126554000Y-50939000D01*
X123634000Y-51089000D02*
X123634000Y-50939000D01*
%TO.C,Q2*%
X115461000Y-52689000D02*
X115461000Y-51439000D01*
X118426000Y-51089000D02*
X115506000Y-51089000D01*
X118426000Y-50939000D02*
X118426000Y-51089000D01*
X115506000Y-50939000D02*
X118426000Y-50939000D01*
X115506000Y-51089000D02*
X115506000Y-50939000D01*
%TO.C,Q1*%
X107333000Y-52689000D02*
X107333000Y-51439000D01*
X110298000Y-51089000D02*
X107378000Y-51089000D01*
X110298000Y-50939000D02*
X110298000Y-51089000D01*
X107378000Y-50939000D02*
X110298000Y-50939000D01*
X107378000Y-51089000D02*
X107378000Y-50939000D01*
D17*
%TO.C,LS1*%
X103000000Y-65300000D02*
X103000000Y-65300000D01*
X115000000Y-65300000D02*
X115000000Y-65300000D01*
X115000000Y-65300000D02*
G75*
G02*
X103000000Y-65300000I-6000000J0D01*
G01*
X103000000Y-65300000D02*
G75*
G02*
X115000000Y-65300000I6000000J0D01*
G01*
D15*
%TO.C,LED1*%
X123842000Y-68217000D02*
X123842000Y-65492000D01*
X121742000Y-68217000D02*
X123842000Y-68217000D01*
X121742000Y-65492000D02*
X121742000Y-68217000D01*
%TO.C,J1*%
X128900000Y-35994000D02*
X114680000Y-35994000D01*
X128900000Y-38634000D02*
X128900000Y-35994000D01*
X113160000Y-38634000D02*
X128900000Y-38634000D01*
X113160000Y-37314000D02*
X113160000Y-38634000D01*
%TO.C,IC1*%
X137066000Y-61076000D02*
X137066000Y-67876000D01*
X137066000Y-67876000D02*
X124266000Y-67876000D01*
X124266000Y-67876000D02*
X124266000Y-61076000D01*
X124266000Y-61076000D02*
X137066000Y-61076000D01*
X137056000Y-58876000D02*
X137056000Y-60726000D01*
%TO.C,S1*%
D14*
X114436238Y-82916095D02*
X114488619Y-82758952D01*
X114488619Y-82497047D01*
X114436238Y-82392285D01*
X114383857Y-82339904D01*
X114279095Y-82287523D01*
X114174333Y-82287523D01*
X114069571Y-82339904D01*
X114017190Y-82392285D01*
X113964809Y-82497047D01*
X113912428Y-82706571D01*
X113860047Y-82811333D01*
X113807666Y-82863714D01*
X113702904Y-82916095D01*
X113598142Y-82916095D01*
X113493380Y-82863714D01*
X113441000Y-82811333D01*
X113388619Y-82706571D01*
X113388619Y-82444666D01*
X113441000Y-82287523D01*
X114488619Y-81239904D02*
X114488619Y-81868476D01*
X114488619Y-81554190D02*
X113388619Y-81554190D01*
X113545761Y-81658952D01*
X113650523Y-81763714D01*
X113702904Y-81868476D01*
%TO.C,S2*%
X129676238Y-82916095D02*
X129728619Y-82758952D01*
X129728619Y-82497047D01*
X129676238Y-82392285D01*
X129623857Y-82339904D01*
X129519095Y-82287523D01*
X129414333Y-82287523D01*
X129309571Y-82339904D01*
X129257190Y-82392285D01*
X129204809Y-82497047D01*
X129152428Y-82706571D01*
X129100047Y-82811333D01*
X129047666Y-82863714D01*
X128942904Y-82916095D01*
X128838142Y-82916095D01*
X128733380Y-82863714D01*
X128681000Y-82811333D01*
X128628619Y-82706571D01*
X128628619Y-82444666D01*
X128681000Y-82287523D01*
X128733380Y-81868476D02*
X128681000Y-81816095D01*
X128628619Y-81711333D01*
X128628619Y-81449428D01*
X128681000Y-81344666D01*
X128733380Y-81292285D01*
X128838142Y-81239904D01*
X128942904Y-81239904D01*
X129100047Y-81292285D01*
X129728619Y-81920857D01*
X129728619Y-81239904D01*
%TO.C,U1*%
D18*
X121511904Y-36797619D02*
X121511904Y-37688095D01*
X121564285Y-37792857D01*
X121616666Y-37845238D01*
X121721428Y-37897619D01*
X121930952Y-37897619D01*
X122035714Y-37845238D01*
X122088095Y-37792857D01*
X122140476Y-37688095D01*
X122140476Y-36797619D01*
X123240476Y-37897619D02*
X122611904Y-37897619D01*
X122926190Y-37897619D02*
X122926190Y-36797619D01*
X122821428Y-36954761D01*
X122716666Y-37059523D01*
X122611904Y-37111904D01*
%TO.C,R14*%
D14*
X118388857Y-70497619D02*
X118022190Y-69973809D01*
X117760285Y-70497619D02*
X117760285Y-69397619D01*
X118179333Y-69397619D01*
X118284095Y-69450000D01*
X118336476Y-69502380D01*
X118388857Y-69607142D01*
X118388857Y-69764285D01*
X118336476Y-69869047D01*
X118284095Y-69921428D01*
X118179333Y-69973809D01*
X117760285Y-69973809D01*
X119436476Y-70497619D02*
X118807904Y-70497619D01*
X119122190Y-70497619D02*
X119122190Y-69397619D01*
X119017428Y-69554761D01*
X118912666Y-69659523D01*
X118807904Y-69711904D01*
X120379333Y-69764285D02*
X120379333Y-70497619D01*
X120117428Y-69345238D02*
X119855523Y-70130952D01*
X120536476Y-70130952D01*
%TO.C,R13*%
X118292857Y-60497619D02*
X117926190Y-59973809D01*
X117664285Y-60497619D02*
X117664285Y-59397619D01*
X118083333Y-59397619D01*
X118188095Y-59450000D01*
X118240476Y-59502380D01*
X118292857Y-59607142D01*
X118292857Y-59764285D01*
X118240476Y-59869047D01*
X118188095Y-59921428D01*
X118083333Y-59973809D01*
X117664285Y-59973809D01*
X119340476Y-60497619D02*
X118711904Y-60497619D01*
X119026190Y-60497619D02*
X119026190Y-59397619D01*
X118921428Y-59554761D01*
X118816666Y-59659523D01*
X118711904Y-59711904D01*
X119707142Y-59397619D02*
X120388095Y-59397619D01*
X120021428Y-59816666D01*
X120178571Y-59816666D01*
X120283333Y-59869047D01*
X120335714Y-59921428D01*
X120388095Y-60026190D01*
X120388095Y-60288095D01*
X120335714Y-60392857D01*
X120283333Y-60445238D01*
X120178571Y-60497619D01*
X119864285Y-60497619D01*
X119759523Y-60445238D01*
X119707142Y-60392857D01*
%TO.C,R10*%
X131497619Y-47911142D02*
X130973809Y-48277809D01*
X131497619Y-48539714D02*
X130397619Y-48539714D01*
X130397619Y-48120666D01*
X130450000Y-48015904D01*
X130502380Y-47963523D01*
X130607142Y-47911142D01*
X130764285Y-47911142D01*
X130869047Y-47963523D01*
X130921428Y-48015904D01*
X130973809Y-48120666D01*
X130973809Y-48539714D01*
X131497619Y-46863523D02*
X131497619Y-47492095D01*
X131497619Y-47177809D02*
X130397619Y-47177809D01*
X130554761Y-47282571D01*
X130659523Y-47387333D01*
X130711904Y-47492095D01*
X130397619Y-46182571D02*
X130397619Y-46077809D01*
X130450000Y-45973047D01*
X130502380Y-45920666D01*
X130607142Y-45868285D01*
X130816666Y-45815904D01*
X131078571Y-45815904D01*
X131288095Y-45868285D01*
X131392857Y-45920666D01*
X131445238Y-45973047D01*
X131497619Y-46077809D01*
X131497619Y-46182571D01*
X131445238Y-46287333D01*
X131392857Y-46339714D01*
X131288095Y-46392095D01*
X131078571Y-46444476D01*
X130816666Y-46444476D01*
X130607142Y-46392095D01*
X130502380Y-46339714D01*
X130450000Y-46287333D01*
X130397619Y-46182571D01*
%TO.C,R9*%
X130497619Y-55007333D02*
X129973809Y-55374000D01*
X130497619Y-55635904D02*
X129397619Y-55635904D01*
X129397619Y-55216857D01*
X129450000Y-55112095D01*
X129502380Y-55059714D01*
X129607142Y-55007333D01*
X129764285Y-55007333D01*
X129869047Y-55059714D01*
X129921428Y-55112095D01*
X129973809Y-55216857D01*
X129973809Y-55635904D01*
X130497619Y-54483523D02*
X130497619Y-54274000D01*
X130445238Y-54169238D01*
X130392857Y-54116857D01*
X130235714Y-54012095D01*
X130026190Y-53959714D01*
X129607142Y-53959714D01*
X129502380Y-54012095D01*
X129450000Y-54064476D01*
X129397619Y-54169238D01*
X129397619Y-54378761D01*
X129450000Y-54483523D01*
X129502380Y-54535904D01*
X129607142Y-54588285D01*
X129869047Y-54588285D01*
X129973809Y-54535904D01*
X130026190Y-54483523D01*
X130078571Y-54378761D01*
X130078571Y-54169238D01*
X130026190Y-54064476D01*
X129973809Y-54012095D01*
X129869047Y-53959714D01*
%TO.C,R8*%
X123497619Y-47387333D02*
X122973809Y-47754000D01*
X123497619Y-48015904D02*
X122397619Y-48015904D01*
X122397619Y-47596857D01*
X122450000Y-47492095D01*
X122502380Y-47439714D01*
X122607142Y-47387333D01*
X122764285Y-47387333D01*
X122869047Y-47439714D01*
X122921428Y-47492095D01*
X122973809Y-47596857D01*
X122973809Y-48015904D01*
X122869047Y-46758761D02*
X122816666Y-46863523D01*
X122764285Y-46915904D01*
X122659523Y-46968285D01*
X122607142Y-46968285D01*
X122502380Y-46915904D01*
X122450000Y-46863523D01*
X122397619Y-46758761D01*
X122397619Y-46549238D01*
X122450000Y-46444476D01*
X122502380Y-46392095D01*
X122607142Y-46339714D01*
X122659523Y-46339714D01*
X122764285Y-46392095D01*
X122816666Y-46444476D01*
X122869047Y-46549238D01*
X122869047Y-46758761D01*
X122921428Y-46863523D01*
X122973809Y-46915904D01*
X123078571Y-46968285D01*
X123288095Y-46968285D01*
X123392857Y-46915904D01*
X123445238Y-46863523D01*
X123497619Y-46758761D01*
X123497619Y-46549238D01*
X123445238Y-46444476D01*
X123392857Y-46392095D01*
X123288095Y-46339714D01*
X123078571Y-46339714D01*
X122973809Y-46392095D01*
X122921428Y-46444476D01*
X122869047Y-46549238D01*
%TO.C,R7*%
X122497619Y-55007333D02*
X121973809Y-55374000D01*
X122497619Y-55635904D02*
X121397619Y-55635904D01*
X121397619Y-55216857D01*
X121450000Y-55112095D01*
X121502380Y-55059714D01*
X121607142Y-55007333D01*
X121764285Y-55007333D01*
X121869047Y-55059714D01*
X121921428Y-55112095D01*
X121973809Y-55216857D01*
X121973809Y-55635904D01*
X121397619Y-54640666D02*
X121397619Y-53907333D01*
X122497619Y-54378761D01*
%TO.C,R6*%
X115497619Y-47387333D02*
X114973809Y-47754000D01*
X115497619Y-48015904D02*
X114397619Y-48015904D01*
X114397619Y-47596857D01*
X114450000Y-47492095D01*
X114502380Y-47439714D01*
X114607142Y-47387333D01*
X114764285Y-47387333D01*
X114869047Y-47439714D01*
X114921428Y-47492095D01*
X114973809Y-47596857D01*
X114973809Y-48015904D01*
X114397619Y-46444476D02*
X114397619Y-46654000D01*
X114450000Y-46758761D01*
X114502380Y-46811142D01*
X114659523Y-46915904D01*
X114869047Y-46968285D01*
X115288095Y-46968285D01*
X115392857Y-46915904D01*
X115445238Y-46863523D01*
X115497619Y-46758761D01*
X115497619Y-46549238D01*
X115445238Y-46444476D01*
X115392857Y-46392095D01*
X115288095Y-46339714D01*
X115026190Y-46339714D01*
X114921428Y-46392095D01*
X114869047Y-46444476D01*
X114816666Y-46549238D01*
X114816666Y-46758761D01*
X114869047Y-46863523D01*
X114921428Y-46915904D01*
X115026190Y-46968285D01*
%TO.C,R5*%
X114497619Y-55007333D02*
X113973809Y-55374000D01*
X114497619Y-55635904D02*
X113397619Y-55635904D01*
X113397619Y-55216857D01*
X113450000Y-55112095D01*
X113502380Y-55059714D01*
X113607142Y-55007333D01*
X113764285Y-55007333D01*
X113869047Y-55059714D01*
X113921428Y-55112095D01*
X113973809Y-55216857D01*
X113973809Y-55635904D01*
X113397619Y-54012095D02*
X113397619Y-54535904D01*
X113921428Y-54588285D01*
X113869047Y-54535904D01*
X113816666Y-54431142D01*
X113816666Y-54169238D01*
X113869047Y-54064476D01*
X113921428Y-54012095D01*
X114026190Y-53959714D01*
X114288095Y-53959714D01*
X114392857Y-54012095D01*
X114445238Y-54064476D01*
X114497619Y-54169238D01*
X114497619Y-54431142D01*
X114445238Y-54535904D01*
X114392857Y-54588285D01*
%TO.C,R4*%
X107497619Y-47387333D02*
X106973809Y-47754000D01*
X107497619Y-48015904D02*
X106397619Y-48015904D01*
X106397619Y-47596857D01*
X106450000Y-47492095D01*
X106502380Y-47439714D01*
X106607142Y-47387333D01*
X106764285Y-47387333D01*
X106869047Y-47439714D01*
X106921428Y-47492095D01*
X106973809Y-47596857D01*
X106973809Y-48015904D01*
X106764285Y-46444476D02*
X107497619Y-46444476D01*
X106345238Y-46706380D02*
X107130952Y-46968285D01*
X107130952Y-46287333D01*
%TO.C,R3*%
D15*
X121997619Y-62692333D02*
X121473809Y-63059000D01*
X121997619Y-63320904D02*
X120897619Y-63320904D01*
X120897619Y-62901857D01*
X120950000Y-62797095D01*
X121002380Y-62744714D01*
X121107142Y-62692333D01*
X121264285Y-62692333D01*
X121369047Y-62744714D01*
X121421428Y-62797095D01*
X121473809Y-62901857D01*
X121473809Y-63320904D01*
X120897619Y-62325666D02*
X120897619Y-61644714D01*
X121316666Y-62011380D01*
X121316666Y-61854238D01*
X121369047Y-61749476D01*
X121421428Y-61697095D01*
X121526190Y-61644714D01*
X121788095Y-61644714D01*
X121892857Y-61697095D01*
X121945238Y-61749476D01*
X121997619Y-61854238D01*
X121997619Y-62168523D01*
X121945238Y-62273285D01*
X121892857Y-62325666D01*
%TO.C,R2*%
D14*
X140497619Y-62947333D02*
X139973809Y-63314000D01*
X140497619Y-63575904D02*
X139397619Y-63575904D01*
X139397619Y-63156857D01*
X139450000Y-63052095D01*
X139502380Y-62999714D01*
X139607142Y-62947333D01*
X139764285Y-62947333D01*
X139869047Y-62999714D01*
X139921428Y-63052095D01*
X139973809Y-63156857D01*
X139973809Y-63575904D01*
X139502380Y-62528285D02*
X139450000Y-62475904D01*
X139397619Y-62371142D01*
X139397619Y-62109238D01*
X139450000Y-62004476D01*
X139502380Y-61952095D01*
X139607142Y-61899714D01*
X139711904Y-61899714D01*
X139869047Y-61952095D01*
X140497619Y-62580666D01*
X140497619Y-61899714D01*
%TO.C,R1*%
X106497619Y-55007333D02*
X105973809Y-55374000D01*
X106497619Y-55635904D02*
X105397619Y-55635904D01*
X105397619Y-55216857D01*
X105450000Y-55112095D01*
X105502380Y-55059714D01*
X105607142Y-55007333D01*
X105764285Y-55007333D01*
X105869047Y-55059714D01*
X105921428Y-55112095D01*
X105973809Y-55216857D01*
X105973809Y-55635904D01*
X106497619Y-53959714D02*
X106497619Y-54588285D01*
X106497619Y-54274000D02*
X105397619Y-54274000D01*
X105554761Y-54378761D01*
X105659523Y-54483523D01*
X105711904Y-54588285D01*
%TO.C,Q5*%
X116602380Y-64738761D02*
X116550000Y-64843523D01*
X116445238Y-64948285D01*
X116288095Y-65105428D01*
X116235714Y-65210190D01*
X116235714Y-65314952D01*
X116497619Y-65262571D02*
X116445238Y-65367333D01*
X116340476Y-65472095D01*
X116130952Y-65524476D01*
X115764285Y-65524476D01*
X115554761Y-65472095D01*
X115450000Y-65367333D01*
X115397619Y-65262571D01*
X115397619Y-65053047D01*
X115450000Y-64948285D01*
X115554761Y-64843523D01*
X115764285Y-64791142D01*
X116130952Y-64791142D01*
X116340476Y-64843523D01*
X116445238Y-64948285D01*
X116497619Y-65053047D01*
X116497619Y-65262571D01*
X115397619Y-63795904D02*
X115397619Y-64319714D01*
X115921428Y-64372095D01*
X115869047Y-64319714D01*
X115816666Y-64214952D01*
X115816666Y-63953047D01*
X115869047Y-63848285D01*
X115921428Y-63795904D01*
X116026190Y-63743523D01*
X116288095Y-63743523D01*
X116392857Y-63795904D01*
X116445238Y-63848285D01*
X116497619Y-63953047D01*
X116497619Y-64214952D01*
X116445238Y-64319714D01*
X116392857Y-64372095D01*
%TO.C,Q4*%
X136516780Y-51194961D02*
X136464400Y-51299723D01*
X136359638Y-51404485D01*
X136202495Y-51561628D01*
X136150114Y-51666390D01*
X136150114Y-51771152D01*
X136412019Y-51718771D02*
X136359638Y-51823533D01*
X136254876Y-51928295D01*
X136045352Y-51980676D01*
X135678685Y-51980676D01*
X135469161Y-51928295D01*
X135364400Y-51823533D01*
X135312019Y-51718771D01*
X135312019Y-51509247D01*
X135364400Y-51404485D01*
X135469161Y-51299723D01*
X135678685Y-51247342D01*
X136045352Y-51247342D01*
X136254876Y-51299723D01*
X136359638Y-51404485D01*
X136412019Y-51509247D01*
X136412019Y-51718771D01*
X135678685Y-50304485D02*
X136412019Y-50304485D01*
X135259638Y-50566390D02*
X136045352Y-50828295D01*
X136045352Y-50147342D01*
%TO.C,Q3*%
X128388780Y-51093361D02*
X128336400Y-51198123D01*
X128231638Y-51302885D01*
X128074495Y-51460028D01*
X128022114Y-51564790D01*
X128022114Y-51669552D01*
X128284019Y-51617171D02*
X128231638Y-51721933D01*
X128126876Y-51826695D01*
X127917352Y-51879076D01*
X127550685Y-51879076D01*
X127341161Y-51826695D01*
X127236400Y-51721933D01*
X127184019Y-51617171D01*
X127184019Y-51407647D01*
X127236400Y-51302885D01*
X127341161Y-51198123D01*
X127550685Y-51145742D01*
X127917352Y-51145742D01*
X128126876Y-51198123D01*
X128231638Y-51302885D01*
X128284019Y-51407647D01*
X128284019Y-51617171D01*
X127184019Y-50779076D02*
X127184019Y-50098123D01*
X127603066Y-50464790D01*
X127603066Y-50307647D01*
X127655447Y-50202885D01*
X127707828Y-50150504D01*
X127812590Y-50098123D01*
X128074495Y-50098123D01*
X128179257Y-50150504D01*
X128231638Y-50202885D01*
X128284019Y-50307647D01*
X128284019Y-50621933D01*
X128231638Y-50726695D01*
X128179257Y-50779076D01*
%TO.C,Q2*%
X120286180Y-51160961D02*
X120233800Y-51265723D01*
X120129038Y-51370485D01*
X119971895Y-51527628D01*
X119919514Y-51632390D01*
X119919514Y-51737152D01*
X120181419Y-51684771D02*
X120129038Y-51789533D01*
X120024276Y-51894295D01*
X119814752Y-51946676D01*
X119448085Y-51946676D01*
X119238561Y-51894295D01*
X119133800Y-51789533D01*
X119081419Y-51684771D01*
X119081419Y-51475247D01*
X119133800Y-51370485D01*
X119238561Y-51265723D01*
X119448085Y-51213342D01*
X119814752Y-51213342D01*
X120024276Y-51265723D01*
X120129038Y-51370485D01*
X120181419Y-51475247D01*
X120181419Y-51684771D01*
X119186180Y-50794295D02*
X119133800Y-50741914D01*
X119081419Y-50637152D01*
X119081419Y-50375247D01*
X119133800Y-50270485D01*
X119186180Y-50218104D01*
X119290942Y-50165723D01*
X119395704Y-50165723D01*
X119552847Y-50218104D01*
X120181419Y-50846676D01*
X120181419Y-50165723D01*
%TO.C,Q1*%
X112122580Y-51000361D02*
X112070200Y-51105123D01*
X111965438Y-51209885D01*
X111808295Y-51367028D01*
X111755914Y-51471790D01*
X111755914Y-51576552D01*
X112017819Y-51524171D02*
X111965438Y-51628933D01*
X111860676Y-51733695D01*
X111651152Y-51786076D01*
X111284485Y-51786076D01*
X111074961Y-51733695D01*
X110970200Y-51628933D01*
X110917819Y-51524171D01*
X110917819Y-51314647D01*
X110970200Y-51209885D01*
X111074961Y-51105123D01*
X111284485Y-51052742D01*
X111651152Y-51052742D01*
X111860676Y-51105123D01*
X111965438Y-51209885D01*
X112017819Y-51314647D01*
X112017819Y-51524171D01*
X112017819Y-50005123D02*
X112017819Y-50633695D01*
X112017819Y-50319409D02*
X110917819Y-50319409D01*
X111074961Y-50424171D01*
X111179723Y-50528933D01*
X111232104Y-50633695D01*
%TO.C,LED1*%
D15*
X121997619Y-67672952D02*
X121997619Y-68196761D01*
X120897619Y-68196761D01*
X121421428Y-67306285D02*
X121421428Y-66939619D01*
X121997619Y-66782476D02*
X121997619Y-67306285D01*
X120897619Y-67306285D01*
X120897619Y-66782476D01*
X121997619Y-66311047D02*
X120897619Y-66311047D01*
X120897619Y-66049142D01*
X120950000Y-65892000D01*
X121054761Y-65787238D01*
X121159523Y-65734857D01*
X121369047Y-65682476D01*
X121526190Y-65682476D01*
X121735714Y-65734857D01*
X121840476Y-65787238D01*
X121945238Y-65892000D01*
X121997619Y-66049142D01*
X121997619Y-66311047D01*
X121997619Y-64634857D02*
X121997619Y-65263428D01*
X121997619Y-64949142D02*
X120897619Y-64949142D01*
X121054761Y-65053904D01*
X121159523Y-65158666D01*
X121211904Y-65263428D01*
%TO.C,J1*%
D14*
X114313333Y-36711619D02*
X114313333Y-37497333D01*
X114260952Y-37654476D01*
X114156190Y-37759238D01*
X113999047Y-37811619D01*
X113894285Y-37811619D01*
X115413333Y-37811619D02*
X114784761Y-37811619D01*
X115099047Y-37811619D02*
X115099047Y-36711619D01*
X114994285Y-36868761D01*
X114889523Y-36973523D01*
X114784761Y-37025904D01*
%TO.C,C1*%
X140392857Y-66437333D02*
X140445238Y-66489714D01*
X140497619Y-66646857D01*
X140497619Y-66751619D01*
X140445238Y-66908761D01*
X140340476Y-67013523D01*
X140235714Y-67065904D01*
X140026190Y-67118285D01*
X139869047Y-67118285D01*
X139659523Y-67065904D01*
X139554761Y-67013523D01*
X139450000Y-66908761D01*
X139397619Y-66751619D01*
X139397619Y-66646857D01*
X139450000Y-66489714D01*
X139502380Y-66437333D01*
X140497619Y-65389714D02*
X140497619Y-66018285D01*
X140497619Y-65704000D02*
X139397619Y-65704000D01*
X139554761Y-65808761D01*
X139659523Y-65913523D01*
X139711904Y-66018285D01*
%TD*%
M02*
