%TF.GenerationSoftware,KiCad,Pcbnew,(5.1.10)-1*%
%TF.CreationDate,2021-07-01T22:54:37+02:00*%
%TF.ProjectId,BytesCounter,42797465-7343-46f7-956e-7465722e6b69,rev?*%
%TF.SameCoordinates,Original*%
%TF.FileFunction,Soldermask,Top*%
%TF.FilePolarity,Negative*%
%FSLAX46Y46*%
G04 Gerber Fmt 4.6, Leading zero omitted, Abs format (unit mm)*
G04 Created by KiCad (PCBNEW (5.1.10)-1) date 2021-07-01 22:54:37*
%MOMM*%
%LPD*%
G01*
G04 APERTURE LIST*
%ADD10C,1.850000*%
%ADD11C,1.950000*%
%ADD12C,1.500000*%
%ADD13R,1.500000X1.500000*%
%ADD14R,1.000000X1.400000*%
%ADD15R,1.400000X1.000000*%
%ADD16R,0.600000X1.250000*%
%ADD17C,1.300000*%
%ADD18R,1.400000X0.950000*%
%ADD19C,1.725000*%
%ADD20R,1.725000X1.725000*%
%ADD21R,0.650000X1.850000*%
%ADD22R,1.470000X1.050000*%
G04 APERTURE END LIST*
D10*
%TO.C,S1*%
X111796000Y-87998000D03*
X111796000Y-75498000D03*
X116296000Y-87998000D03*
X116296000Y-75498000D03*
%TD*%
%TO.C,S2*%
X127036000Y-87998000D03*
X127036000Y-75498000D03*
X131536000Y-87998000D03*
X131536000Y-75498000D03*
%TD*%
D11*
%TO.C,U2*%
X121000000Y-51500000D03*
X121000000Y-71500000D03*
%TD*%
D12*
%TO.C,U1*%
X114680000Y-31980000D03*
X117220000Y-31980000D03*
X119760000Y-31980000D03*
X122300000Y-31980000D03*
X124840000Y-31980000D03*
X127380000Y-31980000D03*
X127380000Y-42140000D03*
X124840000Y-42140000D03*
X122300000Y-42140000D03*
X119760000Y-42140000D03*
X117220000Y-42140000D03*
D13*
X114680000Y-42140000D03*
%TD*%
D14*
%TO.C,R14*%
X120046000Y-67936000D03*
X118146000Y-67936000D03*
%TD*%
%TO.C,R13*%
X119950000Y-61500000D03*
X118050000Y-61500000D03*
%TD*%
D15*
%TO.C,R10*%
X133222000Y-46254000D03*
X133222000Y-48154000D03*
%TD*%
%TO.C,R9*%
X132206000Y-53874000D03*
X132206000Y-55774000D03*
%TD*%
%TO.C,R8*%
X125094000Y-46254000D03*
X125094000Y-48154000D03*
%TD*%
%TO.C,R7*%
X124078000Y-53874000D03*
X124078000Y-55774000D03*
%TD*%
%TO.C,R6*%
X116966000Y-46254000D03*
X116966000Y-48154000D03*
%TD*%
%TO.C,R5*%
X115950000Y-53874000D03*
X115950000Y-55774000D03*
%TD*%
%TO.C,R4*%
X108838000Y-46254000D03*
X108838000Y-48154000D03*
%TD*%
%TO.C,R3*%
X122826000Y-63459000D03*
X122826000Y-61559000D03*
%TD*%
%TO.C,R2*%
X138540000Y-61814000D03*
X138540000Y-63714000D03*
%TD*%
%TO.C,R1*%
X107822000Y-53874000D03*
X107822000Y-55774000D03*
%TD*%
D16*
%TO.C,Q5*%
X119096000Y-65684000D03*
X118141000Y-63584000D03*
X120051000Y-63584000D03*
%TD*%
%TO.C,Q4*%
X133222000Y-49964000D03*
X134177000Y-52064000D03*
X132267000Y-52064000D03*
%TD*%
%TO.C,Q3*%
X125094000Y-49964000D03*
X126049000Y-52064000D03*
X124139000Y-52064000D03*
%TD*%
%TO.C,Q2*%
X116966000Y-49964000D03*
X117921000Y-52064000D03*
X116011000Y-52064000D03*
%TD*%
%TO.C,Q1*%
X108838000Y-49964000D03*
X109793000Y-52064000D03*
X107883000Y-52064000D03*
%TD*%
D17*
%TO.C,LS1*%
X109000000Y-69100000D03*
X109000000Y-61500000D03*
%TD*%
D18*
%TO.C,LED1*%
X122792000Y-65492000D03*
X122792000Y-67392000D03*
%TD*%
D19*
%TO.C,J1*%
X127380000Y-37314000D03*
X124840000Y-37314000D03*
X122300000Y-37314000D03*
X119760000Y-37314000D03*
X117220000Y-37314000D03*
D20*
X114680000Y-37314000D03*
%TD*%
D21*
%TO.C,IC1*%
X136381000Y-69151000D03*
X135111000Y-69151000D03*
X133841000Y-69151000D03*
X132571000Y-69151000D03*
X131301000Y-69151000D03*
X130031000Y-69151000D03*
X128761000Y-69151000D03*
X127491000Y-69151000D03*
X126221000Y-69151000D03*
X124951000Y-69151000D03*
X124951000Y-59801000D03*
X126221000Y-59801000D03*
X127491000Y-59801000D03*
X128761000Y-59801000D03*
X130031000Y-59801000D03*
X131301000Y-59801000D03*
X132571000Y-59801000D03*
X133841000Y-59801000D03*
X135111000Y-59801000D03*
X136381000Y-59801000D03*
%TD*%
D22*
%TO.C,C1*%
X138540000Y-67094000D03*
X138540000Y-65414000D03*
%TD*%
M02*
