%TF.GenerationSoftware,KiCad,Pcbnew,(5.1.10)-1*%
%TF.CreationDate,2021-09-07T17:28:15+02:00*%
%TF.ProjectId,BytesCounter,42797465-7343-46f7-956e-7465722e6b69,rev?*%
%TF.SameCoordinates,Original*%
%TF.FileFunction,Soldermask,Top*%
%TF.FilePolarity,Negative*%
%FSLAX46Y46*%
G04 Gerber Fmt 4.6, Leading zero omitted, Abs format (unit mm)*
G04 Created by KiCad (PCBNEW (5.1.10)-1) date 2021-09-07 17:28:15*
%MOMM*%
%LPD*%
G01*
G04 APERTURE LIST*
%ADD10C,1.500000*%
%ADD11R,1.500000X1.500000*%
%ADD12R,1.400000X0.900000*%
%ADD13C,1.550000*%
%ADD14C,0.889000*%
%ADD15R,1.075000X0.500000*%
%ADD16C,1.850000*%
%ADD17C,2.200000*%
%ADD18R,1.000000X1.400000*%
%ADD19R,1.400000X1.000000*%
%ADD20R,0.600000X1.250000*%
%ADD21R,1.050000X1.470000*%
%ADD22R,1.470000X1.050000*%
G04 APERTURE END LIST*
D10*
%TO.C,U1*%
X114430000Y-32230000D03*
X116970000Y-32230000D03*
X119510000Y-32230000D03*
X122050000Y-32230000D03*
X124590000Y-32230000D03*
X127130000Y-32230000D03*
X127130000Y-42390000D03*
X124590000Y-42390000D03*
X122050000Y-42390000D03*
X119510000Y-42390000D03*
X116970000Y-42390000D03*
D11*
X114430000Y-42390000D03*
%TD*%
D12*
%TO.C,LED1*%
X121792000Y-64992000D03*
X121792000Y-66892000D03*
%TD*%
D13*
%TO.C,J1*%
X135468000Y-65040000D03*
X137500000Y-65040000D03*
X136484000Y-59960000D03*
D14*
X137119000Y-63770000D03*
X135849000Y-63770000D03*
X137119000Y-62500000D03*
X135849000Y-62500000D03*
X137119000Y-61230000D03*
X135849000Y-61230000D03*
%TD*%
%TO.C,IC1*%
G36*
G01*
X133216000Y-65276000D02*
X133466000Y-65276000D01*
G75*
G02*
X133591000Y-65401000I0J-125000D01*
G01*
X133591000Y-67051000D01*
G75*
G02*
X133466000Y-67176000I-125000J0D01*
G01*
X133216000Y-67176000D01*
G75*
G02*
X133091000Y-67051000I0J125000D01*
G01*
X133091000Y-65401000D01*
G75*
G02*
X133216000Y-65276000I125000J0D01*
G01*
G37*
G36*
G01*
X132566000Y-65276000D02*
X132816000Y-65276000D01*
G75*
G02*
X132941000Y-65401000I0J-125000D01*
G01*
X132941000Y-67051000D01*
G75*
G02*
X132816000Y-67176000I-125000J0D01*
G01*
X132566000Y-67176000D01*
G75*
G02*
X132441000Y-67051000I0J125000D01*
G01*
X132441000Y-65401000D01*
G75*
G02*
X132566000Y-65276000I125000J0D01*
G01*
G37*
G36*
G01*
X131916000Y-65276000D02*
X132166000Y-65276000D01*
G75*
G02*
X132291000Y-65401000I0J-125000D01*
G01*
X132291000Y-67051000D01*
G75*
G02*
X132166000Y-67176000I-125000J0D01*
G01*
X131916000Y-67176000D01*
G75*
G02*
X131791000Y-67051000I0J125000D01*
G01*
X131791000Y-65401000D01*
G75*
G02*
X131916000Y-65276000I125000J0D01*
G01*
G37*
G36*
G01*
X131266000Y-65276000D02*
X131516000Y-65276000D01*
G75*
G02*
X131641000Y-65401000I0J-125000D01*
G01*
X131641000Y-67051000D01*
G75*
G02*
X131516000Y-67176000I-125000J0D01*
G01*
X131266000Y-67176000D01*
G75*
G02*
X131141000Y-67051000I0J125000D01*
G01*
X131141000Y-65401000D01*
G75*
G02*
X131266000Y-65276000I125000J0D01*
G01*
G37*
G36*
G01*
X130616000Y-65276000D02*
X130866000Y-65276000D01*
G75*
G02*
X130991000Y-65401000I0J-125000D01*
G01*
X130991000Y-67051000D01*
G75*
G02*
X130866000Y-67176000I-125000J0D01*
G01*
X130616000Y-67176000D01*
G75*
G02*
X130491000Y-67051000I0J125000D01*
G01*
X130491000Y-65401000D01*
G75*
G02*
X130616000Y-65276000I125000J0D01*
G01*
G37*
G36*
G01*
X129966000Y-65276000D02*
X130216000Y-65276000D01*
G75*
G02*
X130341000Y-65401000I0J-125000D01*
G01*
X130341000Y-67051000D01*
G75*
G02*
X130216000Y-67176000I-125000J0D01*
G01*
X129966000Y-67176000D01*
G75*
G02*
X129841000Y-67051000I0J125000D01*
G01*
X129841000Y-65401000D01*
G75*
G02*
X129966000Y-65276000I125000J0D01*
G01*
G37*
G36*
G01*
X129316000Y-65276000D02*
X129566000Y-65276000D01*
G75*
G02*
X129691000Y-65401000I0J-125000D01*
G01*
X129691000Y-67051000D01*
G75*
G02*
X129566000Y-67176000I-125000J0D01*
G01*
X129316000Y-67176000D01*
G75*
G02*
X129191000Y-67051000I0J125000D01*
G01*
X129191000Y-65401000D01*
G75*
G02*
X129316000Y-65276000I125000J0D01*
G01*
G37*
G36*
G01*
X128666000Y-65276000D02*
X128916000Y-65276000D01*
G75*
G02*
X129041000Y-65401000I0J-125000D01*
G01*
X129041000Y-67051000D01*
G75*
G02*
X128916000Y-67176000I-125000J0D01*
G01*
X128666000Y-67176000D01*
G75*
G02*
X128541000Y-67051000I0J125000D01*
G01*
X128541000Y-65401000D01*
G75*
G02*
X128666000Y-65276000I125000J0D01*
G01*
G37*
G36*
G01*
X128016000Y-65276000D02*
X128266000Y-65276000D01*
G75*
G02*
X128391000Y-65401000I0J-125000D01*
G01*
X128391000Y-67051000D01*
G75*
G02*
X128266000Y-67176000I-125000J0D01*
G01*
X128016000Y-67176000D01*
G75*
G02*
X127891000Y-67051000I0J125000D01*
G01*
X127891000Y-65401000D01*
G75*
G02*
X128016000Y-65276000I125000J0D01*
G01*
G37*
G36*
G01*
X127366000Y-65276000D02*
X127616000Y-65276000D01*
G75*
G02*
X127741000Y-65401000I0J-125000D01*
G01*
X127741000Y-67051000D01*
G75*
G02*
X127616000Y-67176000I-125000J0D01*
G01*
X127366000Y-67176000D01*
G75*
G02*
X127241000Y-67051000I0J125000D01*
G01*
X127241000Y-65401000D01*
G75*
G02*
X127366000Y-65276000I125000J0D01*
G01*
G37*
G36*
G01*
X127366000Y-58276000D02*
X127616000Y-58276000D01*
G75*
G02*
X127741000Y-58401000I0J-125000D01*
G01*
X127741000Y-60051000D01*
G75*
G02*
X127616000Y-60176000I-125000J0D01*
G01*
X127366000Y-60176000D01*
G75*
G02*
X127241000Y-60051000I0J125000D01*
G01*
X127241000Y-58401000D01*
G75*
G02*
X127366000Y-58276000I125000J0D01*
G01*
G37*
G36*
G01*
X128016000Y-58276000D02*
X128266000Y-58276000D01*
G75*
G02*
X128391000Y-58401000I0J-125000D01*
G01*
X128391000Y-60051000D01*
G75*
G02*
X128266000Y-60176000I-125000J0D01*
G01*
X128016000Y-60176000D01*
G75*
G02*
X127891000Y-60051000I0J125000D01*
G01*
X127891000Y-58401000D01*
G75*
G02*
X128016000Y-58276000I125000J0D01*
G01*
G37*
G36*
G01*
X128666000Y-58276000D02*
X128916000Y-58276000D01*
G75*
G02*
X129041000Y-58401000I0J-125000D01*
G01*
X129041000Y-60051000D01*
G75*
G02*
X128916000Y-60176000I-125000J0D01*
G01*
X128666000Y-60176000D01*
G75*
G02*
X128541000Y-60051000I0J125000D01*
G01*
X128541000Y-58401000D01*
G75*
G02*
X128666000Y-58276000I125000J0D01*
G01*
G37*
G36*
G01*
X129316000Y-58276000D02*
X129566000Y-58276000D01*
G75*
G02*
X129691000Y-58401000I0J-125000D01*
G01*
X129691000Y-60051000D01*
G75*
G02*
X129566000Y-60176000I-125000J0D01*
G01*
X129316000Y-60176000D01*
G75*
G02*
X129191000Y-60051000I0J125000D01*
G01*
X129191000Y-58401000D01*
G75*
G02*
X129316000Y-58276000I125000J0D01*
G01*
G37*
G36*
G01*
X129966000Y-58276000D02*
X130216000Y-58276000D01*
G75*
G02*
X130341000Y-58401000I0J-125000D01*
G01*
X130341000Y-60051000D01*
G75*
G02*
X130216000Y-60176000I-125000J0D01*
G01*
X129966000Y-60176000D01*
G75*
G02*
X129841000Y-60051000I0J125000D01*
G01*
X129841000Y-58401000D01*
G75*
G02*
X129966000Y-58276000I125000J0D01*
G01*
G37*
G36*
G01*
X130616000Y-58276000D02*
X130866000Y-58276000D01*
G75*
G02*
X130991000Y-58401000I0J-125000D01*
G01*
X130991000Y-60051000D01*
G75*
G02*
X130866000Y-60176000I-125000J0D01*
G01*
X130616000Y-60176000D01*
G75*
G02*
X130491000Y-60051000I0J125000D01*
G01*
X130491000Y-58401000D01*
G75*
G02*
X130616000Y-58276000I125000J0D01*
G01*
G37*
G36*
G01*
X131266000Y-58276000D02*
X131516000Y-58276000D01*
G75*
G02*
X131641000Y-58401000I0J-125000D01*
G01*
X131641000Y-60051000D01*
G75*
G02*
X131516000Y-60176000I-125000J0D01*
G01*
X131266000Y-60176000D01*
G75*
G02*
X131141000Y-60051000I0J125000D01*
G01*
X131141000Y-58401000D01*
G75*
G02*
X131266000Y-58276000I125000J0D01*
G01*
G37*
G36*
G01*
X131916000Y-58276000D02*
X132166000Y-58276000D01*
G75*
G02*
X132291000Y-58401000I0J-125000D01*
G01*
X132291000Y-60051000D01*
G75*
G02*
X132166000Y-60176000I-125000J0D01*
G01*
X131916000Y-60176000D01*
G75*
G02*
X131791000Y-60051000I0J125000D01*
G01*
X131791000Y-58401000D01*
G75*
G02*
X131916000Y-58276000I125000J0D01*
G01*
G37*
G36*
G01*
X132566000Y-58276000D02*
X132816000Y-58276000D01*
G75*
G02*
X132941000Y-58401000I0J-125000D01*
G01*
X132941000Y-60051000D01*
G75*
G02*
X132816000Y-60176000I-125000J0D01*
G01*
X132566000Y-60176000D01*
G75*
G02*
X132441000Y-60051000I0J125000D01*
G01*
X132441000Y-58401000D01*
G75*
G02*
X132566000Y-58276000I125000J0D01*
G01*
G37*
G36*
G01*
X133216000Y-58276000D02*
X133466000Y-58276000D01*
G75*
G02*
X133591000Y-58401000I0J-125000D01*
G01*
X133591000Y-60051000D01*
G75*
G02*
X133466000Y-60176000I-125000J0D01*
G01*
X133216000Y-60176000D01*
G75*
G02*
X133091000Y-60051000I0J125000D01*
G01*
X133091000Y-58401000D01*
G75*
G02*
X133216000Y-58276000I125000J0D01*
G01*
G37*
%TD*%
D15*
%TO.C,D2*%
X130750000Y-69982000D03*
X133074000Y-69982000D03*
%TD*%
%TO.C,D1*%
X123574000Y-73250000D03*
X121250000Y-73250000D03*
%TD*%
D16*
%TO.C,S1*%
X111546000Y-88248000D03*
X111546000Y-75748000D03*
X116046000Y-88248000D03*
X116046000Y-75748000D03*
%TD*%
%TO.C,S2*%
X126786000Y-88248000D03*
X126786000Y-75748000D03*
X131286000Y-88248000D03*
X131286000Y-75748000D03*
%TD*%
D17*
%TO.C,U2*%
X120750000Y-49750000D03*
X120750000Y-69750000D03*
%TD*%
D18*
%TO.C,R16*%
X130615666Y-72232000D03*
X132515666Y-72232000D03*
%TD*%
%TO.C,R15*%
X128676332Y-69982000D03*
X126776332Y-69982000D03*
%TD*%
%TO.C,R14*%
X118296000Y-67686000D03*
X116396000Y-67686000D03*
%TD*%
%TO.C,R13*%
X118200000Y-61250000D03*
X116300000Y-61250000D03*
%TD*%
%TO.C,R12*%
X115567000Y-73250000D03*
X113667000Y-73250000D03*
%TD*%
%TO.C,R11*%
X109722000Y-73250000D03*
X111622000Y-73250000D03*
%TD*%
D19*
%TO.C,R10*%
X132972000Y-46504000D03*
X132972000Y-48404000D03*
%TD*%
%TO.C,R9*%
X131956000Y-54124000D03*
X131956000Y-56024000D03*
%TD*%
%TO.C,R8*%
X124844000Y-46504000D03*
X124844000Y-48404000D03*
%TD*%
%TO.C,R7*%
X123828000Y-54124000D03*
X123828000Y-56024000D03*
%TD*%
%TO.C,R6*%
X116716000Y-46504000D03*
X116716000Y-48404000D03*
%TD*%
%TO.C,R5*%
X115700000Y-54124000D03*
X115700000Y-56024000D03*
%TD*%
%TO.C,R4*%
X108588000Y-46504000D03*
X108588000Y-48404000D03*
%TD*%
%TO.C,R3*%
X121826000Y-62959000D03*
X121826000Y-61059000D03*
%TD*%
%TO.C,R2*%
X124290000Y-60814000D03*
X124290000Y-62714000D03*
%TD*%
%TO.C,R1*%
X107572000Y-54124000D03*
X107572000Y-56024000D03*
%TD*%
D20*
%TO.C,Q5*%
X117346000Y-65434000D03*
X116391000Y-63334000D03*
X118301000Y-63334000D03*
%TD*%
%TO.C,Q4*%
X132972000Y-50214000D03*
X133927000Y-52314000D03*
X132017000Y-52314000D03*
%TD*%
%TO.C,Q3*%
X124844000Y-50214000D03*
X125799000Y-52314000D03*
X123889000Y-52314000D03*
%TD*%
%TO.C,Q2*%
X116716000Y-50214000D03*
X117671000Y-52314000D03*
X115761000Y-52314000D03*
%TD*%
%TO.C,Q1*%
X108588000Y-50214000D03*
X109543000Y-52314000D03*
X107633000Y-52314000D03*
%TD*%
D10*
%TO.C,LS1*%
X108750000Y-69350000D03*
X108750000Y-61750000D03*
%TD*%
D21*
%TO.C,C3*%
X128680000Y-72232000D03*
X127000000Y-72232000D03*
%TD*%
%TO.C,C2*%
X119217000Y-73250000D03*
X117537000Y-73250000D03*
%TD*%
D22*
%TO.C,C1*%
X124290000Y-66094000D03*
X124290000Y-64414000D03*
%TD*%
M02*
