%TF.GenerationSoftware,KiCad,Pcbnew,(5.1.10)-1*%
%TF.CreationDate,2021-09-07T17:28:15+02:00*%
%TF.ProjectId,BytesCounter,42797465-7343-46f7-956e-7465722e6b69,rev?*%
%TF.SameCoordinates,Original*%
%TF.FileFunction,Copper,L1,Top*%
%TF.FilePolarity,Positive*%
%FSLAX46Y46*%
G04 Gerber Fmt 4.6, Leading zero omitted, Abs format (unit mm)*
G04 Created by KiCad (PCBNEW (5.1.10)-1) date 2021-09-07 17:28:15*
%MOMM*%
%LPD*%
G01*
G04 APERTURE LIST*
%TA.AperFunction,ComponentPad*%
%ADD10C,1.500000*%
%TD*%
%TA.AperFunction,ComponentPad*%
%ADD11R,1.500000X1.500000*%
%TD*%
%TA.AperFunction,SMDPad,CuDef*%
%ADD12R,1.400000X0.900000*%
%TD*%
%TA.AperFunction,ComponentPad*%
%ADD13C,1.550000*%
%TD*%
%TA.AperFunction,SMDPad,CuDef*%
%ADD14C,0.889000*%
%TD*%
%TA.AperFunction,SMDPad,CuDef*%
%ADD15R,1.075000X0.500000*%
%TD*%
%TA.AperFunction,ComponentPad*%
%ADD16C,1.850000*%
%TD*%
%TA.AperFunction,ComponentPad*%
%ADD17C,2.200000*%
%TD*%
%TA.AperFunction,SMDPad,CuDef*%
%ADD18R,1.000000X1.400000*%
%TD*%
%TA.AperFunction,SMDPad,CuDef*%
%ADD19R,1.400000X1.000000*%
%TD*%
%TA.AperFunction,SMDPad,CuDef*%
%ADD20R,0.600000X1.250000*%
%TD*%
%TA.AperFunction,SMDPad,CuDef*%
%ADD21R,1.050000X1.470000*%
%TD*%
%TA.AperFunction,SMDPad,CuDef*%
%ADD22R,1.470000X1.050000*%
%TD*%
%TA.AperFunction,ViaPad*%
%ADD23C,3.750000*%
%TD*%
%TA.AperFunction,ViaPad*%
%ADD24C,0.800000*%
%TD*%
%TA.AperFunction,Conductor*%
%ADD25C,0.250000*%
%TD*%
%TA.AperFunction,Conductor*%
%ADD26C,0.200000*%
%TD*%
%TA.AperFunction,NonConductor*%
%ADD27C,0.254000*%
%TD*%
%TA.AperFunction,NonConductor*%
%ADD28C,0.100000*%
%TD*%
G04 APERTURE END LIST*
D10*
%TO.P,U1,12*%
%TO.N,/CC_1*%
X114430000Y-32230000D03*
%TO.P,U1,11*%
%TO.N,/D_a*%
X116970000Y-32230000D03*
%TO.P,U1,10*%
%TO.N,/D_f*%
X119510000Y-32230000D03*
%TO.P,U1,9*%
%TO.N,/CC_2*%
X122050000Y-32230000D03*
%TO.P,U1,8*%
%TO.N,/CC_3*%
X124590000Y-32230000D03*
%TO.P,U1,7*%
%TO.N,/D_b*%
X127130000Y-32230000D03*
%TO.P,U1,6*%
%TO.N,/CC_4*%
X127130000Y-42390000D03*
%TO.P,U1,5*%
%TO.N,/D_g*%
X124590000Y-42390000D03*
%TO.P,U1,4*%
%TO.N,/D_c*%
X122050000Y-42390000D03*
%TO.P,U1,3*%
%TO.N,/D_dp*%
X119510000Y-42390000D03*
%TO.P,U1,2*%
%TO.N,/D_d*%
X116970000Y-42390000D03*
D11*
%TO.P,U1,1*%
%TO.N,/D_e*%
X114430000Y-42390000D03*
%TD*%
D12*
%TO.P,LED1,2*%
%TO.N,Net-(LED1-Pad2)*%
X121792000Y-64992000D03*
%TO.P,LED1,1*%
%TO.N,gnd*%
X121792000Y-66892000D03*
%TD*%
D13*
%TO.P,J1,9*%
%TO.N,N/C*%
X135468000Y-65040000D03*
%TO.P,J1,8*%
X137500000Y-65040000D03*
%TO.P,J1,7*%
X136484000Y-59960000D03*
D14*
%TO.P,J1,6*%
%TO.N,Net-(J1-Pad6)*%
X137119000Y-63770000D03*
%TO.P,J1,5*%
%TO.N,/B_2*%
X135849000Y-63770000D03*
%TO.P,J1,4*%
%TO.N,/B_1*%
X137119000Y-62500000D03*
%TO.P,J1,3*%
%TO.N,gnd*%
X135849000Y-62500000D03*
%TO.P,J1,2*%
%TO.N,+3V*%
X137119000Y-61230000D03*
%TO.P,J1,1*%
%TO.N,/MCLR*%
X135849000Y-61230000D03*
%TD*%
%TO.P,IC1,20*%
%TO.N,gnd*%
%TA.AperFunction,SMDPad,CuDef*%
G36*
G01*
X133216000Y-65276000D02*
X133466000Y-65276000D01*
G75*
G02*
X133591000Y-65401000I0J-125000D01*
G01*
X133591000Y-67051000D01*
G75*
G02*
X133466000Y-67176000I-125000J0D01*
G01*
X133216000Y-67176000D01*
G75*
G02*
X133091000Y-67051000I0J125000D01*
G01*
X133091000Y-65401000D01*
G75*
G02*
X133216000Y-65276000I125000J0D01*
G01*
G37*
%TD.AperFunction*%
%TO.P,IC1,19*%
%TO.N,/B_1*%
%TA.AperFunction,SMDPad,CuDef*%
G36*
G01*
X132566000Y-65276000D02*
X132816000Y-65276000D01*
G75*
G02*
X132941000Y-65401000I0J-125000D01*
G01*
X132941000Y-67051000D01*
G75*
G02*
X132816000Y-67176000I-125000J0D01*
G01*
X132566000Y-67176000D01*
G75*
G02*
X132441000Y-67051000I0J125000D01*
G01*
X132441000Y-65401000D01*
G75*
G02*
X132566000Y-65276000I125000J0D01*
G01*
G37*
%TD.AperFunction*%
%TO.P,IC1,18*%
%TO.N,/B_2*%
%TA.AperFunction,SMDPad,CuDef*%
G36*
G01*
X131916000Y-65276000D02*
X132166000Y-65276000D01*
G75*
G02*
X132291000Y-65401000I0J-125000D01*
G01*
X132291000Y-67051000D01*
G75*
G02*
X132166000Y-67176000I-125000J0D01*
G01*
X131916000Y-67176000D01*
G75*
G02*
X131791000Y-67051000I0J125000D01*
G01*
X131791000Y-65401000D01*
G75*
G02*
X131916000Y-65276000I125000J0D01*
G01*
G37*
%TD.AperFunction*%
%TO.P,IC1,17*%
%TO.N,Net-(IC1-Pad17)*%
%TA.AperFunction,SMDPad,CuDef*%
G36*
G01*
X131266000Y-65276000D02*
X131516000Y-65276000D01*
G75*
G02*
X131641000Y-65401000I0J-125000D01*
G01*
X131641000Y-67051000D01*
G75*
G02*
X131516000Y-67176000I-125000J0D01*
G01*
X131266000Y-67176000D01*
G75*
G02*
X131141000Y-67051000I0J125000D01*
G01*
X131141000Y-65401000D01*
G75*
G02*
X131266000Y-65276000I125000J0D01*
G01*
G37*
%TD.AperFunction*%
%TO.P,IC1,16*%
%TO.N,/D_a*%
%TA.AperFunction,SMDPad,CuDef*%
G36*
G01*
X130616000Y-65276000D02*
X130866000Y-65276000D01*
G75*
G02*
X130991000Y-65401000I0J-125000D01*
G01*
X130991000Y-67051000D01*
G75*
G02*
X130866000Y-67176000I-125000J0D01*
G01*
X130616000Y-67176000D01*
G75*
G02*
X130491000Y-67051000I0J125000D01*
G01*
X130491000Y-65401000D01*
G75*
G02*
X130616000Y-65276000I125000J0D01*
G01*
G37*
%TD.AperFunction*%
%TO.P,IC1,15*%
%TO.N,/D_b*%
%TA.AperFunction,SMDPad,CuDef*%
G36*
G01*
X129966000Y-65276000D02*
X130216000Y-65276000D01*
G75*
G02*
X130341000Y-65401000I0J-125000D01*
G01*
X130341000Y-67051000D01*
G75*
G02*
X130216000Y-67176000I-125000J0D01*
G01*
X129966000Y-67176000D01*
G75*
G02*
X129841000Y-67051000I0J125000D01*
G01*
X129841000Y-65401000D01*
G75*
G02*
X129966000Y-65276000I125000J0D01*
G01*
G37*
%TD.AperFunction*%
%TO.P,IC1,14*%
%TO.N,/D_c*%
%TA.AperFunction,SMDPad,CuDef*%
G36*
G01*
X129316000Y-65276000D02*
X129566000Y-65276000D01*
G75*
G02*
X129691000Y-65401000I0J-125000D01*
G01*
X129691000Y-67051000D01*
G75*
G02*
X129566000Y-67176000I-125000J0D01*
G01*
X129316000Y-67176000D01*
G75*
G02*
X129191000Y-67051000I0J125000D01*
G01*
X129191000Y-65401000D01*
G75*
G02*
X129316000Y-65276000I125000J0D01*
G01*
G37*
%TD.AperFunction*%
%TO.P,IC1,13*%
%TO.N,/C_1*%
%TA.AperFunction,SMDPad,CuDef*%
G36*
G01*
X128666000Y-65276000D02*
X128916000Y-65276000D01*
G75*
G02*
X129041000Y-65401000I0J-125000D01*
G01*
X129041000Y-67051000D01*
G75*
G02*
X128916000Y-67176000I-125000J0D01*
G01*
X128666000Y-67176000D01*
G75*
G02*
X128541000Y-67051000I0J125000D01*
G01*
X128541000Y-65401000D01*
G75*
G02*
X128666000Y-65276000I125000J0D01*
G01*
G37*
%TD.AperFunction*%
%TO.P,IC1,12*%
%TO.N,/C_2*%
%TA.AperFunction,SMDPad,CuDef*%
G36*
G01*
X128016000Y-65276000D02*
X128266000Y-65276000D01*
G75*
G02*
X128391000Y-65401000I0J-125000D01*
G01*
X128391000Y-67051000D01*
G75*
G02*
X128266000Y-67176000I-125000J0D01*
G01*
X128016000Y-67176000D01*
G75*
G02*
X127891000Y-67051000I0J125000D01*
G01*
X127891000Y-65401000D01*
G75*
G02*
X128016000Y-65276000I125000J0D01*
G01*
G37*
%TD.AperFunction*%
%TO.P,IC1,11*%
%TO.N,/C_3*%
%TA.AperFunction,SMDPad,CuDef*%
G36*
G01*
X127366000Y-65276000D02*
X127616000Y-65276000D01*
G75*
G02*
X127741000Y-65401000I0J-125000D01*
G01*
X127741000Y-67051000D01*
G75*
G02*
X127616000Y-67176000I-125000J0D01*
G01*
X127366000Y-67176000D01*
G75*
G02*
X127241000Y-67051000I0J125000D01*
G01*
X127241000Y-65401000D01*
G75*
G02*
X127366000Y-65276000I125000J0D01*
G01*
G37*
%TD.AperFunction*%
%TO.P,IC1,10*%
%TO.N,/C_4*%
%TA.AperFunction,SMDPad,CuDef*%
G36*
G01*
X127366000Y-58276000D02*
X127616000Y-58276000D01*
G75*
G02*
X127741000Y-58401000I0J-125000D01*
G01*
X127741000Y-60051000D01*
G75*
G02*
X127616000Y-60176000I-125000J0D01*
G01*
X127366000Y-60176000D01*
G75*
G02*
X127241000Y-60051000I0J125000D01*
G01*
X127241000Y-58401000D01*
G75*
G02*
X127366000Y-58276000I125000J0D01*
G01*
G37*
%TD.AperFunction*%
%TO.P,IC1,9*%
%TO.N,/D_dp*%
%TA.AperFunction,SMDPad,CuDef*%
G36*
G01*
X128016000Y-58276000D02*
X128266000Y-58276000D01*
G75*
G02*
X128391000Y-58401000I0J-125000D01*
G01*
X128391000Y-60051000D01*
G75*
G02*
X128266000Y-60176000I-125000J0D01*
G01*
X128016000Y-60176000D01*
G75*
G02*
X127891000Y-60051000I0J125000D01*
G01*
X127891000Y-58401000D01*
G75*
G02*
X128016000Y-58276000I125000J0D01*
G01*
G37*
%TD.AperFunction*%
%TO.P,IC1,8*%
%TO.N,/D_g*%
%TA.AperFunction,SMDPad,CuDef*%
G36*
G01*
X128666000Y-58276000D02*
X128916000Y-58276000D01*
G75*
G02*
X129041000Y-58401000I0J-125000D01*
G01*
X129041000Y-60051000D01*
G75*
G02*
X128916000Y-60176000I-125000J0D01*
G01*
X128666000Y-60176000D01*
G75*
G02*
X128541000Y-60051000I0J125000D01*
G01*
X128541000Y-58401000D01*
G75*
G02*
X128666000Y-58276000I125000J0D01*
G01*
G37*
%TD.AperFunction*%
%TO.P,IC1,7*%
%TO.N,/D_d*%
%TA.AperFunction,SMDPad,CuDef*%
G36*
G01*
X129316000Y-58276000D02*
X129566000Y-58276000D01*
G75*
G02*
X129691000Y-58401000I0J-125000D01*
G01*
X129691000Y-60051000D01*
G75*
G02*
X129566000Y-60176000I-125000J0D01*
G01*
X129316000Y-60176000D01*
G75*
G02*
X129191000Y-60051000I0J125000D01*
G01*
X129191000Y-58401000D01*
G75*
G02*
X129316000Y-58276000I125000J0D01*
G01*
G37*
%TD.AperFunction*%
%TO.P,IC1,6*%
%TO.N,/D_e*%
%TA.AperFunction,SMDPad,CuDef*%
G36*
G01*
X129966000Y-58276000D02*
X130216000Y-58276000D01*
G75*
G02*
X130341000Y-58401000I0J-125000D01*
G01*
X130341000Y-60051000D01*
G75*
G02*
X130216000Y-60176000I-125000J0D01*
G01*
X129966000Y-60176000D01*
G75*
G02*
X129841000Y-60051000I0J125000D01*
G01*
X129841000Y-58401000D01*
G75*
G02*
X129966000Y-58276000I125000J0D01*
G01*
G37*
%TD.AperFunction*%
%TO.P,IC1,5*%
%TO.N,/D_f*%
%TA.AperFunction,SMDPad,CuDef*%
G36*
G01*
X130616000Y-58276000D02*
X130866000Y-58276000D01*
G75*
G02*
X130991000Y-58401000I0J-125000D01*
G01*
X130991000Y-60051000D01*
G75*
G02*
X130866000Y-60176000I-125000J0D01*
G01*
X130616000Y-60176000D01*
G75*
G02*
X130491000Y-60051000I0J125000D01*
G01*
X130491000Y-58401000D01*
G75*
G02*
X130616000Y-58276000I125000J0D01*
G01*
G37*
%TD.AperFunction*%
%TO.P,IC1,4*%
%TO.N,/MCLR*%
%TA.AperFunction,SMDPad,CuDef*%
G36*
G01*
X131266000Y-58276000D02*
X131516000Y-58276000D01*
G75*
G02*
X131641000Y-58401000I0J-125000D01*
G01*
X131641000Y-60051000D01*
G75*
G02*
X131516000Y-60176000I-125000J0D01*
G01*
X131266000Y-60176000D01*
G75*
G02*
X131141000Y-60051000I0J125000D01*
G01*
X131141000Y-58401000D01*
G75*
G02*
X131266000Y-58276000I125000J0D01*
G01*
G37*
%TD.AperFunction*%
%TO.P,IC1,3*%
%TO.N,Net-(IC1-Pad3)*%
%TA.AperFunction,SMDPad,CuDef*%
G36*
G01*
X131916000Y-58276000D02*
X132166000Y-58276000D01*
G75*
G02*
X132291000Y-58401000I0J-125000D01*
G01*
X132291000Y-60051000D01*
G75*
G02*
X132166000Y-60176000I-125000J0D01*
G01*
X131916000Y-60176000D01*
G75*
G02*
X131791000Y-60051000I0J125000D01*
G01*
X131791000Y-58401000D01*
G75*
G02*
X131916000Y-58276000I125000J0D01*
G01*
G37*
%TD.AperFunction*%
%TO.P,IC1,2*%
%TO.N,/C_Buzzer*%
%TA.AperFunction,SMDPad,CuDef*%
G36*
G01*
X132566000Y-58276000D02*
X132816000Y-58276000D01*
G75*
G02*
X132941000Y-58401000I0J-125000D01*
G01*
X132941000Y-60051000D01*
G75*
G02*
X132816000Y-60176000I-125000J0D01*
G01*
X132566000Y-60176000D01*
G75*
G02*
X132441000Y-60051000I0J125000D01*
G01*
X132441000Y-58401000D01*
G75*
G02*
X132566000Y-58276000I125000J0D01*
G01*
G37*
%TD.AperFunction*%
%TO.P,IC1,1*%
%TO.N,+3V*%
%TA.AperFunction,SMDPad,CuDef*%
G36*
G01*
X133216000Y-58276000D02*
X133466000Y-58276000D01*
G75*
G02*
X133591000Y-58401000I0J-125000D01*
G01*
X133591000Y-60051000D01*
G75*
G02*
X133466000Y-60176000I-125000J0D01*
G01*
X133216000Y-60176000D01*
G75*
G02*
X133091000Y-60051000I0J125000D01*
G01*
X133091000Y-58401000D01*
G75*
G02*
X133216000Y-58276000I125000J0D01*
G01*
G37*
%TD.AperFunction*%
%TD*%
D15*
%TO.P,D2,2*%
%TO.N,Net-(C3-Pad1)*%
X130750000Y-69982000D03*
%TO.P,D2,1*%
%TO.N,/B_1*%
X133074000Y-69982000D03*
%TD*%
%TO.P,D1,2*%
%TO.N,Net-(C2-Pad1)*%
X123574000Y-73250000D03*
%TO.P,D1,1*%
%TO.N,/B_2*%
X121250000Y-73250000D03*
%TD*%
D16*
%TO.P,S1,4*%
%TO.N,Net-(R11-Pad1)*%
X111546000Y-88248000D03*
%TO.P,S1,3*%
X111546000Y-75748000D03*
%TO.P,S1,2*%
%TO.N,gnd*%
X116046000Y-88248000D03*
%TO.P,S1,1*%
X116046000Y-75748000D03*
%TD*%
%TO.P,S2,4*%
%TO.N,Net-(R15-Pad1)*%
X126786000Y-88248000D03*
%TO.P,S2,3*%
X126786000Y-75748000D03*
%TO.P,S2,2*%
%TO.N,gnd*%
X131286000Y-88248000D03*
%TO.P,S2,1*%
X131286000Y-75748000D03*
%TD*%
D17*
%TO.P,U2,2*%
%TO.N,gnd*%
X120750000Y-49750000D03*
%TO.P,U2,1*%
%TO.N,+3V*%
X120750000Y-69750000D03*
%TD*%
D18*
%TO.P,R16,2*%
%TO.N,Net-(C3-Pad1)*%
X130615666Y-72232000D03*
%TO.P,R16,1*%
%TO.N,Net-(R15-Pad1)*%
X132515666Y-72232000D03*
%TD*%
%TO.P,R15,2*%
%TO.N,+3V*%
X128676332Y-69982000D03*
%TO.P,R15,1*%
%TO.N,Net-(R15-Pad1)*%
X126776332Y-69982000D03*
%TD*%
%TO.P,R14,2*%
%TO.N,Net-(Q5-Pad3)*%
X118296000Y-67686000D03*
%TO.P,R14,1*%
%TO.N,+3V*%
X116396000Y-67686000D03*
%TD*%
%TO.P,R13,2*%
%TO.N,Net-(Q5-Pad1)*%
X118200000Y-61250000D03*
%TO.P,R13,1*%
%TO.N,/C_Buzzer*%
X116300000Y-61250000D03*
%TD*%
%TO.P,R12,2*%
%TO.N,Net-(C2-Pad1)*%
X115567000Y-73250000D03*
%TO.P,R12,1*%
%TO.N,Net-(R11-Pad1)*%
X113667000Y-73250000D03*
%TD*%
%TO.P,R11,2*%
%TO.N,+3V*%
X109722000Y-73250000D03*
%TO.P,R11,1*%
%TO.N,Net-(R11-Pad1)*%
X111622000Y-73250000D03*
%TD*%
D19*
%TO.P,R10,2*%
%TO.N,/CC_4*%
X132972000Y-46504000D03*
%TO.P,R10,1*%
%TO.N,Net-(Q4-Pad3)*%
X132972000Y-48404000D03*
%TD*%
%TO.P,R9,2*%
%TO.N,Net-(Q4-Pad1)*%
X131956000Y-54124000D03*
%TO.P,R9,1*%
%TO.N,/C_4*%
X131956000Y-56024000D03*
%TD*%
%TO.P,R8,2*%
%TO.N,/CC_3*%
X124844000Y-46504000D03*
%TO.P,R8,1*%
%TO.N,Net-(Q3-Pad3)*%
X124844000Y-48404000D03*
%TD*%
%TO.P,R7,2*%
%TO.N,Net-(Q3-Pad1)*%
X123828000Y-54124000D03*
%TO.P,R7,1*%
%TO.N,/C_3*%
X123828000Y-56024000D03*
%TD*%
%TO.P,R6,2*%
%TO.N,/CC_2*%
X116716000Y-46504000D03*
%TO.P,R6,1*%
%TO.N,Net-(Q2-Pad3)*%
X116716000Y-48404000D03*
%TD*%
%TO.P,R5,2*%
%TO.N,Net-(Q2-Pad1)*%
X115700000Y-54124000D03*
%TO.P,R5,1*%
%TO.N,/C_2*%
X115700000Y-56024000D03*
%TD*%
%TO.P,R4,2*%
%TO.N,/CC_1*%
X108588000Y-46504000D03*
%TO.P,R4,1*%
%TO.N,Net-(Q1-Pad3)*%
X108588000Y-48404000D03*
%TD*%
%TO.P,R3,2*%
%TO.N,Net-(LED1-Pad2)*%
X121826000Y-62959000D03*
%TO.P,R3,1*%
%TO.N,Net-(IC1-Pad3)*%
X121826000Y-61059000D03*
%TD*%
%TO.P,R2,2*%
%TO.N,/MCLR*%
X124290000Y-60814000D03*
%TO.P,R2,1*%
%TO.N,+3V*%
X124290000Y-62714000D03*
%TD*%
%TO.P,R1,2*%
%TO.N,Net-(Q1-Pad1)*%
X107572000Y-54124000D03*
%TO.P,R1,1*%
%TO.N,/C_1*%
X107572000Y-56024000D03*
%TD*%
D20*
%TO.P,Q5,3*%
%TO.N,Net-(Q5-Pad3)*%
X117346000Y-65434000D03*
%TO.P,Q5,2*%
%TO.N,Net-(LS1-Pad1)*%
X116391000Y-63334000D03*
%TO.P,Q5,1*%
%TO.N,Net-(Q5-Pad1)*%
X118301000Y-63334000D03*
%TD*%
%TO.P,Q4,3*%
%TO.N,Net-(Q4-Pad3)*%
X132972000Y-50214000D03*
%TO.P,Q4,2*%
%TO.N,gnd*%
X133927000Y-52314000D03*
%TO.P,Q4,1*%
%TO.N,Net-(Q4-Pad1)*%
X132017000Y-52314000D03*
%TD*%
%TO.P,Q3,3*%
%TO.N,Net-(Q3-Pad3)*%
X124844000Y-50214000D03*
%TO.P,Q3,2*%
%TO.N,gnd*%
X125799000Y-52314000D03*
%TO.P,Q3,1*%
%TO.N,Net-(Q3-Pad1)*%
X123889000Y-52314000D03*
%TD*%
%TO.P,Q2,3*%
%TO.N,Net-(Q2-Pad3)*%
X116716000Y-50214000D03*
%TO.P,Q2,2*%
%TO.N,gnd*%
X117671000Y-52314000D03*
%TO.P,Q2,1*%
%TO.N,Net-(Q2-Pad1)*%
X115761000Y-52314000D03*
%TD*%
%TO.P,Q1,3*%
%TO.N,Net-(Q1-Pad3)*%
X108588000Y-50214000D03*
%TO.P,Q1,2*%
%TO.N,gnd*%
X109543000Y-52314000D03*
%TO.P,Q1,1*%
%TO.N,Net-(Q1-Pad1)*%
X107633000Y-52314000D03*
%TD*%
D10*
%TO.P,LS1,2*%
%TO.N,gnd*%
X108750000Y-69350000D03*
%TO.P,LS1,1*%
%TO.N,Net-(LS1-Pad1)*%
X108750000Y-61750000D03*
%TD*%
D21*
%TO.P,C3,2*%
%TO.N,gnd*%
X128680000Y-72232000D03*
%TO.P,C3,1*%
%TO.N,Net-(C3-Pad1)*%
X127000000Y-72232000D03*
%TD*%
%TO.P,C2,2*%
%TO.N,gnd*%
X119217000Y-73250000D03*
%TO.P,C2,1*%
%TO.N,Net-(C2-Pad1)*%
X117537000Y-73250000D03*
%TD*%
D22*
%TO.P,C1,2*%
%TO.N,gnd*%
X124290000Y-66094000D03*
%TO.P,C1,1*%
%TO.N,+3V*%
X124290000Y-64414000D03*
%TD*%
D23*
%TO.N,gnd*%
X138000000Y-29000000D03*
X104000000Y-29000000D03*
X104000000Y-88000000D03*
X138000000Y-88000000D03*
D24*
X114002000Y-75748000D03*
X134750000Y-67250000D03*
X122750000Y-68750000D03*
X112000000Y-51000000D03*
X125750000Y-54000000D03*
X133750000Y-54000000D03*
X121000000Y-76000000D03*
X137250000Y-54250000D03*
%TO.N,+3V*%
X129750000Y-69250000D03*
X127000000Y-67750000D03*
X139000000Y-62750000D03*
%TO.N,/B_2*%
X134512653Y-63762653D03*
X132500000Y-64000000D03*
%TO.N,/B_1*%
X135750000Y-70000000D03*
X138750000Y-70000000D03*
%TO.N,/D_a*%
X130791000Y-62750000D03*
%TO.N,/D_b*%
X130000000Y-61500000D03*
%TO.N,/C_1*%
X120000000Y-57500000D03*
X128750000Y-63000000D03*
%TO.N,/C_2*%
X123500000Y-58750000D03*
X128000000Y-64000000D03*
%TO.N,/C_4*%
X127491000Y-57009000D03*
X131491000Y-57009000D03*
%TO.N,/D_dp*%
X126000000Y-41000000D03*
%TO.N,Net-(IC1-Pad3)*%
X133750000Y-55750000D03*
X120000000Y-59500000D03*
%TO.N,/C_Buzzer*%
X134750000Y-54750000D03*
X117500000Y-58500000D03*
%TO.N,/CC_2*%
X112750000Y-45250000D03*
%TO.N,/CC_3*%
X124750000Y-45000000D03*
%TO.N,/CC_4*%
X132000000Y-45000000D03*
%TO.N,Net-(R15-Pad1)*%
X134250000Y-71750000D03*
X125000000Y-70750000D03*
%TO.N,/MCLR*%
X129000000Y-61000000D03*
X124512976Y-57737024D03*
%TO.N,Net-(C2-Pad1)*%
X123750000Y-72250000D03*
X117000000Y-71750000D03*
%TO.N,Net-(C3-Pad1)*%
X127750000Y-74250000D03*
X131000000Y-73750000D03*
%TD*%
D25*
%TO.N,gnd*%
X116046000Y-88248000D02*
X116046000Y-75748000D01*
X131286000Y-88248000D02*
X131286000Y-75748000D01*
X135849000Y-62500000D02*
X134750000Y-62500000D01*
X133341000Y-63909000D02*
X133341000Y-66226000D01*
X134750000Y-62500000D02*
X133341000Y-63909000D01*
X128680000Y-73142000D02*
X128680000Y-72232000D01*
X131286000Y-75748000D02*
X128680000Y-73142000D01*
X117704000Y-75748000D02*
X116046000Y-75748000D01*
X119217000Y-74235000D02*
X117704000Y-75748000D01*
X119217000Y-73250000D02*
X119217000Y-74235000D01*
X116046000Y-75748000D02*
X114002000Y-75748000D01*
X123492000Y-66892000D02*
X124290000Y-66094000D01*
X121792000Y-66892000D02*
X123492000Y-66892000D01*
X133341000Y-66226000D02*
X133726000Y-66226000D01*
X133726000Y-66226000D02*
X134750000Y-67250000D01*
X121750000Y-66934000D02*
X121792000Y-66892000D01*
X121750000Y-67750000D02*
X121750000Y-66934000D01*
X122750000Y-68750000D02*
X121750000Y-67750000D01*
X110686000Y-52314000D02*
X109543000Y-52314000D01*
X112000000Y-51000000D02*
X110686000Y-52314000D01*
X118186000Y-52314000D02*
X120750000Y-49750000D01*
X117671000Y-52314000D02*
X118186000Y-52314000D01*
X125799000Y-53951000D02*
X125750000Y-54000000D01*
X125799000Y-52314000D02*
X125799000Y-53951000D01*
X133927000Y-53823000D02*
X133750000Y-54000000D01*
X133927000Y-52314000D02*
X133927000Y-53823000D01*
X119217000Y-73250000D02*
X119217000Y-74217000D01*
X119217000Y-74217000D02*
X121000000Y-76000000D01*
X134750000Y-67250000D02*
X136750000Y-69250000D01*
X136750000Y-69250000D02*
X136750000Y-71500000D01*
X132502000Y-75748000D02*
X131286000Y-75748000D01*
X136750000Y-71500000D02*
X132502000Y-75748000D01*
X135314000Y-52314000D02*
X133927000Y-52314000D01*
X137250000Y-54250000D02*
X135314000Y-52314000D01*
%TO.N,+3V*%
X134067000Y-58500000D02*
X133341000Y-59226000D01*
X137000000Y-58500000D02*
X134067000Y-58500000D01*
X138000000Y-59500000D02*
X137000000Y-58500000D01*
X138000000Y-60349000D02*
X138000000Y-59500000D01*
X137119000Y-61230000D02*
X138000000Y-60349000D01*
X124290000Y-64414000D02*
X124290000Y-62714000D01*
X116396000Y-68896000D02*
X116396000Y-67686000D01*
X117250000Y-69750000D02*
X116396000Y-68896000D01*
X120750000Y-69750000D02*
X117250000Y-69750000D01*
X109722000Y-73250000D02*
X109722000Y-72028000D01*
X114064000Y-67686000D02*
X116396000Y-67686000D01*
X109722000Y-72028000D02*
X114064000Y-67686000D01*
X123250000Y-69750000D02*
X120750000Y-69750000D01*
X125750000Y-67250000D02*
X123250000Y-69750000D01*
X125750000Y-65000000D02*
X125750000Y-67250000D01*
X125164000Y-64414000D02*
X125750000Y-65000000D01*
X124290000Y-64414000D02*
X125164000Y-64414000D01*
X129018000Y-69982000D02*
X129750000Y-69250000D01*
X128676332Y-69982000D02*
X129018000Y-69982000D01*
X125750000Y-67250000D02*
X126250000Y-67750000D01*
X126250000Y-67750000D02*
X127000000Y-67750000D01*
X139000000Y-62750000D02*
X138000000Y-61750000D01*
X137639000Y-61750000D02*
X137119000Y-61230000D01*
X138000000Y-61750000D02*
X137639000Y-61750000D01*
D26*
%TO.N,/B_2*%
X135849000Y-63770000D02*
X134520000Y-63770000D01*
X134520000Y-63770000D02*
X134512653Y-63762653D01*
X132140990Y-64359010D02*
X132500000Y-64000000D01*
X132140990Y-67227046D02*
X132140990Y-64359010D01*
X132041000Y-67127056D02*
X132140990Y-67227046D01*
X132041000Y-67176000D02*
X130717000Y-68500000D01*
X132041000Y-66226000D02*
X132041000Y-67176000D01*
X126000000Y-68500000D02*
X121250000Y-73250000D01*
X130717000Y-68500000D02*
X126000000Y-68500000D01*
%TO.N,/B_1*%
X133074000Y-67559000D02*
X133074000Y-69982000D01*
X132691000Y-67176000D02*
X133074000Y-67559000D01*
X132691000Y-66226000D02*
X132691000Y-67176000D01*
X133074000Y-69982000D02*
X134518000Y-69982000D01*
X135732000Y-69982000D02*
X135750000Y-70000000D01*
X134518000Y-69982000D02*
X135732000Y-69982000D01*
X139000000Y-69750000D02*
X138750000Y-70000000D01*
X139000000Y-64381000D02*
X139000000Y-69750000D01*
X137119000Y-62500000D02*
X139000000Y-64381000D01*
%TO.N,/D_a*%
X130741000Y-62800000D02*
X130791000Y-62750000D01*
X130741000Y-66226000D02*
X130741000Y-62800000D01*
%TO.N,/D_b*%
X130091000Y-61591000D02*
X130000000Y-61500000D01*
X130091000Y-66226000D02*
X130091000Y-61591000D01*
%TO.N,/D_c*%
X129450001Y-62663999D02*
X127786002Y-61000000D01*
X129450001Y-66216999D02*
X129450001Y-62663999D01*
X129441000Y-66226000D02*
X129450001Y-66216999D01*
X127786002Y-61000000D02*
X127250000Y-61000000D01*
X126790999Y-60540999D02*
X126790999Y-44790999D01*
X127250000Y-61000000D02*
X126790999Y-60540999D01*
X126790999Y-44790999D02*
X125750000Y-43750000D01*
X123410000Y-43750000D02*
X122050000Y-42390000D01*
X125750000Y-43750000D02*
X123410000Y-43750000D01*
%TO.N,/C_1*%
X107572000Y-56024000D02*
X109048000Y-57500000D01*
X109048000Y-57500000D02*
X120000000Y-57500000D01*
X128750000Y-66185000D02*
X128791000Y-66226000D01*
X128750000Y-63000000D02*
X128750000Y-66185000D01*
%TO.N,/C_2*%
X115700000Y-56024000D02*
X120774000Y-56024000D01*
X120774000Y-56024000D02*
X123500000Y-58750000D01*
X128141000Y-64141000D02*
X128141000Y-66226000D01*
X128000000Y-64000000D02*
X128141000Y-64141000D01*
%TO.N,/C_3*%
X125290001Y-57486001D02*
X125290001Y-59790001D01*
X123828000Y-56024000D02*
X125290001Y-57486001D01*
X125290001Y-59790001D02*
X126250000Y-60750000D01*
X126250000Y-64985000D02*
X127491000Y-66226000D01*
X126250000Y-60750000D02*
X126250000Y-64985000D01*
%TO.N,/C_4*%
X127491000Y-59226000D02*
X127491000Y-57009000D01*
X131956000Y-56544000D02*
X131491000Y-57009000D01*
X131956000Y-56024000D02*
X131956000Y-56544000D01*
%TO.N,/D_dp*%
X128141000Y-58324944D02*
X128390990Y-58074954D01*
X128141000Y-59226000D02*
X128141000Y-58324944D01*
X128390990Y-58074954D02*
X128390990Y-41390990D01*
X128000000Y-41000000D02*
X126000000Y-41000000D01*
X128390990Y-41390990D02*
X128000000Y-41000000D01*
%TO.N,/D_g*%
X128791000Y-59226000D02*
X128791000Y-40541000D01*
X128791000Y-40541000D02*
X128500000Y-40250000D01*
X128500000Y-40250000D02*
X125500000Y-40250000D01*
X124590000Y-41160000D02*
X124590000Y-42390000D01*
X125500000Y-40250000D02*
X124590000Y-41160000D01*
%TO.N,/D_d*%
X129441000Y-59226000D02*
X129441000Y-40191000D01*
X129441000Y-40191000D02*
X128750000Y-39500000D01*
X128750000Y-39500000D02*
X118250000Y-39500000D01*
X116970000Y-40780000D02*
X116970000Y-42390000D01*
X118250000Y-39500000D02*
X116970000Y-40780000D01*
%TO.N,/D_e*%
X130091000Y-59226000D02*
X130091000Y-40091000D01*
X130091000Y-40091000D02*
X128750000Y-38750000D01*
X128750000Y-38750000D02*
X116500000Y-38750000D01*
X114430000Y-40820000D02*
X114430000Y-42390000D01*
X116500000Y-38750000D02*
X114430000Y-40820000D01*
%TO.N,/D_f*%
X130741000Y-44446998D02*
X130750000Y-44437998D01*
X130741000Y-59226000D02*
X130741000Y-44446998D01*
X130750000Y-44437998D02*
X130750000Y-37000000D01*
X130750000Y-37000000D02*
X129500000Y-35750000D01*
X123030000Y-35750000D02*
X119510000Y-32230000D01*
X129500000Y-35750000D02*
X123030000Y-35750000D01*
%TO.N,Net-(IC1-Pad3)*%
X132041000Y-58276000D02*
X133750000Y-56567000D01*
X132041000Y-59226000D02*
X132041000Y-58276000D01*
X133750000Y-56567000D02*
X133750000Y-55750000D01*
X121559000Y-61059000D02*
X121826000Y-61059000D01*
X120000000Y-59500000D02*
X121559000Y-61059000D01*
%TO.N,/C_Buzzer*%
X132691000Y-58276000D02*
X134750000Y-56217000D01*
X132691000Y-59226000D02*
X132691000Y-58276000D01*
X134750000Y-56217000D02*
X134750000Y-54750000D01*
X117500000Y-60050000D02*
X116300000Y-61250000D01*
X117500000Y-58500000D02*
X117500000Y-60050000D01*
%TO.N,Net-(LED1-Pad2)*%
X121826000Y-64958000D02*
X121792000Y-64992000D01*
X121826000Y-62959000D02*
X121826000Y-64958000D01*
D25*
%TO.N,Net-(LS1-Pad1)*%
X110334000Y-63334000D02*
X108750000Y-61750000D01*
X116391000Y-63334000D02*
X110334000Y-63334000D01*
D26*
%TO.N,Net-(Q1-Pad3)*%
X108588000Y-50214000D02*
X108588000Y-48404000D01*
%TO.N,Net-(Q1-Pad1)*%
X107633000Y-54063000D02*
X107572000Y-54124000D01*
X107633000Y-52314000D02*
X107633000Y-54063000D01*
%TO.N,Net-(Q2-Pad3)*%
X116716000Y-50214000D02*
X116716000Y-48404000D01*
%TO.N,Net-(Q2-Pad1)*%
X115761000Y-54063000D02*
X115700000Y-54124000D01*
X115761000Y-52314000D02*
X115761000Y-54063000D01*
%TO.N,Net-(Q3-Pad3)*%
X124844000Y-50214000D02*
X124844000Y-48404000D01*
%TO.N,Net-(Q3-Pad1)*%
X123828000Y-52375000D02*
X123889000Y-52314000D01*
X123828000Y-54124000D02*
X123828000Y-52375000D01*
%TO.N,Net-(Q4-Pad3)*%
X132972000Y-50214000D02*
X132972000Y-48404000D01*
%TO.N,Net-(Q4-Pad1)*%
X132017000Y-54063000D02*
X131956000Y-54124000D01*
X132017000Y-52314000D02*
X132017000Y-54063000D01*
D25*
%TO.N,Net-(Q5-Pad3)*%
X117346000Y-66736000D02*
X118296000Y-67686000D01*
X117346000Y-65434000D02*
X117346000Y-66736000D01*
D26*
%TO.N,Net-(Q5-Pad1)*%
X118301000Y-61351000D02*
X118200000Y-61250000D01*
X118301000Y-63334000D02*
X118301000Y-61351000D01*
%TO.N,/CC_1*%
X114430000Y-32230000D02*
X114430000Y-35820000D01*
X108588000Y-41662000D02*
X108588000Y-46504000D01*
X114430000Y-35820000D02*
X108588000Y-41662000D01*
%TO.N,/CC_2*%
X114004000Y-46504000D02*
X112750000Y-45250000D01*
X116716000Y-46504000D02*
X114004000Y-46504000D01*
%TO.N,/CC_3*%
X124844000Y-45094000D02*
X124750000Y-45000000D01*
X124844000Y-46504000D02*
X124844000Y-45094000D01*
%TO.N,/CC_4*%
X132972000Y-46504000D02*
X132972000Y-45972000D01*
X132972000Y-45972000D02*
X132000000Y-45000000D01*
%TO.N,Net-(R11-Pad1)*%
X111546000Y-88248000D02*
X111546000Y-75748000D01*
X111622000Y-75672000D02*
X111546000Y-75748000D01*
X111622000Y-73250000D02*
X111622000Y-75672000D01*
X111622000Y-73250000D02*
X113667000Y-73250000D01*
%TO.N,Net-(R15-Pad1)*%
X126786000Y-75748000D02*
X126786000Y-88248000D01*
X126776332Y-69982000D02*
X125750000Y-71008332D01*
X125750000Y-74712000D02*
X126786000Y-75748000D01*
X125750000Y-71008332D02*
X125750000Y-74712000D01*
X132515666Y-72232000D02*
X133768000Y-72232000D01*
X133768000Y-72232000D02*
X134250000Y-71750000D01*
X125768000Y-69982000D02*
X126776332Y-69982000D01*
X125000000Y-70750000D02*
X125768000Y-69982000D01*
%TO.N,/MCLR*%
X131391000Y-60127056D02*
X130768056Y-60750000D01*
X131391000Y-59226000D02*
X131391000Y-60127056D01*
X129250000Y-60750000D02*
X129000000Y-61000000D01*
X124290000Y-57960000D02*
X124512976Y-57737024D01*
X124290000Y-60814000D02*
X124290000Y-57960000D01*
X135849000Y-61230000D02*
X134770000Y-61230000D01*
X134770000Y-61230000D02*
X133750000Y-62250000D01*
X133750000Y-62250000D02*
X132250000Y-62250000D01*
X130750000Y-60750000D02*
X129250000Y-60750000D01*
X132250000Y-62250000D02*
X130750000Y-60750000D01*
X130768056Y-60750000D02*
X130750000Y-60750000D01*
%TO.N,Net-(C2-Pad1)*%
X117537000Y-73250000D02*
X115567000Y-73250000D01*
X123574000Y-73250000D02*
X123574000Y-72426000D01*
X123574000Y-72426000D02*
X123750000Y-72250000D01*
X117000000Y-71750000D02*
X116000000Y-71750000D01*
X115567000Y-72183000D02*
X115567000Y-73250000D01*
X116000000Y-71750000D02*
X115567000Y-72183000D01*
%TO.N,Net-(C3-Pad1)*%
X130750000Y-72097666D02*
X130615666Y-72232000D01*
X130750000Y-69982000D02*
X130750000Y-72097666D01*
X127000000Y-72232000D02*
X127000000Y-73500000D01*
X127000000Y-73500000D02*
X127750000Y-74250000D01*
X131000000Y-72616334D02*
X130615666Y-72232000D01*
X131000000Y-73750000D02*
X131000000Y-72616334D01*
%TD*%
D27*
X136399968Y-27050356D02*
X136050356Y-27399968D01*
X135775667Y-27811069D01*
X135586458Y-28267860D01*
X135490000Y-28752787D01*
X135490000Y-29247213D01*
X135586458Y-29732140D01*
X135775667Y-30188931D01*
X136050356Y-30600032D01*
X136399968Y-30949644D01*
X136811069Y-31224333D01*
X137267860Y-31413542D01*
X137752787Y-31510000D01*
X138247213Y-31510000D01*
X138732140Y-31413542D01*
X139188931Y-31224333D01*
X139600032Y-30949644D01*
X139949644Y-30600032D01*
X140040000Y-30464805D01*
X140040001Y-86535197D01*
X139949644Y-86399968D01*
X139600032Y-86050356D01*
X139188931Y-85775667D01*
X138732140Y-85586458D01*
X138247213Y-85490000D01*
X137752787Y-85490000D01*
X137267860Y-85586458D01*
X136811069Y-85775667D01*
X136399968Y-86050356D01*
X136050356Y-86399968D01*
X135775667Y-86811069D01*
X135586458Y-87267860D01*
X135490000Y-87752787D01*
X135490000Y-88247213D01*
X135586458Y-88732140D01*
X135775667Y-89188931D01*
X136050356Y-89600032D01*
X136399968Y-89949644D01*
X136811069Y-90224333D01*
X137267860Y-90413542D01*
X137752787Y-90510000D01*
X138247213Y-90510000D01*
X138732140Y-90413542D01*
X139188931Y-90224333D01*
X139600032Y-89949644D01*
X139949644Y-89600032D01*
X140008418Y-89512071D01*
X139939517Y-89740282D01*
X139821633Y-89961989D01*
X139662929Y-90156580D01*
X139469455Y-90316635D01*
X139248576Y-90436064D01*
X139008701Y-90510317D01*
X138726291Y-90540000D01*
X102784721Y-90540000D01*
X102500101Y-90512093D01*
X102259718Y-90439517D01*
X102038011Y-90321633D01*
X101843420Y-90162929D01*
X101683365Y-89969455D01*
X101563936Y-89748576D01*
X101489683Y-89508701D01*
X101460000Y-89226291D01*
X101460000Y-87752787D01*
X101490000Y-87752787D01*
X101490000Y-88247213D01*
X101586458Y-88732140D01*
X101775667Y-89188931D01*
X102050356Y-89600032D01*
X102399968Y-89949644D01*
X102811069Y-90224333D01*
X103267860Y-90413542D01*
X103752787Y-90510000D01*
X104247213Y-90510000D01*
X104732140Y-90413542D01*
X105188931Y-90224333D01*
X105600032Y-89949644D01*
X105949644Y-89600032D01*
X106224333Y-89188931D01*
X106413542Y-88732140D01*
X106510000Y-88247213D01*
X106510000Y-87752787D01*
X106413542Y-87267860D01*
X106224333Y-86811069D01*
X105949644Y-86399968D01*
X105600032Y-86050356D01*
X105188931Y-85775667D01*
X104732140Y-85586458D01*
X104247213Y-85490000D01*
X103752787Y-85490000D01*
X103267860Y-85586458D01*
X102811069Y-85775667D01*
X102399968Y-86050356D01*
X102050356Y-86399968D01*
X101775667Y-86811069D01*
X101586458Y-87267860D01*
X101490000Y-87752787D01*
X101460000Y-87752787D01*
X101460000Y-69213589D01*
X107365000Y-69213589D01*
X107365000Y-69486411D01*
X107418225Y-69753989D01*
X107522629Y-70006043D01*
X107674201Y-70232886D01*
X107867114Y-70425799D01*
X108093957Y-70577371D01*
X108346011Y-70681775D01*
X108613589Y-70735000D01*
X108886411Y-70735000D01*
X109153989Y-70681775D01*
X109406043Y-70577371D01*
X109632886Y-70425799D01*
X109825799Y-70232886D01*
X109977371Y-70006043D01*
X110081775Y-69753989D01*
X110135000Y-69486411D01*
X110135000Y-69213589D01*
X110081775Y-68946011D01*
X109977371Y-68693957D01*
X109825799Y-68467114D01*
X109632886Y-68274201D01*
X109406043Y-68122629D01*
X109153989Y-68018225D01*
X108886411Y-67965000D01*
X108613589Y-67965000D01*
X108346011Y-68018225D01*
X108093957Y-68122629D01*
X107867114Y-68274201D01*
X107674201Y-68467114D01*
X107522629Y-68693957D01*
X107418225Y-68946011D01*
X107365000Y-69213589D01*
X101460000Y-69213589D01*
X101460000Y-53624000D01*
X106233928Y-53624000D01*
X106233928Y-54624000D01*
X106246188Y-54748482D01*
X106282498Y-54868180D01*
X106341463Y-54978494D01*
X106419842Y-55074000D01*
X106341463Y-55169506D01*
X106282498Y-55279820D01*
X106246188Y-55399518D01*
X106233928Y-55524000D01*
X106233928Y-56524000D01*
X106246188Y-56648482D01*
X106282498Y-56768180D01*
X106341463Y-56878494D01*
X106420815Y-56975185D01*
X106517506Y-57054537D01*
X106627820Y-57113502D01*
X106747518Y-57149812D01*
X106872000Y-57162072D01*
X107670626Y-57162072D01*
X108502746Y-57994193D01*
X108525762Y-58022238D01*
X108637680Y-58114087D01*
X108765367Y-58182337D01*
X108903915Y-58224365D01*
X109011895Y-58235000D01*
X109011904Y-58235000D01*
X109047999Y-58238555D01*
X109084094Y-58235000D01*
X116497435Y-58235000D01*
X116465000Y-58398061D01*
X116465000Y-58601939D01*
X116504774Y-58801898D01*
X116582795Y-58990256D01*
X116696063Y-59159774D01*
X116765000Y-59228711D01*
X116765001Y-59745552D01*
X116598625Y-59911928D01*
X115800000Y-59911928D01*
X115675518Y-59924188D01*
X115555820Y-59960498D01*
X115445506Y-60019463D01*
X115348815Y-60098815D01*
X115269463Y-60195506D01*
X115210498Y-60305820D01*
X115174188Y-60425518D01*
X115161928Y-60550000D01*
X115161928Y-61950000D01*
X115174188Y-62074482D01*
X115210498Y-62194180D01*
X115269463Y-62304494D01*
X115348815Y-62401185D01*
X115445506Y-62480537D01*
X115489583Y-62504097D01*
X115468379Y-62574000D01*
X110648802Y-62574000D01*
X110106167Y-62031365D01*
X110135000Y-61886411D01*
X110135000Y-61613589D01*
X110081775Y-61346011D01*
X109977371Y-61093957D01*
X109825799Y-60867114D01*
X109632886Y-60674201D01*
X109406043Y-60522629D01*
X109153989Y-60418225D01*
X108886411Y-60365000D01*
X108613589Y-60365000D01*
X108346011Y-60418225D01*
X108093957Y-60522629D01*
X107867114Y-60674201D01*
X107674201Y-60867114D01*
X107522629Y-61093957D01*
X107418225Y-61346011D01*
X107365000Y-61613589D01*
X107365000Y-61886411D01*
X107418225Y-62153989D01*
X107522629Y-62406043D01*
X107674201Y-62632886D01*
X107867114Y-62825799D01*
X108093957Y-62977371D01*
X108346011Y-63081775D01*
X108613589Y-63135000D01*
X108886411Y-63135000D01*
X109031365Y-63106167D01*
X109770201Y-63845003D01*
X109793999Y-63874001D01*
X109909724Y-63968974D01*
X110041753Y-64039546D01*
X110185014Y-64083003D01*
X110296667Y-64094000D01*
X110296676Y-64094000D01*
X110333999Y-64097676D01*
X110371322Y-64094000D01*
X115468379Y-64094000D01*
X115501498Y-64203180D01*
X115560463Y-64313494D01*
X115639815Y-64410185D01*
X115736506Y-64489537D01*
X115846820Y-64548502D01*
X115966518Y-64584812D01*
X116091000Y-64597072D01*
X116446714Y-64597072D01*
X116420188Y-64684518D01*
X116407928Y-64809000D01*
X116407928Y-66059000D01*
X116420188Y-66183482D01*
X116456498Y-66303180D01*
X116480417Y-66347928D01*
X115896000Y-66347928D01*
X115771518Y-66360188D01*
X115651820Y-66396498D01*
X115541506Y-66455463D01*
X115444815Y-66534815D01*
X115365463Y-66631506D01*
X115306498Y-66741820D01*
X115270188Y-66861518D01*
X115263837Y-66926000D01*
X114101322Y-66926000D01*
X114063999Y-66922324D01*
X114026676Y-66926000D01*
X114026667Y-66926000D01*
X113915014Y-66936997D01*
X113771753Y-66980454D01*
X113639724Y-67051026D01*
X113523999Y-67145999D01*
X113500201Y-67174997D01*
X109210998Y-71464201D01*
X109182000Y-71487999D01*
X109158202Y-71516997D01*
X109158201Y-71516998D01*
X109087026Y-71603724D01*
X109016454Y-71735754D01*
X108972998Y-71879015D01*
X108964259Y-71967747D01*
X108867506Y-72019463D01*
X108770815Y-72098815D01*
X108691463Y-72195506D01*
X108632498Y-72305820D01*
X108596188Y-72425518D01*
X108583928Y-72550000D01*
X108583928Y-73950000D01*
X108596188Y-74074482D01*
X108632498Y-74194180D01*
X108691463Y-74304494D01*
X108770815Y-74401185D01*
X108867506Y-74480537D01*
X108977820Y-74539502D01*
X109097518Y-74575812D01*
X109222000Y-74588072D01*
X110222000Y-74588072D01*
X110346482Y-74575812D01*
X110466180Y-74539502D01*
X110576494Y-74480537D01*
X110672000Y-74402158D01*
X110708024Y-74431722D01*
X110551558Y-74536269D01*
X110334269Y-74753558D01*
X110163546Y-75009063D01*
X110045950Y-75292965D01*
X109986000Y-75594353D01*
X109986000Y-75901647D01*
X110045950Y-76203035D01*
X110163546Y-76486937D01*
X110334269Y-76742442D01*
X110551558Y-76959731D01*
X110807063Y-77130454D01*
X110811001Y-77132085D01*
X110811000Y-86863915D01*
X110807063Y-86865546D01*
X110551558Y-87036269D01*
X110334269Y-87253558D01*
X110163546Y-87509063D01*
X110045950Y-87792965D01*
X109986000Y-88094353D01*
X109986000Y-88401647D01*
X110045950Y-88703035D01*
X110163546Y-88986937D01*
X110334269Y-89242442D01*
X110551558Y-89459731D01*
X110807063Y-89630454D01*
X111090965Y-89748050D01*
X111392353Y-89808000D01*
X111699647Y-89808000D01*
X112001035Y-89748050D01*
X112284937Y-89630454D01*
X112540442Y-89459731D01*
X112757731Y-89242442D01*
X112928454Y-88986937D01*
X113046050Y-88703035D01*
X113106000Y-88401647D01*
X113106000Y-88094353D01*
X113046050Y-87792965D01*
X112928454Y-87509063D01*
X112757731Y-87253558D01*
X112540442Y-87036269D01*
X112284937Y-86865546D01*
X112281000Y-86863915D01*
X112281000Y-77132085D01*
X112284937Y-77130454D01*
X112540442Y-76959731D01*
X112757731Y-76742442D01*
X112928454Y-76486937D01*
X113046050Y-76203035D01*
X113053887Y-76163637D01*
X113084795Y-76238256D01*
X113198063Y-76407774D01*
X113342226Y-76551937D01*
X113511744Y-76665205D01*
X113700102Y-76743226D01*
X113900061Y-76783000D01*
X114103939Y-76783000D01*
X114303898Y-76743226D01*
X114492256Y-76665205D01*
X114661774Y-76551937D01*
X114688872Y-76524839D01*
X114834269Y-76742442D01*
X115051558Y-76959731D01*
X115286001Y-77116381D01*
X115286000Y-86879620D01*
X115051558Y-87036269D01*
X114834269Y-87253558D01*
X114663546Y-87509063D01*
X114545950Y-87792965D01*
X114486000Y-88094353D01*
X114486000Y-88401647D01*
X114545950Y-88703035D01*
X114663546Y-88986937D01*
X114834269Y-89242442D01*
X115051558Y-89459731D01*
X115307063Y-89630454D01*
X115590965Y-89748050D01*
X115892353Y-89808000D01*
X116199647Y-89808000D01*
X116501035Y-89748050D01*
X116784937Y-89630454D01*
X117040442Y-89459731D01*
X117257731Y-89242442D01*
X117428454Y-88986937D01*
X117546050Y-88703035D01*
X117606000Y-88401647D01*
X117606000Y-88094353D01*
X117546050Y-87792965D01*
X117428454Y-87509063D01*
X117257731Y-87253558D01*
X117040442Y-87036269D01*
X116806000Y-86879620D01*
X116806000Y-77116380D01*
X117040442Y-76959731D01*
X117257731Y-76742442D01*
X117414380Y-76508000D01*
X117666678Y-76508000D01*
X117704000Y-76511676D01*
X117741322Y-76508000D01*
X117741333Y-76508000D01*
X117852986Y-76497003D01*
X117996247Y-76453546D01*
X118128276Y-76382974D01*
X118244001Y-76288001D01*
X118267804Y-76258997D01*
X119226000Y-75300801D01*
X119965000Y-76039802D01*
X119965000Y-76101939D01*
X120004774Y-76301898D01*
X120082795Y-76490256D01*
X120196063Y-76659774D01*
X120340226Y-76803937D01*
X120509744Y-76917205D01*
X120698102Y-76995226D01*
X120898061Y-77035000D01*
X121101939Y-77035000D01*
X121301898Y-76995226D01*
X121490256Y-76917205D01*
X121659774Y-76803937D01*
X121803937Y-76659774D01*
X121917205Y-76490256D01*
X121995226Y-76301898D01*
X122035000Y-76101939D01*
X122035000Y-75898061D01*
X121995226Y-75698102D01*
X121917205Y-75509744D01*
X121803937Y-75340226D01*
X121659774Y-75196063D01*
X121490256Y-75082795D01*
X121301898Y-75004774D01*
X121101939Y-74965000D01*
X121039802Y-74965000D01*
X120321916Y-74247114D01*
X120331502Y-74229180D01*
X120367812Y-74109482D01*
X120374708Y-74039464D01*
X120468320Y-74089502D01*
X120588018Y-74125812D01*
X120712500Y-74138072D01*
X121787500Y-74138072D01*
X121911982Y-74125812D01*
X122031680Y-74089502D01*
X122141994Y-74030537D01*
X122238685Y-73951185D01*
X122318037Y-73854494D01*
X122377002Y-73744180D01*
X122412000Y-73628807D01*
X122446998Y-73744180D01*
X122505963Y-73854494D01*
X122585315Y-73951185D01*
X122682006Y-74030537D01*
X122792320Y-74089502D01*
X122912018Y-74125812D01*
X123036500Y-74138072D01*
X124111500Y-74138072D01*
X124235982Y-74125812D01*
X124355680Y-74089502D01*
X124465994Y-74030537D01*
X124562685Y-73951185D01*
X124642037Y-73854494D01*
X124701002Y-73744180D01*
X124737312Y-73624482D01*
X124749572Y-73500000D01*
X124749572Y-73000000D01*
X124737312Y-72875518D01*
X124701002Y-72755820D01*
X124678329Y-72713402D01*
X124745226Y-72551898D01*
X124785000Y-72351939D01*
X124785000Y-72148061D01*
X124745226Y-71948102D01*
X124667205Y-71759744D01*
X124641968Y-71721974D01*
X124698102Y-71745226D01*
X124898061Y-71785000D01*
X125015000Y-71785000D01*
X125015001Y-74675885D01*
X125011444Y-74712000D01*
X125025635Y-74856085D01*
X125065652Y-74988000D01*
X125067664Y-74994633D01*
X125135914Y-75122320D01*
X125227763Y-75234238D01*
X125255808Y-75257254D01*
X125287581Y-75289027D01*
X125285950Y-75292965D01*
X125226000Y-75594353D01*
X125226000Y-75901647D01*
X125285950Y-76203035D01*
X125403546Y-76486937D01*
X125574269Y-76742442D01*
X125791558Y-76959731D01*
X126047063Y-77130454D01*
X126051000Y-77132085D01*
X126051001Y-86863915D01*
X126047063Y-86865546D01*
X125791558Y-87036269D01*
X125574269Y-87253558D01*
X125403546Y-87509063D01*
X125285950Y-87792965D01*
X125226000Y-88094353D01*
X125226000Y-88401647D01*
X125285950Y-88703035D01*
X125403546Y-88986937D01*
X125574269Y-89242442D01*
X125791558Y-89459731D01*
X126047063Y-89630454D01*
X126330965Y-89748050D01*
X126632353Y-89808000D01*
X126939647Y-89808000D01*
X127241035Y-89748050D01*
X127524937Y-89630454D01*
X127780442Y-89459731D01*
X127997731Y-89242442D01*
X128168454Y-88986937D01*
X128286050Y-88703035D01*
X128346000Y-88401647D01*
X128346000Y-88094353D01*
X128286050Y-87792965D01*
X128168454Y-87509063D01*
X127997731Y-87253558D01*
X127780442Y-87036269D01*
X127524937Y-86865546D01*
X127521000Y-86863915D01*
X127521000Y-77132085D01*
X127524937Y-77130454D01*
X127780442Y-76959731D01*
X127997731Y-76742442D01*
X128168454Y-76486937D01*
X128286050Y-76203035D01*
X128346000Y-75901647D01*
X128346000Y-75594353D01*
X128286050Y-75292965D01*
X128234881Y-75169432D01*
X128240256Y-75167205D01*
X128409774Y-75053937D01*
X128553937Y-74909774D01*
X128667205Y-74740256D01*
X128745226Y-74551898D01*
X128785000Y-74351939D01*
X128785000Y-74321801D01*
X129781008Y-75317810D01*
X129726000Y-75594353D01*
X129726000Y-75901647D01*
X129785950Y-76203035D01*
X129903546Y-76486937D01*
X130074269Y-76742442D01*
X130291558Y-76959731D01*
X130526001Y-77116381D01*
X130526000Y-86879620D01*
X130291558Y-87036269D01*
X130074269Y-87253558D01*
X129903546Y-87509063D01*
X129785950Y-87792965D01*
X129726000Y-88094353D01*
X129726000Y-88401647D01*
X129785950Y-88703035D01*
X129903546Y-88986937D01*
X130074269Y-89242442D01*
X130291558Y-89459731D01*
X130547063Y-89630454D01*
X130830965Y-89748050D01*
X131132353Y-89808000D01*
X131439647Y-89808000D01*
X131741035Y-89748050D01*
X132024937Y-89630454D01*
X132280442Y-89459731D01*
X132497731Y-89242442D01*
X132668454Y-88986937D01*
X132786050Y-88703035D01*
X132846000Y-88401647D01*
X132846000Y-88094353D01*
X132786050Y-87792965D01*
X132668454Y-87509063D01*
X132497731Y-87253558D01*
X132280442Y-87036269D01*
X132046000Y-86879620D01*
X132046000Y-77116380D01*
X132280442Y-76959731D01*
X132497731Y-76742442D01*
X132664459Y-76492916D01*
X132794247Y-76453546D01*
X132926276Y-76382974D01*
X133042001Y-76288001D01*
X133065804Y-76258997D01*
X137261003Y-72063799D01*
X137290001Y-72040001D01*
X137384974Y-71924276D01*
X137455546Y-71792247D01*
X137499003Y-71648986D01*
X137510000Y-71537333D01*
X137510000Y-71537324D01*
X137513676Y-71500001D01*
X137510000Y-71462678D01*
X137510000Y-69287322D01*
X137513676Y-69249999D01*
X137510000Y-69212676D01*
X137510000Y-69212667D01*
X137499003Y-69101014D01*
X137455546Y-68957753D01*
X137439733Y-68928169D01*
X137384974Y-68825723D01*
X137313799Y-68738997D01*
X137290001Y-68709999D01*
X137261003Y-68686201D01*
X135785000Y-67210199D01*
X135785000Y-67148061D01*
X135745226Y-66948102D01*
X135667205Y-66759744D01*
X135553937Y-66590226D01*
X135413711Y-66450000D01*
X135606873Y-66450000D01*
X135879282Y-66395814D01*
X136135885Y-66289525D01*
X136366822Y-66135218D01*
X136484000Y-66018040D01*
X136601178Y-66135218D01*
X136832115Y-66289525D01*
X137088718Y-66395814D01*
X137361127Y-66450000D01*
X137638873Y-66450000D01*
X137911282Y-66395814D01*
X138167885Y-66289525D01*
X138265000Y-66224635D01*
X138265001Y-69080618D01*
X138259744Y-69082795D01*
X138090226Y-69196063D01*
X137946063Y-69340226D01*
X137832795Y-69509744D01*
X137754774Y-69698102D01*
X137715000Y-69898061D01*
X137715000Y-70101939D01*
X137754774Y-70301898D01*
X137832795Y-70490256D01*
X137946063Y-70659774D01*
X138090226Y-70803937D01*
X138259744Y-70917205D01*
X138448102Y-70995226D01*
X138648061Y-71035000D01*
X138851939Y-71035000D01*
X139051898Y-70995226D01*
X139240256Y-70917205D01*
X139409774Y-70803937D01*
X139553937Y-70659774D01*
X139667205Y-70490256D01*
X139745226Y-70301898D01*
X139785000Y-70101939D01*
X139785000Y-69898061D01*
X139745226Y-69698102D01*
X139735000Y-69673414D01*
X139735000Y-64417105D01*
X139738556Y-64381000D01*
X139724365Y-64236915D01*
X139682337Y-64098366D01*
X139614087Y-63970680D01*
X139545253Y-63886806D01*
X139545250Y-63886803D01*
X139522237Y-63858762D01*
X139494197Y-63835750D01*
X139373864Y-63715417D01*
X139490256Y-63667205D01*
X139659774Y-63553937D01*
X139803937Y-63409774D01*
X139917205Y-63240256D01*
X139995226Y-63051898D01*
X140035000Y-62851939D01*
X140035000Y-62648061D01*
X139995226Y-62448102D01*
X139917205Y-62259744D01*
X139803937Y-62090226D01*
X139659774Y-61946063D01*
X139490256Y-61832795D01*
X139301898Y-61754774D01*
X139101939Y-61715000D01*
X139039802Y-61715000D01*
X138563804Y-61239002D01*
X138540001Y-61209999D01*
X138424276Y-61115026D01*
X138349008Y-61074794D01*
X138511004Y-60912798D01*
X138540001Y-60889001D01*
X138593649Y-60823631D01*
X138634974Y-60773277D01*
X138705546Y-60641247D01*
X138716263Y-60605916D01*
X138749003Y-60497986D01*
X138760000Y-60386333D01*
X138760000Y-60386324D01*
X138763676Y-60349001D01*
X138760000Y-60311678D01*
X138760000Y-59537333D01*
X138763677Y-59500000D01*
X138749003Y-59351014D01*
X138705546Y-59207753D01*
X138634974Y-59075724D01*
X138578803Y-59007280D01*
X138540001Y-58959999D01*
X138511003Y-58936201D01*
X137563804Y-57989002D01*
X137540001Y-57959999D01*
X137424276Y-57865026D01*
X137292247Y-57794454D01*
X137148986Y-57750997D01*
X137037333Y-57740000D01*
X137037322Y-57740000D01*
X137000000Y-57736324D01*
X136962678Y-57740000D01*
X134266447Y-57740000D01*
X135244197Y-56762250D01*
X135272237Y-56739238D01*
X135295250Y-56711197D01*
X135295253Y-56711194D01*
X135364087Y-56627320D01*
X135432337Y-56499634D01*
X135474365Y-56361085D01*
X135488556Y-56217000D01*
X135485000Y-56180895D01*
X135485000Y-55478711D01*
X135553937Y-55409774D01*
X135667205Y-55240256D01*
X135745226Y-55051898D01*
X135785000Y-54851939D01*
X135785000Y-54648061D01*
X135745226Y-54448102D01*
X135667205Y-54259744D01*
X135553937Y-54090226D01*
X135409774Y-53946063D01*
X135240256Y-53832795D01*
X135051898Y-53754774D01*
X134851939Y-53715000D01*
X134748587Y-53715000D01*
X134745226Y-53698102D01*
X134687000Y-53557533D01*
X134687000Y-53379444D01*
X134757537Y-53293494D01*
X134816502Y-53183180D01*
X134849621Y-53074000D01*
X134999199Y-53074000D01*
X136215000Y-54289802D01*
X136215000Y-54351939D01*
X136254774Y-54551898D01*
X136332795Y-54740256D01*
X136446063Y-54909774D01*
X136590226Y-55053937D01*
X136759744Y-55167205D01*
X136948102Y-55245226D01*
X137148061Y-55285000D01*
X137351939Y-55285000D01*
X137551898Y-55245226D01*
X137740256Y-55167205D01*
X137909774Y-55053937D01*
X138053937Y-54909774D01*
X138167205Y-54740256D01*
X138245226Y-54551898D01*
X138285000Y-54351939D01*
X138285000Y-54148061D01*
X138245226Y-53948102D01*
X138167205Y-53759744D01*
X138053937Y-53590226D01*
X137909774Y-53446063D01*
X137740256Y-53332795D01*
X137551898Y-53254774D01*
X137351939Y-53215000D01*
X137289802Y-53215000D01*
X135877804Y-51803002D01*
X135854001Y-51773999D01*
X135738276Y-51679026D01*
X135606247Y-51608454D01*
X135462986Y-51564997D01*
X135351333Y-51554000D01*
X135351322Y-51554000D01*
X135314000Y-51550324D01*
X135276678Y-51554000D01*
X134849621Y-51554000D01*
X134816502Y-51444820D01*
X134757537Y-51334506D01*
X134678185Y-51237815D01*
X134581494Y-51158463D01*
X134471180Y-51099498D01*
X134351482Y-51063188D01*
X134227000Y-51050928D01*
X133871286Y-51050928D01*
X133897812Y-50963482D01*
X133910072Y-50839000D01*
X133910072Y-49589000D01*
X133901117Y-49498071D01*
X133916180Y-49493502D01*
X134026494Y-49434537D01*
X134123185Y-49355185D01*
X134202537Y-49258494D01*
X134261502Y-49148180D01*
X134297812Y-49028482D01*
X134310072Y-48904000D01*
X134310072Y-47904000D01*
X134297812Y-47779518D01*
X134261502Y-47659820D01*
X134202537Y-47549506D01*
X134124158Y-47454000D01*
X134202537Y-47358494D01*
X134261502Y-47248180D01*
X134297812Y-47128482D01*
X134310072Y-47004000D01*
X134310072Y-46004000D01*
X134297812Y-45879518D01*
X134261502Y-45759820D01*
X134202537Y-45649506D01*
X134123185Y-45552815D01*
X134026494Y-45473463D01*
X133916180Y-45414498D01*
X133796482Y-45378188D01*
X133672000Y-45365928D01*
X133405375Y-45365928D01*
X133035000Y-44995553D01*
X133035000Y-44898061D01*
X132995226Y-44698102D01*
X132917205Y-44509744D01*
X132803937Y-44340226D01*
X132659774Y-44196063D01*
X132490256Y-44082795D01*
X132301898Y-44004774D01*
X132101939Y-43965000D01*
X131898061Y-43965000D01*
X131698102Y-44004774D01*
X131509744Y-44082795D01*
X131485000Y-44099328D01*
X131485000Y-37036105D01*
X131488556Y-37000000D01*
X131474365Y-36855915D01*
X131432337Y-36717367D01*
X131364087Y-36589680D01*
X131272238Y-36477762D01*
X131244193Y-36454746D01*
X130045258Y-35255812D01*
X130022238Y-35227762D01*
X129910320Y-35135913D01*
X129782633Y-35067663D01*
X129644085Y-35025635D01*
X129536105Y-35015000D01*
X129500000Y-35011444D01*
X129463895Y-35015000D01*
X123334447Y-35015000D01*
X121934447Y-33615000D01*
X122186411Y-33615000D01*
X122453989Y-33561775D01*
X122706043Y-33457371D01*
X122932886Y-33305799D01*
X123125799Y-33112886D01*
X123277371Y-32886043D01*
X123320000Y-32783127D01*
X123362629Y-32886043D01*
X123514201Y-33112886D01*
X123707114Y-33305799D01*
X123933957Y-33457371D01*
X124186011Y-33561775D01*
X124453589Y-33615000D01*
X124726411Y-33615000D01*
X124993989Y-33561775D01*
X125246043Y-33457371D01*
X125472886Y-33305799D01*
X125665799Y-33112886D01*
X125817371Y-32886043D01*
X125860000Y-32783127D01*
X125902629Y-32886043D01*
X126054201Y-33112886D01*
X126247114Y-33305799D01*
X126473957Y-33457371D01*
X126726011Y-33561775D01*
X126993589Y-33615000D01*
X127266411Y-33615000D01*
X127533989Y-33561775D01*
X127786043Y-33457371D01*
X128012886Y-33305799D01*
X128205799Y-33112886D01*
X128357371Y-32886043D01*
X128461775Y-32633989D01*
X128515000Y-32366411D01*
X128515000Y-32093589D01*
X128461775Y-31826011D01*
X128357371Y-31573957D01*
X128205799Y-31347114D01*
X128012886Y-31154201D01*
X127786043Y-31002629D01*
X127533989Y-30898225D01*
X127266411Y-30845000D01*
X126993589Y-30845000D01*
X126726011Y-30898225D01*
X126473957Y-31002629D01*
X126247114Y-31154201D01*
X126054201Y-31347114D01*
X125902629Y-31573957D01*
X125860000Y-31676873D01*
X125817371Y-31573957D01*
X125665799Y-31347114D01*
X125472886Y-31154201D01*
X125246043Y-31002629D01*
X124993989Y-30898225D01*
X124726411Y-30845000D01*
X124453589Y-30845000D01*
X124186011Y-30898225D01*
X123933957Y-31002629D01*
X123707114Y-31154201D01*
X123514201Y-31347114D01*
X123362629Y-31573957D01*
X123320000Y-31676873D01*
X123277371Y-31573957D01*
X123125799Y-31347114D01*
X122932886Y-31154201D01*
X122706043Y-31002629D01*
X122453989Y-30898225D01*
X122186411Y-30845000D01*
X121913589Y-30845000D01*
X121646011Y-30898225D01*
X121393957Y-31002629D01*
X121167114Y-31154201D01*
X120974201Y-31347114D01*
X120822629Y-31573957D01*
X120780000Y-31676873D01*
X120737371Y-31573957D01*
X120585799Y-31347114D01*
X120392886Y-31154201D01*
X120166043Y-31002629D01*
X119913989Y-30898225D01*
X119646411Y-30845000D01*
X119373589Y-30845000D01*
X119106011Y-30898225D01*
X118853957Y-31002629D01*
X118627114Y-31154201D01*
X118434201Y-31347114D01*
X118282629Y-31573957D01*
X118240000Y-31676873D01*
X118197371Y-31573957D01*
X118045799Y-31347114D01*
X117852886Y-31154201D01*
X117626043Y-31002629D01*
X117373989Y-30898225D01*
X117106411Y-30845000D01*
X116833589Y-30845000D01*
X116566011Y-30898225D01*
X116313957Y-31002629D01*
X116087114Y-31154201D01*
X115894201Y-31347114D01*
X115742629Y-31573957D01*
X115700000Y-31676873D01*
X115657371Y-31573957D01*
X115505799Y-31347114D01*
X115312886Y-31154201D01*
X115086043Y-31002629D01*
X114833989Y-30898225D01*
X114566411Y-30845000D01*
X114293589Y-30845000D01*
X114026011Y-30898225D01*
X113773957Y-31002629D01*
X113547114Y-31154201D01*
X113354201Y-31347114D01*
X113202629Y-31573957D01*
X113098225Y-31826011D01*
X113045000Y-32093589D01*
X113045000Y-32366411D01*
X113098225Y-32633989D01*
X113202629Y-32886043D01*
X113354201Y-33112886D01*
X113547114Y-33305799D01*
X113695000Y-33404614D01*
X113695001Y-35515552D01*
X108093808Y-41116746D01*
X108065762Y-41139763D01*
X107973913Y-41251681D01*
X107905663Y-41379368D01*
X107896274Y-41410320D01*
X107863635Y-41517915D01*
X107849444Y-41662000D01*
X107853000Y-41698105D01*
X107853001Y-45369375D01*
X107763518Y-45378188D01*
X107643820Y-45414498D01*
X107533506Y-45473463D01*
X107436815Y-45552815D01*
X107357463Y-45649506D01*
X107298498Y-45759820D01*
X107262188Y-45879518D01*
X107249928Y-46004000D01*
X107249928Y-47004000D01*
X107262188Y-47128482D01*
X107298498Y-47248180D01*
X107357463Y-47358494D01*
X107435842Y-47454000D01*
X107357463Y-47549506D01*
X107298498Y-47659820D01*
X107262188Y-47779518D01*
X107249928Y-47904000D01*
X107249928Y-48904000D01*
X107262188Y-49028482D01*
X107298498Y-49148180D01*
X107357463Y-49258494D01*
X107436815Y-49355185D01*
X107533506Y-49434537D01*
X107643820Y-49493502D01*
X107658883Y-49498071D01*
X107649928Y-49589000D01*
X107649928Y-50839000D01*
X107662188Y-50963482D01*
X107688714Y-51050928D01*
X107333000Y-51050928D01*
X107208518Y-51063188D01*
X107088820Y-51099498D01*
X106978506Y-51158463D01*
X106881815Y-51237815D01*
X106802463Y-51334506D01*
X106743498Y-51444820D01*
X106707188Y-51564518D01*
X106694928Y-51689000D01*
X106694928Y-52939000D01*
X106702114Y-53011961D01*
X106627820Y-53034498D01*
X106517506Y-53093463D01*
X106420815Y-53172815D01*
X106341463Y-53269506D01*
X106282498Y-53379820D01*
X106246188Y-53499518D01*
X106233928Y-53624000D01*
X101460000Y-53624000D01*
X101460000Y-28284721D01*
X101487907Y-28000101D01*
X101560484Y-27759715D01*
X101678368Y-27538009D01*
X101837068Y-27343423D01*
X102030545Y-27183365D01*
X102251424Y-27063936D01*
X102490318Y-26989986D01*
X102399968Y-27050356D01*
X102050356Y-27399968D01*
X101775667Y-27811069D01*
X101586458Y-28267860D01*
X101490000Y-28752787D01*
X101490000Y-29247213D01*
X101586458Y-29732140D01*
X101775667Y-30188931D01*
X102050356Y-30600032D01*
X102399968Y-30949644D01*
X102811069Y-31224333D01*
X103267860Y-31413542D01*
X103752787Y-31510000D01*
X104247213Y-31510000D01*
X104732140Y-31413542D01*
X105188931Y-31224333D01*
X105600032Y-30949644D01*
X105949644Y-30600032D01*
X106224333Y-30188931D01*
X106413542Y-29732140D01*
X106510000Y-29247213D01*
X106510000Y-28752787D01*
X106413542Y-28267860D01*
X106224333Y-27811069D01*
X105949644Y-27399968D01*
X105600032Y-27050356D01*
X105464805Y-26960000D01*
X136535195Y-26960000D01*
X136399968Y-27050356D01*
%TA.AperFunction,NonConductor*%
D28*
G36*
X136399968Y-27050356D02*
G01*
X136050356Y-27399968D01*
X135775667Y-27811069D01*
X135586458Y-28267860D01*
X135490000Y-28752787D01*
X135490000Y-29247213D01*
X135586458Y-29732140D01*
X135775667Y-30188931D01*
X136050356Y-30600032D01*
X136399968Y-30949644D01*
X136811069Y-31224333D01*
X137267860Y-31413542D01*
X137752787Y-31510000D01*
X138247213Y-31510000D01*
X138732140Y-31413542D01*
X139188931Y-31224333D01*
X139600032Y-30949644D01*
X139949644Y-30600032D01*
X140040000Y-30464805D01*
X140040001Y-86535197D01*
X139949644Y-86399968D01*
X139600032Y-86050356D01*
X139188931Y-85775667D01*
X138732140Y-85586458D01*
X138247213Y-85490000D01*
X137752787Y-85490000D01*
X137267860Y-85586458D01*
X136811069Y-85775667D01*
X136399968Y-86050356D01*
X136050356Y-86399968D01*
X135775667Y-86811069D01*
X135586458Y-87267860D01*
X135490000Y-87752787D01*
X135490000Y-88247213D01*
X135586458Y-88732140D01*
X135775667Y-89188931D01*
X136050356Y-89600032D01*
X136399968Y-89949644D01*
X136811069Y-90224333D01*
X137267860Y-90413542D01*
X137752787Y-90510000D01*
X138247213Y-90510000D01*
X138732140Y-90413542D01*
X139188931Y-90224333D01*
X139600032Y-89949644D01*
X139949644Y-89600032D01*
X140008418Y-89512071D01*
X139939517Y-89740282D01*
X139821633Y-89961989D01*
X139662929Y-90156580D01*
X139469455Y-90316635D01*
X139248576Y-90436064D01*
X139008701Y-90510317D01*
X138726291Y-90540000D01*
X102784721Y-90540000D01*
X102500101Y-90512093D01*
X102259718Y-90439517D01*
X102038011Y-90321633D01*
X101843420Y-90162929D01*
X101683365Y-89969455D01*
X101563936Y-89748576D01*
X101489683Y-89508701D01*
X101460000Y-89226291D01*
X101460000Y-87752787D01*
X101490000Y-87752787D01*
X101490000Y-88247213D01*
X101586458Y-88732140D01*
X101775667Y-89188931D01*
X102050356Y-89600032D01*
X102399968Y-89949644D01*
X102811069Y-90224333D01*
X103267860Y-90413542D01*
X103752787Y-90510000D01*
X104247213Y-90510000D01*
X104732140Y-90413542D01*
X105188931Y-90224333D01*
X105600032Y-89949644D01*
X105949644Y-89600032D01*
X106224333Y-89188931D01*
X106413542Y-88732140D01*
X106510000Y-88247213D01*
X106510000Y-87752787D01*
X106413542Y-87267860D01*
X106224333Y-86811069D01*
X105949644Y-86399968D01*
X105600032Y-86050356D01*
X105188931Y-85775667D01*
X104732140Y-85586458D01*
X104247213Y-85490000D01*
X103752787Y-85490000D01*
X103267860Y-85586458D01*
X102811069Y-85775667D01*
X102399968Y-86050356D01*
X102050356Y-86399968D01*
X101775667Y-86811069D01*
X101586458Y-87267860D01*
X101490000Y-87752787D01*
X101460000Y-87752787D01*
X101460000Y-69213589D01*
X107365000Y-69213589D01*
X107365000Y-69486411D01*
X107418225Y-69753989D01*
X107522629Y-70006043D01*
X107674201Y-70232886D01*
X107867114Y-70425799D01*
X108093957Y-70577371D01*
X108346011Y-70681775D01*
X108613589Y-70735000D01*
X108886411Y-70735000D01*
X109153989Y-70681775D01*
X109406043Y-70577371D01*
X109632886Y-70425799D01*
X109825799Y-70232886D01*
X109977371Y-70006043D01*
X110081775Y-69753989D01*
X110135000Y-69486411D01*
X110135000Y-69213589D01*
X110081775Y-68946011D01*
X109977371Y-68693957D01*
X109825799Y-68467114D01*
X109632886Y-68274201D01*
X109406043Y-68122629D01*
X109153989Y-68018225D01*
X108886411Y-67965000D01*
X108613589Y-67965000D01*
X108346011Y-68018225D01*
X108093957Y-68122629D01*
X107867114Y-68274201D01*
X107674201Y-68467114D01*
X107522629Y-68693957D01*
X107418225Y-68946011D01*
X107365000Y-69213589D01*
X101460000Y-69213589D01*
X101460000Y-53624000D01*
X106233928Y-53624000D01*
X106233928Y-54624000D01*
X106246188Y-54748482D01*
X106282498Y-54868180D01*
X106341463Y-54978494D01*
X106419842Y-55074000D01*
X106341463Y-55169506D01*
X106282498Y-55279820D01*
X106246188Y-55399518D01*
X106233928Y-55524000D01*
X106233928Y-56524000D01*
X106246188Y-56648482D01*
X106282498Y-56768180D01*
X106341463Y-56878494D01*
X106420815Y-56975185D01*
X106517506Y-57054537D01*
X106627820Y-57113502D01*
X106747518Y-57149812D01*
X106872000Y-57162072D01*
X107670626Y-57162072D01*
X108502746Y-57994193D01*
X108525762Y-58022238D01*
X108637680Y-58114087D01*
X108765367Y-58182337D01*
X108903915Y-58224365D01*
X109011895Y-58235000D01*
X109011904Y-58235000D01*
X109047999Y-58238555D01*
X109084094Y-58235000D01*
X116497435Y-58235000D01*
X116465000Y-58398061D01*
X116465000Y-58601939D01*
X116504774Y-58801898D01*
X116582795Y-58990256D01*
X116696063Y-59159774D01*
X116765000Y-59228711D01*
X116765001Y-59745552D01*
X116598625Y-59911928D01*
X115800000Y-59911928D01*
X115675518Y-59924188D01*
X115555820Y-59960498D01*
X115445506Y-60019463D01*
X115348815Y-60098815D01*
X115269463Y-60195506D01*
X115210498Y-60305820D01*
X115174188Y-60425518D01*
X115161928Y-60550000D01*
X115161928Y-61950000D01*
X115174188Y-62074482D01*
X115210498Y-62194180D01*
X115269463Y-62304494D01*
X115348815Y-62401185D01*
X115445506Y-62480537D01*
X115489583Y-62504097D01*
X115468379Y-62574000D01*
X110648802Y-62574000D01*
X110106167Y-62031365D01*
X110135000Y-61886411D01*
X110135000Y-61613589D01*
X110081775Y-61346011D01*
X109977371Y-61093957D01*
X109825799Y-60867114D01*
X109632886Y-60674201D01*
X109406043Y-60522629D01*
X109153989Y-60418225D01*
X108886411Y-60365000D01*
X108613589Y-60365000D01*
X108346011Y-60418225D01*
X108093957Y-60522629D01*
X107867114Y-60674201D01*
X107674201Y-60867114D01*
X107522629Y-61093957D01*
X107418225Y-61346011D01*
X107365000Y-61613589D01*
X107365000Y-61886411D01*
X107418225Y-62153989D01*
X107522629Y-62406043D01*
X107674201Y-62632886D01*
X107867114Y-62825799D01*
X108093957Y-62977371D01*
X108346011Y-63081775D01*
X108613589Y-63135000D01*
X108886411Y-63135000D01*
X109031365Y-63106167D01*
X109770201Y-63845003D01*
X109793999Y-63874001D01*
X109909724Y-63968974D01*
X110041753Y-64039546D01*
X110185014Y-64083003D01*
X110296667Y-64094000D01*
X110296676Y-64094000D01*
X110333999Y-64097676D01*
X110371322Y-64094000D01*
X115468379Y-64094000D01*
X115501498Y-64203180D01*
X115560463Y-64313494D01*
X115639815Y-64410185D01*
X115736506Y-64489537D01*
X115846820Y-64548502D01*
X115966518Y-64584812D01*
X116091000Y-64597072D01*
X116446714Y-64597072D01*
X116420188Y-64684518D01*
X116407928Y-64809000D01*
X116407928Y-66059000D01*
X116420188Y-66183482D01*
X116456498Y-66303180D01*
X116480417Y-66347928D01*
X115896000Y-66347928D01*
X115771518Y-66360188D01*
X115651820Y-66396498D01*
X115541506Y-66455463D01*
X115444815Y-66534815D01*
X115365463Y-66631506D01*
X115306498Y-66741820D01*
X115270188Y-66861518D01*
X115263837Y-66926000D01*
X114101322Y-66926000D01*
X114063999Y-66922324D01*
X114026676Y-66926000D01*
X114026667Y-66926000D01*
X113915014Y-66936997D01*
X113771753Y-66980454D01*
X113639724Y-67051026D01*
X113523999Y-67145999D01*
X113500201Y-67174997D01*
X109210998Y-71464201D01*
X109182000Y-71487999D01*
X109158202Y-71516997D01*
X109158201Y-71516998D01*
X109087026Y-71603724D01*
X109016454Y-71735754D01*
X108972998Y-71879015D01*
X108964259Y-71967747D01*
X108867506Y-72019463D01*
X108770815Y-72098815D01*
X108691463Y-72195506D01*
X108632498Y-72305820D01*
X108596188Y-72425518D01*
X108583928Y-72550000D01*
X108583928Y-73950000D01*
X108596188Y-74074482D01*
X108632498Y-74194180D01*
X108691463Y-74304494D01*
X108770815Y-74401185D01*
X108867506Y-74480537D01*
X108977820Y-74539502D01*
X109097518Y-74575812D01*
X109222000Y-74588072D01*
X110222000Y-74588072D01*
X110346482Y-74575812D01*
X110466180Y-74539502D01*
X110576494Y-74480537D01*
X110672000Y-74402158D01*
X110708024Y-74431722D01*
X110551558Y-74536269D01*
X110334269Y-74753558D01*
X110163546Y-75009063D01*
X110045950Y-75292965D01*
X109986000Y-75594353D01*
X109986000Y-75901647D01*
X110045950Y-76203035D01*
X110163546Y-76486937D01*
X110334269Y-76742442D01*
X110551558Y-76959731D01*
X110807063Y-77130454D01*
X110811001Y-77132085D01*
X110811000Y-86863915D01*
X110807063Y-86865546D01*
X110551558Y-87036269D01*
X110334269Y-87253558D01*
X110163546Y-87509063D01*
X110045950Y-87792965D01*
X109986000Y-88094353D01*
X109986000Y-88401647D01*
X110045950Y-88703035D01*
X110163546Y-88986937D01*
X110334269Y-89242442D01*
X110551558Y-89459731D01*
X110807063Y-89630454D01*
X111090965Y-89748050D01*
X111392353Y-89808000D01*
X111699647Y-89808000D01*
X112001035Y-89748050D01*
X112284937Y-89630454D01*
X112540442Y-89459731D01*
X112757731Y-89242442D01*
X112928454Y-88986937D01*
X113046050Y-88703035D01*
X113106000Y-88401647D01*
X113106000Y-88094353D01*
X113046050Y-87792965D01*
X112928454Y-87509063D01*
X112757731Y-87253558D01*
X112540442Y-87036269D01*
X112284937Y-86865546D01*
X112281000Y-86863915D01*
X112281000Y-77132085D01*
X112284937Y-77130454D01*
X112540442Y-76959731D01*
X112757731Y-76742442D01*
X112928454Y-76486937D01*
X113046050Y-76203035D01*
X113053887Y-76163637D01*
X113084795Y-76238256D01*
X113198063Y-76407774D01*
X113342226Y-76551937D01*
X113511744Y-76665205D01*
X113700102Y-76743226D01*
X113900061Y-76783000D01*
X114103939Y-76783000D01*
X114303898Y-76743226D01*
X114492256Y-76665205D01*
X114661774Y-76551937D01*
X114688872Y-76524839D01*
X114834269Y-76742442D01*
X115051558Y-76959731D01*
X115286001Y-77116381D01*
X115286000Y-86879620D01*
X115051558Y-87036269D01*
X114834269Y-87253558D01*
X114663546Y-87509063D01*
X114545950Y-87792965D01*
X114486000Y-88094353D01*
X114486000Y-88401647D01*
X114545950Y-88703035D01*
X114663546Y-88986937D01*
X114834269Y-89242442D01*
X115051558Y-89459731D01*
X115307063Y-89630454D01*
X115590965Y-89748050D01*
X115892353Y-89808000D01*
X116199647Y-89808000D01*
X116501035Y-89748050D01*
X116784937Y-89630454D01*
X117040442Y-89459731D01*
X117257731Y-89242442D01*
X117428454Y-88986937D01*
X117546050Y-88703035D01*
X117606000Y-88401647D01*
X117606000Y-88094353D01*
X117546050Y-87792965D01*
X117428454Y-87509063D01*
X117257731Y-87253558D01*
X117040442Y-87036269D01*
X116806000Y-86879620D01*
X116806000Y-77116380D01*
X117040442Y-76959731D01*
X117257731Y-76742442D01*
X117414380Y-76508000D01*
X117666678Y-76508000D01*
X117704000Y-76511676D01*
X117741322Y-76508000D01*
X117741333Y-76508000D01*
X117852986Y-76497003D01*
X117996247Y-76453546D01*
X118128276Y-76382974D01*
X118244001Y-76288001D01*
X118267804Y-76258997D01*
X119226000Y-75300801D01*
X119965000Y-76039802D01*
X119965000Y-76101939D01*
X120004774Y-76301898D01*
X120082795Y-76490256D01*
X120196063Y-76659774D01*
X120340226Y-76803937D01*
X120509744Y-76917205D01*
X120698102Y-76995226D01*
X120898061Y-77035000D01*
X121101939Y-77035000D01*
X121301898Y-76995226D01*
X121490256Y-76917205D01*
X121659774Y-76803937D01*
X121803937Y-76659774D01*
X121917205Y-76490256D01*
X121995226Y-76301898D01*
X122035000Y-76101939D01*
X122035000Y-75898061D01*
X121995226Y-75698102D01*
X121917205Y-75509744D01*
X121803937Y-75340226D01*
X121659774Y-75196063D01*
X121490256Y-75082795D01*
X121301898Y-75004774D01*
X121101939Y-74965000D01*
X121039802Y-74965000D01*
X120321916Y-74247114D01*
X120331502Y-74229180D01*
X120367812Y-74109482D01*
X120374708Y-74039464D01*
X120468320Y-74089502D01*
X120588018Y-74125812D01*
X120712500Y-74138072D01*
X121787500Y-74138072D01*
X121911982Y-74125812D01*
X122031680Y-74089502D01*
X122141994Y-74030537D01*
X122238685Y-73951185D01*
X122318037Y-73854494D01*
X122377002Y-73744180D01*
X122412000Y-73628807D01*
X122446998Y-73744180D01*
X122505963Y-73854494D01*
X122585315Y-73951185D01*
X122682006Y-74030537D01*
X122792320Y-74089502D01*
X122912018Y-74125812D01*
X123036500Y-74138072D01*
X124111500Y-74138072D01*
X124235982Y-74125812D01*
X124355680Y-74089502D01*
X124465994Y-74030537D01*
X124562685Y-73951185D01*
X124642037Y-73854494D01*
X124701002Y-73744180D01*
X124737312Y-73624482D01*
X124749572Y-73500000D01*
X124749572Y-73000000D01*
X124737312Y-72875518D01*
X124701002Y-72755820D01*
X124678329Y-72713402D01*
X124745226Y-72551898D01*
X124785000Y-72351939D01*
X124785000Y-72148061D01*
X124745226Y-71948102D01*
X124667205Y-71759744D01*
X124641968Y-71721974D01*
X124698102Y-71745226D01*
X124898061Y-71785000D01*
X125015000Y-71785000D01*
X125015001Y-74675885D01*
X125011444Y-74712000D01*
X125025635Y-74856085D01*
X125065652Y-74988000D01*
X125067664Y-74994633D01*
X125135914Y-75122320D01*
X125227763Y-75234238D01*
X125255808Y-75257254D01*
X125287581Y-75289027D01*
X125285950Y-75292965D01*
X125226000Y-75594353D01*
X125226000Y-75901647D01*
X125285950Y-76203035D01*
X125403546Y-76486937D01*
X125574269Y-76742442D01*
X125791558Y-76959731D01*
X126047063Y-77130454D01*
X126051000Y-77132085D01*
X126051001Y-86863915D01*
X126047063Y-86865546D01*
X125791558Y-87036269D01*
X125574269Y-87253558D01*
X125403546Y-87509063D01*
X125285950Y-87792965D01*
X125226000Y-88094353D01*
X125226000Y-88401647D01*
X125285950Y-88703035D01*
X125403546Y-88986937D01*
X125574269Y-89242442D01*
X125791558Y-89459731D01*
X126047063Y-89630454D01*
X126330965Y-89748050D01*
X126632353Y-89808000D01*
X126939647Y-89808000D01*
X127241035Y-89748050D01*
X127524937Y-89630454D01*
X127780442Y-89459731D01*
X127997731Y-89242442D01*
X128168454Y-88986937D01*
X128286050Y-88703035D01*
X128346000Y-88401647D01*
X128346000Y-88094353D01*
X128286050Y-87792965D01*
X128168454Y-87509063D01*
X127997731Y-87253558D01*
X127780442Y-87036269D01*
X127524937Y-86865546D01*
X127521000Y-86863915D01*
X127521000Y-77132085D01*
X127524937Y-77130454D01*
X127780442Y-76959731D01*
X127997731Y-76742442D01*
X128168454Y-76486937D01*
X128286050Y-76203035D01*
X128346000Y-75901647D01*
X128346000Y-75594353D01*
X128286050Y-75292965D01*
X128234881Y-75169432D01*
X128240256Y-75167205D01*
X128409774Y-75053937D01*
X128553937Y-74909774D01*
X128667205Y-74740256D01*
X128745226Y-74551898D01*
X128785000Y-74351939D01*
X128785000Y-74321801D01*
X129781008Y-75317810D01*
X129726000Y-75594353D01*
X129726000Y-75901647D01*
X129785950Y-76203035D01*
X129903546Y-76486937D01*
X130074269Y-76742442D01*
X130291558Y-76959731D01*
X130526001Y-77116381D01*
X130526000Y-86879620D01*
X130291558Y-87036269D01*
X130074269Y-87253558D01*
X129903546Y-87509063D01*
X129785950Y-87792965D01*
X129726000Y-88094353D01*
X129726000Y-88401647D01*
X129785950Y-88703035D01*
X129903546Y-88986937D01*
X130074269Y-89242442D01*
X130291558Y-89459731D01*
X130547063Y-89630454D01*
X130830965Y-89748050D01*
X131132353Y-89808000D01*
X131439647Y-89808000D01*
X131741035Y-89748050D01*
X132024937Y-89630454D01*
X132280442Y-89459731D01*
X132497731Y-89242442D01*
X132668454Y-88986937D01*
X132786050Y-88703035D01*
X132846000Y-88401647D01*
X132846000Y-88094353D01*
X132786050Y-87792965D01*
X132668454Y-87509063D01*
X132497731Y-87253558D01*
X132280442Y-87036269D01*
X132046000Y-86879620D01*
X132046000Y-77116380D01*
X132280442Y-76959731D01*
X132497731Y-76742442D01*
X132664459Y-76492916D01*
X132794247Y-76453546D01*
X132926276Y-76382974D01*
X133042001Y-76288001D01*
X133065804Y-76258997D01*
X137261003Y-72063799D01*
X137290001Y-72040001D01*
X137384974Y-71924276D01*
X137455546Y-71792247D01*
X137499003Y-71648986D01*
X137510000Y-71537333D01*
X137510000Y-71537324D01*
X137513676Y-71500001D01*
X137510000Y-71462678D01*
X137510000Y-69287322D01*
X137513676Y-69249999D01*
X137510000Y-69212676D01*
X137510000Y-69212667D01*
X137499003Y-69101014D01*
X137455546Y-68957753D01*
X137439733Y-68928169D01*
X137384974Y-68825723D01*
X137313799Y-68738997D01*
X137290001Y-68709999D01*
X137261003Y-68686201D01*
X135785000Y-67210199D01*
X135785000Y-67148061D01*
X135745226Y-66948102D01*
X135667205Y-66759744D01*
X135553937Y-66590226D01*
X135413711Y-66450000D01*
X135606873Y-66450000D01*
X135879282Y-66395814D01*
X136135885Y-66289525D01*
X136366822Y-66135218D01*
X136484000Y-66018040D01*
X136601178Y-66135218D01*
X136832115Y-66289525D01*
X137088718Y-66395814D01*
X137361127Y-66450000D01*
X137638873Y-66450000D01*
X137911282Y-66395814D01*
X138167885Y-66289525D01*
X138265000Y-66224635D01*
X138265001Y-69080618D01*
X138259744Y-69082795D01*
X138090226Y-69196063D01*
X137946063Y-69340226D01*
X137832795Y-69509744D01*
X137754774Y-69698102D01*
X137715000Y-69898061D01*
X137715000Y-70101939D01*
X137754774Y-70301898D01*
X137832795Y-70490256D01*
X137946063Y-70659774D01*
X138090226Y-70803937D01*
X138259744Y-70917205D01*
X138448102Y-70995226D01*
X138648061Y-71035000D01*
X138851939Y-71035000D01*
X139051898Y-70995226D01*
X139240256Y-70917205D01*
X139409774Y-70803937D01*
X139553937Y-70659774D01*
X139667205Y-70490256D01*
X139745226Y-70301898D01*
X139785000Y-70101939D01*
X139785000Y-69898061D01*
X139745226Y-69698102D01*
X139735000Y-69673414D01*
X139735000Y-64417105D01*
X139738556Y-64381000D01*
X139724365Y-64236915D01*
X139682337Y-64098366D01*
X139614087Y-63970680D01*
X139545253Y-63886806D01*
X139545250Y-63886803D01*
X139522237Y-63858762D01*
X139494197Y-63835750D01*
X139373864Y-63715417D01*
X139490256Y-63667205D01*
X139659774Y-63553937D01*
X139803937Y-63409774D01*
X139917205Y-63240256D01*
X139995226Y-63051898D01*
X140035000Y-62851939D01*
X140035000Y-62648061D01*
X139995226Y-62448102D01*
X139917205Y-62259744D01*
X139803937Y-62090226D01*
X139659774Y-61946063D01*
X139490256Y-61832795D01*
X139301898Y-61754774D01*
X139101939Y-61715000D01*
X139039802Y-61715000D01*
X138563804Y-61239002D01*
X138540001Y-61209999D01*
X138424276Y-61115026D01*
X138349008Y-61074794D01*
X138511004Y-60912798D01*
X138540001Y-60889001D01*
X138593649Y-60823631D01*
X138634974Y-60773277D01*
X138705546Y-60641247D01*
X138716263Y-60605916D01*
X138749003Y-60497986D01*
X138760000Y-60386333D01*
X138760000Y-60386324D01*
X138763676Y-60349001D01*
X138760000Y-60311678D01*
X138760000Y-59537333D01*
X138763677Y-59500000D01*
X138749003Y-59351014D01*
X138705546Y-59207753D01*
X138634974Y-59075724D01*
X138578803Y-59007280D01*
X138540001Y-58959999D01*
X138511003Y-58936201D01*
X137563804Y-57989002D01*
X137540001Y-57959999D01*
X137424276Y-57865026D01*
X137292247Y-57794454D01*
X137148986Y-57750997D01*
X137037333Y-57740000D01*
X137037322Y-57740000D01*
X137000000Y-57736324D01*
X136962678Y-57740000D01*
X134266447Y-57740000D01*
X135244197Y-56762250D01*
X135272237Y-56739238D01*
X135295250Y-56711197D01*
X135295253Y-56711194D01*
X135364087Y-56627320D01*
X135432337Y-56499634D01*
X135474365Y-56361085D01*
X135488556Y-56217000D01*
X135485000Y-56180895D01*
X135485000Y-55478711D01*
X135553937Y-55409774D01*
X135667205Y-55240256D01*
X135745226Y-55051898D01*
X135785000Y-54851939D01*
X135785000Y-54648061D01*
X135745226Y-54448102D01*
X135667205Y-54259744D01*
X135553937Y-54090226D01*
X135409774Y-53946063D01*
X135240256Y-53832795D01*
X135051898Y-53754774D01*
X134851939Y-53715000D01*
X134748587Y-53715000D01*
X134745226Y-53698102D01*
X134687000Y-53557533D01*
X134687000Y-53379444D01*
X134757537Y-53293494D01*
X134816502Y-53183180D01*
X134849621Y-53074000D01*
X134999199Y-53074000D01*
X136215000Y-54289802D01*
X136215000Y-54351939D01*
X136254774Y-54551898D01*
X136332795Y-54740256D01*
X136446063Y-54909774D01*
X136590226Y-55053937D01*
X136759744Y-55167205D01*
X136948102Y-55245226D01*
X137148061Y-55285000D01*
X137351939Y-55285000D01*
X137551898Y-55245226D01*
X137740256Y-55167205D01*
X137909774Y-55053937D01*
X138053937Y-54909774D01*
X138167205Y-54740256D01*
X138245226Y-54551898D01*
X138285000Y-54351939D01*
X138285000Y-54148061D01*
X138245226Y-53948102D01*
X138167205Y-53759744D01*
X138053937Y-53590226D01*
X137909774Y-53446063D01*
X137740256Y-53332795D01*
X137551898Y-53254774D01*
X137351939Y-53215000D01*
X137289802Y-53215000D01*
X135877804Y-51803002D01*
X135854001Y-51773999D01*
X135738276Y-51679026D01*
X135606247Y-51608454D01*
X135462986Y-51564997D01*
X135351333Y-51554000D01*
X135351322Y-51554000D01*
X135314000Y-51550324D01*
X135276678Y-51554000D01*
X134849621Y-51554000D01*
X134816502Y-51444820D01*
X134757537Y-51334506D01*
X134678185Y-51237815D01*
X134581494Y-51158463D01*
X134471180Y-51099498D01*
X134351482Y-51063188D01*
X134227000Y-51050928D01*
X133871286Y-51050928D01*
X133897812Y-50963482D01*
X133910072Y-50839000D01*
X133910072Y-49589000D01*
X133901117Y-49498071D01*
X133916180Y-49493502D01*
X134026494Y-49434537D01*
X134123185Y-49355185D01*
X134202537Y-49258494D01*
X134261502Y-49148180D01*
X134297812Y-49028482D01*
X134310072Y-48904000D01*
X134310072Y-47904000D01*
X134297812Y-47779518D01*
X134261502Y-47659820D01*
X134202537Y-47549506D01*
X134124158Y-47454000D01*
X134202537Y-47358494D01*
X134261502Y-47248180D01*
X134297812Y-47128482D01*
X134310072Y-47004000D01*
X134310072Y-46004000D01*
X134297812Y-45879518D01*
X134261502Y-45759820D01*
X134202537Y-45649506D01*
X134123185Y-45552815D01*
X134026494Y-45473463D01*
X133916180Y-45414498D01*
X133796482Y-45378188D01*
X133672000Y-45365928D01*
X133405375Y-45365928D01*
X133035000Y-44995553D01*
X133035000Y-44898061D01*
X132995226Y-44698102D01*
X132917205Y-44509744D01*
X132803937Y-44340226D01*
X132659774Y-44196063D01*
X132490256Y-44082795D01*
X132301898Y-44004774D01*
X132101939Y-43965000D01*
X131898061Y-43965000D01*
X131698102Y-44004774D01*
X131509744Y-44082795D01*
X131485000Y-44099328D01*
X131485000Y-37036105D01*
X131488556Y-37000000D01*
X131474365Y-36855915D01*
X131432337Y-36717367D01*
X131364087Y-36589680D01*
X131272238Y-36477762D01*
X131244193Y-36454746D01*
X130045258Y-35255812D01*
X130022238Y-35227762D01*
X129910320Y-35135913D01*
X129782633Y-35067663D01*
X129644085Y-35025635D01*
X129536105Y-35015000D01*
X129500000Y-35011444D01*
X129463895Y-35015000D01*
X123334447Y-35015000D01*
X121934447Y-33615000D01*
X122186411Y-33615000D01*
X122453989Y-33561775D01*
X122706043Y-33457371D01*
X122932886Y-33305799D01*
X123125799Y-33112886D01*
X123277371Y-32886043D01*
X123320000Y-32783127D01*
X123362629Y-32886043D01*
X123514201Y-33112886D01*
X123707114Y-33305799D01*
X123933957Y-33457371D01*
X124186011Y-33561775D01*
X124453589Y-33615000D01*
X124726411Y-33615000D01*
X124993989Y-33561775D01*
X125246043Y-33457371D01*
X125472886Y-33305799D01*
X125665799Y-33112886D01*
X125817371Y-32886043D01*
X125860000Y-32783127D01*
X125902629Y-32886043D01*
X126054201Y-33112886D01*
X126247114Y-33305799D01*
X126473957Y-33457371D01*
X126726011Y-33561775D01*
X126993589Y-33615000D01*
X127266411Y-33615000D01*
X127533989Y-33561775D01*
X127786043Y-33457371D01*
X128012886Y-33305799D01*
X128205799Y-33112886D01*
X128357371Y-32886043D01*
X128461775Y-32633989D01*
X128515000Y-32366411D01*
X128515000Y-32093589D01*
X128461775Y-31826011D01*
X128357371Y-31573957D01*
X128205799Y-31347114D01*
X128012886Y-31154201D01*
X127786043Y-31002629D01*
X127533989Y-30898225D01*
X127266411Y-30845000D01*
X126993589Y-30845000D01*
X126726011Y-30898225D01*
X126473957Y-31002629D01*
X126247114Y-31154201D01*
X126054201Y-31347114D01*
X125902629Y-31573957D01*
X125860000Y-31676873D01*
X125817371Y-31573957D01*
X125665799Y-31347114D01*
X125472886Y-31154201D01*
X125246043Y-31002629D01*
X124993989Y-30898225D01*
X124726411Y-30845000D01*
X124453589Y-30845000D01*
X124186011Y-30898225D01*
X123933957Y-31002629D01*
X123707114Y-31154201D01*
X123514201Y-31347114D01*
X123362629Y-31573957D01*
X123320000Y-31676873D01*
X123277371Y-31573957D01*
X123125799Y-31347114D01*
X122932886Y-31154201D01*
X122706043Y-31002629D01*
X122453989Y-30898225D01*
X122186411Y-30845000D01*
X121913589Y-30845000D01*
X121646011Y-30898225D01*
X121393957Y-31002629D01*
X121167114Y-31154201D01*
X120974201Y-31347114D01*
X120822629Y-31573957D01*
X120780000Y-31676873D01*
X120737371Y-31573957D01*
X120585799Y-31347114D01*
X120392886Y-31154201D01*
X120166043Y-31002629D01*
X119913989Y-30898225D01*
X119646411Y-30845000D01*
X119373589Y-30845000D01*
X119106011Y-30898225D01*
X118853957Y-31002629D01*
X118627114Y-31154201D01*
X118434201Y-31347114D01*
X118282629Y-31573957D01*
X118240000Y-31676873D01*
X118197371Y-31573957D01*
X118045799Y-31347114D01*
X117852886Y-31154201D01*
X117626043Y-31002629D01*
X117373989Y-30898225D01*
X117106411Y-30845000D01*
X116833589Y-30845000D01*
X116566011Y-30898225D01*
X116313957Y-31002629D01*
X116087114Y-31154201D01*
X115894201Y-31347114D01*
X115742629Y-31573957D01*
X115700000Y-31676873D01*
X115657371Y-31573957D01*
X115505799Y-31347114D01*
X115312886Y-31154201D01*
X115086043Y-31002629D01*
X114833989Y-30898225D01*
X114566411Y-30845000D01*
X114293589Y-30845000D01*
X114026011Y-30898225D01*
X113773957Y-31002629D01*
X113547114Y-31154201D01*
X113354201Y-31347114D01*
X113202629Y-31573957D01*
X113098225Y-31826011D01*
X113045000Y-32093589D01*
X113045000Y-32366411D01*
X113098225Y-32633989D01*
X113202629Y-32886043D01*
X113354201Y-33112886D01*
X113547114Y-33305799D01*
X113695000Y-33404614D01*
X113695001Y-35515552D01*
X108093808Y-41116746D01*
X108065762Y-41139763D01*
X107973913Y-41251681D01*
X107905663Y-41379368D01*
X107896274Y-41410320D01*
X107863635Y-41517915D01*
X107849444Y-41662000D01*
X107853000Y-41698105D01*
X107853001Y-45369375D01*
X107763518Y-45378188D01*
X107643820Y-45414498D01*
X107533506Y-45473463D01*
X107436815Y-45552815D01*
X107357463Y-45649506D01*
X107298498Y-45759820D01*
X107262188Y-45879518D01*
X107249928Y-46004000D01*
X107249928Y-47004000D01*
X107262188Y-47128482D01*
X107298498Y-47248180D01*
X107357463Y-47358494D01*
X107435842Y-47454000D01*
X107357463Y-47549506D01*
X107298498Y-47659820D01*
X107262188Y-47779518D01*
X107249928Y-47904000D01*
X107249928Y-48904000D01*
X107262188Y-49028482D01*
X107298498Y-49148180D01*
X107357463Y-49258494D01*
X107436815Y-49355185D01*
X107533506Y-49434537D01*
X107643820Y-49493502D01*
X107658883Y-49498071D01*
X107649928Y-49589000D01*
X107649928Y-50839000D01*
X107662188Y-50963482D01*
X107688714Y-51050928D01*
X107333000Y-51050928D01*
X107208518Y-51063188D01*
X107088820Y-51099498D01*
X106978506Y-51158463D01*
X106881815Y-51237815D01*
X106802463Y-51334506D01*
X106743498Y-51444820D01*
X106707188Y-51564518D01*
X106694928Y-51689000D01*
X106694928Y-52939000D01*
X106702114Y-53011961D01*
X106627820Y-53034498D01*
X106517506Y-53093463D01*
X106420815Y-53172815D01*
X106341463Y-53269506D01*
X106282498Y-53379820D01*
X106246188Y-53499518D01*
X106233928Y-53624000D01*
X101460000Y-53624000D01*
X101460000Y-28284721D01*
X101487907Y-28000101D01*
X101560484Y-27759715D01*
X101678368Y-27538009D01*
X101837068Y-27343423D01*
X102030545Y-27183365D01*
X102251424Y-27063936D01*
X102490318Y-26989986D01*
X102399968Y-27050356D01*
X102050356Y-27399968D01*
X101775667Y-27811069D01*
X101586458Y-28267860D01*
X101490000Y-28752787D01*
X101490000Y-29247213D01*
X101586458Y-29732140D01*
X101775667Y-30188931D01*
X102050356Y-30600032D01*
X102399968Y-30949644D01*
X102811069Y-31224333D01*
X103267860Y-31413542D01*
X103752787Y-31510000D01*
X104247213Y-31510000D01*
X104732140Y-31413542D01*
X105188931Y-31224333D01*
X105600032Y-30949644D01*
X105949644Y-30600032D01*
X106224333Y-30188931D01*
X106413542Y-29732140D01*
X106510000Y-29247213D01*
X106510000Y-28752787D01*
X106413542Y-28267860D01*
X106224333Y-27811069D01*
X105949644Y-27399968D01*
X105600032Y-27050356D01*
X105464805Y-26960000D01*
X136535195Y-26960000D01*
X136399968Y-27050356D01*
G37*
%TD.AperFunction*%
D27*
X112715815Y-74401185D02*
X112812506Y-74480537D01*
X112922820Y-74539502D01*
X113042518Y-74575812D01*
X113167000Y-74588072D01*
X114167000Y-74588072D01*
X114291482Y-74575812D01*
X114411180Y-74539502D01*
X114521494Y-74480537D01*
X114617000Y-74402158D01*
X114712506Y-74480537D01*
X114822820Y-74539502D01*
X114942518Y-74575812D01*
X115005784Y-74582043D01*
X114834269Y-74753558D01*
X114688872Y-74971161D01*
X114661774Y-74944063D01*
X114492256Y-74830795D01*
X114303898Y-74752774D01*
X114103939Y-74713000D01*
X113900061Y-74713000D01*
X113700102Y-74752774D01*
X113511744Y-74830795D01*
X113342226Y-74944063D01*
X113198063Y-75088226D01*
X113084795Y-75257744D01*
X113053887Y-75332363D01*
X113046050Y-75292965D01*
X112928454Y-75009063D01*
X112757731Y-74753558D01*
X112540442Y-74536269D01*
X112465682Y-74486316D01*
X112476494Y-74480537D01*
X112573185Y-74401185D01*
X112644500Y-74314287D01*
X112715815Y-74401185D01*
%TA.AperFunction,NonConductor*%
D28*
G36*
X112715815Y-74401185D02*
G01*
X112812506Y-74480537D01*
X112922820Y-74539502D01*
X113042518Y-74575812D01*
X113167000Y-74588072D01*
X114167000Y-74588072D01*
X114291482Y-74575812D01*
X114411180Y-74539502D01*
X114521494Y-74480537D01*
X114617000Y-74402158D01*
X114712506Y-74480537D01*
X114822820Y-74539502D01*
X114942518Y-74575812D01*
X115005784Y-74582043D01*
X114834269Y-74753558D01*
X114688872Y-74971161D01*
X114661774Y-74944063D01*
X114492256Y-74830795D01*
X114303898Y-74752774D01*
X114103939Y-74713000D01*
X113900061Y-74713000D01*
X113700102Y-74752774D01*
X113511744Y-74830795D01*
X113342226Y-74944063D01*
X113198063Y-75088226D01*
X113084795Y-75257744D01*
X113053887Y-75332363D01*
X113046050Y-75292965D01*
X112928454Y-75009063D01*
X112757731Y-74753558D01*
X112540442Y-74536269D01*
X112465682Y-74486316D01*
X112476494Y-74480537D01*
X112573185Y-74401185D01*
X112644500Y-74314287D01*
X112715815Y-74401185D01*
G37*
%TD.AperFunction*%
D27*
X117404294Y-74972905D02*
X117257731Y-74753558D01*
X117127245Y-74623072D01*
X117754127Y-74623072D01*
X117404294Y-74972905D01*
%TA.AperFunction,NonConductor*%
D28*
G36*
X117404294Y-74972905D02*
G01*
X117257731Y-74753558D01*
X117127245Y-74623072D01*
X117754127Y-74623072D01*
X117404294Y-74972905D01*
G37*
%TD.AperFunction*%
D27*
X132459686Y-74715513D02*
X132280442Y-74536269D01*
X132024937Y-74365546D01*
X131874990Y-74303436D01*
X131917205Y-74240256D01*
X131995226Y-74051898D01*
X132035000Y-73851939D01*
X132035000Y-73648061D01*
X132019487Y-73570072D01*
X133015666Y-73570072D01*
X133140148Y-73557812D01*
X133259846Y-73521502D01*
X133370160Y-73462537D01*
X133466851Y-73383185D01*
X133546203Y-73286494D01*
X133605168Y-73176180D01*
X133641478Y-73056482D01*
X133650291Y-72967000D01*
X133731895Y-72967000D01*
X133768000Y-72970556D01*
X133804105Y-72967000D01*
X133912085Y-72956365D01*
X134050633Y-72914337D01*
X134178320Y-72846087D01*
X134252755Y-72785000D01*
X134351939Y-72785000D01*
X134399698Y-72775500D01*
X132459686Y-74715513D01*
%TA.AperFunction,NonConductor*%
D28*
G36*
X132459686Y-74715513D02*
G01*
X132280442Y-74536269D01*
X132024937Y-74365546D01*
X131874990Y-74303436D01*
X131917205Y-74240256D01*
X131995226Y-74051898D01*
X132035000Y-73851939D01*
X132035000Y-73648061D01*
X132019487Y-73570072D01*
X133015666Y-73570072D01*
X133140148Y-73557812D01*
X133259846Y-73521502D01*
X133370160Y-73462537D01*
X133466851Y-73383185D01*
X133546203Y-73286494D01*
X133605168Y-73176180D01*
X133641478Y-73056482D01*
X133650291Y-72967000D01*
X133731895Y-72967000D01*
X133768000Y-72970556D01*
X133804105Y-72967000D01*
X133912085Y-72956365D01*
X134050633Y-72914337D01*
X134178320Y-72846087D01*
X134252755Y-72785000D01*
X134351939Y-72785000D01*
X134399698Y-72775500D01*
X132459686Y-74715513D01*
G37*
%TD.AperFunction*%
D27*
X126505808Y-74045254D02*
X126648554Y-74188000D01*
X126632353Y-74188000D01*
X126485000Y-74217310D01*
X126485000Y-74028177D01*
X126505808Y-74045254D01*
%TA.AperFunction,NonConductor*%
D28*
G36*
X126505808Y-74045254D02*
G01*
X126648554Y-74188000D01*
X126632353Y-74188000D01*
X126485000Y-74217310D01*
X126485000Y-74028177D01*
X126505808Y-74045254D01*
G37*
%TD.AperFunction*%
D27*
X115270188Y-68510482D02*
X115306498Y-68630180D01*
X115365463Y-68740494D01*
X115444815Y-68837185D01*
X115541506Y-68916537D01*
X115639505Y-68968919D01*
X115646997Y-69044985D01*
X115681133Y-69157518D01*
X115690454Y-69188246D01*
X115761026Y-69320276D01*
X115800121Y-69367913D01*
X115855999Y-69436001D01*
X115885002Y-69459803D01*
X116686205Y-70261008D01*
X116709999Y-70290001D01*
X116738992Y-70313795D01*
X116738996Y-70313799D01*
X116770534Y-70339681D01*
X116825724Y-70384974D01*
X116957753Y-70455546D01*
X117101014Y-70499003D01*
X117212667Y-70510000D01*
X117212676Y-70510000D01*
X117249999Y-70513676D01*
X117287322Y-70510000D01*
X119186852Y-70510000D01*
X119212463Y-70571831D01*
X119402337Y-70855998D01*
X119644002Y-71097663D01*
X119928169Y-71287537D01*
X120243919Y-71418325D01*
X120579117Y-71485000D01*
X120920883Y-71485000D01*
X121256081Y-71418325D01*
X121571831Y-71287537D01*
X121855998Y-71097663D01*
X122097663Y-70855998D01*
X122287537Y-70571831D01*
X122313148Y-70510000D01*
X122950554Y-70510000D01*
X121098626Y-72361928D01*
X120712500Y-72361928D01*
X120588018Y-72374188D01*
X120468320Y-72410498D01*
X120374708Y-72460536D01*
X120367812Y-72390518D01*
X120331502Y-72270820D01*
X120272537Y-72160506D01*
X120193185Y-72063815D01*
X120096494Y-71984463D01*
X119986180Y-71925498D01*
X119866482Y-71889188D01*
X119742000Y-71876928D01*
X118692000Y-71876928D01*
X118567518Y-71889188D01*
X118447820Y-71925498D01*
X118377000Y-71963353D01*
X118306180Y-71925498D01*
X118186482Y-71889188D01*
X118062000Y-71876928D01*
X118030029Y-71876928D01*
X118035000Y-71851939D01*
X118035000Y-71648061D01*
X117995226Y-71448102D01*
X117917205Y-71259744D01*
X117803937Y-71090226D01*
X117659774Y-70946063D01*
X117490256Y-70832795D01*
X117301898Y-70754774D01*
X117101939Y-70715000D01*
X116898061Y-70715000D01*
X116698102Y-70754774D01*
X116509744Y-70832795D01*
X116340226Y-70946063D01*
X116271289Y-71015000D01*
X116036094Y-71015000D01*
X115999999Y-71011445D01*
X115963904Y-71015000D01*
X115963895Y-71015000D01*
X115855915Y-71025635D01*
X115717367Y-71067663D01*
X115589680Y-71135913D01*
X115477762Y-71227762D01*
X115454741Y-71255813D01*
X115072808Y-71637746D01*
X115044762Y-71660763D01*
X114952913Y-71772681D01*
X114884663Y-71900368D01*
X114870842Y-71945931D01*
X114822820Y-71960498D01*
X114712506Y-72019463D01*
X114617000Y-72097842D01*
X114521494Y-72019463D01*
X114411180Y-71960498D01*
X114291482Y-71924188D01*
X114167000Y-71911928D01*
X113167000Y-71911928D01*
X113042518Y-71924188D01*
X112922820Y-71960498D01*
X112812506Y-72019463D01*
X112715815Y-72098815D01*
X112644500Y-72185713D01*
X112573185Y-72098815D01*
X112476494Y-72019463D01*
X112366180Y-71960498D01*
X112246482Y-71924188D01*
X112122000Y-71911928D01*
X111122000Y-71911928D01*
X110997518Y-71924188D01*
X110877820Y-71960498D01*
X110848781Y-71976020D01*
X114378802Y-68446000D01*
X115263837Y-68446000D01*
X115270188Y-68510482D01*
%TA.AperFunction,NonConductor*%
D28*
G36*
X115270188Y-68510482D02*
G01*
X115306498Y-68630180D01*
X115365463Y-68740494D01*
X115444815Y-68837185D01*
X115541506Y-68916537D01*
X115639505Y-68968919D01*
X115646997Y-69044985D01*
X115681133Y-69157518D01*
X115690454Y-69188246D01*
X115761026Y-69320276D01*
X115800121Y-69367913D01*
X115855999Y-69436001D01*
X115885002Y-69459803D01*
X116686205Y-70261008D01*
X116709999Y-70290001D01*
X116738992Y-70313795D01*
X116738996Y-70313799D01*
X116770534Y-70339681D01*
X116825724Y-70384974D01*
X116957753Y-70455546D01*
X117101014Y-70499003D01*
X117212667Y-70510000D01*
X117212676Y-70510000D01*
X117249999Y-70513676D01*
X117287322Y-70510000D01*
X119186852Y-70510000D01*
X119212463Y-70571831D01*
X119402337Y-70855998D01*
X119644002Y-71097663D01*
X119928169Y-71287537D01*
X120243919Y-71418325D01*
X120579117Y-71485000D01*
X120920883Y-71485000D01*
X121256081Y-71418325D01*
X121571831Y-71287537D01*
X121855998Y-71097663D01*
X122097663Y-70855998D01*
X122287537Y-70571831D01*
X122313148Y-70510000D01*
X122950554Y-70510000D01*
X121098626Y-72361928D01*
X120712500Y-72361928D01*
X120588018Y-72374188D01*
X120468320Y-72410498D01*
X120374708Y-72460536D01*
X120367812Y-72390518D01*
X120331502Y-72270820D01*
X120272537Y-72160506D01*
X120193185Y-72063815D01*
X120096494Y-71984463D01*
X119986180Y-71925498D01*
X119866482Y-71889188D01*
X119742000Y-71876928D01*
X118692000Y-71876928D01*
X118567518Y-71889188D01*
X118447820Y-71925498D01*
X118377000Y-71963353D01*
X118306180Y-71925498D01*
X118186482Y-71889188D01*
X118062000Y-71876928D01*
X118030029Y-71876928D01*
X118035000Y-71851939D01*
X118035000Y-71648061D01*
X117995226Y-71448102D01*
X117917205Y-71259744D01*
X117803937Y-71090226D01*
X117659774Y-70946063D01*
X117490256Y-70832795D01*
X117301898Y-70754774D01*
X117101939Y-70715000D01*
X116898061Y-70715000D01*
X116698102Y-70754774D01*
X116509744Y-70832795D01*
X116340226Y-70946063D01*
X116271289Y-71015000D01*
X116036094Y-71015000D01*
X115999999Y-71011445D01*
X115963904Y-71015000D01*
X115963895Y-71015000D01*
X115855915Y-71025635D01*
X115717367Y-71067663D01*
X115589680Y-71135913D01*
X115477762Y-71227762D01*
X115454741Y-71255813D01*
X115072808Y-71637746D01*
X115044762Y-71660763D01*
X114952913Y-71772681D01*
X114884663Y-71900368D01*
X114870842Y-71945931D01*
X114822820Y-71960498D01*
X114712506Y-72019463D01*
X114617000Y-72097842D01*
X114521494Y-72019463D01*
X114411180Y-71960498D01*
X114291482Y-71924188D01*
X114167000Y-71911928D01*
X113167000Y-71911928D01*
X113042518Y-71924188D01*
X112922820Y-71960498D01*
X112812506Y-72019463D01*
X112715815Y-72098815D01*
X112644500Y-72185713D01*
X112573185Y-72098815D01*
X112476494Y-72019463D01*
X112366180Y-71960498D01*
X112246482Y-71924188D01*
X112122000Y-71911928D01*
X111122000Y-71911928D01*
X110997518Y-71924188D01*
X110877820Y-71960498D01*
X110848781Y-71976020D01*
X114378802Y-68446000D01*
X115263837Y-68446000D01*
X115270188Y-68510482D01*
G37*
%TD.AperFunction*%
D27*
X135090226Y-70803937D02*
X135259744Y-70917205D01*
X135448102Y-70995226D01*
X135648061Y-71035000D01*
X135851939Y-71035000D01*
X135990001Y-71007538D01*
X135990001Y-71185197D01*
X135275500Y-71899698D01*
X135285000Y-71851939D01*
X135285000Y-71648061D01*
X135245226Y-71448102D01*
X135167205Y-71259744D01*
X135053937Y-71090226D01*
X134909774Y-70946063D01*
X134740256Y-70832795D01*
X134551898Y-70754774D01*
X134361994Y-70717000D01*
X135003289Y-70717000D01*
X135090226Y-70803937D01*
%TA.AperFunction,NonConductor*%
D28*
G36*
X135090226Y-70803937D02*
G01*
X135259744Y-70917205D01*
X135448102Y-70995226D01*
X135648061Y-71035000D01*
X135851939Y-71035000D01*
X135990001Y-71007538D01*
X135990001Y-71185197D01*
X135275500Y-71899698D01*
X135285000Y-71851939D01*
X135285000Y-71648061D01*
X135245226Y-71448102D01*
X135167205Y-71259744D01*
X135053937Y-71090226D01*
X134909774Y-70946063D01*
X134740256Y-70832795D01*
X134551898Y-70754774D01*
X134361994Y-70717000D01*
X135003289Y-70717000D01*
X135090226Y-70803937D01*
G37*
%TD.AperFunction*%
D27*
X131946998Y-70476180D02*
X132005963Y-70586494D01*
X132085315Y-70683185D01*
X132182006Y-70762537D01*
X132292320Y-70821502D01*
X132412018Y-70857812D01*
X132536500Y-70870072D01*
X133611500Y-70870072D01*
X133719939Y-70859392D01*
X133590226Y-70946063D01*
X133460602Y-71075687D01*
X133370160Y-71001463D01*
X133259846Y-70942498D01*
X133140148Y-70906188D01*
X133015666Y-70893928D01*
X132015666Y-70893928D01*
X131891184Y-70906188D01*
X131771486Y-70942498D01*
X131661172Y-71001463D01*
X131565666Y-71079842D01*
X131485000Y-71013642D01*
X131485000Y-70835662D01*
X131531680Y-70821502D01*
X131641994Y-70762537D01*
X131738685Y-70683185D01*
X131818037Y-70586494D01*
X131877002Y-70476180D01*
X131912000Y-70360807D01*
X131946998Y-70476180D01*
%TA.AperFunction,NonConductor*%
D28*
G36*
X131946998Y-70476180D02*
G01*
X132005963Y-70586494D01*
X132085315Y-70683185D01*
X132182006Y-70762537D01*
X132292320Y-70821502D01*
X132412018Y-70857812D01*
X132536500Y-70870072D01*
X133611500Y-70870072D01*
X133719939Y-70859392D01*
X133590226Y-70946063D01*
X133460602Y-71075687D01*
X133370160Y-71001463D01*
X133259846Y-70942498D01*
X133140148Y-70906188D01*
X133015666Y-70893928D01*
X132015666Y-70893928D01*
X131891184Y-70906188D01*
X131771486Y-70942498D01*
X131661172Y-71001463D01*
X131565666Y-71079842D01*
X131485000Y-71013642D01*
X131485000Y-70835662D01*
X131531680Y-70821502D01*
X131641994Y-70762537D01*
X131738685Y-70683185D01*
X131818037Y-70586494D01*
X131877002Y-70476180D01*
X131912000Y-70360807D01*
X131946998Y-70476180D01*
G37*
%TD.AperFunction*%
D27*
X129858006Y-70762537D02*
X129968320Y-70821502D01*
X130015000Y-70835662D01*
X130015000Y-70903842D01*
X129991184Y-70906188D01*
X129871486Y-70942498D01*
X129761172Y-71001463D01*
X129682904Y-71065696D01*
X129706869Y-71036494D01*
X129765834Y-70926180D01*
X129802144Y-70806482D01*
X129810326Y-70723407D01*
X129858006Y-70762537D01*
%TA.AperFunction,NonConductor*%
D28*
G36*
X129858006Y-70762537D02*
G01*
X129968320Y-70821502D01*
X130015000Y-70835662D01*
X130015000Y-70903842D01*
X129991184Y-70906188D01*
X129871486Y-70942498D01*
X129761172Y-71001463D01*
X129682904Y-71065696D01*
X129706869Y-71036494D01*
X129765834Y-70926180D01*
X129802144Y-70806482D01*
X129810326Y-70723407D01*
X129858006Y-70762537D01*
G37*
%TD.AperFunction*%
D27*
X133984203Y-70747593D02*
X134021481Y-70717000D01*
X134138006Y-70717000D01*
X133984203Y-70747593D01*
%TA.AperFunction,NonConductor*%
D28*
G36*
X133984203Y-70747593D02*
G01*
X134021481Y-70717000D01*
X134138006Y-70717000D01*
X133984203Y-70747593D01*
G37*
%TD.AperFunction*%
D27*
X132339001Y-69128338D02*
X132292320Y-69142498D01*
X132182006Y-69201463D01*
X132085315Y-69280815D01*
X132005963Y-69377506D01*
X131946998Y-69487820D01*
X131912000Y-69603193D01*
X131877002Y-69487820D01*
X131818037Y-69377506D01*
X131738685Y-69280815D01*
X131641994Y-69201463D01*
X131531680Y-69142498D01*
X131411982Y-69106188D01*
X131287500Y-69093928D01*
X131151884Y-69093928D01*
X131239238Y-69022238D01*
X131262258Y-68994188D01*
X132313728Y-67942719D01*
X132339000Y-67935053D01*
X132339001Y-69128338D01*
%TA.AperFunction,NonConductor*%
D28*
G36*
X132339001Y-69128338D02*
G01*
X132292320Y-69142498D01*
X132182006Y-69201463D01*
X132085315Y-69280815D01*
X132005963Y-69377506D01*
X131946998Y-69487820D01*
X131912000Y-69603193D01*
X131877002Y-69487820D01*
X131818037Y-69377506D01*
X131738685Y-69280815D01*
X131641994Y-69201463D01*
X131531680Y-69142498D01*
X131411982Y-69106188D01*
X131287500Y-69093928D01*
X131151884Y-69093928D01*
X131239238Y-69022238D01*
X131262258Y-68994188D01*
X132313728Y-67942719D01*
X132339000Y-67935053D01*
X132339001Y-69128338D01*
G37*
%TD.AperFunction*%
D27*
X133832795Y-67740256D02*
X133946063Y-67909774D01*
X134090226Y-68053937D01*
X134259744Y-68167205D01*
X134448102Y-68245226D01*
X134648061Y-68285000D01*
X134710199Y-68285000D01*
X135435282Y-69010084D01*
X135259744Y-69082795D01*
X135090226Y-69196063D01*
X135039289Y-69247000D01*
X134021481Y-69247000D01*
X133965994Y-69201463D01*
X133855680Y-69142498D01*
X133809000Y-69128338D01*
X133809000Y-67728735D01*
X133824574Y-67720410D01*
X133832795Y-67740256D01*
%TA.AperFunction,NonConductor*%
D28*
G36*
X133832795Y-67740256D02*
G01*
X133946063Y-67909774D01*
X134090226Y-68053937D01*
X134259744Y-68167205D01*
X134448102Y-68245226D01*
X134648061Y-68285000D01*
X134710199Y-68285000D01*
X135435282Y-69010084D01*
X135259744Y-69082795D01*
X135090226Y-69196063D01*
X135039289Y-69247000D01*
X134021481Y-69247000D01*
X133965994Y-69201463D01*
X133855680Y-69142498D01*
X133809000Y-69128338D01*
X133809000Y-67728735D01*
X133824574Y-67720410D01*
X133832795Y-67740256D01*
G37*
%TD.AperFunction*%
D27*
X119340226Y-60303937D02*
X119509744Y-60417205D01*
X119698102Y-60495226D01*
X119898061Y-60535000D01*
X119995554Y-60535000D01*
X120487928Y-61027375D01*
X120487928Y-61559000D01*
X120500188Y-61683482D01*
X120536498Y-61803180D01*
X120595463Y-61913494D01*
X120673842Y-62009000D01*
X120595463Y-62104506D01*
X120536498Y-62214820D01*
X120500188Y-62334518D01*
X120487928Y-62459000D01*
X120487928Y-63459000D01*
X120500188Y-63583482D01*
X120536498Y-63703180D01*
X120595463Y-63813494D01*
X120674815Y-63910185D01*
X120771506Y-63989537D01*
X120775016Y-63991413D01*
X120737506Y-64011463D01*
X120640815Y-64090815D01*
X120561463Y-64187506D01*
X120502498Y-64297820D01*
X120466188Y-64417518D01*
X120453928Y-64542000D01*
X120453928Y-65442000D01*
X120466188Y-65566482D01*
X120502498Y-65686180D01*
X120561463Y-65796494D01*
X120640815Y-65893185D01*
X120700296Y-65942000D01*
X120640815Y-65990815D01*
X120561463Y-66087506D01*
X120502498Y-66197820D01*
X120466188Y-66317518D01*
X120453928Y-66442000D01*
X120453928Y-67342000D01*
X120466188Y-67466482D01*
X120502498Y-67586180D01*
X120561463Y-67696494D01*
X120640815Y-67793185D01*
X120737506Y-67872537D01*
X120847820Y-67931502D01*
X120967518Y-67967812D01*
X121023549Y-67973330D01*
X121043593Y-68039409D01*
X120920883Y-68015000D01*
X120579117Y-68015000D01*
X120243919Y-68081675D01*
X119928169Y-68212463D01*
X119644002Y-68402337D01*
X119402337Y-68644002D01*
X119212463Y-68928169D01*
X119186852Y-68990000D01*
X118992387Y-68990000D01*
X119040180Y-68975502D01*
X119150494Y-68916537D01*
X119247185Y-68837185D01*
X119326537Y-68740494D01*
X119385502Y-68630180D01*
X119421812Y-68510482D01*
X119434072Y-68386000D01*
X119434072Y-66986000D01*
X119421812Y-66861518D01*
X119385502Y-66741820D01*
X119326537Y-66631506D01*
X119247185Y-66534815D01*
X119150494Y-66455463D01*
X119040180Y-66396498D01*
X118920482Y-66360188D01*
X118796000Y-66347928D01*
X118211583Y-66347928D01*
X118235502Y-66303180D01*
X118271812Y-66183482D01*
X118284072Y-66059000D01*
X118284072Y-64809000D01*
X118271812Y-64684518D01*
X118245286Y-64597072D01*
X118601000Y-64597072D01*
X118725482Y-64584812D01*
X118845180Y-64548502D01*
X118955494Y-64489537D01*
X119052185Y-64410185D01*
X119131537Y-64313494D01*
X119190502Y-64203180D01*
X119226812Y-64083482D01*
X119239072Y-63959000D01*
X119239072Y-62709000D01*
X119226812Y-62584518D01*
X119190502Y-62464820D01*
X119154396Y-62397272D01*
X119230537Y-62304494D01*
X119289502Y-62194180D01*
X119325812Y-62074482D01*
X119338072Y-61950000D01*
X119338072Y-60550000D01*
X119325812Y-60425518D01*
X119289502Y-60305820D01*
X119230537Y-60195506D01*
X119224780Y-60188491D01*
X119340226Y-60303937D01*
%TA.AperFunction,NonConductor*%
D28*
G36*
X119340226Y-60303937D02*
G01*
X119509744Y-60417205D01*
X119698102Y-60495226D01*
X119898061Y-60535000D01*
X119995554Y-60535000D01*
X120487928Y-61027375D01*
X120487928Y-61559000D01*
X120500188Y-61683482D01*
X120536498Y-61803180D01*
X120595463Y-61913494D01*
X120673842Y-62009000D01*
X120595463Y-62104506D01*
X120536498Y-62214820D01*
X120500188Y-62334518D01*
X120487928Y-62459000D01*
X120487928Y-63459000D01*
X120500188Y-63583482D01*
X120536498Y-63703180D01*
X120595463Y-63813494D01*
X120674815Y-63910185D01*
X120771506Y-63989537D01*
X120775016Y-63991413D01*
X120737506Y-64011463D01*
X120640815Y-64090815D01*
X120561463Y-64187506D01*
X120502498Y-64297820D01*
X120466188Y-64417518D01*
X120453928Y-64542000D01*
X120453928Y-65442000D01*
X120466188Y-65566482D01*
X120502498Y-65686180D01*
X120561463Y-65796494D01*
X120640815Y-65893185D01*
X120700296Y-65942000D01*
X120640815Y-65990815D01*
X120561463Y-66087506D01*
X120502498Y-66197820D01*
X120466188Y-66317518D01*
X120453928Y-66442000D01*
X120453928Y-67342000D01*
X120466188Y-67466482D01*
X120502498Y-67586180D01*
X120561463Y-67696494D01*
X120640815Y-67793185D01*
X120737506Y-67872537D01*
X120847820Y-67931502D01*
X120967518Y-67967812D01*
X121023549Y-67973330D01*
X121043593Y-68039409D01*
X120920883Y-68015000D01*
X120579117Y-68015000D01*
X120243919Y-68081675D01*
X119928169Y-68212463D01*
X119644002Y-68402337D01*
X119402337Y-68644002D01*
X119212463Y-68928169D01*
X119186852Y-68990000D01*
X118992387Y-68990000D01*
X119040180Y-68975502D01*
X119150494Y-68916537D01*
X119247185Y-68837185D01*
X119326537Y-68740494D01*
X119385502Y-68630180D01*
X119421812Y-68510482D01*
X119434072Y-68386000D01*
X119434072Y-66986000D01*
X119421812Y-66861518D01*
X119385502Y-66741820D01*
X119326537Y-66631506D01*
X119247185Y-66534815D01*
X119150494Y-66455463D01*
X119040180Y-66396498D01*
X118920482Y-66360188D01*
X118796000Y-66347928D01*
X118211583Y-66347928D01*
X118235502Y-66303180D01*
X118271812Y-66183482D01*
X118284072Y-66059000D01*
X118284072Y-64809000D01*
X118271812Y-64684518D01*
X118245286Y-64597072D01*
X118601000Y-64597072D01*
X118725482Y-64584812D01*
X118845180Y-64548502D01*
X118955494Y-64489537D01*
X119052185Y-64410185D01*
X119131537Y-64313494D01*
X119190502Y-64203180D01*
X119226812Y-64083482D01*
X119239072Y-63959000D01*
X119239072Y-62709000D01*
X119226812Y-62584518D01*
X119190502Y-62464820D01*
X119154396Y-62397272D01*
X119230537Y-62304494D01*
X119289502Y-62194180D01*
X119325812Y-62074482D01*
X119338072Y-61950000D01*
X119338072Y-60550000D01*
X119325812Y-60425518D01*
X119289502Y-60305820D01*
X119230537Y-60195506D01*
X119224780Y-60188491D01*
X119340226Y-60303937D01*
G37*
%TD.AperFunction*%
D27*
X117551820Y-68975502D02*
X117599613Y-68990000D01*
X117564802Y-68990000D01*
X117548564Y-68973762D01*
X117551820Y-68975502D01*
%TA.AperFunction,NonConductor*%
D28*
G36*
X117551820Y-68975502D02*
G01*
X117599613Y-68990000D01*
X117564802Y-68990000D01*
X117548564Y-68973762D01*
X117551820Y-68975502D01*
G37*
%TD.AperFunction*%
D27*
X123666504Y-68258695D02*
X123553937Y-68090226D01*
X123409774Y-67946063D01*
X123240256Y-67832795D01*
X123051898Y-67754774D01*
X122985540Y-67741575D01*
X123022537Y-67696494D01*
X123046320Y-67652000D01*
X123454678Y-67652000D01*
X123492000Y-67655676D01*
X123529322Y-67652000D01*
X123529333Y-67652000D01*
X123640986Y-67641003D01*
X123784247Y-67597546D01*
X123916276Y-67526974D01*
X124032001Y-67432001D01*
X124055803Y-67402998D01*
X124201729Y-67257072D01*
X124668126Y-67257072D01*
X123666504Y-68258695D01*
%TA.AperFunction,NonConductor*%
D28*
G36*
X123666504Y-68258695D02*
G01*
X123553937Y-68090226D01*
X123409774Y-67946063D01*
X123240256Y-67832795D01*
X123051898Y-67754774D01*
X122985540Y-67741575D01*
X123022537Y-67696494D01*
X123046320Y-67652000D01*
X123454678Y-67652000D01*
X123492000Y-67655676D01*
X123529322Y-67652000D01*
X123529333Y-67652000D01*
X123640986Y-67641003D01*
X123784247Y-67597546D01*
X123916276Y-67526974D01*
X124032001Y-67432001D01*
X124055803Y-67402998D01*
X124201729Y-67257072D01*
X124668126Y-67257072D01*
X123666504Y-68258695D01*
G37*
%TD.AperFunction*%
D27*
X126602928Y-66377375D02*
X126602928Y-66794197D01*
X126510000Y-66832689D01*
X126510000Y-66284447D01*
X126602928Y-66377375D01*
%TA.AperFunction,NonConductor*%
D28*
G36*
X126602928Y-66377375D02*
G01*
X126602928Y-66794197D01*
X126510000Y-66832689D01*
X126510000Y-66284447D01*
X126602928Y-66377375D01*
G37*
%TD.AperFunction*%
D27*
X122916928Y-65969267D02*
X122883704Y-65942000D01*
X122916928Y-65914733D01*
X122916928Y-65969267D01*
%TA.AperFunction,NonConductor*%
D28*
G36*
X122916928Y-65969267D02*
G01*
X122883704Y-65942000D01*
X122916928Y-65914733D01*
X122916928Y-65969267D01*
G37*
%TD.AperFunction*%
D27*
X127004774Y-64301898D02*
X127082795Y-64490256D01*
X127195623Y-64659115D01*
X127073985Y-64696013D01*
X127026070Y-64721624D01*
X126985000Y-64680554D01*
X126985000Y-64202487D01*
X127004774Y-64301898D01*
%TA.AperFunction,NonConductor*%
D28*
G36*
X127004774Y-64301898D02*
G01*
X127082795Y-64490256D01*
X127195623Y-64659115D01*
X127073985Y-64696013D01*
X127026070Y-64721624D01*
X126985000Y-64680554D01*
X126985000Y-64202487D01*
X127004774Y-64301898D01*
G37*
%TD.AperFunction*%
D27*
X117345506Y-62480537D02*
X117398188Y-62508697D01*
X117375188Y-62584518D01*
X117362928Y-62709000D01*
X117362928Y-63959000D01*
X117375188Y-64083482D01*
X117401714Y-64170928D01*
X117290286Y-64170928D01*
X117316812Y-64083482D01*
X117329072Y-63959000D01*
X117329072Y-62709000D01*
X117316812Y-62584518D01*
X117280502Y-62464820D01*
X117247920Y-62403864D01*
X117250000Y-62402158D01*
X117345506Y-62480537D01*
%TA.AperFunction,NonConductor*%
D28*
G36*
X117345506Y-62480537D02*
G01*
X117398188Y-62508697D01*
X117375188Y-62584518D01*
X117362928Y-62709000D01*
X117362928Y-63959000D01*
X117375188Y-64083482D01*
X117401714Y-64170928D01*
X117290286Y-64170928D01*
X117316812Y-64083482D01*
X117329072Y-63959000D01*
X117329072Y-62709000D01*
X117316812Y-62584518D01*
X117280502Y-62464820D01*
X117247920Y-62403864D01*
X117250000Y-62402158D01*
X117345506Y-62480537D01*
G37*
%TD.AperFunction*%
D27*
X122916928Y-64069267D02*
X122846494Y-64011463D01*
X122842984Y-64009587D01*
X122880494Y-63989537D01*
X122916928Y-63959636D01*
X122916928Y-64069267D01*
%TA.AperFunction,NonConductor*%
D28*
G36*
X122916928Y-64069267D02*
G01*
X122846494Y-64011463D01*
X122842984Y-64009587D01*
X122880494Y-63989537D01*
X122916928Y-63959636D01*
X122916928Y-64069267D01*
G37*
%TD.AperFunction*%
D27*
X131839680Y-62864087D02*
X131967367Y-62932337D01*
X132105915Y-62974365D01*
X132213895Y-62985000D01*
X132213904Y-62985000D01*
X132249999Y-62988555D01*
X132286094Y-62985000D01*
X132297513Y-62985000D01*
X132198102Y-63004774D01*
X132009744Y-63082795D01*
X131840226Y-63196063D01*
X131696063Y-63340226D01*
X131582795Y-63509744D01*
X131504774Y-63698102D01*
X131476000Y-63842760D01*
X131476000Y-63528711D01*
X131594937Y-63409774D01*
X131708205Y-63240256D01*
X131786226Y-63051898D01*
X131825842Y-62852731D01*
X131839680Y-62864087D01*
%TA.AperFunction,NonConductor*%
D28*
G36*
X131839680Y-62864087D02*
G01*
X131967367Y-62932337D01*
X132105915Y-62974365D01*
X132213895Y-62985000D01*
X132213904Y-62985000D01*
X132249999Y-62988555D01*
X132286094Y-62985000D01*
X132297513Y-62985000D01*
X132198102Y-63004774D01*
X132009744Y-63082795D01*
X131840226Y-63196063D01*
X131696063Y-63340226D01*
X131582795Y-63509744D01*
X131504774Y-63698102D01*
X131476000Y-63842760D01*
X131476000Y-63528711D01*
X131594937Y-63409774D01*
X131708205Y-63240256D01*
X131786226Y-63051898D01*
X131825842Y-62852731D01*
X131839680Y-62864087D01*
G37*
%TD.AperFunction*%
D27*
X127105915Y-61724365D02*
X127213895Y-61735000D01*
X127213904Y-61735000D01*
X127249999Y-61738555D01*
X127286094Y-61735000D01*
X127481556Y-61735000D01*
X128016422Y-62269867D01*
X127946063Y-62340226D01*
X127832795Y-62509744D01*
X127754774Y-62698102D01*
X127715000Y-62898061D01*
X127715000Y-63001413D01*
X127698102Y-63004774D01*
X127509744Y-63082795D01*
X127340226Y-63196063D01*
X127196063Y-63340226D01*
X127082795Y-63509744D01*
X127004774Y-63698102D01*
X126985000Y-63797513D01*
X126985000Y-61687686D01*
X127105915Y-61724365D01*
%TA.AperFunction,NonConductor*%
D28*
G36*
X127105915Y-61724365D02*
G01*
X127213895Y-61735000D01*
X127213904Y-61735000D01*
X127249999Y-61738555D01*
X127286094Y-61735000D01*
X127481556Y-61735000D01*
X128016422Y-62269867D01*
X127946063Y-62340226D01*
X127832795Y-62509744D01*
X127754774Y-62698102D01*
X127715000Y-62898061D01*
X127715000Y-63001413D01*
X127698102Y-63004774D01*
X127509744Y-63082795D01*
X127340226Y-63196063D01*
X127196063Y-63340226D01*
X127082795Y-63509744D01*
X127004774Y-63698102D01*
X126985000Y-63797513D01*
X126985000Y-61687686D01*
X127105915Y-61724365D01*
G37*
%TD.AperFunction*%
D27*
X133051489Y-63123710D02*
X132990256Y-63082795D01*
X132801898Y-63004774D01*
X132702487Y-62985000D01*
X133190199Y-62985000D01*
X133051489Y-63123710D01*
%TA.AperFunction,NonConductor*%
D28*
G36*
X133051489Y-63123710D02*
G01*
X132990256Y-63082795D01*
X132801898Y-63004774D01*
X132702487Y-62985000D01*
X133190199Y-62985000D01*
X133051489Y-63123710D01*
G37*
%TD.AperFunction*%
D27*
X122985791Y-62018302D02*
X122978158Y-62009000D01*
X122994744Y-61988790D01*
X122985791Y-62018302D01*
%TA.AperFunction,NonConductor*%
D28*
G36*
X122985791Y-62018302D02*
G01*
X122978158Y-62009000D01*
X122994744Y-61988790D01*
X122985791Y-62018302D01*
G37*
%TD.AperFunction*%
D27*
X125515000Y-61852759D02*
X125442158Y-61764000D01*
X125515000Y-61675241D01*
X125515000Y-61852759D01*
%TA.AperFunction,NonConductor*%
D28*
G36*
X125515000Y-61852759D02*
G01*
X125442158Y-61764000D01*
X125515000Y-61675241D01*
X125515000Y-61852759D01*
G37*
%TD.AperFunction*%
D27*
X123137842Y-61764000D02*
X123121256Y-61784210D01*
X123130209Y-61754698D01*
X123137842Y-61764000D01*
%TA.AperFunction,NonConductor*%
D28*
G36*
X123137842Y-61764000D02*
G01*
X123121256Y-61784210D01*
X123130209Y-61754698D01*
X123137842Y-61764000D01*
G37*
%TD.AperFunction*%
D27*
X135234475Y-59292115D02*
X135128186Y-59548718D01*
X135074000Y-59821127D01*
X135074000Y-60098873D01*
X135128186Y-60371282D01*
X135143677Y-60408680D01*
X135057357Y-60495000D01*
X134806105Y-60495000D01*
X134770000Y-60491444D01*
X134733895Y-60495000D01*
X134625915Y-60505635D01*
X134487367Y-60547663D01*
X134359680Y-60615913D01*
X134247762Y-60707762D01*
X134224746Y-60735807D01*
X133445554Y-61515000D01*
X132554447Y-61515000D01*
X131846692Y-60807246D01*
X131916000Y-60814072D01*
X132166000Y-60814072D01*
X132314868Y-60799410D01*
X132366000Y-60783899D01*
X132417132Y-60799410D01*
X132566000Y-60814072D01*
X132816000Y-60814072D01*
X132964868Y-60799410D01*
X133016000Y-60783899D01*
X133067132Y-60799410D01*
X133216000Y-60814072D01*
X133466000Y-60814072D01*
X133614868Y-60799410D01*
X133758015Y-60755987D01*
X133889940Y-60685471D01*
X134005573Y-60590573D01*
X134100471Y-60474940D01*
X134170987Y-60343015D01*
X134214410Y-60199868D01*
X134229072Y-60051000D01*
X134229072Y-59412729D01*
X134381802Y-59260000D01*
X135255934Y-59260000D01*
X135234475Y-59292115D01*
%TA.AperFunction,NonConductor*%
D28*
G36*
X135234475Y-59292115D02*
G01*
X135128186Y-59548718D01*
X135074000Y-59821127D01*
X135074000Y-60098873D01*
X135128186Y-60371282D01*
X135143677Y-60408680D01*
X135057357Y-60495000D01*
X134806105Y-60495000D01*
X134770000Y-60491444D01*
X134733895Y-60495000D01*
X134625915Y-60505635D01*
X134487367Y-60547663D01*
X134359680Y-60615913D01*
X134247762Y-60707762D01*
X134224746Y-60735807D01*
X133445554Y-61515000D01*
X132554447Y-61515000D01*
X131846692Y-60807246D01*
X131916000Y-60814072D01*
X132166000Y-60814072D01*
X132314868Y-60799410D01*
X132366000Y-60783899D01*
X132417132Y-60799410D01*
X132566000Y-60814072D01*
X132816000Y-60814072D01*
X132964868Y-60799410D01*
X133016000Y-60783899D01*
X133067132Y-60799410D01*
X133216000Y-60814072D01*
X133466000Y-60814072D01*
X133614868Y-60799410D01*
X133758015Y-60755987D01*
X133889940Y-60685471D01*
X134005573Y-60590573D01*
X134100471Y-60474940D01*
X134170987Y-60343015D01*
X134214410Y-60199868D01*
X134229072Y-60051000D01*
X134229072Y-59412729D01*
X134381802Y-59260000D01*
X135255934Y-59260000D01*
X135234475Y-59292115D01*
G37*
%TD.AperFunction*%
D27*
X119340226Y-58303937D02*
X119509744Y-58417205D01*
X119698102Y-58495226D01*
X119722103Y-58500000D01*
X119698102Y-58504774D01*
X119509744Y-58582795D01*
X119340226Y-58696063D01*
X119196063Y-58840226D01*
X119082795Y-59009744D01*
X119004774Y-59198102D01*
X118965000Y-59398061D01*
X118965000Y-59601939D01*
X119004774Y-59801898D01*
X119082795Y-59990256D01*
X119173500Y-60126006D01*
X119151185Y-60098815D01*
X119054494Y-60019463D01*
X118944180Y-59960498D01*
X118824482Y-59924188D01*
X118700000Y-59911928D01*
X118235000Y-59911928D01*
X118235000Y-59228711D01*
X118303937Y-59159774D01*
X118417205Y-58990256D01*
X118495226Y-58801898D01*
X118535000Y-58601939D01*
X118535000Y-58398061D01*
X118502565Y-58235000D01*
X119271289Y-58235000D01*
X119340226Y-58303937D01*
%TA.AperFunction,NonConductor*%
D28*
G36*
X119340226Y-58303937D02*
G01*
X119509744Y-58417205D01*
X119698102Y-58495226D01*
X119722103Y-58500000D01*
X119698102Y-58504774D01*
X119509744Y-58582795D01*
X119340226Y-58696063D01*
X119196063Y-58840226D01*
X119082795Y-59009744D01*
X119004774Y-59198102D01*
X118965000Y-59398061D01*
X118965000Y-59601939D01*
X119004774Y-59801898D01*
X119082795Y-59990256D01*
X119173500Y-60126006D01*
X119151185Y-60098815D01*
X119054494Y-60019463D01*
X118944180Y-59960498D01*
X118824482Y-59924188D01*
X118700000Y-59911928D01*
X118235000Y-59911928D01*
X118235000Y-59228711D01*
X118303937Y-59159774D01*
X118417205Y-58990256D01*
X118495226Y-58801898D01*
X118535000Y-58601939D01*
X118535000Y-58398061D01*
X118502565Y-58235000D01*
X119271289Y-58235000D01*
X119340226Y-58303937D01*
G37*
%TD.AperFunction*%
D27*
X122465000Y-58754447D02*
X122465000Y-58851939D01*
X122504774Y-59051898D01*
X122582795Y-59240256D01*
X122696063Y-59409774D01*
X122840226Y-59553937D01*
X123009744Y-59667205D01*
X123198102Y-59745226D01*
X123277496Y-59761018D01*
X123235506Y-59783463D01*
X123138815Y-59862815D01*
X123059463Y-59959506D01*
X123000498Y-60069820D01*
X122985791Y-60118302D01*
X122977185Y-60107815D01*
X122880494Y-60028463D01*
X122770180Y-59969498D01*
X122650482Y-59933188D01*
X122526000Y-59920928D01*
X121460375Y-59920928D01*
X121035000Y-59495554D01*
X121035000Y-59398061D01*
X120995226Y-59198102D01*
X120917205Y-59009744D01*
X120803937Y-58840226D01*
X120659774Y-58696063D01*
X120490256Y-58582795D01*
X120301898Y-58504774D01*
X120277897Y-58500000D01*
X120301898Y-58495226D01*
X120490256Y-58417205D01*
X120659774Y-58303937D01*
X120803937Y-58159774D01*
X120917205Y-57990256D01*
X120995226Y-57801898D01*
X121035000Y-57601939D01*
X121035000Y-57398061D01*
X121016721Y-57306168D01*
X122465000Y-58754447D01*
%TA.AperFunction,NonConductor*%
D28*
G36*
X122465000Y-58754447D02*
G01*
X122465000Y-58851939D01*
X122504774Y-59051898D01*
X122582795Y-59240256D01*
X122696063Y-59409774D01*
X122840226Y-59553937D01*
X123009744Y-59667205D01*
X123198102Y-59745226D01*
X123277496Y-59761018D01*
X123235506Y-59783463D01*
X123138815Y-59862815D01*
X123059463Y-59959506D01*
X123000498Y-60069820D01*
X122985791Y-60118302D01*
X122977185Y-60107815D01*
X122880494Y-60028463D01*
X122770180Y-59969498D01*
X122650482Y-59933188D01*
X122526000Y-59920928D01*
X121460375Y-59920928D01*
X121035000Y-59495554D01*
X121035000Y-59398061D01*
X120995226Y-59198102D01*
X120917205Y-59009744D01*
X120803937Y-58840226D01*
X120659774Y-58696063D01*
X120490256Y-58582795D01*
X120301898Y-58504774D01*
X120277897Y-58500000D01*
X120301898Y-58495226D01*
X120490256Y-58417205D01*
X120659774Y-58303937D01*
X120803937Y-58159774D01*
X120917205Y-57990256D01*
X120995226Y-57801898D01*
X121035000Y-57601939D01*
X121035000Y-57398061D01*
X121016721Y-57306168D01*
X122465000Y-58754447D01*
G37*
%TD.AperFunction*%
D27*
X125259744Y-54917205D02*
X125448102Y-54995226D01*
X125648061Y-55035000D01*
X125851939Y-55035000D01*
X126051898Y-54995226D01*
X126055999Y-54993527D01*
X126055999Y-59516553D01*
X126025001Y-59485555D01*
X126025001Y-57522106D01*
X126028557Y-57486001D01*
X126014366Y-57341916D01*
X125972338Y-57203367D01*
X125904088Y-57075681D01*
X125835254Y-56991807D01*
X125835251Y-56991804D01*
X125812238Y-56963763D01*
X125784198Y-56940751D01*
X125166072Y-56322625D01*
X125166072Y-55524000D01*
X125153812Y-55399518D01*
X125117502Y-55279820D01*
X125058537Y-55169506D01*
X124980158Y-55074000D01*
X125058537Y-54978494D01*
X125117502Y-54868180D01*
X125129109Y-54829918D01*
X125259744Y-54917205D01*
%TA.AperFunction,NonConductor*%
D28*
G36*
X125259744Y-54917205D02*
G01*
X125448102Y-54995226D01*
X125648061Y-55035000D01*
X125851939Y-55035000D01*
X126051898Y-54995226D01*
X126055999Y-54993527D01*
X126055999Y-59516553D01*
X126025001Y-59485555D01*
X126025001Y-57522106D01*
X126028557Y-57486001D01*
X126014366Y-57341916D01*
X125972338Y-57203367D01*
X125904088Y-57075681D01*
X125835254Y-56991807D01*
X125835251Y-56991804D01*
X125812238Y-56963763D01*
X125784198Y-56940751D01*
X125166072Y-56322625D01*
X125166072Y-55524000D01*
X125153812Y-55399518D01*
X125117502Y-55279820D01*
X125058537Y-55169506D01*
X124980158Y-55074000D01*
X125058537Y-54978494D01*
X125117502Y-54868180D01*
X125129109Y-54829918D01*
X125259744Y-54917205D01*
G37*
%TD.AperFunction*%
D27*
X123003518Y-57149812D02*
X123128000Y-57162072D01*
X123652363Y-57162072D01*
X123595771Y-57246768D01*
X123517750Y-57435126D01*
X123477976Y-57635085D01*
X123477976Y-57688529D01*
X122911278Y-57121831D01*
X123003518Y-57149812D01*
%TA.AperFunction,NonConductor*%
D28*
G36*
X123003518Y-57149812D02*
G01*
X123128000Y-57162072D01*
X123652363Y-57162072D01*
X123595771Y-57246768D01*
X123517750Y-57435126D01*
X123477976Y-57635085D01*
X123477976Y-57688529D01*
X122911278Y-57121831D01*
X123003518Y-57149812D01*
G37*
%TD.AperFunction*%
D27*
X119271289Y-56765000D02*
X116990467Y-56765000D01*
X116992287Y-56759000D01*
X119277289Y-56759000D01*
X119271289Y-56765000D01*
%TA.AperFunction,NonConductor*%
D28*
G36*
X119271289Y-56765000D02*
G01*
X116990467Y-56765000D01*
X116992287Y-56759000D01*
X119277289Y-56759000D01*
X119271289Y-56765000D01*
G37*
%TD.AperFunction*%
D27*
X118282629Y-32886043D02*
X118434201Y-33112886D01*
X118627114Y-33305799D01*
X118853957Y-33457371D01*
X119106011Y-33561775D01*
X119373589Y-33615000D01*
X119646411Y-33615000D01*
X119820855Y-33580301D01*
X122484746Y-36244193D01*
X122507762Y-36272238D01*
X122593057Y-36342238D01*
X122619680Y-36364087D01*
X122747366Y-36432337D01*
X122885915Y-36474365D01*
X123030000Y-36488556D01*
X123066105Y-36485000D01*
X129195554Y-36485000D01*
X130015001Y-37304448D01*
X130015001Y-38975554D01*
X129295258Y-38255812D01*
X129272238Y-38227762D01*
X129160320Y-38135913D01*
X129032633Y-38067663D01*
X128894085Y-38025635D01*
X128786105Y-38015000D01*
X128750000Y-38011444D01*
X128713895Y-38015000D01*
X116536104Y-38015000D01*
X116499999Y-38011444D01*
X116355914Y-38025635D01*
X116313886Y-38038384D01*
X116217367Y-38067663D01*
X116089680Y-38135913D01*
X115977762Y-38227762D01*
X115954746Y-38255807D01*
X113935808Y-40274746D01*
X113907762Y-40297763D01*
X113815913Y-40409681D01*
X113747663Y-40537368D01*
X113718384Y-40633887D01*
X113705635Y-40675915D01*
X113691444Y-40820000D01*
X113695000Y-40856105D01*
X113695000Y-41001928D01*
X113680000Y-41001928D01*
X113555518Y-41014188D01*
X113435820Y-41050498D01*
X113325506Y-41109463D01*
X113228815Y-41188815D01*
X113149463Y-41285506D01*
X113090498Y-41395820D01*
X113054188Y-41515518D01*
X113041928Y-41640000D01*
X113041928Y-43140000D01*
X113054188Y-43264482D01*
X113090498Y-43384180D01*
X113149463Y-43494494D01*
X113228815Y-43591185D01*
X113325506Y-43670537D01*
X113435820Y-43729502D01*
X113555518Y-43765812D01*
X113680000Y-43778072D01*
X115180000Y-43778072D01*
X115304482Y-43765812D01*
X115424180Y-43729502D01*
X115534494Y-43670537D01*
X115631185Y-43591185D01*
X115710537Y-43494494D01*
X115769502Y-43384180D01*
X115805812Y-43264482D01*
X115816445Y-43156517D01*
X115894201Y-43272886D01*
X116087114Y-43465799D01*
X116313957Y-43617371D01*
X116566011Y-43721775D01*
X116833589Y-43775000D01*
X117106411Y-43775000D01*
X117373989Y-43721775D01*
X117626043Y-43617371D01*
X117852886Y-43465799D01*
X118045799Y-43272886D01*
X118197371Y-43046043D01*
X118240000Y-42943127D01*
X118282629Y-43046043D01*
X118434201Y-43272886D01*
X118627114Y-43465799D01*
X118853957Y-43617371D01*
X119106011Y-43721775D01*
X119373589Y-43775000D01*
X119646411Y-43775000D01*
X119913989Y-43721775D01*
X120166043Y-43617371D01*
X120392886Y-43465799D01*
X120585799Y-43272886D01*
X120737371Y-43046043D01*
X120780000Y-42943127D01*
X120822629Y-43046043D01*
X120974201Y-43272886D01*
X121167114Y-43465799D01*
X121393957Y-43617371D01*
X121646011Y-43721775D01*
X121913589Y-43775000D01*
X122186411Y-43775000D01*
X122360854Y-43740301D01*
X122864746Y-44244193D01*
X122887762Y-44272238D01*
X122999680Y-44364087D01*
X123127367Y-44432337D01*
X123265915Y-44474365D01*
X123373895Y-44485000D01*
X123373904Y-44485000D01*
X123409999Y-44488555D01*
X123446094Y-44485000D01*
X123849328Y-44485000D01*
X123832795Y-44509744D01*
X123754774Y-44698102D01*
X123715000Y-44898061D01*
X123715000Y-45101939D01*
X123754774Y-45301898D01*
X123819253Y-45457563D01*
X123789506Y-45473463D01*
X123692815Y-45552815D01*
X123613463Y-45649506D01*
X123554498Y-45759820D01*
X123518188Y-45879518D01*
X123505928Y-46004000D01*
X123505928Y-47004000D01*
X123518188Y-47128482D01*
X123554498Y-47248180D01*
X123613463Y-47358494D01*
X123691842Y-47454000D01*
X123613463Y-47549506D01*
X123554498Y-47659820D01*
X123518188Y-47779518D01*
X123505928Y-47904000D01*
X123505928Y-48904000D01*
X123518188Y-49028482D01*
X123554498Y-49148180D01*
X123613463Y-49258494D01*
X123692815Y-49355185D01*
X123789506Y-49434537D01*
X123899820Y-49493502D01*
X123914883Y-49498071D01*
X123905928Y-49589000D01*
X123905928Y-50839000D01*
X123918188Y-50963482D01*
X123944714Y-51050928D01*
X123589000Y-51050928D01*
X123464518Y-51063188D01*
X123344820Y-51099498D01*
X123234506Y-51158463D01*
X123137815Y-51237815D01*
X123058463Y-51334506D01*
X122999498Y-51444820D01*
X122963188Y-51564518D01*
X122950928Y-51689000D01*
X122950928Y-52939000D01*
X122958114Y-53011961D01*
X122883820Y-53034498D01*
X122773506Y-53093463D01*
X122676815Y-53172815D01*
X122597463Y-53269506D01*
X122538498Y-53379820D01*
X122502188Y-53499518D01*
X122489928Y-53624000D01*
X122489928Y-54624000D01*
X122502188Y-54748482D01*
X122538498Y-54868180D01*
X122597463Y-54978494D01*
X122675842Y-55074000D01*
X122597463Y-55169506D01*
X122538498Y-55279820D01*
X122502188Y-55399518D01*
X122489928Y-55524000D01*
X122489928Y-56524000D01*
X122502188Y-56648482D01*
X122530169Y-56740722D01*
X121319259Y-55529812D01*
X121296238Y-55501762D01*
X121184320Y-55409913D01*
X121056633Y-55341663D01*
X120918085Y-55299635D01*
X120810105Y-55289000D01*
X120774000Y-55285444D01*
X120737895Y-55289000D01*
X116992287Y-55289000D01*
X116989502Y-55279820D01*
X116930537Y-55169506D01*
X116852158Y-55074000D01*
X116930537Y-54978494D01*
X116989502Y-54868180D01*
X117025812Y-54748482D01*
X117038072Y-54624000D01*
X117038072Y-53624000D01*
X117025812Y-53499518D01*
X117016758Y-53469672D01*
X117126820Y-53528502D01*
X117246518Y-53564812D01*
X117371000Y-53577072D01*
X117971000Y-53577072D01*
X118095482Y-53564812D01*
X118215180Y-53528502D01*
X118325494Y-53469537D01*
X118422185Y-53390185D01*
X118501537Y-53293494D01*
X118560502Y-53183180D01*
X118596812Y-53063482D01*
X118607968Y-52950208D01*
X118610276Y-52948974D01*
X118726001Y-52854001D01*
X118749804Y-52824997D01*
X120182088Y-51392714D01*
X120243919Y-51418325D01*
X120579117Y-51485000D01*
X120920883Y-51485000D01*
X121256081Y-51418325D01*
X121571831Y-51287537D01*
X121855998Y-51097663D01*
X122097663Y-50855998D01*
X122287537Y-50571831D01*
X122418325Y-50256081D01*
X122485000Y-49920883D01*
X122485000Y-49579117D01*
X122418325Y-49243919D01*
X122287537Y-48928169D01*
X122097663Y-48644002D01*
X121855998Y-48402337D01*
X121571831Y-48212463D01*
X121256081Y-48081675D01*
X120920883Y-48015000D01*
X120579117Y-48015000D01*
X120243919Y-48081675D01*
X119928169Y-48212463D01*
X119644002Y-48402337D01*
X119402337Y-48644002D01*
X119212463Y-48928169D01*
X119081675Y-49243919D01*
X119015000Y-49579117D01*
X119015000Y-49920883D01*
X119081675Y-50256081D01*
X119107286Y-50317912D01*
X118287203Y-51137996D01*
X118215180Y-51099498D01*
X118095482Y-51063188D01*
X117971000Y-51050928D01*
X117615286Y-51050928D01*
X117641812Y-50963482D01*
X117654072Y-50839000D01*
X117654072Y-49589000D01*
X117645117Y-49498071D01*
X117660180Y-49493502D01*
X117770494Y-49434537D01*
X117867185Y-49355185D01*
X117946537Y-49258494D01*
X118005502Y-49148180D01*
X118041812Y-49028482D01*
X118054072Y-48904000D01*
X118054072Y-47904000D01*
X118041812Y-47779518D01*
X118005502Y-47659820D01*
X117946537Y-47549506D01*
X117868158Y-47454000D01*
X117946537Y-47358494D01*
X118005502Y-47248180D01*
X118041812Y-47128482D01*
X118054072Y-47004000D01*
X118054072Y-46004000D01*
X118041812Y-45879518D01*
X118005502Y-45759820D01*
X117946537Y-45649506D01*
X117867185Y-45552815D01*
X117770494Y-45473463D01*
X117660180Y-45414498D01*
X117540482Y-45378188D01*
X117416000Y-45365928D01*
X116016000Y-45365928D01*
X115891518Y-45378188D01*
X115771820Y-45414498D01*
X115661506Y-45473463D01*
X115564815Y-45552815D01*
X115485463Y-45649506D01*
X115426498Y-45759820D01*
X115423713Y-45769000D01*
X114308447Y-45769000D01*
X113785000Y-45245554D01*
X113785000Y-45148061D01*
X113745226Y-44948102D01*
X113667205Y-44759744D01*
X113553937Y-44590226D01*
X113409774Y-44446063D01*
X113240256Y-44332795D01*
X113051898Y-44254774D01*
X112851939Y-44215000D01*
X112648061Y-44215000D01*
X112448102Y-44254774D01*
X112259744Y-44332795D01*
X112090226Y-44446063D01*
X111946063Y-44590226D01*
X111832795Y-44759744D01*
X111754774Y-44948102D01*
X111715000Y-45148061D01*
X111715000Y-45351939D01*
X111754774Y-45551898D01*
X111832795Y-45740256D01*
X111946063Y-45909774D01*
X112090226Y-46053937D01*
X112259744Y-46167205D01*
X112448102Y-46245226D01*
X112648061Y-46285000D01*
X112745554Y-46285000D01*
X113458746Y-46998193D01*
X113481762Y-47026238D01*
X113593680Y-47118087D01*
X113721367Y-47186337D01*
X113859915Y-47228365D01*
X114004000Y-47242556D01*
X114040105Y-47239000D01*
X115423713Y-47239000D01*
X115426498Y-47248180D01*
X115485463Y-47358494D01*
X115563842Y-47454000D01*
X115485463Y-47549506D01*
X115426498Y-47659820D01*
X115390188Y-47779518D01*
X115377928Y-47904000D01*
X115377928Y-48904000D01*
X115390188Y-49028482D01*
X115426498Y-49148180D01*
X115485463Y-49258494D01*
X115564815Y-49355185D01*
X115661506Y-49434537D01*
X115771820Y-49493502D01*
X115786883Y-49498071D01*
X115777928Y-49589000D01*
X115777928Y-50839000D01*
X115790188Y-50963482D01*
X115816714Y-51050928D01*
X115461000Y-51050928D01*
X115336518Y-51063188D01*
X115216820Y-51099498D01*
X115106506Y-51158463D01*
X115009815Y-51237815D01*
X114930463Y-51334506D01*
X114871498Y-51444820D01*
X114835188Y-51564518D01*
X114822928Y-51689000D01*
X114822928Y-52939000D01*
X114830114Y-53011961D01*
X114755820Y-53034498D01*
X114645506Y-53093463D01*
X114548815Y-53172815D01*
X114469463Y-53269506D01*
X114410498Y-53379820D01*
X114374188Y-53499518D01*
X114361928Y-53624000D01*
X114361928Y-54624000D01*
X114374188Y-54748482D01*
X114410498Y-54868180D01*
X114469463Y-54978494D01*
X114547842Y-55074000D01*
X114469463Y-55169506D01*
X114410498Y-55279820D01*
X114374188Y-55399518D01*
X114361928Y-55524000D01*
X114361928Y-56524000D01*
X114374188Y-56648482D01*
X114409533Y-56765000D01*
X109352447Y-56765000D01*
X108910072Y-56322625D01*
X108910072Y-55524000D01*
X108897812Y-55399518D01*
X108861502Y-55279820D01*
X108802537Y-55169506D01*
X108724158Y-55074000D01*
X108802537Y-54978494D01*
X108861502Y-54868180D01*
X108897812Y-54748482D01*
X108910072Y-54624000D01*
X108910072Y-53624000D01*
X108897812Y-53499518D01*
X108888758Y-53469672D01*
X108998820Y-53528502D01*
X109118518Y-53564812D01*
X109243000Y-53577072D01*
X109843000Y-53577072D01*
X109967482Y-53564812D01*
X110087180Y-53528502D01*
X110197494Y-53469537D01*
X110294185Y-53390185D01*
X110373537Y-53293494D01*
X110432502Y-53183180D01*
X110465621Y-53074000D01*
X110648678Y-53074000D01*
X110686000Y-53077676D01*
X110723322Y-53074000D01*
X110723333Y-53074000D01*
X110834986Y-53063003D01*
X110978247Y-53019546D01*
X111110276Y-52948974D01*
X111226001Y-52854001D01*
X111249804Y-52824997D01*
X112039802Y-52035000D01*
X112101939Y-52035000D01*
X112301898Y-51995226D01*
X112490256Y-51917205D01*
X112659774Y-51803937D01*
X112803937Y-51659774D01*
X112917205Y-51490256D01*
X112995226Y-51301898D01*
X113035000Y-51101939D01*
X113035000Y-50898061D01*
X112995226Y-50698102D01*
X112917205Y-50509744D01*
X112803937Y-50340226D01*
X112659774Y-50196063D01*
X112490256Y-50082795D01*
X112301898Y-50004774D01*
X112101939Y-49965000D01*
X111898061Y-49965000D01*
X111698102Y-50004774D01*
X111509744Y-50082795D01*
X111340226Y-50196063D01*
X111196063Y-50340226D01*
X111082795Y-50509744D01*
X111004774Y-50698102D01*
X110965000Y-50898061D01*
X110965000Y-50960198D01*
X110443645Y-51481554D01*
X110432502Y-51444820D01*
X110373537Y-51334506D01*
X110294185Y-51237815D01*
X110197494Y-51158463D01*
X110087180Y-51099498D01*
X109967482Y-51063188D01*
X109843000Y-51050928D01*
X109487286Y-51050928D01*
X109513812Y-50963482D01*
X109526072Y-50839000D01*
X109526072Y-49589000D01*
X109517117Y-49498071D01*
X109532180Y-49493502D01*
X109642494Y-49434537D01*
X109739185Y-49355185D01*
X109818537Y-49258494D01*
X109877502Y-49148180D01*
X109913812Y-49028482D01*
X109926072Y-48904000D01*
X109926072Y-47904000D01*
X109913812Y-47779518D01*
X109877502Y-47659820D01*
X109818537Y-47549506D01*
X109740158Y-47454000D01*
X109818537Y-47358494D01*
X109877502Y-47248180D01*
X109913812Y-47128482D01*
X109926072Y-47004000D01*
X109926072Y-46004000D01*
X109913812Y-45879518D01*
X109877502Y-45759820D01*
X109818537Y-45649506D01*
X109739185Y-45552815D01*
X109642494Y-45473463D01*
X109532180Y-45414498D01*
X109412482Y-45378188D01*
X109323000Y-45369375D01*
X109323000Y-41966446D01*
X114924193Y-36365254D01*
X114952238Y-36342238D01*
X115044087Y-36230320D01*
X115081503Y-36160320D01*
X115112337Y-36102634D01*
X115154365Y-35964085D01*
X115168556Y-35820000D01*
X115165000Y-35783895D01*
X115165000Y-33404613D01*
X115312886Y-33305799D01*
X115505799Y-33112886D01*
X115657371Y-32886043D01*
X115700000Y-32783127D01*
X115742629Y-32886043D01*
X115894201Y-33112886D01*
X116087114Y-33305799D01*
X116313957Y-33457371D01*
X116566011Y-33561775D01*
X116833589Y-33615000D01*
X117106411Y-33615000D01*
X117373989Y-33561775D01*
X117626043Y-33457371D01*
X117852886Y-33305799D01*
X118045799Y-33112886D01*
X118197371Y-32886043D01*
X118240000Y-32783127D01*
X118282629Y-32886043D01*
%TA.AperFunction,NonConductor*%
D28*
G36*
X118282629Y-32886043D02*
G01*
X118434201Y-33112886D01*
X118627114Y-33305799D01*
X118853957Y-33457371D01*
X119106011Y-33561775D01*
X119373589Y-33615000D01*
X119646411Y-33615000D01*
X119820855Y-33580301D01*
X122484746Y-36244193D01*
X122507762Y-36272238D01*
X122593057Y-36342238D01*
X122619680Y-36364087D01*
X122747366Y-36432337D01*
X122885915Y-36474365D01*
X123030000Y-36488556D01*
X123066105Y-36485000D01*
X129195554Y-36485000D01*
X130015001Y-37304448D01*
X130015001Y-38975554D01*
X129295258Y-38255812D01*
X129272238Y-38227762D01*
X129160320Y-38135913D01*
X129032633Y-38067663D01*
X128894085Y-38025635D01*
X128786105Y-38015000D01*
X128750000Y-38011444D01*
X128713895Y-38015000D01*
X116536104Y-38015000D01*
X116499999Y-38011444D01*
X116355914Y-38025635D01*
X116313886Y-38038384D01*
X116217367Y-38067663D01*
X116089680Y-38135913D01*
X115977762Y-38227762D01*
X115954746Y-38255807D01*
X113935808Y-40274746D01*
X113907762Y-40297763D01*
X113815913Y-40409681D01*
X113747663Y-40537368D01*
X113718384Y-40633887D01*
X113705635Y-40675915D01*
X113691444Y-40820000D01*
X113695000Y-40856105D01*
X113695000Y-41001928D01*
X113680000Y-41001928D01*
X113555518Y-41014188D01*
X113435820Y-41050498D01*
X113325506Y-41109463D01*
X113228815Y-41188815D01*
X113149463Y-41285506D01*
X113090498Y-41395820D01*
X113054188Y-41515518D01*
X113041928Y-41640000D01*
X113041928Y-43140000D01*
X113054188Y-43264482D01*
X113090498Y-43384180D01*
X113149463Y-43494494D01*
X113228815Y-43591185D01*
X113325506Y-43670537D01*
X113435820Y-43729502D01*
X113555518Y-43765812D01*
X113680000Y-43778072D01*
X115180000Y-43778072D01*
X115304482Y-43765812D01*
X115424180Y-43729502D01*
X115534494Y-43670537D01*
X115631185Y-43591185D01*
X115710537Y-43494494D01*
X115769502Y-43384180D01*
X115805812Y-43264482D01*
X115816445Y-43156517D01*
X115894201Y-43272886D01*
X116087114Y-43465799D01*
X116313957Y-43617371D01*
X116566011Y-43721775D01*
X116833589Y-43775000D01*
X117106411Y-43775000D01*
X117373989Y-43721775D01*
X117626043Y-43617371D01*
X117852886Y-43465799D01*
X118045799Y-43272886D01*
X118197371Y-43046043D01*
X118240000Y-42943127D01*
X118282629Y-43046043D01*
X118434201Y-43272886D01*
X118627114Y-43465799D01*
X118853957Y-43617371D01*
X119106011Y-43721775D01*
X119373589Y-43775000D01*
X119646411Y-43775000D01*
X119913989Y-43721775D01*
X120166043Y-43617371D01*
X120392886Y-43465799D01*
X120585799Y-43272886D01*
X120737371Y-43046043D01*
X120780000Y-42943127D01*
X120822629Y-43046043D01*
X120974201Y-43272886D01*
X121167114Y-43465799D01*
X121393957Y-43617371D01*
X121646011Y-43721775D01*
X121913589Y-43775000D01*
X122186411Y-43775000D01*
X122360854Y-43740301D01*
X122864746Y-44244193D01*
X122887762Y-44272238D01*
X122999680Y-44364087D01*
X123127367Y-44432337D01*
X123265915Y-44474365D01*
X123373895Y-44485000D01*
X123373904Y-44485000D01*
X123409999Y-44488555D01*
X123446094Y-44485000D01*
X123849328Y-44485000D01*
X123832795Y-44509744D01*
X123754774Y-44698102D01*
X123715000Y-44898061D01*
X123715000Y-45101939D01*
X123754774Y-45301898D01*
X123819253Y-45457563D01*
X123789506Y-45473463D01*
X123692815Y-45552815D01*
X123613463Y-45649506D01*
X123554498Y-45759820D01*
X123518188Y-45879518D01*
X123505928Y-46004000D01*
X123505928Y-47004000D01*
X123518188Y-47128482D01*
X123554498Y-47248180D01*
X123613463Y-47358494D01*
X123691842Y-47454000D01*
X123613463Y-47549506D01*
X123554498Y-47659820D01*
X123518188Y-47779518D01*
X123505928Y-47904000D01*
X123505928Y-48904000D01*
X123518188Y-49028482D01*
X123554498Y-49148180D01*
X123613463Y-49258494D01*
X123692815Y-49355185D01*
X123789506Y-49434537D01*
X123899820Y-49493502D01*
X123914883Y-49498071D01*
X123905928Y-49589000D01*
X123905928Y-50839000D01*
X123918188Y-50963482D01*
X123944714Y-51050928D01*
X123589000Y-51050928D01*
X123464518Y-51063188D01*
X123344820Y-51099498D01*
X123234506Y-51158463D01*
X123137815Y-51237815D01*
X123058463Y-51334506D01*
X122999498Y-51444820D01*
X122963188Y-51564518D01*
X122950928Y-51689000D01*
X122950928Y-52939000D01*
X122958114Y-53011961D01*
X122883820Y-53034498D01*
X122773506Y-53093463D01*
X122676815Y-53172815D01*
X122597463Y-53269506D01*
X122538498Y-53379820D01*
X122502188Y-53499518D01*
X122489928Y-53624000D01*
X122489928Y-54624000D01*
X122502188Y-54748482D01*
X122538498Y-54868180D01*
X122597463Y-54978494D01*
X122675842Y-55074000D01*
X122597463Y-55169506D01*
X122538498Y-55279820D01*
X122502188Y-55399518D01*
X122489928Y-55524000D01*
X122489928Y-56524000D01*
X122502188Y-56648482D01*
X122530169Y-56740722D01*
X121319259Y-55529812D01*
X121296238Y-55501762D01*
X121184320Y-55409913D01*
X121056633Y-55341663D01*
X120918085Y-55299635D01*
X120810105Y-55289000D01*
X120774000Y-55285444D01*
X120737895Y-55289000D01*
X116992287Y-55289000D01*
X116989502Y-55279820D01*
X116930537Y-55169506D01*
X116852158Y-55074000D01*
X116930537Y-54978494D01*
X116989502Y-54868180D01*
X117025812Y-54748482D01*
X117038072Y-54624000D01*
X117038072Y-53624000D01*
X117025812Y-53499518D01*
X117016758Y-53469672D01*
X117126820Y-53528502D01*
X117246518Y-53564812D01*
X117371000Y-53577072D01*
X117971000Y-53577072D01*
X118095482Y-53564812D01*
X118215180Y-53528502D01*
X118325494Y-53469537D01*
X118422185Y-53390185D01*
X118501537Y-53293494D01*
X118560502Y-53183180D01*
X118596812Y-53063482D01*
X118607968Y-52950208D01*
X118610276Y-52948974D01*
X118726001Y-52854001D01*
X118749804Y-52824997D01*
X120182088Y-51392714D01*
X120243919Y-51418325D01*
X120579117Y-51485000D01*
X120920883Y-51485000D01*
X121256081Y-51418325D01*
X121571831Y-51287537D01*
X121855998Y-51097663D01*
X122097663Y-50855998D01*
X122287537Y-50571831D01*
X122418325Y-50256081D01*
X122485000Y-49920883D01*
X122485000Y-49579117D01*
X122418325Y-49243919D01*
X122287537Y-48928169D01*
X122097663Y-48644002D01*
X121855998Y-48402337D01*
X121571831Y-48212463D01*
X121256081Y-48081675D01*
X120920883Y-48015000D01*
X120579117Y-48015000D01*
X120243919Y-48081675D01*
X119928169Y-48212463D01*
X119644002Y-48402337D01*
X119402337Y-48644002D01*
X119212463Y-48928169D01*
X119081675Y-49243919D01*
X119015000Y-49579117D01*
X119015000Y-49920883D01*
X119081675Y-50256081D01*
X119107286Y-50317912D01*
X118287203Y-51137996D01*
X118215180Y-51099498D01*
X118095482Y-51063188D01*
X117971000Y-51050928D01*
X117615286Y-51050928D01*
X117641812Y-50963482D01*
X117654072Y-50839000D01*
X117654072Y-49589000D01*
X117645117Y-49498071D01*
X117660180Y-49493502D01*
X117770494Y-49434537D01*
X117867185Y-49355185D01*
X117946537Y-49258494D01*
X118005502Y-49148180D01*
X118041812Y-49028482D01*
X118054072Y-48904000D01*
X118054072Y-47904000D01*
X118041812Y-47779518D01*
X118005502Y-47659820D01*
X117946537Y-47549506D01*
X117868158Y-47454000D01*
X117946537Y-47358494D01*
X118005502Y-47248180D01*
X118041812Y-47128482D01*
X118054072Y-47004000D01*
X118054072Y-46004000D01*
X118041812Y-45879518D01*
X118005502Y-45759820D01*
X117946537Y-45649506D01*
X117867185Y-45552815D01*
X117770494Y-45473463D01*
X117660180Y-45414498D01*
X117540482Y-45378188D01*
X117416000Y-45365928D01*
X116016000Y-45365928D01*
X115891518Y-45378188D01*
X115771820Y-45414498D01*
X115661506Y-45473463D01*
X115564815Y-45552815D01*
X115485463Y-45649506D01*
X115426498Y-45759820D01*
X115423713Y-45769000D01*
X114308447Y-45769000D01*
X113785000Y-45245554D01*
X113785000Y-45148061D01*
X113745226Y-44948102D01*
X113667205Y-44759744D01*
X113553937Y-44590226D01*
X113409774Y-44446063D01*
X113240256Y-44332795D01*
X113051898Y-44254774D01*
X112851939Y-44215000D01*
X112648061Y-44215000D01*
X112448102Y-44254774D01*
X112259744Y-44332795D01*
X112090226Y-44446063D01*
X111946063Y-44590226D01*
X111832795Y-44759744D01*
X111754774Y-44948102D01*
X111715000Y-45148061D01*
X111715000Y-45351939D01*
X111754774Y-45551898D01*
X111832795Y-45740256D01*
X111946063Y-45909774D01*
X112090226Y-46053937D01*
X112259744Y-46167205D01*
X112448102Y-46245226D01*
X112648061Y-46285000D01*
X112745554Y-46285000D01*
X113458746Y-46998193D01*
X113481762Y-47026238D01*
X113593680Y-47118087D01*
X113721367Y-47186337D01*
X113859915Y-47228365D01*
X114004000Y-47242556D01*
X114040105Y-47239000D01*
X115423713Y-47239000D01*
X115426498Y-47248180D01*
X115485463Y-47358494D01*
X115563842Y-47454000D01*
X115485463Y-47549506D01*
X115426498Y-47659820D01*
X115390188Y-47779518D01*
X115377928Y-47904000D01*
X115377928Y-48904000D01*
X115390188Y-49028482D01*
X115426498Y-49148180D01*
X115485463Y-49258494D01*
X115564815Y-49355185D01*
X115661506Y-49434537D01*
X115771820Y-49493502D01*
X115786883Y-49498071D01*
X115777928Y-49589000D01*
X115777928Y-50839000D01*
X115790188Y-50963482D01*
X115816714Y-51050928D01*
X115461000Y-51050928D01*
X115336518Y-51063188D01*
X115216820Y-51099498D01*
X115106506Y-51158463D01*
X115009815Y-51237815D01*
X114930463Y-51334506D01*
X114871498Y-51444820D01*
X114835188Y-51564518D01*
X114822928Y-51689000D01*
X114822928Y-52939000D01*
X114830114Y-53011961D01*
X114755820Y-53034498D01*
X114645506Y-53093463D01*
X114548815Y-53172815D01*
X114469463Y-53269506D01*
X114410498Y-53379820D01*
X114374188Y-53499518D01*
X114361928Y-53624000D01*
X114361928Y-54624000D01*
X114374188Y-54748482D01*
X114410498Y-54868180D01*
X114469463Y-54978494D01*
X114547842Y-55074000D01*
X114469463Y-55169506D01*
X114410498Y-55279820D01*
X114374188Y-55399518D01*
X114361928Y-55524000D01*
X114361928Y-56524000D01*
X114374188Y-56648482D01*
X114409533Y-56765000D01*
X109352447Y-56765000D01*
X108910072Y-56322625D01*
X108910072Y-55524000D01*
X108897812Y-55399518D01*
X108861502Y-55279820D01*
X108802537Y-55169506D01*
X108724158Y-55074000D01*
X108802537Y-54978494D01*
X108861502Y-54868180D01*
X108897812Y-54748482D01*
X108910072Y-54624000D01*
X108910072Y-53624000D01*
X108897812Y-53499518D01*
X108888758Y-53469672D01*
X108998820Y-53528502D01*
X109118518Y-53564812D01*
X109243000Y-53577072D01*
X109843000Y-53577072D01*
X109967482Y-53564812D01*
X110087180Y-53528502D01*
X110197494Y-53469537D01*
X110294185Y-53390185D01*
X110373537Y-53293494D01*
X110432502Y-53183180D01*
X110465621Y-53074000D01*
X110648678Y-53074000D01*
X110686000Y-53077676D01*
X110723322Y-53074000D01*
X110723333Y-53074000D01*
X110834986Y-53063003D01*
X110978247Y-53019546D01*
X111110276Y-52948974D01*
X111226001Y-52854001D01*
X111249804Y-52824997D01*
X112039802Y-52035000D01*
X112101939Y-52035000D01*
X112301898Y-51995226D01*
X112490256Y-51917205D01*
X112659774Y-51803937D01*
X112803937Y-51659774D01*
X112917205Y-51490256D01*
X112995226Y-51301898D01*
X113035000Y-51101939D01*
X113035000Y-50898061D01*
X112995226Y-50698102D01*
X112917205Y-50509744D01*
X112803937Y-50340226D01*
X112659774Y-50196063D01*
X112490256Y-50082795D01*
X112301898Y-50004774D01*
X112101939Y-49965000D01*
X111898061Y-49965000D01*
X111698102Y-50004774D01*
X111509744Y-50082795D01*
X111340226Y-50196063D01*
X111196063Y-50340226D01*
X111082795Y-50509744D01*
X111004774Y-50698102D01*
X110965000Y-50898061D01*
X110965000Y-50960198D01*
X110443645Y-51481554D01*
X110432502Y-51444820D01*
X110373537Y-51334506D01*
X110294185Y-51237815D01*
X110197494Y-51158463D01*
X110087180Y-51099498D01*
X109967482Y-51063188D01*
X109843000Y-51050928D01*
X109487286Y-51050928D01*
X109513812Y-50963482D01*
X109526072Y-50839000D01*
X109526072Y-49589000D01*
X109517117Y-49498071D01*
X109532180Y-49493502D01*
X109642494Y-49434537D01*
X109739185Y-49355185D01*
X109818537Y-49258494D01*
X109877502Y-49148180D01*
X109913812Y-49028482D01*
X109926072Y-48904000D01*
X109926072Y-47904000D01*
X109913812Y-47779518D01*
X109877502Y-47659820D01*
X109818537Y-47549506D01*
X109740158Y-47454000D01*
X109818537Y-47358494D01*
X109877502Y-47248180D01*
X109913812Y-47128482D01*
X109926072Y-47004000D01*
X109926072Y-46004000D01*
X109913812Y-45879518D01*
X109877502Y-45759820D01*
X109818537Y-45649506D01*
X109739185Y-45552815D01*
X109642494Y-45473463D01*
X109532180Y-45414498D01*
X109412482Y-45378188D01*
X109323000Y-45369375D01*
X109323000Y-41966446D01*
X114924193Y-36365254D01*
X114952238Y-36342238D01*
X115044087Y-36230320D01*
X115081503Y-36160320D01*
X115112337Y-36102634D01*
X115154365Y-35964085D01*
X115168556Y-35820000D01*
X115165000Y-35783895D01*
X115165000Y-33404613D01*
X115312886Y-33305799D01*
X115505799Y-33112886D01*
X115657371Y-32886043D01*
X115700000Y-32783127D01*
X115742629Y-32886043D01*
X115894201Y-33112886D01*
X116087114Y-33305799D01*
X116313957Y-33457371D01*
X116566011Y-33561775D01*
X116833589Y-33615000D01*
X117106411Y-33615000D01*
X117373989Y-33561775D01*
X117626043Y-33457371D01*
X117852886Y-33305799D01*
X118045799Y-33112886D01*
X118197371Y-32886043D01*
X118240000Y-32783127D01*
X118282629Y-32886043D01*
G37*
%TD.AperFunction*%
D27*
X127655990Y-55986542D02*
X127592939Y-55974000D01*
X127525999Y-55974000D01*
X127525999Y-44827104D01*
X127529555Y-44790999D01*
X127515364Y-44646914D01*
X127498168Y-44590226D01*
X127473336Y-44508366D01*
X127405086Y-44380679D01*
X127313237Y-44268761D01*
X127285192Y-44245745D01*
X126769964Y-43730518D01*
X126993589Y-43775000D01*
X127266411Y-43775000D01*
X127533989Y-43721775D01*
X127655991Y-43671240D01*
X127655990Y-55986542D01*
%TA.AperFunction,NonConductor*%
D28*
G36*
X127655990Y-55986542D02*
G01*
X127592939Y-55974000D01*
X127525999Y-55974000D01*
X127525999Y-44827104D01*
X127529555Y-44790999D01*
X127515364Y-44646914D01*
X127498168Y-44590226D01*
X127473336Y-44508366D01*
X127405086Y-44380679D01*
X127313237Y-44268761D01*
X127285192Y-44245745D01*
X126769964Y-43730518D01*
X126993589Y-43775000D01*
X127266411Y-43775000D01*
X127533989Y-43721775D01*
X127655991Y-43671240D01*
X127655990Y-55986542D01*
G37*
%TD.AperFunction*%
D27*
X116745188Y-51564518D02*
X116732928Y-51689000D01*
X116732928Y-52939000D01*
X116745188Y-53063482D01*
X116754242Y-53093328D01*
X116687392Y-53057596D01*
X116699072Y-52939000D01*
X116699072Y-51689000D01*
X116686812Y-51564518D01*
X116660286Y-51477072D01*
X116771714Y-51477072D01*
X116745188Y-51564518D01*
%TA.AperFunction,NonConductor*%
D28*
G36*
X116745188Y-51564518D02*
G01*
X116732928Y-51689000D01*
X116732928Y-52939000D01*
X116745188Y-53063482D01*
X116754242Y-53093328D01*
X116687392Y-53057596D01*
X116699072Y-52939000D01*
X116699072Y-51689000D01*
X116686812Y-51564518D01*
X116660286Y-51477072D01*
X116771714Y-51477072D01*
X116745188Y-51564518D01*
G37*
%TD.AperFunction*%
D27*
X124873188Y-51564518D02*
X124860928Y-51689000D01*
X124860928Y-52939000D01*
X124873188Y-53063482D01*
X124882242Y-53093328D01*
X124815392Y-53057596D01*
X124827072Y-52939000D01*
X124827072Y-51689000D01*
X124814812Y-51564518D01*
X124788286Y-51477072D01*
X124899714Y-51477072D01*
X124873188Y-51564518D01*
%TA.AperFunction,NonConductor*%
D28*
G36*
X124873188Y-51564518D02*
G01*
X124860928Y-51689000D01*
X124860928Y-52939000D01*
X124873188Y-53063482D01*
X124882242Y-53093328D01*
X124815392Y-53057596D01*
X124827072Y-52939000D01*
X124827072Y-51689000D01*
X124814812Y-51564518D01*
X124788286Y-51477072D01*
X124899714Y-51477072D01*
X124873188Y-51564518D01*
G37*
%TD.AperFunction*%
D27*
X133001188Y-51564518D02*
X132988928Y-51689000D01*
X132988928Y-52939000D01*
X133001188Y-53063482D01*
X133010242Y-53093328D01*
X132943392Y-53057596D01*
X132955072Y-52939000D01*
X132955072Y-51689000D01*
X132942812Y-51564518D01*
X132916286Y-51477072D01*
X133027714Y-51477072D01*
X133001188Y-51564518D01*
%TA.AperFunction,NonConductor*%
D28*
G36*
X133001188Y-51564518D02*
G01*
X132988928Y-51689000D01*
X132988928Y-52939000D01*
X133001188Y-53063482D01*
X133010242Y-53093328D01*
X132943392Y-53057596D01*
X132955072Y-52939000D01*
X132955072Y-51689000D01*
X132942812Y-51564518D01*
X132916286Y-51477072D01*
X133027714Y-51477072D01*
X133001188Y-51564518D01*
G37*
%TD.AperFunction*%
D27*
X108617188Y-51564518D02*
X108604928Y-51689000D01*
X108604928Y-52939000D01*
X108617188Y-53063482D01*
X108626242Y-53093328D01*
X108559392Y-53057596D01*
X108571072Y-52939000D01*
X108571072Y-51689000D01*
X108558812Y-51564518D01*
X108532286Y-51477072D01*
X108643714Y-51477072D01*
X108617188Y-51564518D01*
%TA.AperFunction,NonConductor*%
D28*
G36*
X108617188Y-51564518D02*
G01*
X108604928Y-51689000D01*
X108604928Y-52939000D01*
X108617188Y-53063482D01*
X108626242Y-53093328D01*
X108559392Y-53057596D01*
X108571072Y-52939000D01*
X108571072Y-51689000D01*
X108558812Y-51564518D01*
X108532286Y-51477072D01*
X108643714Y-51477072D01*
X108617188Y-51564518D01*
G37*
%TD.AperFunction*%
D27*
X131509744Y-45917205D02*
X131637274Y-45970030D01*
X131633928Y-46004000D01*
X131633928Y-47004000D01*
X131646188Y-47128482D01*
X131682498Y-47248180D01*
X131741463Y-47358494D01*
X131819842Y-47454000D01*
X131741463Y-47549506D01*
X131682498Y-47659820D01*
X131646188Y-47779518D01*
X131633928Y-47904000D01*
X131633928Y-48904000D01*
X131646188Y-49028482D01*
X131682498Y-49148180D01*
X131741463Y-49258494D01*
X131820815Y-49355185D01*
X131917506Y-49434537D01*
X132027820Y-49493502D01*
X132042883Y-49498071D01*
X132033928Y-49589000D01*
X132033928Y-50839000D01*
X132046188Y-50963482D01*
X132072714Y-51050928D01*
X131717000Y-51050928D01*
X131592518Y-51063188D01*
X131476000Y-51098533D01*
X131476000Y-45894658D01*
X131509744Y-45917205D01*
%TA.AperFunction,NonConductor*%
D28*
G36*
X131509744Y-45917205D02*
G01*
X131637274Y-45970030D01*
X131633928Y-46004000D01*
X131633928Y-47004000D01*
X131646188Y-47128482D01*
X131682498Y-47248180D01*
X131741463Y-47358494D01*
X131819842Y-47454000D01*
X131741463Y-47549506D01*
X131682498Y-47659820D01*
X131646188Y-47779518D01*
X131633928Y-47904000D01*
X131633928Y-48904000D01*
X131646188Y-49028482D01*
X131682498Y-49148180D01*
X131741463Y-49258494D01*
X131820815Y-49355185D01*
X131917506Y-49434537D01*
X132027820Y-49493502D01*
X132042883Y-49498071D01*
X132033928Y-49589000D01*
X132033928Y-50839000D01*
X132046188Y-50963482D01*
X132072714Y-51050928D01*
X131717000Y-51050928D01*
X131592518Y-51063188D01*
X131476000Y-51098533D01*
X131476000Y-45894658D01*
X131509744Y-45917205D01*
G37*
%TD.AperFunction*%
D27*
X126056000Y-51050928D02*
X125743286Y-51050928D01*
X125769812Y-50963482D01*
X125782072Y-50839000D01*
X125782072Y-49589000D01*
X125773117Y-49498071D01*
X125788180Y-49493502D01*
X125898494Y-49434537D01*
X125995185Y-49355185D01*
X126056000Y-49281082D01*
X126056000Y-51050928D01*
%TA.AperFunction,NonConductor*%
D28*
G36*
X126056000Y-51050928D02*
G01*
X125743286Y-51050928D01*
X125769812Y-50963482D01*
X125782072Y-50839000D01*
X125782072Y-49589000D01*
X125773117Y-49498071D01*
X125788180Y-49493502D01*
X125898494Y-49434537D01*
X125995185Y-49355185D01*
X126056000Y-49281082D01*
X126056000Y-51050928D01*
G37*
%TD.AperFunction*%
D27*
X126056000Y-47526918D02*
X125996158Y-47454000D01*
X126056000Y-47381082D01*
X126056000Y-47526918D01*
%TA.AperFunction,NonConductor*%
D28*
G36*
X126056000Y-47526918D02*
G01*
X125996158Y-47454000D01*
X126056000Y-47381082D01*
X126056000Y-47526918D01*
G37*
%TD.AperFunction*%
D27*
X126056000Y-45095447D02*
X126056000Y-45626918D01*
X125995185Y-45552815D01*
X125898494Y-45473463D01*
X125788180Y-45414498D01*
X125708586Y-45390353D01*
X125745226Y-45301898D01*
X125785000Y-45101939D01*
X125785000Y-44898061D01*
X125766721Y-44806168D01*
X126056000Y-45095447D01*
%TA.AperFunction,NonConductor*%
D28*
G36*
X126056000Y-45095447D02*
G01*
X126056000Y-45626918D01*
X125995185Y-45552815D01*
X125898494Y-45473463D01*
X125788180Y-45414498D01*
X125708586Y-45390353D01*
X125745226Y-45301898D01*
X125785000Y-45101939D01*
X125785000Y-44898061D01*
X125766721Y-44806168D01*
X126056000Y-45095447D01*
G37*
%TD.AperFunction*%
D27*
X125894189Y-43025666D02*
X125894085Y-43025635D01*
X125828500Y-43019175D01*
X125860000Y-42943127D01*
X125894189Y-43025666D01*
%TA.AperFunction,NonConductor*%
D28*
G36*
X125894189Y-43025666D02*
G01*
X125894085Y-43025635D01*
X125828500Y-43019175D01*
X125860000Y-42943127D01*
X125894189Y-43025666D01*
G37*
%TD.AperFunction*%
D27*
X124095808Y-40614746D02*
X124067762Y-40637763D01*
X123975913Y-40749681D01*
X123907663Y-40877368D01*
X123885230Y-40951319D01*
X123865635Y-41015915D01*
X123851444Y-41160000D01*
X123855000Y-41196106D01*
X123855000Y-41215386D01*
X123707114Y-41314201D01*
X123514201Y-41507114D01*
X123362629Y-41733957D01*
X123320000Y-41836873D01*
X123277371Y-41733957D01*
X123125799Y-41507114D01*
X122932886Y-41314201D01*
X122706043Y-41162629D01*
X122453989Y-41058225D01*
X122186411Y-41005000D01*
X121913589Y-41005000D01*
X121646011Y-41058225D01*
X121393957Y-41162629D01*
X121167114Y-41314201D01*
X120974201Y-41507114D01*
X120822629Y-41733957D01*
X120780000Y-41836873D01*
X120737371Y-41733957D01*
X120585799Y-41507114D01*
X120392886Y-41314201D01*
X120166043Y-41162629D01*
X119913989Y-41058225D01*
X119646411Y-41005000D01*
X119373589Y-41005000D01*
X119106011Y-41058225D01*
X118853957Y-41162629D01*
X118627114Y-41314201D01*
X118434201Y-41507114D01*
X118282629Y-41733957D01*
X118240000Y-41836873D01*
X118197371Y-41733957D01*
X118045799Y-41507114D01*
X117852886Y-41314201D01*
X117705000Y-41215387D01*
X117705000Y-41084446D01*
X118554447Y-40235000D01*
X124475554Y-40235000D01*
X124095808Y-40614746D01*
%TA.AperFunction,NonConductor*%
D28*
G36*
X124095808Y-40614746D02*
G01*
X124067762Y-40637763D01*
X123975913Y-40749681D01*
X123907663Y-40877368D01*
X123885230Y-40951319D01*
X123865635Y-41015915D01*
X123851444Y-41160000D01*
X123855000Y-41196106D01*
X123855000Y-41215386D01*
X123707114Y-41314201D01*
X123514201Y-41507114D01*
X123362629Y-41733957D01*
X123320000Y-41836873D01*
X123277371Y-41733957D01*
X123125799Y-41507114D01*
X122932886Y-41314201D01*
X122706043Y-41162629D01*
X122453989Y-41058225D01*
X122186411Y-41005000D01*
X121913589Y-41005000D01*
X121646011Y-41058225D01*
X121393957Y-41162629D01*
X121167114Y-41314201D01*
X120974201Y-41507114D01*
X120822629Y-41733957D01*
X120780000Y-41836873D01*
X120737371Y-41733957D01*
X120585799Y-41507114D01*
X120392886Y-41314201D01*
X120166043Y-41162629D01*
X119913989Y-41058225D01*
X119646411Y-41005000D01*
X119373589Y-41005000D01*
X119106011Y-41058225D01*
X118853957Y-41162629D01*
X118627114Y-41314201D01*
X118434201Y-41507114D01*
X118282629Y-41733957D01*
X118240000Y-41836873D01*
X118197371Y-41733957D01*
X118045799Y-41507114D01*
X117852886Y-41314201D01*
X117705000Y-41215387D01*
X117705000Y-41084446D01*
X118554447Y-40235000D01*
X124475554Y-40235000D01*
X124095808Y-40614746D01*
G37*
%TD.AperFunction*%
D27*
X116475808Y-40234746D02*
X116447762Y-40257763D01*
X116355913Y-40369681D01*
X116287663Y-40497368D01*
X116274428Y-40540999D01*
X116245635Y-40635915D01*
X116231444Y-40780000D01*
X116235000Y-40816105D01*
X116235000Y-41215386D01*
X116087114Y-41314201D01*
X115894201Y-41507114D01*
X115816445Y-41623483D01*
X115805812Y-41515518D01*
X115769502Y-41395820D01*
X115710537Y-41285506D01*
X115631185Y-41188815D01*
X115534494Y-41109463D01*
X115424180Y-41050498D01*
X115304482Y-41014188D01*
X115277878Y-41011568D01*
X116804447Y-39485000D01*
X117225553Y-39485000D01*
X116475808Y-40234746D01*
%TA.AperFunction,NonConductor*%
D28*
G36*
X116475808Y-40234746D02*
G01*
X116447762Y-40257763D01*
X116355913Y-40369681D01*
X116287663Y-40497368D01*
X116274428Y-40540999D01*
X116245635Y-40635915D01*
X116231444Y-40780000D01*
X116235000Y-40816105D01*
X116235000Y-41215386D01*
X116087114Y-41314201D01*
X115894201Y-41507114D01*
X115816445Y-41623483D01*
X115805812Y-41515518D01*
X115769502Y-41395820D01*
X115710537Y-41285506D01*
X115631185Y-41188815D01*
X115534494Y-41109463D01*
X115424180Y-41050498D01*
X115304482Y-41014188D01*
X115277878Y-41011568D01*
X116804447Y-39485000D01*
X117225553Y-39485000D01*
X116475808Y-40234746D01*
G37*
%TD.AperFunction*%
M02*
