M48
; DRILL file {KiCad (5.1.10)-1} date 09/07/21 17:28:18
; FORMAT={-:-/ absolute / metric / decimal}
; #@! TF.CreationDate,2021-09-07T17:28:18+02:00
; #@! TF.GenerationSoftware,Kicad,Pcbnew,(5.1.10)-1
FMAT,2
METRIC
T1C0.400
T2C0.800
T3C1.000
T4C1.067
T5C1.250
T6C1.300
T7C2.500
%
G90
G05
T1
X112.0Y-51.0
X112.75Y-45.25
X114.002Y-75.748
X117.0Y-71.75
X117.5Y-58.5
X120.0Y-57.5
X120.0Y-59.5
X121.0Y-76.0
X122.75Y-68.75
X123.5Y-58.75
X123.75Y-72.25
X124.513Y-57.737
X124.75Y-45.0
X125.0Y-70.75
X125.75Y-54.0
X126.0Y-41.0
X127.0Y-67.75
X127.491Y-57.009
X127.75Y-74.25
X128.0Y-64.0
X128.75Y-63.0
X129.0Y-61.0
X129.75Y-69.25
X130.0Y-61.5
X130.791Y-62.75
X131.0Y-73.75
X131.491Y-57.009
X132.0Y-45.0
X132.5Y-64.0
X133.75Y-54.0
X133.75Y-55.75
X134.25Y-71.75
X134.513Y-63.763
X134.75Y-54.75
X134.75Y-67.25
X135.75Y-70.0
X137.25Y-54.25
X138.75Y-70.0
X139.0Y-62.75
T2
X108.75Y-61.75
X108.75Y-69.35
T3
X114.43Y-32.23
X114.43Y-42.39
X116.97Y-32.23
X116.97Y-42.39
X119.51Y-32.23
X119.51Y-42.39
X122.05Y-32.23
X122.05Y-42.39
X124.59Y-32.23
X124.59Y-42.39
X127.13Y-32.23
X127.13Y-42.39
T4
X135.468Y-65.04
X136.484Y-59.96
X137.5Y-65.04
T5
X111.546Y-75.748
X111.546Y-88.248
X116.046Y-75.748
X116.046Y-88.248
X126.786Y-75.748
X126.786Y-88.248
X131.286Y-75.748
X131.286Y-88.248
T6
X120.75Y-49.75
X120.75Y-69.75
T7
X104.0Y-29.0
X104.0Y-88.0
X138.0Y-29.0
X138.0Y-88.0
T0
M30
