%TF.GenerationSoftware,KiCad,Pcbnew,(5.1.10)-1*%
%TF.CreationDate,2021-09-07T17:28:15+02:00*%
%TF.ProjectId,BytesCounter,42797465-7343-46f7-956e-7465722e6b69,rev?*%
%TF.SameCoordinates,Original*%
%TF.FileFunction,Copper,L2,Bot*%
%TF.FilePolarity,Positive*%
%FSLAX46Y46*%
G04 Gerber Fmt 4.6, Leading zero omitted, Abs format (unit mm)*
G04 Created by KiCad (PCBNEW (5.1.10)-1) date 2021-09-07 17:28:15*
%MOMM*%
%LPD*%
G01*
G04 APERTURE LIST*
%TA.AperFunction,ComponentPad*%
%ADD10C,1.500000*%
%TD*%
%TA.AperFunction,ComponentPad*%
%ADD11R,1.500000X1.500000*%
%TD*%
%TA.AperFunction,ComponentPad*%
%ADD12C,1.550000*%
%TD*%
%TA.AperFunction,ComponentPad*%
%ADD13C,1.850000*%
%TD*%
%TA.AperFunction,ComponentPad*%
%ADD14C,2.200000*%
%TD*%
%TA.AperFunction,ViaPad*%
%ADD15C,3.750000*%
%TD*%
%TA.AperFunction,ViaPad*%
%ADD16C,0.800000*%
%TD*%
%TA.AperFunction,Conductor*%
%ADD17C,0.250000*%
%TD*%
%TA.AperFunction,Conductor*%
%ADD18C,0.200000*%
%TD*%
%TA.AperFunction,Conductor*%
%ADD19C,0.254000*%
%TD*%
%TA.AperFunction,Conductor*%
%ADD20C,0.100000*%
%TD*%
G04 APERTURE END LIST*
D10*
%TO.P,U1,12*%
%TO.N,/CC_1*%
X114430000Y-32230000D03*
%TO.P,U1,11*%
%TO.N,/D_a*%
X116970000Y-32230000D03*
%TO.P,U1,10*%
%TO.N,/D_f*%
X119510000Y-32230000D03*
%TO.P,U1,9*%
%TO.N,/CC_2*%
X122050000Y-32230000D03*
%TO.P,U1,8*%
%TO.N,/CC_3*%
X124590000Y-32230000D03*
%TO.P,U1,7*%
%TO.N,/D_b*%
X127130000Y-32230000D03*
%TO.P,U1,6*%
%TO.N,/CC_4*%
X127130000Y-42390000D03*
%TO.P,U1,5*%
%TO.N,/D_g*%
X124590000Y-42390000D03*
%TO.P,U1,4*%
%TO.N,/D_c*%
X122050000Y-42390000D03*
%TO.P,U1,3*%
%TO.N,/D_dp*%
X119510000Y-42390000D03*
%TO.P,U1,2*%
%TO.N,/D_d*%
X116970000Y-42390000D03*
D11*
%TO.P,U1,1*%
%TO.N,/D_e*%
X114430000Y-42390000D03*
%TD*%
D12*
%TO.P,J1,9*%
%TO.N,N/C*%
X135468000Y-65040000D03*
%TO.P,J1,8*%
X137500000Y-65040000D03*
%TO.P,J1,7*%
X136484000Y-59960000D03*
%TD*%
D13*
%TO.P,S1,4*%
%TO.N,Net-(R11-Pad1)*%
X111546000Y-88248000D03*
%TO.P,S1,3*%
X111546000Y-75748000D03*
%TO.P,S1,2*%
%TO.N,gnd*%
X116046000Y-88248000D03*
%TO.P,S1,1*%
X116046000Y-75748000D03*
%TD*%
%TO.P,S2,4*%
%TO.N,Net-(R15-Pad1)*%
X126786000Y-88248000D03*
%TO.P,S2,3*%
X126786000Y-75748000D03*
%TO.P,S2,2*%
%TO.N,gnd*%
X131286000Y-88248000D03*
%TO.P,S2,1*%
X131286000Y-75748000D03*
%TD*%
D14*
%TO.P,U2,2*%
%TO.N,gnd*%
X120750000Y-49750000D03*
%TO.P,U2,1*%
%TO.N,+3V*%
X120750000Y-69750000D03*
%TD*%
D10*
%TO.P,LS1,2*%
%TO.N,gnd*%
X108750000Y-69350000D03*
%TO.P,LS1,1*%
%TO.N,Net-(LS1-Pad1)*%
X108750000Y-61750000D03*
%TD*%
D15*
%TO.N,gnd*%
X138000000Y-29000000D03*
X104000000Y-29000000D03*
X104000000Y-88000000D03*
X138000000Y-88000000D03*
D16*
X114002000Y-75748000D03*
X134750000Y-67250000D03*
X122750000Y-68750000D03*
X112000000Y-51000000D03*
X125750000Y-54000000D03*
X133750000Y-54000000D03*
X121000000Y-76000000D03*
X137250000Y-54250000D03*
%TO.N,+3V*%
X129750000Y-69250000D03*
X127000000Y-67750000D03*
X139000000Y-62750000D03*
%TO.N,/B_2*%
X134512653Y-63762653D03*
X132500000Y-64000000D03*
%TO.N,/B_1*%
X135750000Y-70000000D03*
X138750000Y-70000000D03*
%TO.N,/D_a*%
X130791000Y-62750000D03*
%TO.N,/D_b*%
X130000000Y-61500000D03*
%TO.N,/C_1*%
X120000000Y-57500000D03*
X128750000Y-63000000D03*
%TO.N,/C_2*%
X123500000Y-58750000D03*
X128000000Y-64000000D03*
%TO.N,/C_4*%
X127491000Y-57009000D03*
X131491000Y-57009000D03*
%TO.N,/D_dp*%
X126000000Y-41000000D03*
%TO.N,Net-(IC1-Pad3)*%
X133750000Y-55750000D03*
X120000000Y-59500000D03*
%TO.N,/C_Buzzer*%
X134750000Y-54750000D03*
X117500000Y-58500000D03*
%TO.N,/CC_2*%
X112750000Y-45250000D03*
%TO.N,/CC_3*%
X124750000Y-45000000D03*
%TO.N,/CC_4*%
X132000000Y-45000000D03*
%TO.N,Net-(R15-Pad1)*%
X134250000Y-71750000D03*
X125000000Y-70750000D03*
%TO.N,/MCLR*%
X129000000Y-61000000D03*
X124512976Y-57737024D03*
%TO.N,Net-(C2-Pad1)*%
X123750000Y-72250000D03*
X117000000Y-71750000D03*
%TO.N,Net-(C3-Pad1)*%
X127750000Y-74250000D03*
X131000000Y-73750000D03*
%TD*%
D17*
%TO.N,gnd*%
X114002000Y-75748000D02*
X110754000Y-72500000D01*
X110754000Y-72500000D02*
X110000000Y-72500000D01*
X108750000Y-71250000D02*
X108750000Y-69350000D01*
X110000000Y-72500000D02*
X108750000Y-71250000D01*
X134750000Y-67250000D02*
X133500000Y-66000000D01*
X133500000Y-66000000D02*
X125500000Y-66000000D01*
X125500000Y-66000000D02*
X122750000Y-68750000D01*
X120750000Y-49750000D02*
X113250000Y-49750000D01*
X113250000Y-49750000D02*
X112000000Y-51000000D01*
X121500000Y-49750000D02*
X120750000Y-49750000D01*
X125750000Y-54000000D02*
X121500000Y-49750000D01*
X129500000Y-49750000D02*
X120750000Y-49750000D01*
X133750000Y-54000000D02*
X129500000Y-49750000D01*
X121000000Y-76000000D02*
X123500000Y-78500000D01*
X128534000Y-78500000D02*
X131286000Y-75748000D01*
X123500000Y-78500000D02*
X128534000Y-78500000D01*
X139725001Y-74774999D02*
X139725001Y-56725001D01*
X138752000Y-75748000D02*
X139725001Y-74774999D01*
X131286000Y-75748000D02*
X138752000Y-75748000D01*
X139725001Y-56725001D02*
X137250000Y-54250000D01*
%TO.N,+3V*%
X129750000Y-69250000D02*
X129750000Y-68250000D01*
X129750000Y-68250000D02*
X129250000Y-67750000D01*
X129250000Y-67750000D02*
X127000000Y-67750000D01*
X134918002Y-69250000D02*
X139000000Y-65168002D01*
X129750000Y-69250000D02*
X134918002Y-69250000D01*
X139000000Y-65168002D02*
X139000000Y-62750000D01*
D18*
%TO.N,/B_2*%
X134512653Y-63762653D02*
X132987347Y-63762653D01*
X132737347Y-63762653D02*
X132987347Y-63762653D01*
X132500000Y-64000000D02*
X132737347Y-63762653D01*
%TO.N,/B_1*%
X135750000Y-70000000D02*
X138750000Y-70000000D01*
%TO.N,/D_a*%
X136000000Y-57541000D02*
X133100011Y-60440989D01*
X136000000Y-39250000D02*
X136000000Y-57541000D01*
X127500000Y-30750000D02*
X136000000Y-39250000D01*
X133100011Y-60440989D02*
X130791000Y-62750000D01*
X118450000Y-30750000D02*
X127500000Y-30750000D01*
X116970000Y-32230000D02*
X118450000Y-30750000D01*
%TO.N,/D_b*%
X132700001Y-37800001D02*
X127130000Y-32230000D01*
X135400000Y-40500000D02*
X132700001Y-37800001D01*
X135500000Y-40500000D02*
X135400000Y-40500000D01*
X135500000Y-56000000D02*
X135500000Y-40500000D01*
X130000000Y-61500000D02*
X135500000Y-56000000D01*
%TO.N,/C_1*%
X123286002Y-57500000D02*
X128750000Y-62963998D01*
X120000000Y-57500000D02*
X123286002Y-57500000D01*
X128750000Y-62963998D02*
X128750000Y-63000000D01*
%TO.N,/C_2*%
X123500000Y-58750000D02*
X128000000Y-63250000D01*
X128000000Y-63250000D02*
X128000000Y-64000000D01*
%TO.N,/C_4*%
X127491000Y-57009000D02*
X131491000Y-57009000D01*
%TO.N,/D_dp*%
X120900000Y-41000000D02*
X119510000Y-42390000D01*
X126000000Y-41000000D02*
X120900000Y-41000000D01*
%TO.N,Net-(IC1-Pad3)*%
X120713998Y-55750000D02*
X119250000Y-57213998D01*
X133750000Y-55750000D02*
X120713998Y-55750000D01*
X119250000Y-58750000D02*
X120000000Y-59500000D01*
X119250000Y-57213998D02*
X119250000Y-58750000D01*
%TO.N,/C_Buzzer*%
X121148300Y-54750000D02*
X117500000Y-58398300D01*
X134750000Y-54750000D02*
X121148300Y-54750000D01*
X117500000Y-58398300D02*
X117500000Y-58500000D01*
%TO.N,/CC_2*%
X122050000Y-32230000D02*
X118250000Y-36030000D01*
X118250000Y-36030000D02*
X112750000Y-41530000D01*
X112750000Y-41530000D02*
X112750000Y-45250000D01*
%TO.N,/CC_3*%
X125450001Y-45700001D02*
X131200001Y-45700001D01*
X124750000Y-45000000D02*
X125450001Y-45700001D01*
X131200001Y-45700001D02*
X131500000Y-46000000D01*
X132700001Y-40340001D02*
X124590000Y-32230000D01*
X132700001Y-45336001D02*
X132700001Y-40340001D01*
X132036002Y-46000000D02*
X132700001Y-45336001D01*
X131500000Y-46000000D02*
X132036002Y-46000000D01*
%TO.N,/CC_4*%
X129390000Y-42390000D02*
X127130000Y-42390000D01*
X132000000Y-45000000D02*
X129390000Y-42390000D01*
%TO.N,Net-(R15-Pad1)*%
X134250000Y-71750000D02*
X133250000Y-70750000D01*
X133250000Y-70750000D02*
X125000000Y-70750000D01*
%TO.N,/MCLR*%
X129000000Y-61000000D02*
X127750000Y-61000000D01*
X127750000Y-61000000D02*
X126000000Y-59250000D01*
X126000000Y-59250000D02*
X126012976Y-59237024D01*
X126000000Y-59250000D02*
X124500000Y-57750000D01*
X124500000Y-57750000D02*
X124512976Y-57737024D01*
%TO.N,Net-(C2-Pad1)*%
X123750000Y-72250000D02*
X123250000Y-71750000D01*
X123250000Y-71750000D02*
X117000000Y-71750000D01*
%TO.N,Net-(C3-Pad1)*%
X127750000Y-74250000D02*
X128250000Y-73750000D01*
X128250000Y-73750000D02*
X131000000Y-73750000D01*
%TD*%
D19*
%TO.N,gnd*%
X138999899Y-26987907D02*
X139240285Y-27060484D01*
X139461991Y-27178368D01*
X139656577Y-27337068D01*
X139816635Y-27530545D01*
X139936064Y-27751424D01*
X140010317Y-27991297D01*
X140040000Y-28273716D01*
X140040001Y-89215269D01*
X140012093Y-89499899D01*
X139939517Y-89740282D01*
X139821633Y-89961989D01*
X139662929Y-90156580D01*
X139469455Y-90316635D01*
X139248576Y-90436064D01*
X139008701Y-90510317D01*
X138726291Y-90540000D01*
X102784721Y-90540000D01*
X102500101Y-90512093D01*
X102259718Y-90439517D01*
X102038011Y-90321633D01*
X101843420Y-90162929D01*
X101683365Y-89969455D01*
X101563936Y-89748576D01*
X101489683Y-89508701D01*
X101460000Y-89226291D01*
X101460000Y-88094353D01*
X109986000Y-88094353D01*
X109986000Y-88401647D01*
X110045950Y-88703035D01*
X110163546Y-88986937D01*
X110334269Y-89242442D01*
X110551558Y-89459731D01*
X110807063Y-89630454D01*
X111090965Y-89748050D01*
X111392353Y-89808000D01*
X111699647Y-89808000D01*
X112001035Y-89748050D01*
X112284937Y-89630454D01*
X112540442Y-89459731D01*
X112670256Y-89329917D01*
X115143688Y-89329917D01*
X115230393Y-89586653D01*
X115507223Y-89720048D01*
X115804757Y-89796873D01*
X116111562Y-89814176D01*
X116415848Y-89771292D01*
X116705921Y-89669868D01*
X116861607Y-89586653D01*
X116948312Y-89329917D01*
X116046000Y-88427605D01*
X115143688Y-89329917D01*
X112670256Y-89329917D01*
X112757731Y-89242442D01*
X112928454Y-88986937D01*
X113046050Y-88703035D01*
X113106000Y-88401647D01*
X113106000Y-88313562D01*
X114479824Y-88313562D01*
X114522708Y-88617848D01*
X114624132Y-88907921D01*
X114707347Y-89063607D01*
X114964083Y-89150312D01*
X115866395Y-88248000D01*
X116225605Y-88248000D01*
X117127917Y-89150312D01*
X117384653Y-89063607D01*
X117518048Y-88786777D01*
X117594873Y-88489243D01*
X117612176Y-88182438D01*
X117599762Y-88094353D01*
X125226000Y-88094353D01*
X125226000Y-88401647D01*
X125285950Y-88703035D01*
X125403546Y-88986937D01*
X125574269Y-89242442D01*
X125791558Y-89459731D01*
X126047063Y-89630454D01*
X126330965Y-89748050D01*
X126632353Y-89808000D01*
X126939647Y-89808000D01*
X127241035Y-89748050D01*
X127524937Y-89630454D01*
X127780442Y-89459731D01*
X127910256Y-89329917D01*
X130383688Y-89329917D01*
X130470393Y-89586653D01*
X130747223Y-89720048D01*
X131044757Y-89796873D01*
X131351562Y-89814176D01*
X131655848Y-89771292D01*
X131945921Y-89669868D01*
X132101607Y-89586653D01*
X132188312Y-89329917D01*
X131286000Y-88427605D01*
X130383688Y-89329917D01*
X127910256Y-89329917D01*
X127997731Y-89242442D01*
X128168454Y-88986937D01*
X128286050Y-88703035D01*
X128346000Y-88401647D01*
X128346000Y-88313562D01*
X129719824Y-88313562D01*
X129762708Y-88617848D01*
X129864132Y-88907921D01*
X129947347Y-89063607D01*
X130204083Y-89150312D01*
X131106395Y-88248000D01*
X131465605Y-88248000D01*
X132367917Y-89150312D01*
X132624653Y-89063607D01*
X132758048Y-88786777D01*
X132834873Y-88489243D01*
X132852176Y-88182438D01*
X132809292Y-87878152D01*
X132707868Y-87588079D01*
X132624653Y-87432393D01*
X132367917Y-87345688D01*
X131465605Y-88248000D01*
X131106395Y-88248000D01*
X130204083Y-87345688D01*
X129947347Y-87432393D01*
X129813952Y-87709223D01*
X129737127Y-88006757D01*
X129719824Y-88313562D01*
X128346000Y-88313562D01*
X128346000Y-88094353D01*
X128286050Y-87792965D01*
X128168454Y-87509063D01*
X127997731Y-87253558D01*
X127910256Y-87166083D01*
X130383688Y-87166083D01*
X131286000Y-88068395D01*
X132188312Y-87166083D01*
X132101607Y-86909347D01*
X131824777Y-86775952D01*
X131527243Y-86699127D01*
X131220438Y-86681824D01*
X130916152Y-86724708D01*
X130626079Y-86826132D01*
X130470393Y-86909347D01*
X130383688Y-87166083D01*
X127910256Y-87166083D01*
X127780442Y-87036269D01*
X127524937Y-86865546D01*
X127241035Y-86747950D01*
X126939647Y-86688000D01*
X126632353Y-86688000D01*
X126330965Y-86747950D01*
X126047063Y-86865546D01*
X125791558Y-87036269D01*
X125574269Y-87253558D01*
X125403546Y-87509063D01*
X125285950Y-87792965D01*
X125226000Y-88094353D01*
X117599762Y-88094353D01*
X117569292Y-87878152D01*
X117467868Y-87588079D01*
X117384653Y-87432393D01*
X117127917Y-87345688D01*
X116225605Y-88248000D01*
X115866395Y-88248000D01*
X114964083Y-87345688D01*
X114707347Y-87432393D01*
X114573952Y-87709223D01*
X114497127Y-88006757D01*
X114479824Y-88313562D01*
X113106000Y-88313562D01*
X113106000Y-88094353D01*
X113046050Y-87792965D01*
X112928454Y-87509063D01*
X112757731Y-87253558D01*
X112670256Y-87166083D01*
X115143688Y-87166083D01*
X116046000Y-88068395D01*
X116948312Y-87166083D01*
X116861607Y-86909347D01*
X116584777Y-86775952D01*
X116287243Y-86699127D01*
X115980438Y-86681824D01*
X115676152Y-86724708D01*
X115386079Y-86826132D01*
X115230393Y-86909347D01*
X115143688Y-87166083D01*
X112670256Y-87166083D01*
X112540442Y-87036269D01*
X112284937Y-86865546D01*
X112001035Y-86747950D01*
X111699647Y-86688000D01*
X111392353Y-86688000D01*
X111090965Y-86747950D01*
X110807063Y-86865546D01*
X110551558Y-87036269D01*
X110334269Y-87253558D01*
X110163546Y-87509063D01*
X110045950Y-87792965D01*
X109986000Y-88094353D01*
X101460000Y-88094353D01*
X101460000Y-75594353D01*
X109986000Y-75594353D01*
X109986000Y-75901647D01*
X110045950Y-76203035D01*
X110163546Y-76486937D01*
X110334269Y-76742442D01*
X110551558Y-76959731D01*
X110807063Y-77130454D01*
X111090965Y-77248050D01*
X111392353Y-77308000D01*
X111699647Y-77308000D01*
X112001035Y-77248050D01*
X112284937Y-77130454D01*
X112540442Y-76959731D01*
X112670256Y-76829917D01*
X115143688Y-76829917D01*
X115230393Y-77086653D01*
X115507223Y-77220048D01*
X115804757Y-77296873D01*
X116111562Y-77314176D01*
X116415848Y-77271292D01*
X116705921Y-77169868D01*
X116861607Y-77086653D01*
X116948312Y-76829917D01*
X116046000Y-75927605D01*
X115143688Y-76829917D01*
X112670256Y-76829917D01*
X112757731Y-76742442D01*
X112928454Y-76486937D01*
X113046050Y-76203035D01*
X113106000Y-75901647D01*
X113106000Y-75813562D01*
X114479824Y-75813562D01*
X114522708Y-76117848D01*
X114624132Y-76407921D01*
X114707347Y-76563607D01*
X114964083Y-76650312D01*
X115866395Y-75748000D01*
X116225605Y-75748000D01*
X117127917Y-76650312D01*
X117384653Y-76563607D01*
X117518048Y-76286777D01*
X117594873Y-75989243D01*
X117612176Y-75682438D01*
X117599762Y-75594353D01*
X125226000Y-75594353D01*
X125226000Y-75901647D01*
X125285950Y-76203035D01*
X125403546Y-76486937D01*
X125574269Y-76742442D01*
X125791558Y-76959731D01*
X126047063Y-77130454D01*
X126330965Y-77248050D01*
X126632353Y-77308000D01*
X126939647Y-77308000D01*
X127241035Y-77248050D01*
X127524937Y-77130454D01*
X127780442Y-76959731D01*
X127910256Y-76829917D01*
X130383688Y-76829917D01*
X130470393Y-77086653D01*
X130747223Y-77220048D01*
X131044757Y-77296873D01*
X131351562Y-77314176D01*
X131655848Y-77271292D01*
X131945921Y-77169868D01*
X132101607Y-77086653D01*
X132188312Y-76829917D01*
X131286000Y-75927605D01*
X130383688Y-76829917D01*
X127910256Y-76829917D01*
X127997731Y-76742442D01*
X128168454Y-76486937D01*
X128286050Y-76203035D01*
X128346000Y-75901647D01*
X128346000Y-75813562D01*
X129719824Y-75813562D01*
X129762708Y-76117848D01*
X129864132Y-76407921D01*
X129947347Y-76563607D01*
X130204083Y-76650312D01*
X131106395Y-75748000D01*
X131465605Y-75748000D01*
X132367917Y-76650312D01*
X132624653Y-76563607D01*
X132758048Y-76286777D01*
X132834873Y-75989243D01*
X132852176Y-75682438D01*
X132809292Y-75378152D01*
X132707868Y-75088079D01*
X132624653Y-74932393D01*
X132367917Y-74845688D01*
X131465605Y-75748000D01*
X131106395Y-75748000D01*
X130204083Y-74845688D01*
X129947347Y-74932393D01*
X129813952Y-75209223D01*
X129737127Y-75506757D01*
X129719824Y-75813562D01*
X128346000Y-75813562D01*
X128346000Y-75594353D01*
X128286050Y-75292965D01*
X128234881Y-75169432D01*
X128240256Y-75167205D01*
X128409774Y-75053937D01*
X128553937Y-74909774D01*
X128667205Y-74740256D01*
X128745226Y-74551898D01*
X128758533Y-74485000D01*
X130271289Y-74485000D01*
X130340226Y-74553937D01*
X130406587Y-74598278D01*
X130383688Y-74666083D01*
X131286000Y-75568395D01*
X132188312Y-74666083D01*
X132101607Y-74409347D01*
X131876652Y-74300949D01*
X131917205Y-74240256D01*
X131995226Y-74051898D01*
X132035000Y-73851939D01*
X132035000Y-73648061D01*
X131995226Y-73448102D01*
X131917205Y-73259744D01*
X131803937Y-73090226D01*
X131659774Y-72946063D01*
X131490256Y-72832795D01*
X131301898Y-72754774D01*
X131101939Y-72715000D01*
X130898061Y-72715000D01*
X130698102Y-72754774D01*
X130509744Y-72832795D01*
X130340226Y-72946063D01*
X130271289Y-73015000D01*
X128286105Y-73015000D01*
X128250000Y-73011444D01*
X128213895Y-73015000D01*
X128105915Y-73025635D01*
X127967367Y-73067663D01*
X127839680Y-73135913D01*
X127743312Y-73215000D01*
X127648061Y-73215000D01*
X127448102Y-73254774D01*
X127259744Y-73332795D01*
X127090226Y-73446063D01*
X126946063Y-73590226D01*
X126832795Y-73759744D01*
X126754774Y-73948102D01*
X126715000Y-74148061D01*
X126715000Y-74188000D01*
X126632353Y-74188000D01*
X126330965Y-74247950D01*
X126047063Y-74365546D01*
X125791558Y-74536269D01*
X125574269Y-74753558D01*
X125403546Y-75009063D01*
X125285950Y-75292965D01*
X125226000Y-75594353D01*
X117599762Y-75594353D01*
X117569292Y-75378152D01*
X117467868Y-75088079D01*
X117384653Y-74932393D01*
X117127917Y-74845688D01*
X116225605Y-75748000D01*
X115866395Y-75748000D01*
X114964083Y-74845688D01*
X114707347Y-74932393D01*
X114573952Y-75209223D01*
X114497127Y-75506757D01*
X114479824Y-75813562D01*
X113106000Y-75813562D01*
X113106000Y-75594353D01*
X113046050Y-75292965D01*
X112928454Y-75009063D01*
X112757731Y-74753558D01*
X112670256Y-74666083D01*
X115143688Y-74666083D01*
X116046000Y-75568395D01*
X116948312Y-74666083D01*
X116861607Y-74409347D01*
X116584777Y-74275952D01*
X116287243Y-74199127D01*
X115980438Y-74181824D01*
X115676152Y-74224708D01*
X115386079Y-74326132D01*
X115230393Y-74409347D01*
X115143688Y-74666083D01*
X112670256Y-74666083D01*
X112540442Y-74536269D01*
X112284937Y-74365546D01*
X112001035Y-74247950D01*
X111699647Y-74188000D01*
X111392353Y-74188000D01*
X111090965Y-74247950D01*
X110807063Y-74365546D01*
X110551558Y-74536269D01*
X110334269Y-74753558D01*
X110163546Y-75009063D01*
X110045950Y-75292965D01*
X109986000Y-75594353D01*
X101460000Y-75594353D01*
X101460000Y-71648061D01*
X115965000Y-71648061D01*
X115965000Y-71851939D01*
X116004774Y-72051898D01*
X116082795Y-72240256D01*
X116196063Y-72409774D01*
X116340226Y-72553937D01*
X116509744Y-72667205D01*
X116698102Y-72745226D01*
X116898061Y-72785000D01*
X117101939Y-72785000D01*
X117301898Y-72745226D01*
X117490256Y-72667205D01*
X117659774Y-72553937D01*
X117728711Y-72485000D01*
X122741467Y-72485000D01*
X122754774Y-72551898D01*
X122832795Y-72740256D01*
X122946063Y-72909774D01*
X123090226Y-73053937D01*
X123259744Y-73167205D01*
X123448102Y-73245226D01*
X123648061Y-73285000D01*
X123851939Y-73285000D01*
X124051898Y-73245226D01*
X124240256Y-73167205D01*
X124409774Y-73053937D01*
X124553937Y-72909774D01*
X124667205Y-72740256D01*
X124745226Y-72551898D01*
X124785000Y-72351939D01*
X124785000Y-72148061D01*
X124745226Y-71948102D01*
X124667205Y-71759744D01*
X124641968Y-71721974D01*
X124698102Y-71745226D01*
X124898061Y-71785000D01*
X125101939Y-71785000D01*
X125301898Y-71745226D01*
X125490256Y-71667205D01*
X125659774Y-71553937D01*
X125728711Y-71485000D01*
X132945554Y-71485000D01*
X133215000Y-71754446D01*
X133215000Y-71851939D01*
X133254774Y-72051898D01*
X133332795Y-72240256D01*
X133446063Y-72409774D01*
X133590226Y-72553937D01*
X133759744Y-72667205D01*
X133948102Y-72745226D01*
X134148061Y-72785000D01*
X134351939Y-72785000D01*
X134551898Y-72745226D01*
X134740256Y-72667205D01*
X134909774Y-72553937D01*
X135053937Y-72409774D01*
X135167205Y-72240256D01*
X135245226Y-72051898D01*
X135285000Y-71851939D01*
X135285000Y-71648061D01*
X135245226Y-71448102D01*
X135167205Y-71259744D01*
X135053937Y-71090226D01*
X134909774Y-70946063D01*
X134740256Y-70832795D01*
X134551898Y-70754774D01*
X134351939Y-70715000D01*
X134254446Y-70715000D01*
X133795258Y-70255812D01*
X133772238Y-70227762D01*
X133660320Y-70135913D01*
X133532633Y-70067663D01*
X133394085Y-70025635D01*
X133286105Y-70015000D01*
X133250000Y-70011444D01*
X133213895Y-70015000D01*
X130448711Y-70015000D01*
X130453711Y-70010000D01*
X134715000Y-70010000D01*
X134715000Y-70101939D01*
X134754774Y-70301898D01*
X134832795Y-70490256D01*
X134946063Y-70659774D01*
X135090226Y-70803937D01*
X135259744Y-70917205D01*
X135448102Y-70995226D01*
X135648061Y-71035000D01*
X135851939Y-71035000D01*
X136051898Y-70995226D01*
X136240256Y-70917205D01*
X136409774Y-70803937D01*
X136478711Y-70735000D01*
X138021289Y-70735000D01*
X138090226Y-70803937D01*
X138259744Y-70917205D01*
X138448102Y-70995226D01*
X138648061Y-71035000D01*
X138851939Y-71035000D01*
X139051898Y-70995226D01*
X139240256Y-70917205D01*
X139409774Y-70803937D01*
X139553937Y-70659774D01*
X139667205Y-70490256D01*
X139745226Y-70301898D01*
X139785000Y-70101939D01*
X139785000Y-69898061D01*
X139745226Y-69698102D01*
X139667205Y-69509744D01*
X139553937Y-69340226D01*
X139409774Y-69196063D01*
X139240256Y-69082795D01*
X139051898Y-69004774D01*
X138851939Y-68965000D01*
X138648061Y-68965000D01*
X138448102Y-69004774D01*
X138259744Y-69082795D01*
X138090226Y-69196063D01*
X138021289Y-69265000D01*
X136478711Y-69265000D01*
X136409774Y-69196063D01*
X136240256Y-69082795D01*
X136183512Y-69059291D01*
X139511004Y-65731800D01*
X139540001Y-65708003D01*
X139566332Y-65675919D01*
X139634974Y-65592279D01*
X139705546Y-65460249D01*
X139708266Y-65451282D01*
X139749003Y-65316988D01*
X139760000Y-65205335D01*
X139760000Y-65205325D01*
X139763676Y-65168002D01*
X139760000Y-65130679D01*
X139760000Y-63453711D01*
X139803937Y-63409774D01*
X139917205Y-63240256D01*
X139995226Y-63051898D01*
X140035000Y-62851939D01*
X140035000Y-62648061D01*
X139995226Y-62448102D01*
X139917205Y-62259744D01*
X139803937Y-62090226D01*
X139659774Y-61946063D01*
X139490256Y-61832795D01*
X139301898Y-61754774D01*
X139101939Y-61715000D01*
X138898061Y-61715000D01*
X138698102Y-61754774D01*
X138509744Y-61832795D01*
X138340226Y-61946063D01*
X138196063Y-62090226D01*
X138082795Y-62259744D01*
X138004774Y-62448102D01*
X137965000Y-62648061D01*
X137965000Y-62851939D01*
X138004774Y-63051898D01*
X138082795Y-63240256D01*
X138196063Y-63409774D01*
X138240001Y-63453712D01*
X138240001Y-63838661D01*
X138167885Y-63790475D01*
X137911282Y-63684186D01*
X137638873Y-63630000D01*
X137361127Y-63630000D01*
X137088718Y-63684186D01*
X136832115Y-63790475D01*
X136601178Y-63944782D01*
X136484000Y-64061960D01*
X136366822Y-63944782D01*
X136135885Y-63790475D01*
X135879282Y-63684186D01*
X135606873Y-63630000D01*
X135541544Y-63630000D01*
X135507879Y-63460755D01*
X135429858Y-63272397D01*
X135316590Y-63102879D01*
X135172427Y-62958716D01*
X135002909Y-62845448D01*
X134814551Y-62767427D01*
X134614592Y-62727653D01*
X134410714Y-62727653D01*
X134210755Y-62767427D01*
X134022397Y-62845448D01*
X133852879Y-62958716D01*
X133783942Y-63027653D01*
X132857132Y-63027653D01*
X132801898Y-63004774D01*
X132601939Y-62965000D01*
X132398061Y-62965000D01*
X132198102Y-63004774D01*
X132009744Y-63082795D01*
X131840226Y-63196063D01*
X131696063Y-63340226D01*
X131582795Y-63509744D01*
X131504774Y-63698102D01*
X131465000Y-63898061D01*
X131465000Y-64101939D01*
X131504774Y-64301898D01*
X131582795Y-64490256D01*
X131696063Y-64659774D01*
X131840226Y-64803937D01*
X132009744Y-64917205D01*
X132198102Y-64995226D01*
X132398061Y-65035000D01*
X132601939Y-65035000D01*
X132801898Y-64995226D01*
X132990256Y-64917205D01*
X133159774Y-64803937D01*
X133303937Y-64659774D01*
X133412262Y-64497653D01*
X133783942Y-64497653D01*
X133852879Y-64566590D01*
X134022397Y-64679858D01*
X134095953Y-64710326D01*
X134058000Y-64901127D01*
X134058000Y-65178873D01*
X134112186Y-65451282D01*
X134218475Y-65707885D01*
X134372782Y-65938822D01*
X134569178Y-66135218D01*
X134800115Y-66289525D01*
X135056718Y-66395814D01*
X135329127Y-66450000D01*
X135606873Y-66450000D01*
X135879282Y-66395814D01*
X136135885Y-66289525D01*
X136366822Y-66135218D01*
X136484000Y-66018040D01*
X136601178Y-66135218D01*
X136815067Y-66278134D01*
X134603201Y-68490000D01*
X130510000Y-68490000D01*
X130510000Y-68287325D01*
X130513676Y-68250000D01*
X130510000Y-68212675D01*
X130510000Y-68212667D01*
X130499003Y-68101014D01*
X130455546Y-67957753D01*
X130384974Y-67825724D01*
X130290001Y-67709999D01*
X130260997Y-67686196D01*
X129813804Y-67239003D01*
X129790001Y-67209999D01*
X129674276Y-67115026D01*
X129542247Y-67044454D01*
X129398986Y-67000997D01*
X129287333Y-66990000D01*
X129287322Y-66990000D01*
X129250000Y-66986324D01*
X129212678Y-66990000D01*
X127703711Y-66990000D01*
X127659774Y-66946063D01*
X127490256Y-66832795D01*
X127301898Y-66754774D01*
X127101939Y-66715000D01*
X126898061Y-66715000D01*
X126698102Y-66754774D01*
X126509744Y-66832795D01*
X126340226Y-66946063D01*
X126196063Y-67090226D01*
X126082795Y-67259744D01*
X126004774Y-67448102D01*
X125965000Y-67648061D01*
X125965000Y-67851939D01*
X126004774Y-68051898D01*
X126082795Y-68240256D01*
X126196063Y-68409774D01*
X126340226Y-68553937D01*
X126509744Y-68667205D01*
X126698102Y-68745226D01*
X126898061Y-68785000D01*
X127101939Y-68785000D01*
X127301898Y-68745226D01*
X127490256Y-68667205D01*
X127659774Y-68553937D01*
X127703711Y-68510000D01*
X128935199Y-68510000D01*
X128980744Y-68555545D01*
X128946063Y-68590226D01*
X128832795Y-68759744D01*
X128754774Y-68948102D01*
X128715000Y-69148061D01*
X128715000Y-69351939D01*
X128754774Y-69551898D01*
X128832795Y-69740256D01*
X128946063Y-69909774D01*
X129051289Y-70015000D01*
X125728711Y-70015000D01*
X125659774Y-69946063D01*
X125490256Y-69832795D01*
X125301898Y-69754774D01*
X125101939Y-69715000D01*
X124898061Y-69715000D01*
X124698102Y-69754774D01*
X124509744Y-69832795D01*
X124340226Y-69946063D01*
X124196063Y-70090226D01*
X124082795Y-70259744D01*
X124004774Y-70448102D01*
X123965000Y-70648061D01*
X123965000Y-70851939D01*
X124004774Y-71051898D01*
X124082795Y-71240256D01*
X124108032Y-71278026D01*
X124051898Y-71254774D01*
X123851939Y-71215000D01*
X123756688Y-71215000D01*
X123660320Y-71135913D01*
X123532633Y-71067663D01*
X123394085Y-71025635D01*
X123286105Y-71015000D01*
X123250000Y-71011444D01*
X123213895Y-71015000D01*
X121938661Y-71015000D01*
X122097663Y-70855998D01*
X122287537Y-70571831D01*
X122418325Y-70256081D01*
X122485000Y-69920883D01*
X122485000Y-69579117D01*
X122418325Y-69243919D01*
X122287537Y-68928169D01*
X122097663Y-68644002D01*
X121855998Y-68402337D01*
X121571831Y-68212463D01*
X121256081Y-68081675D01*
X120920883Y-68015000D01*
X120579117Y-68015000D01*
X120243919Y-68081675D01*
X119928169Y-68212463D01*
X119644002Y-68402337D01*
X119402337Y-68644002D01*
X119212463Y-68928169D01*
X119081675Y-69243919D01*
X119015000Y-69579117D01*
X119015000Y-69920883D01*
X119081675Y-70256081D01*
X119212463Y-70571831D01*
X119402337Y-70855998D01*
X119561339Y-71015000D01*
X117728711Y-71015000D01*
X117659774Y-70946063D01*
X117490256Y-70832795D01*
X117301898Y-70754774D01*
X117101939Y-70715000D01*
X116898061Y-70715000D01*
X116698102Y-70754774D01*
X116509744Y-70832795D01*
X116340226Y-70946063D01*
X116196063Y-71090226D01*
X116082795Y-71259744D01*
X116004774Y-71448102D01*
X115965000Y-71648061D01*
X101460000Y-71648061D01*
X101460000Y-70306993D01*
X107972612Y-70306993D01*
X108038137Y-70545860D01*
X108285116Y-70661760D01*
X108549960Y-70727250D01*
X108822492Y-70739812D01*
X109092238Y-70698965D01*
X109348832Y-70606277D01*
X109461863Y-70545860D01*
X109527388Y-70306993D01*
X108750000Y-69529605D01*
X107972612Y-70306993D01*
X101460000Y-70306993D01*
X101460000Y-69422492D01*
X107360188Y-69422492D01*
X107401035Y-69692238D01*
X107493723Y-69948832D01*
X107554140Y-70061863D01*
X107793007Y-70127388D01*
X108570395Y-69350000D01*
X108929605Y-69350000D01*
X109706993Y-70127388D01*
X109945860Y-70061863D01*
X110061760Y-69814884D01*
X110127250Y-69550040D01*
X110139812Y-69277508D01*
X110098965Y-69007762D01*
X110006277Y-68751168D01*
X109945860Y-68638137D01*
X109706993Y-68572612D01*
X108929605Y-69350000D01*
X108570395Y-69350000D01*
X107793007Y-68572612D01*
X107554140Y-68638137D01*
X107438240Y-68885116D01*
X107372750Y-69149960D01*
X107360188Y-69422492D01*
X101460000Y-69422492D01*
X101460000Y-68393007D01*
X107972612Y-68393007D01*
X108750000Y-69170395D01*
X109527388Y-68393007D01*
X109461863Y-68154140D01*
X109214884Y-68038240D01*
X108950040Y-67972750D01*
X108677508Y-67960188D01*
X108407762Y-68001035D01*
X108151168Y-68093723D01*
X108038137Y-68154140D01*
X107972612Y-68393007D01*
X101460000Y-68393007D01*
X101460000Y-61613589D01*
X107365000Y-61613589D01*
X107365000Y-61886411D01*
X107418225Y-62153989D01*
X107522629Y-62406043D01*
X107674201Y-62632886D01*
X107867114Y-62825799D01*
X108093957Y-62977371D01*
X108346011Y-63081775D01*
X108613589Y-63135000D01*
X108886411Y-63135000D01*
X109153989Y-63081775D01*
X109406043Y-62977371D01*
X109632886Y-62825799D01*
X109825799Y-62632886D01*
X109977371Y-62406043D01*
X110081775Y-62153989D01*
X110135000Y-61886411D01*
X110135000Y-61613589D01*
X110081775Y-61346011D01*
X109977371Y-61093957D01*
X109825799Y-60867114D01*
X109632886Y-60674201D01*
X109406043Y-60522629D01*
X109153989Y-60418225D01*
X108886411Y-60365000D01*
X108613589Y-60365000D01*
X108346011Y-60418225D01*
X108093957Y-60522629D01*
X107867114Y-60674201D01*
X107674201Y-60867114D01*
X107522629Y-61093957D01*
X107418225Y-61346011D01*
X107365000Y-61613589D01*
X101460000Y-61613589D01*
X101460000Y-50956712D01*
X119722893Y-50956712D01*
X119830726Y-51231338D01*
X120137384Y-51382216D01*
X120467585Y-51470369D01*
X120808639Y-51492409D01*
X121147439Y-51447489D01*
X121470966Y-51337336D01*
X121669274Y-51231338D01*
X121777107Y-50956712D01*
X120750000Y-49929605D01*
X119722893Y-50956712D01*
X101460000Y-50956712D01*
X101460000Y-49808639D01*
X119007591Y-49808639D01*
X119052511Y-50147439D01*
X119162664Y-50470966D01*
X119268662Y-50669274D01*
X119543288Y-50777107D01*
X120570395Y-49750000D01*
X120929605Y-49750000D01*
X121956712Y-50777107D01*
X122231338Y-50669274D01*
X122382216Y-50362616D01*
X122470369Y-50032415D01*
X122492409Y-49691361D01*
X122447489Y-49352561D01*
X122337336Y-49029034D01*
X122231338Y-48830726D01*
X121956712Y-48722893D01*
X120929605Y-49750000D01*
X120570395Y-49750000D01*
X119543288Y-48722893D01*
X119268662Y-48830726D01*
X119117784Y-49137384D01*
X119029631Y-49467585D01*
X119007591Y-49808639D01*
X101460000Y-49808639D01*
X101460000Y-48543288D01*
X119722893Y-48543288D01*
X120750000Y-49570395D01*
X121777107Y-48543288D01*
X121669274Y-48268662D01*
X121362616Y-48117784D01*
X121032415Y-48029631D01*
X120691361Y-48007591D01*
X120352561Y-48052511D01*
X120029034Y-48162664D01*
X119830726Y-48268662D01*
X119722893Y-48543288D01*
X101460000Y-48543288D01*
X101460000Y-45148061D01*
X111715000Y-45148061D01*
X111715000Y-45351939D01*
X111754774Y-45551898D01*
X111832795Y-45740256D01*
X111946063Y-45909774D01*
X112090226Y-46053937D01*
X112259744Y-46167205D01*
X112448102Y-46245226D01*
X112648061Y-46285000D01*
X112851939Y-46285000D01*
X113051898Y-46245226D01*
X113240256Y-46167205D01*
X113409774Y-46053937D01*
X113553937Y-45909774D01*
X113667205Y-45740256D01*
X113745226Y-45551898D01*
X113785000Y-45351939D01*
X113785000Y-45148061D01*
X113745226Y-44948102D01*
X113667205Y-44759744D01*
X113553937Y-44590226D01*
X113485000Y-44521289D01*
X113485000Y-43744421D01*
X113555518Y-43765812D01*
X113680000Y-43778072D01*
X115180000Y-43778072D01*
X115304482Y-43765812D01*
X115424180Y-43729502D01*
X115534494Y-43670537D01*
X115631185Y-43591185D01*
X115710537Y-43494494D01*
X115769502Y-43384180D01*
X115805812Y-43264482D01*
X115816445Y-43156517D01*
X115894201Y-43272886D01*
X116087114Y-43465799D01*
X116313957Y-43617371D01*
X116566011Y-43721775D01*
X116833589Y-43775000D01*
X117106411Y-43775000D01*
X117373989Y-43721775D01*
X117626043Y-43617371D01*
X117852886Y-43465799D01*
X118045799Y-43272886D01*
X118197371Y-43046043D01*
X118240000Y-42943127D01*
X118282629Y-43046043D01*
X118434201Y-43272886D01*
X118627114Y-43465799D01*
X118853957Y-43617371D01*
X119106011Y-43721775D01*
X119373589Y-43775000D01*
X119646411Y-43775000D01*
X119913989Y-43721775D01*
X120166043Y-43617371D01*
X120392886Y-43465799D01*
X120585799Y-43272886D01*
X120737371Y-43046043D01*
X120780000Y-42943127D01*
X120822629Y-43046043D01*
X120974201Y-43272886D01*
X121167114Y-43465799D01*
X121393957Y-43617371D01*
X121646011Y-43721775D01*
X121913589Y-43775000D01*
X122186411Y-43775000D01*
X122453989Y-43721775D01*
X122706043Y-43617371D01*
X122932886Y-43465799D01*
X123125799Y-43272886D01*
X123277371Y-43046043D01*
X123320000Y-42943127D01*
X123362629Y-43046043D01*
X123514201Y-43272886D01*
X123707114Y-43465799D01*
X123933957Y-43617371D01*
X124186011Y-43721775D01*
X124453589Y-43775000D01*
X124726411Y-43775000D01*
X124993989Y-43721775D01*
X125246043Y-43617371D01*
X125472886Y-43465799D01*
X125665799Y-43272886D01*
X125817371Y-43046043D01*
X125860000Y-42943127D01*
X125902629Y-43046043D01*
X126054201Y-43272886D01*
X126247114Y-43465799D01*
X126473957Y-43617371D01*
X126726011Y-43721775D01*
X126993589Y-43775000D01*
X127266411Y-43775000D01*
X127533989Y-43721775D01*
X127786043Y-43617371D01*
X128012886Y-43465799D01*
X128205799Y-43272886D01*
X128304613Y-43125000D01*
X129085554Y-43125000D01*
X130925554Y-44965001D01*
X125785000Y-44965001D01*
X125785000Y-44898061D01*
X125745226Y-44698102D01*
X125667205Y-44509744D01*
X125553937Y-44340226D01*
X125409774Y-44196063D01*
X125240256Y-44082795D01*
X125051898Y-44004774D01*
X124851939Y-43965000D01*
X124648061Y-43965000D01*
X124448102Y-44004774D01*
X124259744Y-44082795D01*
X124090226Y-44196063D01*
X123946063Y-44340226D01*
X123832795Y-44509744D01*
X123754774Y-44698102D01*
X123715000Y-44898061D01*
X123715000Y-45101939D01*
X123754774Y-45301898D01*
X123832795Y-45490256D01*
X123946063Y-45659774D01*
X124090226Y-45803937D01*
X124259744Y-45917205D01*
X124448102Y-45995226D01*
X124648061Y-46035000D01*
X124745553Y-46035000D01*
X124904747Y-46194194D01*
X124927763Y-46222239D01*
X125039681Y-46314088D01*
X125167368Y-46382338D01*
X125305916Y-46424366D01*
X125450001Y-46438557D01*
X125486106Y-46435001D01*
X130895555Y-46435001D01*
X130954741Y-46494187D01*
X130977762Y-46522238D01*
X131089680Y-46614087D01*
X131217366Y-46682337D01*
X131355915Y-46724365D01*
X131500000Y-46738556D01*
X131536105Y-46735000D01*
X131999897Y-46735000D01*
X132036002Y-46738556D01*
X132072107Y-46735000D01*
X132180087Y-46724365D01*
X132318635Y-46682337D01*
X132446322Y-46614087D01*
X132558240Y-46522238D01*
X132581260Y-46494188D01*
X133194198Y-45881251D01*
X133222238Y-45858239D01*
X133245251Y-45830198D01*
X133245254Y-45830195D01*
X133314087Y-45746322D01*
X133314088Y-45746321D01*
X133382338Y-45618634D01*
X133424366Y-45480086D01*
X133435001Y-45372106D01*
X133435001Y-45372097D01*
X133438556Y-45336002D01*
X133435001Y-45299907D01*
X133435001Y-40376095D01*
X133438556Y-40340000D01*
X133435001Y-40303905D01*
X133435001Y-40303896D01*
X133424366Y-40195916D01*
X133382338Y-40057368D01*
X133314088Y-39929681D01*
X133222239Y-39817763D01*
X133194194Y-39794747D01*
X127014446Y-33615000D01*
X127266411Y-33615000D01*
X127440855Y-33580301D01*
X132205807Y-38345254D01*
X132205812Y-38345258D01*
X134765001Y-40904448D01*
X134765000Y-53715000D01*
X134648061Y-53715000D01*
X134448102Y-53754774D01*
X134259744Y-53832795D01*
X134090226Y-53946063D01*
X134021289Y-54015000D01*
X121184394Y-54015000D01*
X121148299Y-54011445D01*
X121112204Y-54015000D01*
X121112195Y-54015000D01*
X121004215Y-54025635D01*
X120865667Y-54067663D01*
X120737980Y-54135913D01*
X120626062Y-54227762D01*
X120603046Y-54255807D01*
X117392809Y-57466045D01*
X117198102Y-57504774D01*
X117009744Y-57582795D01*
X116840226Y-57696063D01*
X116696063Y-57840226D01*
X116582795Y-58009744D01*
X116504774Y-58198102D01*
X116465000Y-58398061D01*
X116465000Y-58601939D01*
X116504774Y-58801898D01*
X116582795Y-58990256D01*
X116696063Y-59159774D01*
X116840226Y-59303937D01*
X117009744Y-59417205D01*
X117198102Y-59495226D01*
X117398061Y-59535000D01*
X117601939Y-59535000D01*
X117801898Y-59495226D01*
X117990256Y-59417205D01*
X118159774Y-59303937D01*
X118303937Y-59159774D01*
X118417205Y-58990256D01*
X118495226Y-58801898D01*
X118515001Y-58702482D01*
X118515001Y-58713885D01*
X118511444Y-58750000D01*
X118525635Y-58894085D01*
X118554809Y-58990256D01*
X118567664Y-59032633D01*
X118635914Y-59160320D01*
X118727763Y-59272238D01*
X118755808Y-59295254D01*
X118965000Y-59504446D01*
X118965000Y-59601939D01*
X119004774Y-59801898D01*
X119082795Y-59990256D01*
X119196063Y-60159774D01*
X119340226Y-60303937D01*
X119509744Y-60417205D01*
X119698102Y-60495226D01*
X119898061Y-60535000D01*
X120101939Y-60535000D01*
X120301898Y-60495226D01*
X120490256Y-60417205D01*
X120659774Y-60303937D01*
X120803937Y-60159774D01*
X120917205Y-59990256D01*
X120995226Y-59801898D01*
X121035000Y-59601939D01*
X121035000Y-59398061D01*
X120995226Y-59198102D01*
X120917205Y-59009744D01*
X120803937Y-58840226D01*
X120659774Y-58696063D01*
X120490256Y-58582795D01*
X120301898Y-58504774D01*
X120277897Y-58500000D01*
X120301898Y-58495226D01*
X120490256Y-58417205D01*
X120659774Y-58303937D01*
X120728711Y-58235000D01*
X122599328Y-58235000D01*
X122582795Y-58259744D01*
X122504774Y-58448102D01*
X122465000Y-58648061D01*
X122465000Y-58851939D01*
X122504774Y-59051898D01*
X122582795Y-59240256D01*
X122696063Y-59409774D01*
X122840226Y-59553937D01*
X123009744Y-59667205D01*
X123198102Y-59745226D01*
X123398061Y-59785000D01*
X123495554Y-59785000D01*
X127137871Y-63427317D01*
X127082795Y-63509744D01*
X127004774Y-63698102D01*
X126965000Y-63898061D01*
X126965000Y-64101939D01*
X127004774Y-64301898D01*
X127082795Y-64490256D01*
X127196063Y-64659774D01*
X127340226Y-64803937D01*
X127509744Y-64917205D01*
X127698102Y-64995226D01*
X127898061Y-65035000D01*
X128101939Y-65035000D01*
X128301898Y-64995226D01*
X128490256Y-64917205D01*
X128659774Y-64803937D01*
X128803937Y-64659774D01*
X128917205Y-64490256D01*
X128995226Y-64301898D01*
X129035000Y-64101939D01*
X129035000Y-63998587D01*
X129051898Y-63995226D01*
X129240256Y-63917205D01*
X129409774Y-63803937D01*
X129553937Y-63659774D01*
X129667205Y-63490256D01*
X129745226Y-63301898D01*
X129785000Y-63101939D01*
X129785000Y-62997733D01*
X129795774Y-63051898D01*
X129873795Y-63240256D01*
X129987063Y-63409774D01*
X130131226Y-63553937D01*
X130300744Y-63667205D01*
X130489102Y-63745226D01*
X130689061Y-63785000D01*
X130892939Y-63785000D01*
X131092898Y-63745226D01*
X131281256Y-63667205D01*
X131450774Y-63553937D01*
X131594937Y-63409774D01*
X131708205Y-63240256D01*
X131786226Y-63051898D01*
X131826000Y-62851939D01*
X131826000Y-62754446D01*
X133645264Y-60935183D01*
X133645268Y-60935178D01*
X135196392Y-59384054D01*
X135128186Y-59548718D01*
X135074000Y-59821127D01*
X135074000Y-60098873D01*
X135128186Y-60371282D01*
X135234475Y-60627885D01*
X135388782Y-60858822D01*
X135585178Y-61055218D01*
X135816115Y-61209525D01*
X136072718Y-61315814D01*
X136345127Y-61370000D01*
X136622873Y-61370000D01*
X136895282Y-61315814D01*
X137151885Y-61209525D01*
X137382822Y-61055218D01*
X137579218Y-60858822D01*
X137733525Y-60627885D01*
X137839814Y-60371282D01*
X137894000Y-60098873D01*
X137894000Y-59821127D01*
X137839814Y-59548718D01*
X137733525Y-59292115D01*
X137579218Y-59061178D01*
X137382822Y-58864782D01*
X137151885Y-58710475D01*
X136895282Y-58604186D01*
X136622873Y-58550000D01*
X136345127Y-58550000D01*
X136072718Y-58604186D01*
X135908055Y-58672392D01*
X136494193Y-58086254D01*
X136522238Y-58063238D01*
X136614087Y-57951320D01*
X136682337Y-57823633D01*
X136724365Y-57685085D01*
X136735000Y-57577105D01*
X136738556Y-57541000D01*
X136735000Y-57504895D01*
X136735000Y-39286094D01*
X136738555Y-39249999D01*
X136735000Y-39213904D01*
X136735000Y-39213895D01*
X136724365Y-39105915D01*
X136682337Y-38967367D01*
X136614087Y-38839680D01*
X136597514Y-38819487D01*
X136545253Y-38755806D01*
X136545250Y-38755803D01*
X136522237Y-38727762D01*
X136494198Y-38704751D01*
X128045259Y-30255813D01*
X128022238Y-30227762D01*
X127910320Y-30135913D01*
X127782633Y-30067663D01*
X127644085Y-30025635D01*
X127536105Y-30015000D01*
X127500000Y-30011444D01*
X127463895Y-30015000D01*
X118486104Y-30015000D01*
X118449999Y-30011444D01*
X118305914Y-30025635D01*
X118263886Y-30038384D01*
X118167367Y-30067663D01*
X118039680Y-30135913D01*
X117927762Y-30227762D01*
X117904746Y-30255807D01*
X117280854Y-30879699D01*
X117106411Y-30845000D01*
X116833589Y-30845000D01*
X116566011Y-30898225D01*
X116313957Y-31002629D01*
X116087114Y-31154201D01*
X115894201Y-31347114D01*
X115742629Y-31573957D01*
X115700000Y-31676873D01*
X115657371Y-31573957D01*
X115505799Y-31347114D01*
X115312886Y-31154201D01*
X115086043Y-31002629D01*
X114833989Y-30898225D01*
X114566411Y-30845000D01*
X114293589Y-30845000D01*
X114026011Y-30898225D01*
X113773957Y-31002629D01*
X113547114Y-31154201D01*
X113354201Y-31347114D01*
X113202629Y-31573957D01*
X113098225Y-31826011D01*
X113045000Y-32093589D01*
X113045000Y-32366411D01*
X113098225Y-32633989D01*
X113202629Y-32886043D01*
X113354201Y-33112886D01*
X113547114Y-33305799D01*
X113773957Y-33457371D01*
X114026011Y-33561775D01*
X114293589Y-33615000D01*
X114566411Y-33615000D01*
X114833989Y-33561775D01*
X115086043Y-33457371D01*
X115312886Y-33305799D01*
X115505799Y-33112886D01*
X115657371Y-32886043D01*
X115700000Y-32783127D01*
X115742629Y-32886043D01*
X115894201Y-33112886D01*
X116087114Y-33305799D01*
X116313957Y-33457371D01*
X116566011Y-33561775D01*
X116833589Y-33615000D01*
X117106411Y-33615000D01*
X117373989Y-33561775D01*
X117626043Y-33457371D01*
X117852886Y-33305799D01*
X118045799Y-33112886D01*
X118197371Y-32886043D01*
X118240000Y-32783127D01*
X118282629Y-32886043D01*
X118434201Y-33112886D01*
X118627114Y-33305799D01*
X118853957Y-33457371D01*
X119106011Y-33561775D01*
X119373589Y-33615000D01*
X119625554Y-33615000D01*
X117755812Y-35484742D01*
X117755806Y-35484747D01*
X112255808Y-40984746D01*
X112227762Y-41007763D01*
X112135913Y-41119681D01*
X112067663Y-41247368D01*
X112038384Y-41343887D01*
X112025635Y-41385915D01*
X112011444Y-41530000D01*
X112015000Y-41566105D01*
X112015001Y-44521288D01*
X111946063Y-44590226D01*
X111832795Y-44759744D01*
X111754774Y-44948102D01*
X111715000Y-45148061D01*
X101460000Y-45148061D01*
X101460000Y-28284721D01*
X101487907Y-28000101D01*
X101560484Y-27759715D01*
X101678368Y-27538009D01*
X101837068Y-27343423D01*
X102030545Y-27183365D01*
X102251424Y-27063936D01*
X102491297Y-26989683D01*
X102773716Y-26960000D01*
X138715279Y-26960000D01*
X138999899Y-26987907D01*
%TA.AperFunction,Conductor*%
D20*
G36*
X138999899Y-26987907D02*
G01*
X139240285Y-27060484D01*
X139461991Y-27178368D01*
X139656577Y-27337068D01*
X139816635Y-27530545D01*
X139936064Y-27751424D01*
X140010317Y-27991297D01*
X140040000Y-28273716D01*
X140040001Y-89215269D01*
X140012093Y-89499899D01*
X139939517Y-89740282D01*
X139821633Y-89961989D01*
X139662929Y-90156580D01*
X139469455Y-90316635D01*
X139248576Y-90436064D01*
X139008701Y-90510317D01*
X138726291Y-90540000D01*
X102784721Y-90540000D01*
X102500101Y-90512093D01*
X102259718Y-90439517D01*
X102038011Y-90321633D01*
X101843420Y-90162929D01*
X101683365Y-89969455D01*
X101563936Y-89748576D01*
X101489683Y-89508701D01*
X101460000Y-89226291D01*
X101460000Y-88094353D01*
X109986000Y-88094353D01*
X109986000Y-88401647D01*
X110045950Y-88703035D01*
X110163546Y-88986937D01*
X110334269Y-89242442D01*
X110551558Y-89459731D01*
X110807063Y-89630454D01*
X111090965Y-89748050D01*
X111392353Y-89808000D01*
X111699647Y-89808000D01*
X112001035Y-89748050D01*
X112284937Y-89630454D01*
X112540442Y-89459731D01*
X112670256Y-89329917D01*
X115143688Y-89329917D01*
X115230393Y-89586653D01*
X115507223Y-89720048D01*
X115804757Y-89796873D01*
X116111562Y-89814176D01*
X116415848Y-89771292D01*
X116705921Y-89669868D01*
X116861607Y-89586653D01*
X116948312Y-89329917D01*
X116046000Y-88427605D01*
X115143688Y-89329917D01*
X112670256Y-89329917D01*
X112757731Y-89242442D01*
X112928454Y-88986937D01*
X113046050Y-88703035D01*
X113106000Y-88401647D01*
X113106000Y-88313562D01*
X114479824Y-88313562D01*
X114522708Y-88617848D01*
X114624132Y-88907921D01*
X114707347Y-89063607D01*
X114964083Y-89150312D01*
X115866395Y-88248000D01*
X116225605Y-88248000D01*
X117127917Y-89150312D01*
X117384653Y-89063607D01*
X117518048Y-88786777D01*
X117594873Y-88489243D01*
X117612176Y-88182438D01*
X117599762Y-88094353D01*
X125226000Y-88094353D01*
X125226000Y-88401647D01*
X125285950Y-88703035D01*
X125403546Y-88986937D01*
X125574269Y-89242442D01*
X125791558Y-89459731D01*
X126047063Y-89630454D01*
X126330965Y-89748050D01*
X126632353Y-89808000D01*
X126939647Y-89808000D01*
X127241035Y-89748050D01*
X127524937Y-89630454D01*
X127780442Y-89459731D01*
X127910256Y-89329917D01*
X130383688Y-89329917D01*
X130470393Y-89586653D01*
X130747223Y-89720048D01*
X131044757Y-89796873D01*
X131351562Y-89814176D01*
X131655848Y-89771292D01*
X131945921Y-89669868D01*
X132101607Y-89586653D01*
X132188312Y-89329917D01*
X131286000Y-88427605D01*
X130383688Y-89329917D01*
X127910256Y-89329917D01*
X127997731Y-89242442D01*
X128168454Y-88986937D01*
X128286050Y-88703035D01*
X128346000Y-88401647D01*
X128346000Y-88313562D01*
X129719824Y-88313562D01*
X129762708Y-88617848D01*
X129864132Y-88907921D01*
X129947347Y-89063607D01*
X130204083Y-89150312D01*
X131106395Y-88248000D01*
X131465605Y-88248000D01*
X132367917Y-89150312D01*
X132624653Y-89063607D01*
X132758048Y-88786777D01*
X132834873Y-88489243D01*
X132852176Y-88182438D01*
X132809292Y-87878152D01*
X132707868Y-87588079D01*
X132624653Y-87432393D01*
X132367917Y-87345688D01*
X131465605Y-88248000D01*
X131106395Y-88248000D01*
X130204083Y-87345688D01*
X129947347Y-87432393D01*
X129813952Y-87709223D01*
X129737127Y-88006757D01*
X129719824Y-88313562D01*
X128346000Y-88313562D01*
X128346000Y-88094353D01*
X128286050Y-87792965D01*
X128168454Y-87509063D01*
X127997731Y-87253558D01*
X127910256Y-87166083D01*
X130383688Y-87166083D01*
X131286000Y-88068395D01*
X132188312Y-87166083D01*
X132101607Y-86909347D01*
X131824777Y-86775952D01*
X131527243Y-86699127D01*
X131220438Y-86681824D01*
X130916152Y-86724708D01*
X130626079Y-86826132D01*
X130470393Y-86909347D01*
X130383688Y-87166083D01*
X127910256Y-87166083D01*
X127780442Y-87036269D01*
X127524937Y-86865546D01*
X127241035Y-86747950D01*
X126939647Y-86688000D01*
X126632353Y-86688000D01*
X126330965Y-86747950D01*
X126047063Y-86865546D01*
X125791558Y-87036269D01*
X125574269Y-87253558D01*
X125403546Y-87509063D01*
X125285950Y-87792965D01*
X125226000Y-88094353D01*
X117599762Y-88094353D01*
X117569292Y-87878152D01*
X117467868Y-87588079D01*
X117384653Y-87432393D01*
X117127917Y-87345688D01*
X116225605Y-88248000D01*
X115866395Y-88248000D01*
X114964083Y-87345688D01*
X114707347Y-87432393D01*
X114573952Y-87709223D01*
X114497127Y-88006757D01*
X114479824Y-88313562D01*
X113106000Y-88313562D01*
X113106000Y-88094353D01*
X113046050Y-87792965D01*
X112928454Y-87509063D01*
X112757731Y-87253558D01*
X112670256Y-87166083D01*
X115143688Y-87166083D01*
X116046000Y-88068395D01*
X116948312Y-87166083D01*
X116861607Y-86909347D01*
X116584777Y-86775952D01*
X116287243Y-86699127D01*
X115980438Y-86681824D01*
X115676152Y-86724708D01*
X115386079Y-86826132D01*
X115230393Y-86909347D01*
X115143688Y-87166083D01*
X112670256Y-87166083D01*
X112540442Y-87036269D01*
X112284937Y-86865546D01*
X112001035Y-86747950D01*
X111699647Y-86688000D01*
X111392353Y-86688000D01*
X111090965Y-86747950D01*
X110807063Y-86865546D01*
X110551558Y-87036269D01*
X110334269Y-87253558D01*
X110163546Y-87509063D01*
X110045950Y-87792965D01*
X109986000Y-88094353D01*
X101460000Y-88094353D01*
X101460000Y-75594353D01*
X109986000Y-75594353D01*
X109986000Y-75901647D01*
X110045950Y-76203035D01*
X110163546Y-76486937D01*
X110334269Y-76742442D01*
X110551558Y-76959731D01*
X110807063Y-77130454D01*
X111090965Y-77248050D01*
X111392353Y-77308000D01*
X111699647Y-77308000D01*
X112001035Y-77248050D01*
X112284937Y-77130454D01*
X112540442Y-76959731D01*
X112670256Y-76829917D01*
X115143688Y-76829917D01*
X115230393Y-77086653D01*
X115507223Y-77220048D01*
X115804757Y-77296873D01*
X116111562Y-77314176D01*
X116415848Y-77271292D01*
X116705921Y-77169868D01*
X116861607Y-77086653D01*
X116948312Y-76829917D01*
X116046000Y-75927605D01*
X115143688Y-76829917D01*
X112670256Y-76829917D01*
X112757731Y-76742442D01*
X112928454Y-76486937D01*
X113046050Y-76203035D01*
X113106000Y-75901647D01*
X113106000Y-75813562D01*
X114479824Y-75813562D01*
X114522708Y-76117848D01*
X114624132Y-76407921D01*
X114707347Y-76563607D01*
X114964083Y-76650312D01*
X115866395Y-75748000D01*
X116225605Y-75748000D01*
X117127917Y-76650312D01*
X117384653Y-76563607D01*
X117518048Y-76286777D01*
X117594873Y-75989243D01*
X117612176Y-75682438D01*
X117599762Y-75594353D01*
X125226000Y-75594353D01*
X125226000Y-75901647D01*
X125285950Y-76203035D01*
X125403546Y-76486937D01*
X125574269Y-76742442D01*
X125791558Y-76959731D01*
X126047063Y-77130454D01*
X126330965Y-77248050D01*
X126632353Y-77308000D01*
X126939647Y-77308000D01*
X127241035Y-77248050D01*
X127524937Y-77130454D01*
X127780442Y-76959731D01*
X127910256Y-76829917D01*
X130383688Y-76829917D01*
X130470393Y-77086653D01*
X130747223Y-77220048D01*
X131044757Y-77296873D01*
X131351562Y-77314176D01*
X131655848Y-77271292D01*
X131945921Y-77169868D01*
X132101607Y-77086653D01*
X132188312Y-76829917D01*
X131286000Y-75927605D01*
X130383688Y-76829917D01*
X127910256Y-76829917D01*
X127997731Y-76742442D01*
X128168454Y-76486937D01*
X128286050Y-76203035D01*
X128346000Y-75901647D01*
X128346000Y-75813562D01*
X129719824Y-75813562D01*
X129762708Y-76117848D01*
X129864132Y-76407921D01*
X129947347Y-76563607D01*
X130204083Y-76650312D01*
X131106395Y-75748000D01*
X131465605Y-75748000D01*
X132367917Y-76650312D01*
X132624653Y-76563607D01*
X132758048Y-76286777D01*
X132834873Y-75989243D01*
X132852176Y-75682438D01*
X132809292Y-75378152D01*
X132707868Y-75088079D01*
X132624653Y-74932393D01*
X132367917Y-74845688D01*
X131465605Y-75748000D01*
X131106395Y-75748000D01*
X130204083Y-74845688D01*
X129947347Y-74932393D01*
X129813952Y-75209223D01*
X129737127Y-75506757D01*
X129719824Y-75813562D01*
X128346000Y-75813562D01*
X128346000Y-75594353D01*
X128286050Y-75292965D01*
X128234881Y-75169432D01*
X128240256Y-75167205D01*
X128409774Y-75053937D01*
X128553937Y-74909774D01*
X128667205Y-74740256D01*
X128745226Y-74551898D01*
X128758533Y-74485000D01*
X130271289Y-74485000D01*
X130340226Y-74553937D01*
X130406587Y-74598278D01*
X130383688Y-74666083D01*
X131286000Y-75568395D01*
X132188312Y-74666083D01*
X132101607Y-74409347D01*
X131876652Y-74300949D01*
X131917205Y-74240256D01*
X131995226Y-74051898D01*
X132035000Y-73851939D01*
X132035000Y-73648061D01*
X131995226Y-73448102D01*
X131917205Y-73259744D01*
X131803937Y-73090226D01*
X131659774Y-72946063D01*
X131490256Y-72832795D01*
X131301898Y-72754774D01*
X131101939Y-72715000D01*
X130898061Y-72715000D01*
X130698102Y-72754774D01*
X130509744Y-72832795D01*
X130340226Y-72946063D01*
X130271289Y-73015000D01*
X128286105Y-73015000D01*
X128250000Y-73011444D01*
X128213895Y-73015000D01*
X128105915Y-73025635D01*
X127967367Y-73067663D01*
X127839680Y-73135913D01*
X127743312Y-73215000D01*
X127648061Y-73215000D01*
X127448102Y-73254774D01*
X127259744Y-73332795D01*
X127090226Y-73446063D01*
X126946063Y-73590226D01*
X126832795Y-73759744D01*
X126754774Y-73948102D01*
X126715000Y-74148061D01*
X126715000Y-74188000D01*
X126632353Y-74188000D01*
X126330965Y-74247950D01*
X126047063Y-74365546D01*
X125791558Y-74536269D01*
X125574269Y-74753558D01*
X125403546Y-75009063D01*
X125285950Y-75292965D01*
X125226000Y-75594353D01*
X117599762Y-75594353D01*
X117569292Y-75378152D01*
X117467868Y-75088079D01*
X117384653Y-74932393D01*
X117127917Y-74845688D01*
X116225605Y-75748000D01*
X115866395Y-75748000D01*
X114964083Y-74845688D01*
X114707347Y-74932393D01*
X114573952Y-75209223D01*
X114497127Y-75506757D01*
X114479824Y-75813562D01*
X113106000Y-75813562D01*
X113106000Y-75594353D01*
X113046050Y-75292965D01*
X112928454Y-75009063D01*
X112757731Y-74753558D01*
X112670256Y-74666083D01*
X115143688Y-74666083D01*
X116046000Y-75568395D01*
X116948312Y-74666083D01*
X116861607Y-74409347D01*
X116584777Y-74275952D01*
X116287243Y-74199127D01*
X115980438Y-74181824D01*
X115676152Y-74224708D01*
X115386079Y-74326132D01*
X115230393Y-74409347D01*
X115143688Y-74666083D01*
X112670256Y-74666083D01*
X112540442Y-74536269D01*
X112284937Y-74365546D01*
X112001035Y-74247950D01*
X111699647Y-74188000D01*
X111392353Y-74188000D01*
X111090965Y-74247950D01*
X110807063Y-74365546D01*
X110551558Y-74536269D01*
X110334269Y-74753558D01*
X110163546Y-75009063D01*
X110045950Y-75292965D01*
X109986000Y-75594353D01*
X101460000Y-75594353D01*
X101460000Y-71648061D01*
X115965000Y-71648061D01*
X115965000Y-71851939D01*
X116004774Y-72051898D01*
X116082795Y-72240256D01*
X116196063Y-72409774D01*
X116340226Y-72553937D01*
X116509744Y-72667205D01*
X116698102Y-72745226D01*
X116898061Y-72785000D01*
X117101939Y-72785000D01*
X117301898Y-72745226D01*
X117490256Y-72667205D01*
X117659774Y-72553937D01*
X117728711Y-72485000D01*
X122741467Y-72485000D01*
X122754774Y-72551898D01*
X122832795Y-72740256D01*
X122946063Y-72909774D01*
X123090226Y-73053937D01*
X123259744Y-73167205D01*
X123448102Y-73245226D01*
X123648061Y-73285000D01*
X123851939Y-73285000D01*
X124051898Y-73245226D01*
X124240256Y-73167205D01*
X124409774Y-73053937D01*
X124553937Y-72909774D01*
X124667205Y-72740256D01*
X124745226Y-72551898D01*
X124785000Y-72351939D01*
X124785000Y-72148061D01*
X124745226Y-71948102D01*
X124667205Y-71759744D01*
X124641968Y-71721974D01*
X124698102Y-71745226D01*
X124898061Y-71785000D01*
X125101939Y-71785000D01*
X125301898Y-71745226D01*
X125490256Y-71667205D01*
X125659774Y-71553937D01*
X125728711Y-71485000D01*
X132945554Y-71485000D01*
X133215000Y-71754446D01*
X133215000Y-71851939D01*
X133254774Y-72051898D01*
X133332795Y-72240256D01*
X133446063Y-72409774D01*
X133590226Y-72553937D01*
X133759744Y-72667205D01*
X133948102Y-72745226D01*
X134148061Y-72785000D01*
X134351939Y-72785000D01*
X134551898Y-72745226D01*
X134740256Y-72667205D01*
X134909774Y-72553937D01*
X135053937Y-72409774D01*
X135167205Y-72240256D01*
X135245226Y-72051898D01*
X135285000Y-71851939D01*
X135285000Y-71648061D01*
X135245226Y-71448102D01*
X135167205Y-71259744D01*
X135053937Y-71090226D01*
X134909774Y-70946063D01*
X134740256Y-70832795D01*
X134551898Y-70754774D01*
X134351939Y-70715000D01*
X134254446Y-70715000D01*
X133795258Y-70255812D01*
X133772238Y-70227762D01*
X133660320Y-70135913D01*
X133532633Y-70067663D01*
X133394085Y-70025635D01*
X133286105Y-70015000D01*
X133250000Y-70011444D01*
X133213895Y-70015000D01*
X130448711Y-70015000D01*
X130453711Y-70010000D01*
X134715000Y-70010000D01*
X134715000Y-70101939D01*
X134754774Y-70301898D01*
X134832795Y-70490256D01*
X134946063Y-70659774D01*
X135090226Y-70803937D01*
X135259744Y-70917205D01*
X135448102Y-70995226D01*
X135648061Y-71035000D01*
X135851939Y-71035000D01*
X136051898Y-70995226D01*
X136240256Y-70917205D01*
X136409774Y-70803937D01*
X136478711Y-70735000D01*
X138021289Y-70735000D01*
X138090226Y-70803937D01*
X138259744Y-70917205D01*
X138448102Y-70995226D01*
X138648061Y-71035000D01*
X138851939Y-71035000D01*
X139051898Y-70995226D01*
X139240256Y-70917205D01*
X139409774Y-70803937D01*
X139553937Y-70659774D01*
X139667205Y-70490256D01*
X139745226Y-70301898D01*
X139785000Y-70101939D01*
X139785000Y-69898061D01*
X139745226Y-69698102D01*
X139667205Y-69509744D01*
X139553937Y-69340226D01*
X139409774Y-69196063D01*
X139240256Y-69082795D01*
X139051898Y-69004774D01*
X138851939Y-68965000D01*
X138648061Y-68965000D01*
X138448102Y-69004774D01*
X138259744Y-69082795D01*
X138090226Y-69196063D01*
X138021289Y-69265000D01*
X136478711Y-69265000D01*
X136409774Y-69196063D01*
X136240256Y-69082795D01*
X136183512Y-69059291D01*
X139511004Y-65731800D01*
X139540001Y-65708003D01*
X139566332Y-65675919D01*
X139634974Y-65592279D01*
X139705546Y-65460249D01*
X139708266Y-65451282D01*
X139749003Y-65316988D01*
X139760000Y-65205335D01*
X139760000Y-65205325D01*
X139763676Y-65168002D01*
X139760000Y-65130679D01*
X139760000Y-63453711D01*
X139803937Y-63409774D01*
X139917205Y-63240256D01*
X139995226Y-63051898D01*
X140035000Y-62851939D01*
X140035000Y-62648061D01*
X139995226Y-62448102D01*
X139917205Y-62259744D01*
X139803937Y-62090226D01*
X139659774Y-61946063D01*
X139490256Y-61832795D01*
X139301898Y-61754774D01*
X139101939Y-61715000D01*
X138898061Y-61715000D01*
X138698102Y-61754774D01*
X138509744Y-61832795D01*
X138340226Y-61946063D01*
X138196063Y-62090226D01*
X138082795Y-62259744D01*
X138004774Y-62448102D01*
X137965000Y-62648061D01*
X137965000Y-62851939D01*
X138004774Y-63051898D01*
X138082795Y-63240256D01*
X138196063Y-63409774D01*
X138240001Y-63453712D01*
X138240001Y-63838661D01*
X138167885Y-63790475D01*
X137911282Y-63684186D01*
X137638873Y-63630000D01*
X137361127Y-63630000D01*
X137088718Y-63684186D01*
X136832115Y-63790475D01*
X136601178Y-63944782D01*
X136484000Y-64061960D01*
X136366822Y-63944782D01*
X136135885Y-63790475D01*
X135879282Y-63684186D01*
X135606873Y-63630000D01*
X135541544Y-63630000D01*
X135507879Y-63460755D01*
X135429858Y-63272397D01*
X135316590Y-63102879D01*
X135172427Y-62958716D01*
X135002909Y-62845448D01*
X134814551Y-62767427D01*
X134614592Y-62727653D01*
X134410714Y-62727653D01*
X134210755Y-62767427D01*
X134022397Y-62845448D01*
X133852879Y-62958716D01*
X133783942Y-63027653D01*
X132857132Y-63027653D01*
X132801898Y-63004774D01*
X132601939Y-62965000D01*
X132398061Y-62965000D01*
X132198102Y-63004774D01*
X132009744Y-63082795D01*
X131840226Y-63196063D01*
X131696063Y-63340226D01*
X131582795Y-63509744D01*
X131504774Y-63698102D01*
X131465000Y-63898061D01*
X131465000Y-64101939D01*
X131504774Y-64301898D01*
X131582795Y-64490256D01*
X131696063Y-64659774D01*
X131840226Y-64803937D01*
X132009744Y-64917205D01*
X132198102Y-64995226D01*
X132398061Y-65035000D01*
X132601939Y-65035000D01*
X132801898Y-64995226D01*
X132990256Y-64917205D01*
X133159774Y-64803937D01*
X133303937Y-64659774D01*
X133412262Y-64497653D01*
X133783942Y-64497653D01*
X133852879Y-64566590D01*
X134022397Y-64679858D01*
X134095953Y-64710326D01*
X134058000Y-64901127D01*
X134058000Y-65178873D01*
X134112186Y-65451282D01*
X134218475Y-65707885D01*
X134372782Y-65938822D01*
X134569178Y-66135218D01*
X134800115Y-66289525D01*
X135056718Y-66395814D01*
X135329127Y-66450000D01*
X135606873Y-66450000D01*
X135879282Y-66395814D01*
X136135885Y-66289525D01*
X136366822Y-66135218D01*
X136484000Y-66018040D01*
X136601178Y-66135218D01*
X136815067Y-66278134D01*
X134603201Y-68490000D01*
X130510000Y-68490000D01*
X130510000Y-68287325D01*
X130513676Y-68250000D01*
X130510000Y-68212675D01*
X130510000Y-68212667D01*
X130499003Y-68101014D01*
X130455546Y-67957753D01*
X130384974Y-67825724D01*
X130290001Y-67709999D01*
X130260997Y-67686196D01*
X129813804Y-67239003D01*
X129790001Y-67209999D01*
X129674276Y-67115026D01*
X129542247Y-67044454D01*
X129398986Y-67000997D01*
X129287333Y-66990000D01*
X129287322Y-66990000D01*
X129250000Y-66986324D01*
X129212678Y-66990000D01*
X127703711Y-66990000D01*
X127659774Y-66946063D01*
X127490256Y-66832795D01*
X127301898Y-66754774D01*
X127101939Y-66715000D01*
X126898061Y-66715000D01*
X126698102Y-66754774D01*
X126509744Y-66832795D01*
X126340226Y-66946063D01*
X126196063Y-67090226D01*
X126082795Y-67259744D01*
X126004774Y-67448102D01*
X125965000Y-67648061D01*
X125965000Y-67851939D01*
X126004774Y-68051898D01*
X126082795Y-68240256D01*
X126196063Y-68409774D01*
X126340226Y-68553937D01*
X126509744Y-68667205D01*
X126698102Y-68745226D01*
X126898061Y-68785000D01*
X127101939Y-68785000D01*
X127301898Y-68745226D01*
X127490256Y-68667205D01*
X127659774Y-68553937D01*
X127703711Y-68510000D01*
X128935199Y-68510000D01*
X128980744Y-68555545D01*
X128946063Y-68590226D01*
X128832795Y-68759744D01*
X128754774Y-68948102D01*
X128715000Y-69148061D01*
X128715000Y-69351939D01*
X128754774Y-69551898D01*
X128832795Y-69740256D01*
X128946063Y-69909774D01*
X129051289Y-70015000D01*
X125728711Y-70015000D01*
X125659774Y-69946063D01*
X125490256Y-69832795D01*
X125301898Y-69754774D01*
X125101939Y-69715000D01*
X124898061Y-69715000D01*
X124698102Y-69754774D01*
X124509744Y-69832795D01*
X124340226Y-69946063D01*
X124196063Y-70090226D01*
X124082795Y-70259744D01*
X124004774Y-70448102D01*
X123965000Y-70648061D01*
X123965000Y-70851939D01*
X124004774Y-71051898D01*
X124082795Y-71240256D01*
X124108032Y-71278026D01*
X124051898Y-71254774D01*
X123851939Y-71215000D01*
X123756688Y-71215000D01*
X123660320Y-71135913D01*
X123532633Y-71067663D01*
X123394085Y-71025635D01*
X123286105Y-71015000D01*
X123250000Y-71011444D01*
X123213895Y-71015000D01*
X121938661Y-71015000D01*
X122097663Y-70855998D01*
X122287537Y-70571831D01*
X122418325Y-70256081D01*
X122485000Y-69920883D01*
X122485000Y-69579117D01*
X122418325Y-69243919D01*
X122287537Y-68928169D01*
X122097663Y-68644002D01*
X121855998Y-68402337D01*
X121571831Y-68212463D01*
X121256081Y-68081675D01*
X120920883Y-68015000D01*
X120579117Y-68015000D01*
X120243919Y-68081675D01*
X119928169Y-68212463D01*
X119644002Y-68402337D01*
X119402337Y-68644002D01*
X119212463Y-68928169D01*
X119081675Y-69243919D01*
X119015000Y-69579117D01*
X119015000Y-69920883D01*
X119081675Y-70256081D01*
X119212463Y-70571831D01*
X119402337Y-70855998D01*
X119561339Y-71015000D01*
X117728711Y-71015000D01*
X117659774Y-70946063D01*
X117490256Y-70832795D01*
X117301898Y-70754774D01*
X117101939Y-70715000D01*
X116898061Y-70715000D01*
X116698102Y-70754774D01*
X116509744Y-70832795D01*
X116340226Y-70946063D01*
X116196063Y-71090226D01*
X116082795Y-71259744D01*
X116004774Y-71448102D01*
X115965000Y-71648061D01*
X101460000Y-71648061D01*
X101460000Y-70306993D01*
X107972612Y-70306993D01*
X108038137Y-70545860D01*
X108285116Y-70661760D01*
X108549960Y-70727250D01*
X108822492Y-70739812D01*
X109092238Y-70698965D01*
X109348832Y-70606277D01*
X109461863Y-70545860D01*
X109527388Y-70306993D01*
X108750000Y-69529605D01*
X107972612Y-70306993D01*
X101460000Y-70306993D01*
X101460000Y-69422492D01*
X107360188Y-69422492D01*
X107401035Y-69692238D01*
X107493723Y-69948832D01*
X107554140Y-70061863D01*
X107793007Y-70127388D01*
X108570395Y-69350000D01*
X108929605Y-69350000D01*
X109706993Y-70127388D01*
X109945860Y-70061863D01*
X110061760Y-69814884D01*
X110127250Y-69550040D01*
X110139812Y-69277508D01*
X110098965Y-69007762D01*
X110006277Y-68751168D01*
X109945860Y-68638137D01*
X109706993Y-68572612D01*
X108929605Y-69350000D01*
X108570395Y-69350000D01*
X107793007Y-68572612D01*
X107554140Y-68638137D01*
X107438240Y-68885116D01*
X107372750Y-69149960D01*
X107360188Y-69422492D01*
X101460000Y-69422492D01*
X101460000Y-68393007D01*
X107972612Y-68393007D01*
X108750000Y-69170395D01*
X109527388Y-68393007D01*
X109461863Y-68154140D01*
X109214884Y-68038240D01*
X108950040Y-67972750D01*
X108677508Y-67960188D01*
X108407762Y-68001035D01*
X108151168Y-68093723D01*
X108038137Y-68154140D01*
X107972612Y-68393007D01*
X101460000Y-68393007D01*
X101460000Y-61613589D01*
X107365000Y-61613589D01*
X107365000Y-61886411D01*
X107418225Y-62153989D01*
X107522629Y-62406043D01*
X107674201Y-62632886D01*
X107867114Y-62825799D01*
X108093957Y-62977371D01*
X108346011Y-63081775D01*
X108613589Y-63135000D01*
X108886411Y-63135000D01*
X109153989Y-63081775D01*
X109406043Y-62977371D01*
X109632886Y-62825799D01*
X109825799Y-62632886D01*
X109977371Y-62406043D01*
X110081775Y-62153989D01*
X110135000Y-61886411D01*
X110135000Y-61613589D01*
X110081775Y-61346011D01*
X109977371Y-61093957D01*
X109825799Y-60867114D01*
X109632886Y-60674201D01*
X109406043Y-60522629D01*
X109153989Y-60418225D01*
X108886411Y-60365000D01*
X108613589Y-60365000D01*
X108346011Y-60418225D01*
X108093957Y-60522629D01*
X107867114Y-60674201D01*
X107674201Y-60867114D01*
X107522629Y-61093957D01*
X107418225Y-61346011D01*
X107365000Y-61613589D01*
X101460000Y-61613589D01*
X101460000Y-50956712D01*
X119722893Y-50956712D01*
X119830726Y-51231338D01*
X120137384Y-51382216D01*
X120467585Y-51470369D01*
X120808639Y-51492409D01*
X121147439Y-51447489D01*
X121470966Y-51337336D01*
X121669274Y-51231338D01*
X121777107Y-50956712D01*
X120750000Y-49929605D01*
X119722893Y-50956712D01*
X101460000Y-50956712D01*
X101460000Y-49808639D01*
X119007591Y-49808639D01*
X119052511Y-50147439D01*
X119162664Y-50470966D01*
X119268662Y-50669274D01*
X119543288Y-50777107D01*
X120570395Y-49750000D01*
X120929605Y-49750000D01*
X121956712Y-50777107D01*
X122231338Y-50669274D01*
X122382216Y-50362616D01*
X122470369Y-50032415D01*
X122492409Y-49691361D01*
X122447489Y-49352561D01*
X122337336Y-49029034D01*
X122231338Y-48830726D01*
X121956712Y-48722893D01*
X120929605Y-49750000D01*
X120570395Y-49750000D01*
X119543288Y-48722893D01*
X119268662Y-48830726D01*
X119117784Y-49137384D01*
X119029631Y-49467585D01*
X119007591Y-49808639D01*
X101460000Y-49808639D01*
X101460000Y-48543288D01*
X119722893Y-48543288D01*
X120750000Y-49570395D01*
X121777107Y-48543288D01*
X121669274Y-48268662D01*
X121362616Y-48117784D01*
X121032415Y-48029631D01*
X120691361Y-48007591D01*
X120352561Y-48052511D01*
X120029034Y-48162664D01*
X119830726Y-48268662D01*
X119722893Y-48543288D01*
X101460000Y-48543288D01*
X101460000Y-45148061D01*
X111715000Y-45148061D01*
X111715000Y-45351939D01*
X111754774Y-45551898D01*
X111832795Y-45740256D01*
X111946063Y-45909774D01*
X112090226Y-46053937D01*
X112259744Y-46167205D01*
X112448102Y-46245226D01*
X112648061Y-46285000D01*
X112851939Y-46285000D01*
X113051898Y-46245226D01*
X113240256Y-46167205D01*
X113409774Y-46053937D01*
X113553937Y-45909774D01*
X113667205Y-45740256D01*
X113745226Y-45551898D01*
X113785000Y-45351939D01*
X113785000Y-45148061D01*
X113745226Y-44948102D01*
X113667205Y-44759744D01*
X113553937Y-44590226D01*
X113485000Y-44521289D01*
X113485000Y-43744421D01*
X113555518Y-43765812D01*
X113680000Y-43778072D01*
X115180000Y-43778072D01*
X115304482Y-43765812D01*
X115424180Y-43729502D01*
X115534494Y-43670537D01*
X115631185Y-43591185D01*
X115710537Y-43494494D01*
X115769502Y-43384180D01*
X115805812Y-43264482D01*
X115816445Y-43156517D01*
X115894201Y-43272886D01*
X116087114Y-43465799D01*
X116313957Y-43617371D01*
X116566011Y-43721775D01*
X116833589Y-43775000D01*
X117106411Y-43775000D01*
X117373989Y-43721775D01*
X117626043Y-43617371D01*
X117852886Y-43465799D01*
X118045799Y-43272886D01*
X118197371Y-43046043D01*
X118240000Y-42943127D01*
X118282629Y-43046043D01*
X118434201Y-43272886D01*
X118627114Y-43465799D01*
X118853957Y-43617371D01*
X119106011Y-43721775D01*
X119373589Y-43775000D01*
X119646411Y-43775000D01*
X119913989Y-43721775D01*
X120166043Y-43617371D01*
X120392886Y-43465799D01*
X120585799Y-43272886D01*
X120737371Y-43046043D01*
X120780000Y-42943127D01*
X120822629Y-43046043D01*
X120974201Y-43272886D01*
X121167114Y-43465799D01*
X121393957Y-43617371D01*
X121646011Y-43721775D01*
X121913589Y-43775000D01*
X122186411Y-43775000D01*
X122453989Y-43721775D01*
X122706043Y-43617371D01*
X122932886Y-43465799D01*
X123125799Y-43272886D01*
X123277371Y-43046043D01*
X123320000Y-42943127D01*
X123362629Y-43046043D01*
X123514201Y-43272886D01*
X123707114Y-43465799D01*
X123933957Y-43617371D01*
X124186011Y-43721775D01*
X124453589Y-43775000D01*
X124726411Y-43775000D01*
X124993989Y-43721775D01*
X125246043Y-43617371D01*
X125472886Y-43465799D01*
X125665799Y-43272886D01*
X125817371Y-43046043D01*
X125860000Y-42943127D01*
X125902629Y-43046043D01*
X126054201Y-43272886D01*
X126247114Y-43465799D01*
X126473957Y-43617371D01*
X126726011Y-43721775D01*
X126993589Y-43775000D01*
X127266411Y-43775000D01*
X127533989Y-43721775D01*
X127786043Y-43617371D01*
X128012886Y-43465799D01*
X128205799Y-43272886D01*
X128304613Y-43125000D01*
X129085554Y-43125000D01*
X130925554Y-44965001D01*
X125785000Y-44965001D01*
X125785000Y-44898061D01*
X125745226Y-44698102D01*
X125667205Y-44509744D01*
X125553937Y-44340226D01*
X125409774Y-44196063D01*
X125240256Y-44082795D01*
X125051898Y-44004774D01*
X124851939Y-43965000D01*
X124648061Y-43965000D01*
X124448102Y-44004774D01*
X124259744Y-44082795D01*
X124090226Y-44196063D01*
X123946063Y-44340226D01*
X123832795Y-44509744D01*
X123754774Y-44698102D01*
X123715000Y-44898061D01*
X123715000Y-45101939D01*
X123754774Y-45301898D01*
X123832795Y-45490256D01*
X123946063Y-45659774D01*
X124090226Y-45803937D01*
X124259744Y-45917205D01*
X124448102Y-45995226D01*
X124648061Y-46035000D01*
X124745553Y-46035000D01*
X124904747Y-46194194D01*
X124927763Y-46222239D01*
X125039681Y-46314088D01*
X125167368Y-46382338D01*
X125305916Y-46424366D01*
X125450001Y-46438557D01*
X125486106Y-46435001D01*
X130895555Y-46435001D01*
X130954741Y-46494187D01*
X130977762Y-46522238D01*
X131089680Y-46614087D01*
X131217366Y-46682337D01*
X131355915Y-46724365D01*
X131500000Y-46738556D01*
X131536105Y-46735000D01*
X131999897Y-46735000D01*
X132036002Y-46738556D01*
X132072107Y-46735000D01*
X132180087Y-46724365D01*
X132318635Y-46682337D01*
X132446322Y-46614087D01*
X132558240Y-46522238D01*
X132581260Y-46494188D01*
X133194198Y-45881251D01*
X133222238Y-45858239D01*
X133245251Y-45830198D01*
X133245254Y-45830195D01*
X133314087Y-45746322D01*
X133314088Y-45746321D01*
X133382338Y-45618634D01*
X133424366Y-45480086D01*
X133435001Y-45372106D01*
X133435001Y-45372097D01*
X133438556Y-45336002D01*
X133435001Y-45299907D01*
X133435001Y-40376095D01*
X133438556Y-40340000D01*
X133435001Y-40303905D01*
X133435001Y-40303896D01*
X133424366Y-40195916D01*
X133382338Y-40057368D01*
X133314088Y-39929681D01*
X133222239Y-39817763D01*
X133194194Y-39794747D01*
X127014446Y-33615000D01*
X127266411Y-33615000D01*
X127440855Y-33580301D01*
X132205807Y-38345254D01*
X132205812Y-38345258D01*
X134765001Y-40904448D01*
X134765000Y-53715000D01*
X134648061Y-53715000D01*
X134448102Y-53754774D01*
X134259744Y-53832795D01*
X134090226Y-53946063D01*
X134021289Y-54015000D01*
X121184394Y-54015000D01*
X121148299Y-54011445D01*
X121112204Y-54015000D01*
X121112195Y-54015000D01*
X121004215Y-54025635D01*
X120865667Y-54067663D01*
X120737980Y-54135913D01*
X120626062Y-54227762D01*
X120603046Y-54255807D01*
X117392809Y-57466045D01*
X117198102Y-57504774D01*
X117009744Y-57582795D01*
X116840226Y-57696063D01*
X116696063Y-57840226D01*
X116582795Y-58009744D01*
X116504774Y-58198102D01*
X116465000Y-58398061D01*
X116465000Y-58601939D01*
X116504774Y-58801898D01*
X116582795Y-58990256D01*
X116696063Y-59159774D01*
X116840226Y-59303937D01*
X117009744Y-59417205D01*
X117198102Y-59495226D01*
X117398061Y-59535000D01*
X117601939Y-59535000D01*
X117801898Y-59495226D01*
X117990256Y-59417205D01*
X118159774Y-59303937D01*
X118303937Y-59159774D01*
X118417205Y-58990256D01*
X118495226Y-58801898D01*
X118515001Y-58702482D01*
X118515001Y-58713885D01*
X118511444Y-58750000D01*
X118525635Y-58894085D01*
X118554809Y-58990256D01*
X118567664Y-59032633D01*
X118635914Y-59160320D01*
X118727763Y-59272238D01*
X118755808Y-59295254D01*
X118965000Y-59504446D01*
X118965000Y-59601939D01*
X119004774Y-59801898D01*
X119082795Y-59990256D01*
X119196063Y-60159774D01*
X119340226Y-60303937D01*
X119509744Y-60417205D01*
X119698102Y-60495226D01*
X119898061Y-60535000D01*
X120101939Y-60535000D01*
X120301898Y-60495226D01*
X120490256Y-60417205D01*
X120659774Y-60303937D01*
X120803937Y-60159774D01*
X120917205Y-59990256D01*
X120995226Y-59801898D01*
X121035000Y-59601939D01*
X121035000Y-59398061D01*
X120995226Y-59198102D01*
X120917205Y-59009744D01*
X120803937Y-58840226D01*
X120659774Y-58696063D01*
X120490256Y-58582795D01*
X120301898Y-58504774D01*
X120277897Y-58500000D01*
X120301898Y-58495226D01*
X120490256Y-58417205D01*
X120659774Y-58303937D01*
X120728711Y-58235000D01*
X122599328Y-58235000D01*
X122582795Y-58259744D01*
X122504774Y-58448102D01*
X122465000Y-58648061D01*
X122465000Y-58851939D01*
X122504774Y-59051898D01*
X122582795Y-59240256D01*
X122696063Y-59409774D01*
X122840226Y-59553937D01*
X123009744Y-59667205D01*
X123198102Y-59745226D01*
X123398061Y-59785000D01*
X123495554Y-59785000D01*
X127137871Y-63427317D01*
X127082795Y-63509744D01*
X127004774Y-63698102D01*
X126965000Y-63898061D01*
X126965000Y-64101939D01*
X127004774Y-64301898D01*
X127082795Y-64490256D01*
X127196063Y-64659774D01*
X127340226Y-64803937D01*
X127509744Y-64917205D01*
X127698102Y-64995226D01*
X127898061Y-65035000D01*
X128101939Y-65035000D01*
X128301898Y-64995226D01*
X128490256Y-64917205D01*
X128659774Y-64803937D01*
X128803937Y-64659774D01*
X128917205Y-64490256D01*
X128995226Y-64301898D01*
X129035000Y-64101939D01*
X129035000Y-63998587D01*
X129051898Y-63995226D01*
X129240256Y-63917205D01*
X129409774Y-63803937D01*
X129553937Y-63659774D01*
X129667205Y-63490256D01*
X129745226Y-63301898D01*
X129785000Y-63101939D01*
X129785000Y-62997733D01*
X129795774Y-63051898D01*
X129873795Y-63240256D01*
X129987063Y-63409774D01*
X130131226Y-63553937D01*
X130300744Y-63667205D01*
X130489102Y-63745226D01*
X130689061Y-63785000D01*
X130892939Y-63785000D01*
X131092898Y-63745226D01*
X131281256Y-63667205D01*
X131450774Y-63553937D01*
X131594937Y-63409774D01*
X131708205Y-63240256D01*
X131786226Y-63051898D01*
X131826000Y-62851939D01*
X131826000Y-62754446D01*
X133645264Y-60935183D01*
X133645268Y-60935178D01*
X135196392Y-59384054D01*
X135128186Y-59548718D01*
X135074000Y-59821127D01*
X135074000Y-60098873D01*
X135128186Y-60371282D01*
X135234475Y-60627885D01*
X135388782Y-60858822D01*
X135585178Y-61055218D01*
X135816115Y-61209525D01*
X136072718Y-61315814D01*
X136345127Y-61370000D01*
X136622873Y-61370000D01*
X136895282Y-61315814D01*
X137151885Y-61209525D01*
X137382822Y-61055218D01*
X137579218Y-60858822D01*
X137733525Y-60627885D01*
X137839814Y-60371282D01*
X137894000Y-60098873D01*
X137894000Y-59821127D01*
X137839814Y-59548718D01*
X137733525Y-59292115D01*
X137579218Y-59061178D01*
X137382822Y-58864782D01*
X137151885Y-58710475D01*
X136895282Y-58604186D01*
X136622873Y-58550000D01*
X136345127Y-58550000D01*
X136072718Y-58604186D01*
X135908055Y-58672392D01*
X136494193Y-58086254D01*
X136522238Y-58063238D01*
X136614087Y-57951320D01*
X136682337Y-57823633D01*
X136724365Y-57685085D01*
X136735000Y-57577105D01*
X136738556Y-57541000D01*
X136735000Y-57504895D01*
X136735000Y-39286094D01*
X136738555Y-39249999D01*
X136735000Y-39213904D01*
X136735000Y-39213895D01*
X136724365Y-39105915D01*
X136682337Y-38967367D01*
X136614087Y-38839680D01*
X136597514Y-38819487D01*
X136545253Y-38755806D01*
X136545250Y-38755803D01*
X136522237Y-38727762D01*
X136494198Y-38704751D01*
X128045259Y-30255813D01*
X128022238Y-30227762D01*
X127910320Y-30135913D01*
X127782633Y-30067663D01*
X127644085Y-30025635D01*
X127536105Y-30015000D01*
X127500000Y-30011444D01*
X127463895Y-30015000D01*
X118486104Y-30015000D01*
X118449999Y-30011444D01*
X118305914Y-30025635D01*
X118263886Y-30038384D01*
X118167367Y-30067663D01*
X118039680Y-30135913D01*
X117927762Y-30227762D01*
X117904746Y-30255807D01*
X117280854Y-30879699D01*
X117106411Y-30845000D01*
X116833589Y-30845000D01*
X116566011Y-30898225D01*
X116313957Y-31002629D01*
X116087114Y-31154201D01*
X115894201Y-31347114D01*
X115742629Y-31573957D01*
X115700000Y-31676873D01*
X115657371Y-31573957D01*
X115505799Y-31347114D01*
X115312886Y-31154201D01*
X115086043Y-31002629D01*
X114833989Y-30898225D01*
X114566411Y-30845000D01*
X114293589Y-30845000D01*
X114026011Y-30898225D01*
X113773957Y-31002629D01*
X113547114Y-31154201D01*
X113354201Y-31347114D01*
X113202629Y-31573957D01*
X113098225Y-31826011D01*
X113045000Y-32093589D01*
X113045000Y-32366411D01*
X113098225Y-32633989D01*
X113202629Y-32886043D01*
X113354201Y-33112886D01*
X113547114Y-33305799D01*
X113773957Y-33457371D01*
X114026011Y-33561775D01*
X114293589Y-33615000D01*
X114566411Y-33615000D01*
X114833989Y-33561775D01*
X115086043Y-33457371D01*
X115312886Y-33305799D01*
X115505799Y-33112886D01*
X115657371Y-32886043D01*
X115700000Y-32783127D01*
X115742629Y-32886043D01*
X115894201Y-33112886D01*
X116087114Y-33305799D01*
X116313957Y-33457371D01*
X116566011Y-33561775D01*
X116833589Y-33615000D01*
X117106411Y-33615000D01*
X117373989Y-33561775D01*
X117626043Y-33457371D01*
X117852886Y-33305799D01*
X118045799Y-33112886D01*
X118197371Y-32886043D01*
X118240000Y-32783127D01*
X118282629Y-32886043D01*
X118434201Y-33112886D01*
X118627114Y-33305799D01*
X118853957Y-33457371D01*
X119106011Y-33561775D01*
X119373589Y-33615000D01*
X119625554Y-33615000D01*
X117755812Y-35484742D01*
X117755806Y-35484747D01*
X112255808Y-40984746D01*
X112227762Y-41007763D01*
X112135913Y-41119681D01*
X112067663Y-41247368D01*
X112038384Y-41343887D01*
X112025635Y-41385915D01*
X112011444Y-41530000D01*
X112015000Y-41566105D01*
X112015001Y-44521288D01*
X111946063Y-44590226D01*
X111832795Y-44759744D01*
X111754774Y-44948102D01*
X111715000Y-45148061D01*
X101460000Y-45148061D01*
X101460000Y-28284721D01*
X101487907Y-28000101D01*
X101560484Y-27759715D01*
X101678368Y-27538009D01*
X101837068Y-27343423D01*
X102030545Y-27183365D01*
X102251424Y-27063936D01*
X102491297Y-26989683D01*
X102773716Y-26960000D01*
X138715279Y-26960000D01*
X138999899Y-26987907D01*
G37*
%TD.AperFunction*%
%TD*%
M02*
