M48
; DRILL file {KiCad (5.1.10)-1} date 07/01/21 23:18:50
; FORMAT={-:-/ absolute / metric / decimal}
; #@! TF.CreationDate,2021-07-01T23:18:50+02:00
; #@! TF.GenerationSoftware,Kicad,Pcbnew,(5.1.10)-1
FMAT,2
METRIC
T1C0.400
T2C0.800
T3C1.000
T4C1.150
T5C1.250
T6C1.300
T7C2.500
%
G90
G05
T1
X112.645Y-78.628
X128.668Y-56.221
X129.208Y-57.502
X130.516Y-62.262
X132.621Y-58.24
X135.211Y-71.0
X135.461Y-62.784
X135.471Y-58.252
X136.9Y-63.638
T2
X109.0Y-61.5
X109.0Y-69.1
T3
X114.68Y-31.98
X114.68Y-42.14
X117.22Y-31.98
X117.22Y-42.14
X119.76Y-31.98
X119.76Y-42.14
X122.3Y-31.98
X122.3Y-42.14
X124.84Y-31.98
X124.84Y-42.14
X127.38Y-31.98
X127.38Y-42.14
T4
X114.68Y-37.314
X117.22Y-37.314
X119.76Y-37.314
X122.3Y-37.314
X124.84Y-37.314
X127.38Y-37.314
T5
X111.796Y-75.498
X111.796Y-87.998
X116.296Y-75.498
X116.296Y-87.998
X127.036Y-75.498
X127.036Y-87.998
X131.536Y-75.498
X131.536Y-87.998
T6
X121.0Y-51.5
X121.0Y-71.5
T7
X104.0Y-29.0
X104.0Y-88.0
X138.0Y-29.0
X138.0Y-88.0
T0
M30
