%TF.GenerationSoftware,KiCad,Pcbnew,(5.1.10)-1*%
%TF.CreationDate,2021-07-01T23:18:39+02:00*%
%TF.ProjectId,BytesCounter,42797465-7343-46f7-956e-7465722e6b69,rev?*%
%TF.SameCoordinates,Original*%
%TF.FileFunction,Soldermask,Bot*%
%TF.FilePolarity,Negative*%
%FSLAX46Y46*%
G04 Gerber Fmt 4.6, Leading zero omitted, Abs format (unit mm)*
G04 Created by KiCad (PCBNEW (5.1.10)-1) date 2021-07-01 23:18:39*
%MOMM*%
%LPD*%
G01*
G04 APERTURE LIST*
%ADD10C,1.850000*%
%ADD11C,1.950000*%
%ADD12C,1.500000*%
%ADD13R,1.500000X1.500000*%
%ADD14R,1.000000X1.400000*%
%ADD15C,1.300000*%
%ADD16C,1.725000*%
%ADD17R,1.725000X1.725000*%
%ADD18R,1.050000X1.470000*%
G04 APERTURE END LIST*
D10*
%TO.C,S1*%
X111796000Y-87998000D03*
X111796000Y-75498000D03*
X116296000Y-87998000D03*
X116296000Y-75498000D03*
%TD*%
%TO.C,S2*%
X127036000Y-87998000D03*
X127036000Y-75498000D03*
X131536000Y-87998000D03*
X131536000Y-75498000D03*
%TD*%
D11*
%TO.C,U2*%
X121000000Y-51500000D03*
X121000000Y-71500000D03*
%TD*%
D12*
%TO.C,U1*%
X114680000Y-31980000D03*
X117220000Y-31980000D03*
X119760000Y-31980000D03*
X122300000Y-31980000D03*
X124840000Y-31980000D03*
X127380000Y-31980000D03*
X127380000Y-42140000D03*
X124840000Y-42140000D03*
X122300000Y-42140000D03*
X119760000Y-42140000D03*
X117220000Y-42140000D03*
D13*
X114680000Y-42140000D03*
%TD*%
D14*
%TO.C,R16*%
X132268000Y-80732000D03*
X130368000Y-80732000D03*
%TD*%
%TO.C,R15*%
X126558000Y-80732000D03*
X128458000Y-80732000D03*
%TD*%
%TO.C,R12*%
X111318000Y-80732000D03*
X113218000Y-80732000D03*
%TD*%
%TO.C,R11*%
X117028000Y-80732000D03*
X115128000Y-80732000D03*
%TD*%
D15*
%TO.C,LS1*%
X109000000Y-69100000D03*
X109000000Y-61500000D03*
%TD*%
D16*
%TO.C,J1*%
X127380000Y-37314000D03*
X124840000Y-37314000D03*
X122300000Y-37314000D03*
X119760000Y-37314000D03*
X117220000Y-37314000D03*
D17*
X114680000Y-37314000D03*
%TD*%
D18*
%TO.C,C3*%
X130204000Y-83018000D03*
X128524000Y-83018000D03*
%TD*%
%TO.C,C2*%
X115062000Y-83018000D03*
X113382000Y-83018000D03*
%TD*%
M02*
