%TF.GenerationSoftware,KiCad,Pcbnew,(5.1.10)-1*%
%TF.CreationDate,2021-07-01T23:18:39+02:00*%
%TF.ProjectId,BytesCounter,42797465-7343-46f7-956e-7465722e6b69,rev?*%
%TF.SameCoordinates,Original*%
%TF.FileFunction,Legend,Bot*%
%TF.FilePolarity,Positive*%
%FSLAX46Y46*%
G04 Gerber Fmt 4.6, Leading zero omitted, Abs format (unit mm)*
G04 Created by KiCad (PCBNEW (5.1.10)-1) date 2021-07-01 23:18:39*
%MOMM*%
%LPD*%
G01*
G04 APERTURE LIST*
%ADD10C,0.200000*%
%ADD11C,0.300000*%
%ADD12C,0.275000*%
%ADD13C,0.010000*%
%ADD14C,0.100000*%
%ADD15C,0.254000*%
%ADD16C,1.850000*%
%ADD17C,1.950000*%
%ADD18C,1.500000*%
%ADD19R,1.500000X1.500000*%
%ADD20R,1.000000X1.400000*%
%ADD21C,1.300000*%
%ADD22C,1.725000*%
%ADD23R,1.725000X1.725000*%
%ADD24R,1.050000X1.470000*%
G04 APERTURE END LIST*
D10*
X102578571Y-65861904D02*
X102526190Y-65704761D01*
X102473809Y-65652380D01*
X102369047Y-65600000D01*
X102211904Y-65600000D01*
X102107142Y-65652380D01*
X102054761Y-65704761D01*
X102002380Y-65809523D01*
X102002380Y-66228571D01*
X103102380Y-66228571D01*
X103102380Y-65861904D01*
X103050000Y-65757142D01*
X102997619Y-65704761D01*
X102892857Y-65652380D01*
X102788095Y-65652380D01*
X102683333Y-65704761D01*
X102630952Y-65757142D01*
X102578571Y-65861904D01*
X102578571Y-66228571D01*
X102735714Y-65233333D02*
X102002380Y-64971428D01*
X102735714Y-64709523D02*
X102002380Y-64971428D01*
X101740476Y-65076190D01*
X101688095Y-65128571D01*
X101635714Y-65233333D01*
X102735714Y-64447619D02*
X102735714Y-64028571D01*
X103102380Y-64290476D02*
X102159523Y-64290476D01*
X102054761Y-64238095D01*
X102002380Y-64133333D01*
X102002380Y-64028571D01*
X102054761Y-63242857D02*
X102002380Y-63347619D01*
X102002380Y-63557142D01*
X102054761Y-63661904D01*
X102159523Y-63714285D01*
X102578571Y-63714285D01*
X102683333Y-63661904D01*
X102735714Y-63557142D01*
X102735714Y-63347619D01*
X102683333Y-63242857D01*
X102578571Y-63190476D01*
X102473809Y-63190476D01*
X102369047Y-63714285D01*
X102054761Y-62771428D02*
X102002380Y-62666666D01*
X102002380Y-62457142D01*
X102054761Y-62352380D01*
X102159523Y-62300000D01*
X102211904Y-62300000D01*
X102316666Y-62352380D01*
X102369047Y-62457142D01*
X102369047Y-62614285D01*
X102421428Y-62719047D01*
X102526190Y-62771428D01*
X102578571Y-62771428D01*
X102683333Y-62719047D01*
X102735714Y-62614285D01*
X102735714Y-62457142D01*
X102683333Y-62352380D01*
X102107142Y-60361904D02*
X102054761Y-60414285D01*
X102002380Y-60571428D01*
X102002380Y-60676190D01*
X102054761Y-60833333D01*
X102159523Y-60938095D01*
X102264285Y-60990476D01*
X102473809Y-61042857D01*
X102630952Y-61042857D01*
X102840476Y-60990476D01*
X102945238Y-60938095D01*
X103050000Y-60833333D01*
X103102380Y-60676190D01*
X103102380Y-60571428D01*
X103050000Y-60414285D01*
X102997619Y-60361904D01*
X102002380Y-59733333D02*
X102054761Y-59838095D01*
X102107142Y-59890476D01*
X102211904Y-59942857D01*
X102526190Y-59942857D01*
X102630952Y-59890476D01*
X102683333Y-59838095D01*
X102735714Y-59733333D01*
X102735714Y-59576190D01*
X102683333Y-59471428D01*
X102630952Y-59419047D01*
X102526190Y-59366666D01*
X102211904Y-59366666D01*
X102107142Y-59419047D01*
X102054761Y-59471428D01*
X102002380Y-59576190D01*
X102002380Y-59733333D01*
X102735714Y-58423809D02*
X102002380Y-58423809D01*
X102735714Y-58895238D02*
X102159523Y-58895238D01*
X102054761Y-58842857D01*
X102002380Y-58738095D01*
X102002380Y-58580952D01*
X102054761Y-58476190D01*
X102107142Y-58423809D01*
X102735714Y-57900000D02*
X102002380Y-57900000D01*
X102630952Y-57900000D02*
X102683333Y-57847619D01*
X102735714Y-57742857D01*
X102735714Y-57585714D01*
X102683333Y-57480952D01*
X102578571Y-57428571D01*
X102002380Y-57428571D01*
X102735714Y-57061904D02*
X102735714Y-56642857D01*
X103102380Y-56904761D02*
X102159523Y-56904761D01*
X102054761Y-56852380D01*
X102002380Y-56747619D01*
X102002380Y-56642857D01*
X102054761Y-55857142D02*
X102002380Y-55961904D01*
X102002380Y-56171428D01*
X102054761Y-56276190D01*
X102159523Y-56328571D01*
X102578571Y-56328571D01*
X102683333Y-56276190D01*
X102735714Y-56171428D01*
X102735714Y-55961904D01*
X102683333Y-55857142D01*
X102578571Y-55804761D01*
X102473809Y-55804761D01*
X102369047Y-56328571D01*
X102002380Y-55333333D02*
X102735714Y-55333333D01*
X102526190Y-55333333D02*
X102630952Y-55280952D01*
X102683333Y-55228571D01*
X102735714Y-55123809D01*
X102735714Y-55019047D01*
X102002380Y-53185714D02*
X102526190Y-53552380D01*
X102002380Y-53814285D02*
X103102380Y-53814285D01*
X103102380Y-53395238D01*
X103050000Y-53290476D01*
X102997619Y-53238095D01*
X102892857Y-53185714D01*
X102735714Y-53185714D01*
X102630952Y-53238095D01*
X102578571Y-53290476D01*
X102526190Y-53395238D01*
X102526190Y-53814285D01*
X102054761Y-52295238D02*
X102002380Y-52399999D01*
X102002380Y-52609523D01*
X102054761Y-52714285D01*
X102159523Y-52766666D01*
X102578571Y-52766666D01*
X102683333Y-52714285D01*
X102735714Y-52609523D01*
X102735714Y-52399999D01*
X102683333Y-52295238D01*
X102578571Y-52242857D01*
X102473809Y-52242857D01*
X102369047Y-52766666D01*
X102735714Y-51876190D02*
X102002380Y-51614285D01*
X102735714Y-51352380D01*
X103102380Y-49885714D02*
X103102380Y-49780952D01*
X103050000Y-49676190D01*
X102997619Y-49623809D01*
X102892857Y-49571428D01*
X102683333Y-49519047D01*
X102421428Y-49519047D01*
X102211904Y-49571428D01*
X102107142Y-49623809D01*
X102054761Y-49676190D01*
X102002380Y-49780952D01*
X102002380Y-49885714D01*
X102054761Y-49990476D01*
X102107142Y-50042857D01*
X102211904Y-50095238D01*
X102421428Y-50147619D01*
X102683333Y-50147619D01*
X102892857Y-50095238D01*
X102997619Y-50042857D01*
X103050000Y-49990476D01*
X103102380Y-49885714D01*
X102107142Y-49047619D02*
X102054761Y-48995238D01*
X102002380Y-49047619D01*
X102054761Y-49099999D01*
X102107142Y-49047619D01*
X102002380Y-49047619D01*
X102002380Y-47947619D02*
X102002380Y-48576190D01*
X102002380Y-48261904D02*
X103102380Y-48261904D01*
X102945238Y-48366666D01*
X102840476Y-48471428D01*
X102788095Y-48576190D01*
X102421428Y-46638095D02*
X102421428Y-45799999D01*
X102997619Y-44490476D02*
X103050000Y-44438095D01*
X103102380Y-44333333D01*
X103102380Y-44071428D01*
X103050000Y-43966666D01*
X102997619Y-43914285D01*
X102892857Y-43861904D01*
X102788095Y-43861904D01*
X102630952Y-43914285D01*
X102002380Y-44542857D01*
X102002380Y-43861904D01*
X103102380Y-43180952D02*
X103102380Y-43076190D01*
X103050000Y-42971428D01*
X102997619Y-42919047D01*
X102892857Y-42866666D01*
X102683333Y-42814285D01*
X102421428Y-42814285D01*
X102211904Y-42866666D01*
X102107142Y-42919047D01*
X102054761Y-42971428D01*
X102002380Y-43076190D01*
X102002380Y-43180952D01*
X102054761Y-43285714D01*
X102107142Y-43338095D01*
X102211904Y-43390476D01*
X102421428Y-43442857D01*
X102683333Y-43442857D01*
X102892857Y-43390476D01*
X102997619Y-43338095D01*
X103050000Y-43285714D01*
X103102380Y-43180952D01*
X102997619Y-42395238D02*
X103050000Y-42342857D01*
X103102380Y-42238095D01*
X103102380Y-41976190D01*
X103050000Y-41871428D01*
X102997619Y-41819047D01*
X102892857Y-41766666D01*
X102788095Y-41766666D01*
X102630952Y-41819047D01*
X102002380Y-42447619D01*
X102002380Y-41766666D01*
X102002380Y-40719047D02*
X102002380Y-41347619D01*
X102002380Y-41033333D02*
X103102380Y-41033333D01*
X102945238Y-41138095D01*
X102840476Y-41242857D01*
X102788095Y-41347619D01*
X104002380Y-66235714D02*
X105102380Y-66235714D01*
X104578571Y-66235714D02*
X104578571Y-65607142D01*
X104002380Y-65607142D02*
X105102380Y-65607142D01*
X104735714Y-65240476D02*
X104735714Y-64821428D01*
X105102380Y-65083333D02*
X104159523Y-65083333D01*
X104054761Y-65030952D01*
X104002380Y-64926190D01*
X104002380Y-64821428D01*
X104735714Y-64611904D02*
X104735714Y-64192857D01*
X105102380Y-64454761D02*
X104159523Y-64454761D01*
X104054761Y-64402380D01*
X104002380Y-64297619D01*
X104002380Y-64192857D01*
X104735714Y-63826190D02*
X103635714Y-63826190D01*
X104683333Y-63826190D02*
X104735714Y-63721428D01*
X104735714Y-63511904D01*
X104683333Y-63407142D01*
X104630952Y-63354761D01*
X104526190Y-63302380D01*
X104211904Y-63302380D01*
X104107142Y-63354761D01*
X104054761Y-63407142D01*
X104002380Y-63511904D01*
X104002380Y-63721428D01*
X104054761Y-63826190D01*
X104054761Y-62883333D02*
X104002380Y-62778571D01*
X104002380Y-62569047D01*
X104054761Y-62464285D01*
X104159523Y-62411904D01*
X104211904Y-62411904D01*
X104316666Y-62464285D01*
X104369047Y-62569047D01*
X104369047Y-62726190D01*
X104421428Y-62830952D01*
X104526190Y-62883333D01*
X104578571Y-62883333D01*
X104683333Y-62830952D01*
X104735714Y-62726190D01*
X104735714Y-62569047D01*
X104683333Y-62464285D01*
X104107142Y-61940476D02*
X104054761Y-61888095D01*
X104002380Y-61940476D01*
X104054761Y-61992857D01*
X104107142Y-61940476D01*
X104002380Y-61940476D01*
X104683333Y-61940476D02*
X104630952Y-61888095D01*
X104578571Y-61940476D01*
X104630952Y-61992857D01*
X104683333Y-61940476D01*
X104578571Y-61940476D01*
X105154761Y-60630952D02*
X103740476Y-61573809D01*
X105154761Y-59478571D02*
X103740476Y-60421428D01*
X104002380Y-59111904D02*
X104735714Y-59111904D01*
X104630952Y-59111904D02*
X104683333Y-59059523D01*
X104735714Y-58954761D01*
X104735714Y-58797619D01*
X104683333Y-58692857D01*
X104578571Y-58640476D01*
X104002380Y-58640476D01*
X104578571Y-58640476D02*
X104683333Y-58588095D01*
X104735714Y-58483333D01*
X104735714Y-58326190D01*
X104683333Y-58221428D01*
X104578571Y-58169047D01*
X104002380Y-58169047D01*
X104002380Y-57173809D02*
X104578571Y-57173809D01*
X104683333Y-57226190D01*
X104735714Y-57330952D01*
X104735714Y-57540476D01*
X104683333Y-57645238D01*
X104054761Y-57173809D02*
X104002380Y-57278571D01*
X104002380Y-57540476D01*
X104054761Y-57645238D01*
X104159523Y-57697619D01*
X104264285Y-57697619D01*
X104369047Y-57645238D01*
X104421428Y-57540476D01*
X104421428Y-57278571D01*
X104473809Y-57173809D01*
X104002380Y-56650000D02*
X105102380Y-56650000D01*
X104421428Y-56545238D02*
X104002380Y-56230952D01*
X104735714Y-56230952D02*
X104316666Y-56650000D01*
X104002380Y-55759523D02*
X104735714Y-55759523D01*
X105102380Y-55759523D02*
X105050000Y-55811904D01*
X104997619Y-55759523D01*
X105050000Y-55707142D01*
X105102380Y-55759523D01*
X104997619Y-55759523D01*
X104735714Y-55235714D02*
X104002380Y-55235714D01*
X104630952Y-55235714D02*
X104683333Y-55183333D01*
X104735714Y-55078571D01*
X104735714Y-54921428D01*
X104683333Y-54816666D01*
X104578571Y-54764285D01*
X104002380Y-54764285D01*
X104735714Y-53769047D02*
X103845238Y-53769047D01*
X103740476Y-53821428D01*
X103688095Y-53873809D01*
X103635714Y-53978571D01*
X103635714Y-54135714D01*
X103688095Y-54240476D01*
X104054761Y-53769047D02*
X104002380Y-53873809D01*
X104002380Y-54083333D01*
X104054761Y-54188095D01*
X104107142Y-54240476D01*
X104211904Y-54292857D01*
X104526190Y-54292857D01*
X104630952Y-54240476D01*
X104683333Y-54188095D01*
X104735714Y-54083333D01*
X104735714Y-53873809D01*
X104683333Y-53769047D01*
X104002380Y-52773809D02*
X105102380Y-52773809D01*
X104054761Y-52773809D02*
X104002380Y-52878571D01*
X104002380Y-53088095D01*
X104054761Y-53192857D01*
X104107142Y-53245238D01*
X104211904Y-53297619D01*
X104526190Y-53297619D01*
X104630952Y-53245238D01*
X104683333Y-53192857D01*
X104735714Y-53088095D01*
X104735714Y-52878571D01*
X104683333Y-52773809D01*
X104054761Y-51830952D02*
X104002380Y-51935714D01*
X104002380Y-52145238D01*
X104054761Y-52250000D01*
X104159523Y-52302380D01*
X104578571Y-52302380D01*
X104683333Y-52250000D01*
X104735714Y-52145238D01*
X104735714Y-51935714D01*
X104683333Y-51830952D01*
X104578571Y-51778571D01*
X104473809Y-51778571D01*
X104369047Y-52302380D01*
X104735714Y-51411904D02*
X104002380Y-51150000D01*
X104735714Y-50888095D01*
X104002380Y-50469047D02*
X104735714Y-50469047D01*
X105102380Y-50469047D02*
X105050000Y-50521428D01*
X104997619Y-50469047D01*
X105050000Y-50416666D01*
X105102380Y-50469047D01*
X104997619Y-50469047D01*
X104054761Y-49473809D02*
X104002380Y-49578571D01*
X104002380Y-49788095D01*
X104054761Y-49892857D01*
X104107142Y-49945238D01*
X104211904Y-49997619D01*
X104526190Y-49997619D01*
X104630952Y-49945238D01*
X104683333Y-49892857D01*
X104735714Y-49788095D01*
X104735714Y-49578571D01*
X104683333Y-49473809D01*
X104054761Y-48583333D02*
X104002380Y-48688095D01*
X104002380Y-48897619D01*
X104054761Y-49002380D01*
X104159523Y-49054761D01*
X104578571Y-49054761D01*
X104683333Y-49002380D01*
X104735714Y-48897619D01*
X104735714Y-48688095D01*
X104683333Y-48583333D01*
X104578571Y-48530952D01*
X104473809Y-48530952D01*
X104369047Y-49054761D01*
X104054761Y-48111904D02*
X104002380Y-48007142D01*
X104002380Y-47797619D01*
X104054761Y-47692857D01*
X104159523Y-47640476D01*
X104211904Y-47640476D01*
X104316666Y-47692857D01*
X104369047Y-47797619D01*
X104369047Y-47954761D01*
X104421428Y-48059523D01*
X104526190Y-48111904D01*
X104578571Y-48111904D01*
X104683333Y-48059523D01*
X104735714Y-47954761D01*
X104735714Y-47797619D01*
X104683333Y-47692857D01*
X104107142Y-47169047D02*
X104054761Y-47116666D01*
X104002380Y-47169047D01*
X104054761Y-47221428D01*
X104107142Y-47169047D01*
X104002380Y-47169047D01*
X104054761Y-46173809D02*
X104002380Y-46278571D01*
X104002380Y-46488095D01*
X104054761Y-46592857D01*
X104107142Y-46645238D01*
X104211904Y-46697619D01*
X104526190Y-46697619D01*
X104630952Y-46645238D01*
X104683333Y-46592857D01*
X104735714Y-46488095D01*
X104735714Y-46278571D01*
X104683333Y-46173809D01*
X104002380Y-45545238D02*
X104054761Y-45650000D01*
X104107142Y-45702380D01*
X104211904Y-45754761D01*
X104526190Y-45754761D01*
X104630952Y-45702380D01*
X104683333Y-45650000D01*
X104735714Y-45545238D01*
X104735714Y-45388095D01*
X104683333Y-45283333D01*
X104630952Y-45230952D01*
X104526190Y-45178571D01*
X104211904Y-45178571D01*
X104107142Y-45230952D01*
X104054761Y-45283333D01*
X104002380Y-45388095D01*
X104002380Y-45545238D01*
X104002380Y-44707142D02*
X104735714Y-44707142D01*
X104630952Y-44707142D02*
X104683333Y-44654761D01*
X104735714Y-44550000D01*
X104735714Y-44392857D01*
X104683333Y-44288095D01*
X104578571Y-44235714D01*
X104002380Y-44235714D01*
X104578571Y-44235714D02*
X104683333Y-44183333D01*
X104735714Y-44078571D01*
X104735714Y-43921428D01*
X104683333Y-43816666D01*
X104578571Y-43764285D01*
X104002380Y-43764285D01*
D11*
X123214285Y-35678571D02*
X123214285Y-34178571D01*
X121642857Y-35535714D02*
X121714285Y-35607142D01*
X121928571Y-35678571D01*
X122071428Y-35678571D01*
X122285714Y-35607142D01*
X122428571Y-35464285D01*
X122500000Y-35321428D01*
X122571428Y-35035714D01*
X122571428Y-34821428D01*
X122500000Y-34535714D01*
X122428571Y-34392857D01*
X122285714Y-34250000D01*
X122071428Y-34178571D01*
X121928571Y-34178571D01*
X121714285Y-34250000D01*
X121642857Y-34321428D01*
X121071428Y-35607142D02*
X120857142Y-35678571D01*
X120500000Y-35678571D01*
X120357142Y-35607142D01*
X120285714Y-35535714D01*
X120214285Y-35392857D01*
X120214285Y-35250000D01*
X120285714Y-35107142D01*
X120357142Y-35035714D01*
X120500000Y-34964285D01*
X120785714Y-34892857D01*
X120928571Y-34821428D01*
X121000000Y-34750000D01*
X121071428Y-34607142D01*
X121071428Y-34464285D01*
X121000000Y-34321428D01*
X120928571Y-34250000D01*
X120785714Y-34178571D01*
X120428571Y-34178571D01*
X120214285Y-34250000D01*
X119571428Y-35678571D02*
X119571428Y-34178571D01*
X119000000Y-34178571D01*
X118857142Y-34250000D01*
X118785714Y-34321428D01*
X118714285Y-34464285D01*
X118714285Y-34678571D01*
X118785714Y-34821428D01*
X118857142Y-34892857D01*
X119000000Y-34964285D01*
X119571428Y-34964285D01*
D12*
X123778571Y-57421428D02*
X123621428Y-57473809D01*
X123569047Y-57526190D01*
X123516666Y-57630952D01*
X123516666Y-57788095D01*
X123569047Y-57892857D01*
X123621428Y-57945238D01*
X123726190Y-57997619D01*
X124145238Y-57997619D01*
X124145238Y-56897619D01*
X123778571Y-56897619D01*
X123673809Y-56950000D01*
X123621428Y-57002380D01*
X123569047Y-57107142D01*
X123569047Y-57211904D01*
X123621428Y-57316666D01*
X123673809Y-57369047D01*
X123778571Y-57421428D01*
X124145238Y-57421428D01*
X122573809Y-57997619D02*
X122573809Y-57421428D01*
X122626190Y-57316666D01*
X122730952Y-57264285D01*
X122940476Y-57264285D01*
X123045238Y-57316666D01*
X122573809Y-57945238D02*
X122678571Y-57997619D01*
X122940476Y-57997619D01*
X123045238Y-57945238D01*
X123097619Y-57840476D01*
X123097619Y-57735714D01*
X123045238Y-57630952D01*
X122940476Y-57578571D01*
X122678571Y-57578571D01*
X122573809Y-57526190D01*
X122207142Y-57264285D02*
X121788095Y-57264285D01*
X122050000Y-56897619D02*
X122050000Y-57840476D01*
X121997619Y-57945238D01*
X121892857Y-57997619D01*
X121788095Y-57997619D01*
X121578571Y-57264285D02*
X121159523Y-57264285D01*
X121421428Y-56897619D02*
X121421428Y-57840476D01*
X121369047Y-57945238D01*
X121264285Y-57997619D01*
X121159523Y-57997619D01*
X120373809Y-57945238D02*
X120478571Y-57997619D01*
X120688095Y-57997619D01*
X120792857Y-57945238D01*
X120845238Y-57840476D01*
X120845238Y-57421428D01*
X120792857Y-57316666D01*
X120688095Y-57264285D01*
X120478571Y-57264285D01*
X120373809Y-57316666D01*
X120321428Y-57421428D01*
X120321428Y-57526190D01*
X120845238Y-57630952D01*
X119850000Y-57997619D02*
X119850000Y-57264285D01*
X119850000Y-57473809D02*
X119797619Y-57369047D01*
X119745238Y-57316666D01*
X119640476Y-57264285D01*
X119535714Y-57264285D01*
X119273809Y-57264285D02*
X119011904Y-57997619D01*
X118750000Y-57264285D02*
X119011904Y-57997619D01*
X119116666Y-58259523D01*
X119169047Y-58311904D01*
X119273809Y-58364285D01*
D11*
D13*
%TO.C,REF\u002A\u002A*%
G36*
X107209982Y-69623036D02*
G01*
X106908430Y-69566188D01*
X106735488Y-69146662D01*
X106906605Y-68895016D01*
X106954250Y-68824542D01*
X106996790Y-68760837D01*
X107032285Y-68706874D01*
X107058790Y-68665627D01*
X107074364Y-68640066D01*
X107077722Y-68633105D01*
X107069086Y-68620565D01*
X107045208Y-68593769D01*
X107009141Y-68555720D01*
X106963933Y-68509421D01*
X106912636Y-68457877D01*
X106858299Y-68404091D01*
X106803972Y-68351065D01*
X106752705Y-68301805D01*
X106707549Y-68259313D01*
X106671554Y-68226593D01*
X106647770Y-68206649D01*
X106639810Y-68201881D01*
X106625135Y-68208743D01*
X106592986Y-68227980D01*
X106546508Y-68257570D01*
X106488844Y-68295490D01*
X106423140Y-68339718D01*
X106385664Y-68365346D01*
X106317232Y-68412059D01*
X106255480Y-68453568D01*
X106203481Y-68487860D01*
X106164308Y-68512920D01*
X106141035Y-68526736D01*
X106136145Y-68528812D01*
X106122245Y-68524105D01*
X106089850Y-68511277D01*
X106043515Y-68492262D01*
X105987794Y-68468997D01*
X105927242Y-68443416D01*
X105866414Y-68417455D01*
X105809864Y-68393050D01*
X105762148Y-68372137D01*
X105727819Y-68356651D01*
X105711432Y-68348528D01*
X105710788Y-68348048D01*
X105707659Y-68335293D01*
X105700679Y-68301323D01*
X105690533Y-68249660D01*
X105677908Y-68183824D01*
X105663491Y-68107336D01*
X105655177Y-68062710D01*
X105639616Y-67980979D01*
X105624808Y-67907157D01*
X105611564Y-67844979D01*
X105600695Y-67798178D01*
X105593011Y-67770491D01*
X105590573Y-67764926D01*
X105574070Y-67759474D01*
X105536800Y-67755076D01*
X105483120Y-67751728D01*
X105417388Y-67749426D01*
X105343963Y-67748168D01*
X105267204Y-67747952D01*
X105191468Y-67748773D01*
X105121114Y-67750629D01*
X105060500Y-67753518D01*
X105013984Y-67757435D01*
X104985925Y-67762378D01*
X104980084Y-67765343D01*
X104973083Y-67783066D01*
X104963073Y-67820619D01*
X104951231Y-67873036D01*
X104938733Y-67935348D01*
X104934690Y-67957100D01*
X104915480Y-68061976D01*
X104900009Y-68144820D01*
X104887663Y-68208370D01*
X104877827Y-68255363D01*
X104869886Y-68288537D01*
X104863224Y-68310629D01*
X104857227Y-68324376D01*
X104851281Y-68332516D01*
X104850106Y-68333655D01*
X104831174Y-68345023D01*
X104794331Y-68362365D01*
X104744087Y-68383950D01*
X104684954Y-68408046D01*
X104621444Y-68432921D01*
X104558068Y-68456843D01*
X104499338Y-68478081D01*
X104449765Y-68494903D01*
X104413861Y-68505578D01*
X104396138Y-68508373D01*
X104395517Y-68508140D01*
X104381030Y-68498669D01*
X104349156Y-68477182D01*
X104303211Y-68445937D01*
X104246515Y-68407193D01*
X104182383Y-68363207D01*
X104164158Y-68350681D01*
X104098086Y-68306016D01*
X104037800Y-68266712D01*
X103986765Y-68234912D01*
X103948440Y-68212755D01*
X103926289Y-68202383D01*
X103923568Y-68201881D01*
X103909264Y-68210595D01*
X103880928Y-68234675D01*
X103841604Y-68271024D01*
X103794339Y-68316547D01*
X103742177Y-68368148D01*
X103688165Y-68422733D01*
X103635347Y-68477206D01*
X103586769Y-68528471D01*
X103545477Y-68573433D01*
X103514515Y-68608996D01*
X103496930Y-68632065D01*
X103494059Y-68638446D01*
X103500822Y-68653301D01*
X103519061Y-68683714D01*
X103545703Y-68724732D01*
X103567148Y-68756291D01*
X103606497Y-68813475D01*
X103652829Y-68881194D01*
X103699087Y-68949120D01*
X103723845Y-68985639D01*
X103807453Y-69109248D01*
X103751350Y-69213009D01*
X103726772Y-69260280D01*
X103707669Y-69300477D01*
X103696773Y-69327674D01*
X103695257Y-69334598D01*
X103706451Y-69342923D01*
X103738083Y-69359346D01*
X103787235Y-69382643D01*
X103850990Y-69411586D01*
X103926429Y-69444950D01*
X104010636Y-69481509D01*
X104100692Y-69520036D01*
X104193679Y-69559306D01*
X104286680Y-69598092D01*
X104376777Y-69635170D01*
X104461052Y-69669311D01*
X104536587Y-69699292D01*
X104600466Y-69723884D01*
X104649769Y-69741864D01*
X104681579Y-69752003D01*
X104692504Y-69753634D01*
X104706439Y-69740709D01*
X104729060Y-69712411D01*
X104755667Y-69674654D01*
X104757772Y-69671485D01*
X104835886Y-69573900D01*
X104927018Y-69495214D01*
X105028255Y-69436109D01*
X105136682Y-69397268D01*
X105249386Y-69379372D01*
X105363452Y-69383103D01*
X105475966Y-69409143D01*
X105584015Y-69458175D01*
X105607655Y-69472600D01*
X105703113Y-69547631D01*
X105779768Y-69636270D01*
X105837220Y-69735451D01*
X105875071Y-69842105D01*
X105892922Y-69953164D01*
X105890375Y-70065561D01*
X105867030Y-70176227D01*
X105822490Y-70282094D01*
X105756355Y-70380095D01*
X105729513Y-70410410D01*
X105645488Y-70487562D01*
X105557034Y-70543782D01*
X105457885Y-70582347D01*
X105359697Y-70603826D01*
X105249303Y-70609128D01*
X105138360Y-70591448D01*
X105030619Y-70552581D01*
X104929831Y-70494323D01*
X104839744Y-70418469D01*
X104764108Y-70326817D01*
X104756136Y-70314772D01*
X104730026Y-70276611D01*
X104707405Y-70247601D01*
X104692961Y-70233732D01*
X104692504Y-70233531D01*
X104676879Y-70236508D01*
X104641418Y-70248311D01*
X104589038Y-70267714D01*
X104522655Y-70293488D01*
X104445186Y-70324409D01*
X104359550Y-70359249D01*
X104268663Y-70396783D01*
X104175441Y-70435783D01*
X104082803Y-70475023D01*
X103993665Y-70513276D01*
X103910945Y-70549317D01*
X103837559Y-70581917D01*
X103776425Y-70609852D01*
X103730459Y-70631895D01*
X103702579Y-70646818D01*
X103695257Y-70652828D01*
X103700959Y-70671191D01*
X103716251Y-70705552D01*
X103738401Y-70749984D01*
X103751350Y-70774417D01*
X103807453Y-70878178D01*
X103723845Y-71001787D01*
X103681013Y-71064886D01*
X103633878Y-71133970D01*
X103589497Y-71198707D01*
X103567148Y-71231134D01*
X103536523Y-71276741D01*
X103512253Y-71315360D01*
X103497413Y-71341952D01*
X103494276Y-71350590D01*
X103502739Y-71363161D01*
X103526364Y-71390984D01*
X103562698Y-71431361D01*
X103609289Y-71481595D01*
X103663683Y-71538988D01*
X103698608Y-71575286D01*
X103761004Y-71638790D01*
X103816812Y-71693673D01*
X103863646Y-71737714D01*
X103899118Y-71768695D01*
X103920839Y-71784398D01*
X103925248Y-71785905D01*
X103942015Y-71778914D01*
X103975918Y-71759594D01*
X104023524Y-71730091D01*
X104081401Y-71692545D01*
X104146116Y-71649100D01*
X104164158Y-71636745D01*
X104229733Y-71591727D01*
X104288772Y-71551340D01*
X104337958Y-71517840D01*
X104373972Y-71493486D01*
X104393498Y-71480536D01*
X104395517Y-71479285D01*
X104411078Y-71481156D01*
X104445291Y-71491087D01*
X104493645Y-71507347D01*
X104551629Y-71528205D01*
X104614730Y-71551927D01*
X104678437Y-71576784D01*
X104738239Y-71601042D01*
X104789624Y-71622971D01*
X104828081Y-71640838D01*
X104849098Y-71652913D01*
X104850106Y-71653771D01*
X104856112Y-71661154D01*
X104862052Y-71673625D01*
X104868540Y-71693920D01*
X104876191Y-71724778D01*
X104885620Y-71768934D01*
X104897441Y-71829126D01*
X104912271Y-71908093D01*
X104930723Y-72008570D01*
X104934690Y-72030325D01*
X104947147Y-72094802D01*
X104959334Y-72151011D01*
X104970074Y-72193987D01*
X104978191Y-72218760D01*
X104980084Y-72222082D01*
X104996862Y-72227556D01*
X105034355Y-72232006D01*
X105088206Y-72235428D01*
X105154056Y-72237819D01*
X105227547Y-72239177D01*
X105304320Y-72239499D01*
X105380017Y-72238781D01*
X105450280Y-72237021D01*
X105510750Y-72234216D01*
X105557070Y-72230362D01*
X105584881Y-72225457D01*
X105590573Y-72222500D01*
X105596314Y-72206037D01*
X105605655Y-72168551D01*
X105617785Y-72113775D01*
X105631893Y-72045445D01*
X105647170Y-71967294D01*
X105655177Y-71924716D01*
X105670279Y-71843929D01*
X105683960Y-71771887D01*
X105695533Y-71712111D01*
X105704313Y-71668121D01*
X105709613Y-71643439D01*
X105710788Y-71639377D01*
X105724035Y-71632511D01*
X105755943Y-71617998D01*
X105801953Y-71597771D01*
X105857508Y-71573766D01*
X105918047Y-71547918D01*
X105979014Y-71522160D01*
X106035849Y-71498427D01*
X106083994Y-71478654D01*
X106118890Y-71464776D01*
X106135979Y-71458726D01*
X106136726Y-71458614D01*
X106150207Y-71465472D01*
X106181230Y-71484698D01*
X106226711Y-71514272D01*
X106283568Y-71552173D01*
X106348717Y-71596380D01*
X106386138Y-71622079D01*
X106454753Y-71668907D01*
X106517048Y-71710499D01*
X106569871Y-71744825D01*
X106610073Y-71769857D01*
X106634500Y-71783565D01*
X106639976Y-71785544D01*
X106652722Y-71777034D01*
X106679937Y-71753507D01*
X106718572Y-71717968D01*
X106765577Y-71673423D01*
X106817905Y-71622877D01*
X106872505Y-71569336D01*
X106926330Y-71515805D01*
X106976330Y-71465289D01*
X107019457Y-71420794D01*
X107052661Y-71385325D01*
X107072894Y-71361887D01*
X107077722Y-71354046D01*
X107070933Y-71341280D01*
X107051858Y-71310744D01*
X107022439Y-71265410D01*
X106984619Y-71208244D01*
X106940339Y-71142216D01*
X106906605Y-71092410D01*
X106735488Y-70840764D01*
X106821959Y-70631001D01*
X106908430Y-70421237D01*
X107209982Y-70364389D01*
X107511534Y-70307540D01*
X107511534Y-69679885D01*
X107209982Y-69623036D01*
G37*
X107209982Y-69623036D02*
X106908430Y-69566188D01*
X106735488Y-69146662D01*
X106906605Y-68895016D01*
X106954250Y-68824542D01*
X106996790Y-68760837D01*
X107032285Y-68706874D01*
X107058790Y-68665627D01*
X107074364Y-68640066D01*
X107077722Y-68633105D01*
X107069086Y-68620565D01*
X107045208Y-68593769D01*
X107009141Y-68555720D01*
X106963933Y-68509421D01*
X106912636Y-68457877D01*
X106858299Y-68404091D01*
X106803972Y-68351065D01*
X106752705Y-68301805D01*
X106707549Y-68259313D01*
X106671554Y-68226593D01*
X106647770Y-68206649D01*
X106639810Y-68201881D01*
X106625135Y-68208743D01*
X106592986Y-68227980D01*
X106546508Y-68257570D01*
X106488844Y-68295490D01*
X106423140Y-68339718D01*
X106385664Y-68365346D01*
X106317232Y-68412059D01*
X106255480Y-68453568D01*
X106203481Y-68487860D01*
X106164308Y-68512920D01*
X106141035Y-68526736D01*
X106136145Y-68528812D01*
X106122245Y-68524105D01*
X106089850Y-68511277D01*
X106043515Y-68492262D01*
X105987794Y-68468997D01*
X105927242Y-68443416D01*
X105866414Y-68417455D01*
X105809864Y-68393050D01*
X105762148Y-68372137D01*
X105727819Y-68356651D01*
X105711432Y-68348528D01*
X105710788Y-68348048D01*
X105707659Y-68335293D01*
X105700679Y-68301323D01*
X105690533Y-68249660D01*
X105677908Y-68183824D01*
X105663491Y-68107336D01*
X105655177Y-68062710D01*
X105639616Y-67980979D01*
X105624808Y-67907157D01*
X105611564Y-67844979D01*
X105600695Y-67798178D01*
X105593011Y-67770491D01*
X105590573Y-67764926D01*
X105574070Y-67759474D01*
X105536800Y-67755076D01*
X105483120Y-67751728D01*
X105417388Y-67749426D01*
X105343963Y-67748168D01*
X105267204Y-67747952D01*
X105191468Y-67748773D01*
X105121114Y-67750629D01*
X105060500Y-67753518D01*
X105013984Y-67757435D01*
X104985925Y-67762378D01*
X104980084Y-67765343D01*
X104973083Y-67783066D01*
X104963073Y-67820619D01*
X104951231Y-67873036D01*
X104938733Y-67935348D01*
X104934690Y-67957100D01*
X104915480Y-68061976D01*
X104900009Y-68144820D01*
X104887663Y-68208370D01*
X104877827Y-68255363D01*
X104869886Y-68288537D01*
X104863224Y-68310629D01*
X104857227Y-68324376D01*
X104851281Y-68332516D01*
X104850106Y-68333655D01*
X104831174Y-68345023D01*
X104794331Y-68362365D01*
X104744087Y-68383950D01*
X104684954Y-68408046D01*
X104621444Y-68432921D01*
X104558068Y-68456843D01*
X104499338Y-68478081D01*
X104449765Y-68494903D01*
X104413861Y-68505578D01*
X104396138Y-68508373D01*
X104395517Y-68508140D01*
X104381030Y-68498669D01*
X104349156Y-68477182D01*
X104303211Y-68445937D01*
X104246515Y-68407193D01*
X104182383Y-68363207D01*
X104164158Y-68350681D01*
X104098086Y-68306016D01*
X104037800Y-68266712D01*
X103986765Y-68234912D01*
X103948440Y-68212755D01*
X103926289Y-68202383D01*
X103923568Y-68201881D01*
X103909264Y-68210595D01*
X103880928Y-68234675D01*
X103841604Y-68271024D01*
X103794339Y-68316547D01*
X103742177Y-68368148D01*
X103688165Y-68422733D01*
X103635347Y-68477206D01*
X103586769Y-68528471D01*
X103545477Y-68573433D01*
X103514515Y-68608996D01*
X103496930Y-68632065D01*
X103494059Y-68638446D01*
X103500822Y-68653301D01*
X103519061Y-68683714D01*
X103545703Y-68724732D01*
X103567148Y-68756291D01*
X103606497Y-68813475D01*
X103652829Y-68881194D01*
X103699087Y-68949120D01*
X103723845Y-68985639D01*
X103807453Y-69109248D01*
X103751350Y-69213009D01*
X103726772Y-69260280D01*
X103707669Y-69300477D01*
X103696773Y-69327674D01*
X103695257Y-69334598D01*
X103706451Y-69342923D01*
X103738083Y-69359346D01*
X103787235Y-69382643D01*
X103850990Y-69411586D01*
X103926429Y-69444950D01*
X104010636Y-69481509D01*
X104100692Y-69520036D01*
X104193679Y-69559306D01*
X104286680Y-69598092D01*
X104376777Y-69635170D01*
X104461052Y-69669311D01*
X104536587Y-69699292D01*
X104600466Y-69723884D01*
X104649769Y-69741864D01*
X104681579Y-69752003D01*
X104692504Y-69753634D01*
X104706439Y-69740709D01*
X104729060Y-69712411D01*
X104755667Y-69674654D01*
X104757772Y-69671485D01*
X104835886Y-69573900D01*
X104927018Y-69495214D01*
X105028255Y-69436109D01*
X105136682Y-69397268D01*
X105249386Y-69379372D01*
X105363452Y-69383103D01*
X105475966Y-69409143D01*
X105584015Y-69458175D01*
X105607655Y-69472600D01*
X105703113Y-69547631D01*
X105779768Y-69636270D01*
X105837220Y-69735451D01*
X105875071Y-69842105D01*
X105892922Y-69953164D01*
X105890375Y-70065561D01*
X105867030Y-70176227D01*
X105822490Y-70282094D01*
X105756355Y-70380095D01*
X105729513Y-70410410D01*
X105645488Y-70487562D01*
X105557034Y-70543782D01*
X105457885Y-70582347D01*
X105359697Y-70603826D01*
X105249303Y-70609128D01*
X105138360Y-70591448D01*
X105030619Y-70552581D01*
X104929831Y-70494323D01*
X104839744Y-70418469D01*
X104764108Y-70326817D01*
X104756136Y-70314772D01*
X104730026Y-70276611D01*
X104707405Y-70247601D01*
X104692961Y-70233732D01*
X104692504Y-70233531D01*
X104676879Y-70236508D01*
X104641418Y-70248311D01*
X104589038Y-70267714D01*
X104522655Y-70293488D01*
X104445186Y-70324409D01*
X104359550Y-70359249D01*
X104268663Y-70396783D01*
X104175441Y-70435783D01*
X104082803Y-70475023D01*
X103993665Y-70513276D01*
X103910945Y-70549317D01*
X103837559Y-70581917D01*
X103776425Y-70609852D01*
X103730459Y-70631895D01*
X103702579Y-70646818D01*
X103695257Y-70652828D01*
X103700959Y-70671191D01*
X103716251Y-70705552D01*
X103738401Y-70749984D01*
X103751350Y-70774417D01*
X103807453Y-70878178D01*
X103723845Y-71001787D01*
X103681013Y-71064886D01*
X103633878Y-71133970D01*
X103589497Y-71198707D01*
X103567148Y-71231134D01*
X103536523Y-71276741D01*
X103512253Y-71315360D01*
X103497413Y-71341952D01*
X103494276Y-71350590D01*
X103502739Y-71363161D01*
X103526364Y-71390984D01*
X103562698Y-71431361D01*
X103609289Y-71481595D01*
X103663683Y-71538988D01*
X103698608Y-71575286D01*
X103761004Y-71638790D01*
X103816812Y-71693673D01*
X103863646Y-71737714D01*
X103899118Y-71768695D01*
X103920839Y-71784398D01*
X103925248Y-71785905D01*
X103942015Y-71778914D01*
X103975918Y-71759594D01*
X104023524Y-71730091D01*
X104081401Y-71692545D01*
X104146116Y-71649100D01*
X104164158Y-71636745D01*
X104229733Y-71591727D01*
X104288772Y-71551340D01*
X104337958Y-71517840D01*
X104373972Y-71493486D01*
X104393498Y-71480536D01*
X104395517Y-71479285D01*
X104411078Y-71481156D01*
X104445291Y-71491087D01*
X104493645Y-71507347D01*
X104551629Y-71528205D01*
X104614730Y-71551927D01*
X104678437Y-71576784D01*
X104738239Y-71601042D01*
X104789624Y-71622971D01*
X104828081Y-71640838D01*
X104849098Y-71652913D01*
X104850106Y-71653771D01*
X104856112Y-71661154D01*
X104862052Y-71673625D01*
X104868540Y-71693920D01*
X104876191Y-71724778D01*
X104885620Y-71768934D01*
X104897441Y-71829126D01*
X104912271Y-71908093D01*
X104930723Y-72008570D01*
X104934690Y-72030325D01*
X104947147Y-72094802D01*
X104959334Y-72151011D01*
X104970074Y-72193987D01*
X104978191Y-72218760D01*
X104980084Y-72222082D01*
X104996862Y-72227556D01*
X105034355Y-72232006D01*
X105088206Y-72235428D01*
X105154056Y-72237819D01*
X105227547Y-72239177D01*
X105304320Y-72239499D01*
X105380017Y-72238781D01*
X105450280Y-72237021D01*
X105510750Y-72234216D01*
X105557070Y-72230362D01*
X105584881Y-72225457D01*
X105590573Y-72222500D01*
X105596314Y-72206037D01*
X105605655Y-72168551D01*
X105617785Y-72113775D01*
X105631893Y-72045445D01*
X105647170Y-71967294D01*
X105655177Y-71924716D01*
X105670279Y-71843929D01*
X105683960Y-71771887D01*
X105695533Y-71712111D01*
X105704313Y-71668121D01*
X105709613Y-71643439D01*
X105710788Y-71639377D01*
X105724035Y-71632511D01*
X105755943Y-71617998D01*
X105801953Y-71597771D01*
X105857508Y-71573766D01*
X105918047Y-71547918D01*
X105979014Y-71522160D01*
X106035849Y-71498427D01*
X106083994Y-71478654D01*
X106118890Y-71464776D01*
X106135979Y-71458726D01*
X106136726Y-71458614D01*
X106150207Y-71465472D01*
X106181230Y-71484698D01*
X106226711Y-71514272D01*
X106283568Y-71552173D01*
X106348717Y-71596380D01*
X106386138Y-71622079D01*
X106454753Y-71668907D01*
X106517048Y-71710499D01*
X106569871Y-71744825D01*
X106610073Y-71769857D01*
X106634500Y-71783565D01*
X106639976Y-71785544D01*
X106652722Y-71777034D01*
X106679937Y-71753507D01*
X106718572Y-71717968D01*
X106765577Y-71673423D01*
X106817905Y-71622877D01*
X106872505Y-71569336D01*
X106926330Y-71515805D01*
X106976330Y-71465289D01*
X107019457Y-71420794D01*
X107052661Y-71385325D01*
X107072894Y-71361887D01*
X107077722Y-71354046D01*
X107070933Y-71341280D01*
X107051858Y-71310744D01*
X107022439Y-71265410D01*
X106984619Y-71208244D01*
X106940339Y-71142216D01*
X106906605Y-71092410D01*
X106735488Y-70840764D01*
X106821959Y-70631001D01*
X106908430Y-70421237D01*
X107209982Y-70364389D01*
X107511534Y-70307540D01*
X107511534Y-69679885D01*
X107209982Y-69623036D01*
G36*
X103041970Y-68200540D02*
G01*
X103028755Y-68157289D01*
X103012059Y-68129442D01*
X102998855Y-68120371D01*
X102983203Y-68122868D01*
X102958615Y-68139069D01*
X102941200Y-68152768D01*
X102909717Y-68181008D01*
X102896471Y-68202225D01*
X102897336Y-68220312D01*
X102910990Y-68273965D01*
X102910370Y-68313370D01*
X102894896Y-68345368D01*
X102885839Y-68356110D01*
X102853973Y-68390495D01*
X102437821Y-68390495D01*
X102437821Y-68528812D01*
X103041386Y-68528812D01*
X103041386Y-68459653D01*
X103039744Y-68418131D01*
X103033913Y-68396709D01*
X103022539Y-68390498D01*
X103022202Y-68390495D01*
X103010287Y-68387561D01*
X103011841Y-68374296D01*
X103020437Y-68355916D01*
X103036432Y-68317954D01*
X103046055Y-68287128D01*
X103048522Y-68247464D01*
X103041970Y-68200540D01*
G37*
X103041970Y-68200540D02*
X103028755Y-68157289D01*
X103012059Y-68129442D01*
X102998855Y-68120371D01*
X102983203Y-68122868D01*
X102958615Y-68139069D01*
X102941200Y-68152768D01*
X102909717Y-68181008D01*
X102896471Y-68202225D01*
X102897336Y-68220312D01*
X102910990Y-68273965D01*
X102910370Y-68313370D01*
X102894896Y-68345368D01*
X102885839Y-68356110D01*
X102853973Y-68390495D01*
X102437821Y-68390495D01*
X102437821Y-68528812D01*
X103041386Y-68528812D01*
X103041386Y-68459653D01*
X103039744Y-68418131D01*
X103033913Y-68396709D01*
X103022539Y-68390498D01*
X103022202Y-68390495D01*
X103010287Y-68387561D01*
X103011841Y-68374296D01*
X103020437Y-68355916D01*
X103036432Y-68317954D01*
X103046055Y-68287128D01*
X103048522Y-68247464D01*
X103041970Y-68200540D01*
G36*
X103030998Y-70754012D02*
G01*
X103016050Y-70722717D01*
X102994459Y-70692409D01*
X102969609Y-70669318D01*
X102937913Y-70652500D01*
X102895786Y-70641006D01*
X102839642Y-70633891D01*
X102765894Y-70630207D01*
X102670956Y-70629008D01*
X102661015Y-70628989D01*
X102437821Y-70628713D01*
X102437821Y-70767030D01*
X102643582Y-70767030D01*
X102719811Y-70767128D01*
X102775061Y-70767809D01*
X102813499Y-70769651D01*
X102839294Y-70773233D01*
X102856616Y-70779132D01*
X102869632Y-70787927D01*
X102882493Y-70800180D01*
X102910127Y-70843047D01*
X102915255Y-70889843D01*
X102897783Y-70934424D01*
X102884779Y-70949928D01*
X102872553Y-70961310D01*
X102859460Y-70969481D01*
X102841385Y-70974974D01*
X102814213Y-70978320D01*
X102773830Y-70980051D01*
X102716121Y-70980697D01*
X102645868Y-70980792D01*
X102437821Y-70980792D01*
X102437821Y-71119109D01*
X103041386Y-71119109D01*
X103041386Y-71049950D01*
X103039744Y-71008428D01*
X103033913Y-70987006D01*
X103022539Y-70980795D01*
X103022202Y-70980792D01*
X103011062Y-70977910D01*
X103012326Y-70965199D01*
X103024566Y-70939926D01*
X103042576Y-70882605D01*
X103044579Y-70817037D01*
X103030998Y-70754012D01*
G37*
X103030998Y-70754012D02*
X103016050Y-70722717D01*
X102994459Y-70692409D01*
X102969609Y-70669318D01*
X102937913Y-70652500D01*
X102895786Y-70641006D01*
X102839642Y-70633891D01*
X102765894Y-70630207D01*
X102670956Y-70629008D01*
X102661015Y-70628989D01*
X102437821Y-70628713D01*
X102437821Y-70767030D01*
X102643582Y-70767030D01*
X102719811Y-70767128D01*
X102775061Y-70767809D01*
X102813499Y-70769651D01*
X102839294Y-70773233D01*
X102856616Y-70779132D01*
X102869632Y-70787927D01*
X102882493Y-70800180D01*
X102910127Y-70843047D01*
X102915255Y-70889843D01*
X102897783Y-70934424D01*
X102884779Y-70949928D01*
X102872553Y-70961310D01*
X102859460Y-70969481D01*
X102841385Y-70974974D01*
X102814213Y-70978320D01*
X102773830Y-70980051D01*
X102716121Y-70980697D01*
X102645868Y-70980792D01*
X102437821Y-70980792D01*
X102437821Y-71119109D01*
X103041386Y-71119109D01*
X103041386Y-71049950D01*
X103039744Y-71008428D01*
X103033913Y-70987006D01*
X103022539Y-70980795D01*
X103022202Y-70980792D01*
X103011062Y-70977910D01*
X103012326Y-70965199D01*
X103024566Y-70939926D01*
X103042576Y-70882605D01*
X103044579Y-70817037D01*
X103030998Y-70754012D01*
G36*
X103043543Y-67322102D02*
G01*
X103035721Y-67289904D01*
X103007079Y-67228175D01*
X102963333Y-67175390D01*
X102910883Y-67138859D01*
X102899107Y-67133840D01*
X102868260Y-67126955D01*
X102822629Y-67122136D01*
X102776508Y-67120495D01*
X102689307Y-67120495D01*
X102689307Y-67302822D01*
X102689022Y-67378021D01*
X102687296Y-67430997D01*
X102682819Y-67464675D01*
X102674280Y-67481980D01*
X102660370Y-67485837D01*
X102639778Y-67479171D01*
X102615685Y-67467230D01*
X102575475Y-67433920D01*
X102555442Y-67387632D01*
X102556095Y-67331056D01*
X102577899Y-67266969D01*
X102604807Y-67211583D01*
X102568468Y-67165625D01*
X102532128Y-67119667D01*
X102492181Y-67162904D01*
X102454437Y-67220626D01*
X102431680Y-67291614D01*
X102425312Y-67367971D01*
X102436732Y-67441801D01*
X102440607Y-67453713D01*
X102474494Y-67518601D01*
X102525014Y-67566870D01*
X102593675Y-67599535D01*
X102681986Y-67617615D01*
X102683879Y-67617825D01*
X102780122Y-67619444D01*
X102814458Y-67612900D01*
X102814458Y-67485148D01*
X102809178Y-67473416D01*
X102805133Y-67441562D01*
X102802824Y-67394603D01*
X102802475Y-67364846D01*
X102802694Y-67309352D01*
X102804084Y-67274654D01*
X102807749Y-67256399D01*
X102814790Y-67250234D01*
X102826310Y-67251805D01*
X102830767Y-67253122D01*
X102872645Y-67275618D01*
X102906396Y-67310997D01*
X102921227Y-67342220D01*
X102920332Y-67383699D01*
X102901836Y-67425731D01*
X102871214Y-67460988D01*
X102833938Y-67482146D01*
X102814458Y-67485148D01*
X102814458Y-67612900D01*
X102864771Y-67603310D01*
X102935809Y-67571302D01*
X102991221Y-67525299D01*
X103028991Y-67467179D01*
X103047104Y-67398820D01*
X103043543Y-67322102D01*
G37*
X103043543Y-67322102D02*
X103035721Y-67289904D01*
X103007079Y-67228175D01*
X102963333Y-67175390D01*
X102910883Y-67138859D01*
X102899107Y-67133840D01*
X102868260Y-67126955D01*
X102822629Y-67122136D01*
X102776508Y-67120495D01*
X102689307Y-67120495D01*
X102689307Y-67302822D01*
X102689022Y-67378021D01*
X102687296Y-67430997D01*
X102682819Y-67464675D01*
X102674280Y-67481980D01*
X102660370Y-67485837D01*
X102639778Y-67479171D01*
X102615685Y-67467230D01*
X102575475Y-67433920D01*
X102555442Y-67387632D01*
X102556095Y-67331056D01*
X102577899Y-67266969D01*
X102604807Y-67211583D01*
X102568468Y-67165625D01*
X102532128Y-67119667D01*
X102492181Y-67162904D01*
X102454437Y-67220626D01*
X102431680Y-67291614D01*
X102425312Y-67367971D01*
X102436732Y-67441801D01*
X102440607Y-67453713D01*
X102474494Y-67518601D01*
X102525014Y-67566870D01*
X102593675Y-67599535D01*
X102681986Y-67617615D01*
X102683879Y-67617825D01*
X102780122Y-67619444D01*
X102814458Y-67612900D01*
X102814458Y-67485148D01*
X102809178Y-67473416D01*
X102805133Y-67441562D01*
X102802824Y-67394603D01*
X102802475Y-67364846D01*
X102802694Y-67309352D01*
X102804084Y-67274654D01*
X102807749Y-67256399D01*
X102814790Y-67250234D01*
X102826310Y-67251805D01*
X102830767Y-67253122D01*
X102872645Y-67275618D01*
X102906396Y-67310997D01*
X102921227Y-67342220D01*
X102920332Y-67383699D01*
X102901836Y-67425731D01*
X102871214Y-67460988D01*
X102833938Y-67482146D01*
X102814458Y-67485148D01*
X102814458Y-67612900D01*
X102864771Y-67603310D01*
X102935809Y-67571302D01*
X102991221Y-67525299D01*
X103028991Y-67467179D01*
X103047104Y-67398820D01*
X103043543Y-67322102D01*
G36*
X103036120Y-67782774D02*
G01*
X103005170Y-67709920D01*
X102990105Y-67686973D01*
X102966952Y-67657646D01*
X102948747Y-67639236D01*
X102942817Y-67636039D01*
X102929660Y-67645065D01*
X102907333Y-67668163D01*
X102891750Y-67686656D01*
X102851074Y-67737272D01*
X102884705Y-67777240D01*
X102906416Y-67808126D01*
X102913910Y-67838241D01*
X102912080Y-67872708D01*
X102898472Y-67927439D01*
X102870228Y-67965114D01*
X102824567Y-67988009D01*
X102758711Y-67998403D01*
X102758669Y-67998405D01*
X102685061Y-67997506D01*
X102631054Y-67983537D01*
X102594284Y-67955672D01*
X102581832Y-67936675D01*
X102566327Y-67886224D01*
X102566317Y-67832337D01*
X102581362Y-67785454D01*
X102588713Y-67774356D01*
X102607489Y-67746524D01*
X102610566Y-67724764D01*
X102596591Y-67701296D01*
X102571490Y-67675351D01*
X102529120Y-67634284D01*
X102491536Y-67679879D01*
X102449118Y-67750326D01*
X102428215Y-67829767D01*
X102429728Y-67912785D01*
X102443589Y-67967306D01*
X102477865Y-68031030D01*
X102531788Y-68081995D01*
X102569851Y-68105149D01*
X102624464Y-68123901D01*
X102693631Y-68133285D01*
X102768593Y-68133357D01*
X102840591Y-68124176D01*
X102900863Y-68105801D01*
X102907042Y-68102907D01*
X102967649Y-68060048D01*
X103011776Y-68002021D01*
X103038507Y-67933409D01*
X103046927Y-67858799D01*
X103036120Y-67782774D01*
G37*
X103036120Y-67782774D02*
X103005170Y-67709920D01*
X102990105Y-67686973D01*
X102966952Y-67657646D01*
X102948747Y-67639236D01*
X102942817Y-67636039D01*
X102929660Y-67645065D01*
X102907333Y-67668163D01*
X102891750Y-67686656D01*
X102851074Y-67737272D01*
X102884705Y-67777240D01*
X102906416Y-67808126D01*
X102913910Y-67838241D01*
X102912080Y-67872708D01*
X102898472Y-67927439D01*
X102870228Y-67965114D01*
X102824567Y-67988009D01*
X102758711Y-67998403D01*
X102758669Y-67998405D01*
X102685061Y-67997506D01*
X102631054Y-67983537D01*
X102594284Y-67955672D01*
X102581832Y-67936675D01*
X102566327Y-67886224D01*
X102566317Y-67832337D01*
X102581362Y-67785454D01*
X102588713Y-67774356D01*
X102607489Y-67746524D01*
X102610566Y-67724764D01*
X102596591Y-67701296D01*
X102571490Y-67675351D01*
X102529120Y-67634284D01*
X102491536Y-67679879D01*
X102449118Y-67750326D01*
X102428215Y-67829767D01*
X102429728Y-67912785D01*
X102443589Y-67967306D01*
X102477865Y-68031030D01*
X102531788Y-68081995D01*
X102569851Y-68105149D01*
X102624464Y-68123901D01*
X102693631Y-68133285D01*
X102768593Y-68133357D01*
X102840591Y-68124176D01*
X102900863Y-68105801D01*
X102907042Y-68102907D01*
X102967649Y-68060048D01*
X103011776Y-68002021D01*
X103038507Y-67933409D01*
X103046927Y-67858799D01*
X103036120Y-67782774D01*
G36*
X102845658Y-69006633D02*
G01*
X102753437Y-69005445D01*
X102683390Y-69001103D01*
X102632619Y-68992442D01*
X102598228Y-68978296D01*
X102577321Y-68957500D01*
X102567000Y-68928890D01*
X102564364Y-68893465D01*
X102567318Y-68856364D01*
X102578111Y-68828182D01*
X102599640Y-68807757D01*
X102634801Y-68793921D01*
X102686490Y-68785509D01*
X102757606Y-68781357D01*
X102845658Y-68780297D01*
X103041386Y-68780297D01*
X103041386Y-68641980D01*
X102437821Y-68641980D01*
X102437821Y-68711138D01*
X102439511Y-68752830D01*
X102445444Y-68774299D01*
X102456707Y-68780297D01*
X102466739Y-68783909D01*
X102464617Y-68798286D01*
X102450420Y-68827264D01*
X102428520Y-68893681D01*
X102430072Y-68964125D01*
X102453853Y-69031623D01*
X102472638Y-69063767D01*
X102492978Y-69088285D01*
X102518427Y-69106196D01*
X102552542Y-69118521D01*
X102598879Y-69126277D01*
X102660993Y-69130484D01*
X102742439Y-69132160D01*
X102805422Y-69132376D01*
X103041386Y-69132376D01*
X103041386Y-69006633D01*
X102845658Y-69006633D01*
G37*
X102845658Y-69006633D02*
X102753437Y-69005445D01*
X102683390Y-69001103D01*
X102632619Y-68992442D01*
X102598228Y-68978296D01*
X102577321Y-68957500D01*
X102567000Y-68928890D01*
X102564364Y-68893465D01*
X102567318Y-68856364D01*
X102578111Y-68828182D01*
X102599640Y-68807757D01*
X102634801Y-68793921D01*
X102686490Y-68785509D01*
X102757606Y-68781357D01*
X102845658Y-68780297D01*
X103041386Y-68780297D01*
X103041386Y-68641980D01*
X102437821Y-68641980D01*
X102437821Y-68711138D01*
X102439511Y-68752830D01*
X102445444Y-68774299D01*
X102456707Y-68780297D01*
X102466739Y-68783909D01*
X102464617Y-68798286D01*
X102450420Y-68827264D01*
X102428520Y-68893681D01*
X102430072Y-68964125D01*
X102453853Y-69031623D01*
X102472638Y-69063767D01*
X102492978Y-69088285D01*
X102518427Y-69106196D01*
X102552542Y-69118521D01*
X102598879Y-69126277D01*
X102660993Y-69130484D01*
X102742439Y-69132160D01*
X102805422Y-69132376D01*
X103041386Y-69132376D01*
X103041386Y-69006633D01*
X102845658Y-69006633D01*
G36*
X103033945Y-69389238D02*
G01*
X102999308Y-69325637D01*
X102944628Y-69275877D01*
X102900158Y-69252432D01*
X102860879Y-69242366D01*
X102804884Y-69235844D01*
X102740379Y-69233049D01*
X102675571Y-69234164D01*
X102618666Y-69239374D01*
X102588273Y-69245459D01*
X102546694Y-69265986D01*
X102502532Y-69301537D01*
X102463913Y-69344381D01*
X102438966Y-69386789D01*
X102438570Y-69387823D01*
X102427669Y-69440447D01*
X102427399Y-69502812D01*
X102437324Y-69562076D01*
X102445278Y-69584960D01*
X102478700Y-69643898D01*
X102522489Y-69686110D01*
X102580462Y-69713844D01*
X102656435Y-69729349D01*
X102696229Y-69732857D01*
X102746234Y-69732410D01*
X102746234Y-69597624D01*
X102673268Y-69593083D01*
X102617666Y-69580014D01*
X102582139Y-69559244D01*
X102571980Y-69544448D01*
X102564896Y-69506536D01*
X102566993Y-69461473D01*
X102577188Y-69422513D01*
X102582796Y-69412296D01*
X102615462Y-69385341D01*
X102665455Y-69367549D01*
X102726295Y-69359976D01*
X102791503Y-69363675D01*
X102830747Y-69371943D01*
X102876195Y-69395680D01*
X102904604Y-69433151D01*
X102914427Y-69478280D01*
X102904113Y-69524989D01*
X102878888Y-69560868D01*
X102858075Y-69579723D01*
X102837561Y-69590728D01*
X102809797Y-69595974D01*
X102767238Y-69597551D01*
X102746234Y-69597624D01*
X102746234Y-69732410D01*
X102802420Y-69731906D01*
X102889499Y-69714612D01*
X102957470Y-69680971D01*
X103006336Y-69630982D01*
X103036101Y-69564644D01*
X103039552Y-69550399D01*
X103047655Y-69464790D01*
X103033945Y-69389238D01*
G37*
X103033945Y-69389238D02*
X102999308Y-69325637D01*
X102944628Y-69275877D01*
X102900158Y-69252432D01*
X102860879Y-69242366D01*
X102804884Y-69235844D01*
X102740379Y-69233049D01*
X102675571Y-69234164D01*
X102618666Y-69239374D01*
X102588273Y-69245459D01*
X102546694Y-69265986D01*
X102502532Y-69301537D01*
X102463913Y-69344381D01*
X102438966Y-69386789D01*
X102438570Y-69387823D01*
X102427669Y-69440447D01*
X102427399Y-69502812D01*
X102437324Y-69562076D01*
X102445278Y-69584960D01*
X102478700Y-69643898D01*
X102522489Y-69686110D01*
X102580462Y-69713844D01*
X102656435Y-69729349D01*
X102696229Y-69732857D01*
X102746234Y-69732410D01*
X102746234Y-69597624D01*
X102673268Y-69593083D01*
X102617666Y-69580014D01*
X102582139Y-69559244D01*
X102571980Y-69544448D01*
X102564896Y-69506536D01*
X102566993Y-69461473D01*
X102577188Y-69422513D01*
X102582796Y-69412296D01*
X102615462Y-69385341D01*
X102665455Y-69367549D01*
X102726295Y-69359976D01*
X102791503Y-69363675D01*
X102830747Y-69371943D01*
X102876195Y-69395680D01*
X102904604Y-69433151D01*
X102914427Y-69478280D01*
X102904113Y-69524989D01*
X102878888Y-69560868D01*
X102858075Y-69579723D01*
X102837561Y-69590728D01*
X102809797Y-69595974D01*
X102767238Y-69597551D01*
X102746234Y-69597624D01*
X102746234Y-69732410D01*
X102802420Y-69731906D01*
X102889499Y-69714612D01*
X102957470Y-69680971D01*
X103006336Y-69630982D01*
X103036101Y-69564644D01*
X103039552Y-69550399D01*
X103047655Y-69464790D01*
X103033945Y-69389238D01*
G36*
X103043548Y-69985983D02*
G01*
X103034518Y-69938366D01*
X103015630Y-69888966D01*
X103013223Y-69883688D01*
X102993524Y-69846226D01*
X102975219Y-69820283D01*
X102963492Y-69811897D01*
X102944368Y-69819883D01*
X102916150Y-69839280D01*
X102905616Y-69847890D01*
X102864153Y-69883372D01*
X102891142Y-69929115D01*
X102909122Y-69972650D01*
X102918733Y-70022950D01*
X102919340Y-70071188D01*
X102910309Y-70108533D01*
X102904673Y-70117495D01*
X102878829Y-70134563D01*
X102849059Y-70136637D01*
X102825803Y-70123866D01*
X102821292Y-70116312D01*
X102815691Y-70093675D01*
X102809108Y-70053885D01*
X102802817Y-70004834D01*
X102801830Y-69995785D01*
X102788202Y-69917004D01*
X102765054Y-69859864D01*
X102730248Y-69821970D01*
X102681646Y-69800921D01*
X102622282Y-69794365D01*
X102554802Y-69803423D01*
X102501812Y-69832836D01*
X102463217Y-69882722D01*
X102438919Y-69953200D01*
X102429333Y-70031435D01*
X102429448Y-70095234D01*
X102438155Y-70146984D01*
X102450175Y-70182327D01*
X102471120Y-70226983D01*
X102495426Y-70268253D01*
X102506124Y-70282921D01*
X102536916Y-70320643D01*
X102582951Y-70275148D01*
X102628987Y-70229653D01*
X102594757Y-70177928D01*
X102569048Y-70126048D01*
X102555601Y-70070649D01*
X102554182Y-70017395D01*
X102564557Y-69971951D01*
X102586493Y-69939984D01*
X102605002Y-69929662D01*
X102634686Y-69931211D01*
X102657385Y-69956860D01*
X102673060Y-70006540D01*
X102680305Y-70060969D01*
X102694127Y-70144736D01*
X102720204Y-70206967D01*
X102759301Y-70248493D01*
X102812180Y-70270147D01*
X102874874Y-70273147D01*
X102940358Y-70258329D01*
X102989856Y-70224546D01*
X103023592Y-70171495D01*
X103041793Y-70098874D01*
X103045361Y-70045072D01*
X103043548Y-69985983D01*
G37*
X103043548Y-69985983D02*
X103034518Y-69938366D01*
X103015630Y-69888966D01*
X103013223Y-69883688D01*
X102993524Y-69846226D01*
X102975219Y-69820283D01*
X102963492Y-69811897D01*
X102944368Y-69819883D01*
X102916150Y-69839280D01*
X102905616Y-69847890D01*
X102864153Y-69883372D01*
X102891142Y-69929115D01*
X102909122Y-69972650D01*
X102918733Y-70022950D01*
X102919340Y-70071188D01*
X102910309Y-70108533D01*
X102904673Y-70117495D01*
X102878829Y-70134563D01*
X102849059Y-70136637D01*
X102825803Y-70123866D01*
X102821292Y-70116312D01*
X102815691Y-70093675D01*
X102809108Y-70053885D01*
X102802817Y-70004834D01*
X102801830Y-69995785D01*
X102788202Y-69917004D01*
X102765054Y-69859864D01*
X102730248Y-69821970D01*
X102681646Y-69800921D01*
X102622282Y-69794365D01*
X102554802Y-69803423D01*
X102501812Y-69832836D01*
X102463217Y-69882722D01*
X102438919Y-69953200D01*
X102429333Y-70031435D01*
X102429448Y-70095234D01*
X102438155Y-70146984D01*
X102450175Y-70182327D01*
X102471120Y-70226983D01*
X102495426Y-70268253D01*
X102506124Y-70282921D01*
X102536916Y-70320643D01*
X102582951Y-70275148D01*
X102628987Y-70229653D01*
X102594757Y-70177928D01*
X102569048Y-70126048D01*
X102555601Y-70070649D01*
X102554182Y-70017395D01*
X102564557Y-69971951D01*
X102586493Y-69939984D01*
X102605002Y-69929662D01*
X102634686Y-69931211D01*
X102657385Y-69956860D01*
X102673060Y-70006540D01*
X102680305Y-70060969D01*
X102694127Y-70144736D01*
X102720204Y-70206967D01*
X102759301Y-70248493D01*
X102812180Y-70270147D01*
X102874874Y-70273147D01*
X102940358Y-70258329D01*
X102989856Y-70224546D01*
X103023592Y-70171495D01*
X103041793Y-70098874D01*
X103045361Y-70045072D01*
X103043548Y-69985983D01*
G36*
X103027386Y-71356699D02*
G01*
X103021486Y-71344168D01*
X102989717Y-71300799D01*
X102943354Y-71259790D01*
X102892304Y-71229168D01*
X102868834Y-71220459D01*
X102826909Y-71212512D01*
X102776243Y-71207774D01*
X102755321Y-71207199D01*
X102689307Y-71207129D01*
X102689307Y-71587083D01*
X102654727Y-71578983D01*
X102613830Y-71559104D01*
X102578486Y-71524347D01*
X102555718Y-71482998D01*
X102550990Y-71456649D01*
X102556727Y-71420916D01*
X102571118Y-71378282D01*
X102577738Y-71363799D01*
X102604487Y-71310240D01*
X102569624Y-71264533D01*
X102546045Y-71238158D01*
X102526583Y-71224124D01*
X102520871Y-71223414D01*
X102507027Y-71235951D01*
X102485988Y-71263428D01*
X102469575Y-71288366D01*
X102440070Y-71355664D01*
X102426716Y-71431110D01*
X102430188Y-71505888D01*
X102448337Y-71565495D01*
X102487216Y-71626941D01*
X102538405Y-71670608D01*
X102604633Y-71697926D01*
X102688629Y-71710322D01*
X102727064Y-71711421D01*
X102815139Y-71707022D01*
X102817701Y-71706482D01*
X102817701Y-71580582D01*
X102809442Y-71577115D01*
X102804887Y-71562863D01*
X102802935Y-71533470D01*
X102802483Y-71484575D01*
X102802475Y-71465748D01*
X102803157Y-71408467D01*
X102805636Y-71372141D01*
X102810557Y-71352604D01*
X102818566Y-71345690D01*
X102821138Y-71345445D01*
X102841577Y-71353336D01*
X102870211Y-71373085D01*
X102880237Y-71381575D01*
X102908592Y-71413094D01*
X102919741Y-71445949D01*
X102920673Y-71463651D01*
X102909019Y-71511539D01*
X102877715Y-71551699D01*
X102832248Y-71577173D01*
X102830767Y-71577625D01*
X102817701Y-71580582D01*
X102817701Y-71706482D01*
X102884490Y-71692392D01*
X102939975Y-71666038D01*
X102979361Y-71633807D01*
X103022069Y-71574217D01*
X103044891Y-71504168D01*
X103046954Y-71429661D01*
X103027386Y-71356699D01*
G37*
X103027386Y-71356699D02*
X103021486Y-71344168D01*
X102989717Y-71300799D01*
X102943354Y-71259790D01*
X102892304Y-71229168D01*
X102868834Y-71220459D01*
X102826909Y-71212512D01*
X102776243Y-71207774D01*
X102755321Y-71207199D01*
X102689307Y-71207129D01*
X102689307Y-71587083D01*
X102654727Y-71578983D01*
X102613830Y-71559104D01*
X102578486Y-71524347D01*
X102555718Y-71482998D01*
X102550990Y-71456649D01*
X102556727Y-71420916D01*
X102571118Y-71378282D01*
X102577738Y-71363799D01*
X102604487Y-71310240D01*
X102569624Y-71264533D01*
X102546045Y-71238158D01*
X102526583Y-71224124D01*
X102520871Y-71223414D01*
X102507027Y-71235951D01*
X102485988Y-71263428D01*
X102469575Y-71288366D01*
X102440070Y-71355664D01*
X102426716Y-71431110D01*
X102430188Y-71505888D01*
X102448337Y-71565495D01*
X102487216Y-71626941D01*
X102538405Y-71670608D01*
X102604633Y-71697926D01*
X102688629Y-71710322D01*
X102727064Y-71711421D01*
X102815139Y-71707022D01*
X102817701Y-71706482D01*
X102817701Y-71580582D01*
X102809442Y-71577115D01*
X102804887Y-71562863D01*
X102802935Y-71533470D01*
X102802483Y-71484575D01*
X102802475Y-71465748D01*
X102803157Y-71408467D01*
X102805636Y-71372141D01*
X102810557Y-71352604D01*
X102818566Y-71345690D01*
X102821138Y-71345445D01*
X102841577Y-71353336D01*
X102870211Y-71373085D01*
X102880237Y-71381575D01*
X102908592Y-71413094D01*
X102919741Y-71445949D01*
X102920673Y-71463651D01*
X102909019Y-71511539D01*
X102877715Y-71551699D01*
X102832248Y-71577173D01*
X102830767Y-71577625D01*
X102817701Y-71580582D01*
X102817701Y-71706482D01*
X102884490Y-71692392D01*
X102939975Y-71666038D01*
X102979361Y-71633807D01*
X103022069Y-71574217D01*
X103044891Y-71504168D01*
X103046954Y-71429661D01*
X103027386Y-71356699D01*
G36*
X103034852Y-72538261D02*
G01*
X103005769Y-72472479D01*
X102957207Y-72422540D01*
X102889092Y-72388374D01*
X102801349Y-72369907D01*
X102787649Y-72368583D01*
X102691061Y-72367546D01*
X102606398Y-72380993D01*
X102537779Y-72408108D01*
X102515706Y-72422627D01*
X102468989Y-72473201D01*
X102438732Y-72537609D01*
X102426176Y-72609666D01*
X102432561Y-72683185D01*
X102452228Y-72739072D01*
X102485371Y-72787132D01*
X102528825Y-72826412D01*
X102529842Y-72827092D01*
X102556662Y-72843044D01*
X102583632Y-72853410D01*
X102617668Y-72859688D01*
X102665690Y-72863373D01*
X102705069Y-72864997D01*
X102740781Y-72865672D01*
X102740781Y-72739955D01*
X102705230Y-72738726D01*
X102657906Y-72734266D01*
X102627535Y-72726397D01*
X102605928Y-72712207D01*
X102593306Y-72698917D01*
X102566878Y-72651802D01*
X102563347Y-72602505D01*
X102582361Y-72556593D01*
X102603669Y-72533638D01*
X102625141Y-72517096D01*
X102645687Y-72507421D01*
X102672426Y-72503174D01*
X102712477Y-72502920D01*
X102749362Y-72504228D01*
X102802053Y-72507043D01*
X102836228Y-72511505D01*
X102858520Y-72519548D01*
X102875558Y-72533103D01*
X102885297Y-72543845D01*
X102910877Y-72588777D01*
X102912153Y-72637249D01*
X102897001Y-72677894D01*
X102865358Y-72712567D01*
X102813380Y-72733224D01*
X102740781Y-72739955D01*
X102740781Y-72865672D01*
X102783379Y-72866479D01*
X102841944Y-72863948D01*
X102885993Y-72856362D01*
X102920752Y-72842681D01*
X102951449Y-72821865D01*
X102960564Y-72814147D01*
X103005979Y-72765889D01*
X103032507Y-72714128D01*
X103043621Y-72650828D01*
X103044529Y-72619961D01*
X103034852Y-72538261D01*
G37*
X103034852Y-72538261D02*
X103005769Y-72472479D01*
X102957207Y-72422540D01*
X102889092Y-72388374D01*
X102801349Y-72369907D01*
X102787649Y-72368583D01*
X102691061Y-72367546D01*
X102606398Y-72380993D01*
X102537779Y-72408108D01*
X102515706Y-72422627D01*
X102468989Y-72473201D01*
X102438732Y-72537609D01*
X102426176Y-72609666D01*
X102432561Y-72683185D01*
X102452228Y-72739072D01*
X102485371Y-72787132D01*
X102528825Y-72826412D01*
X102529842Y-72827092D01*
X102556662Y-72843044D01*
X102583632Y-72853410D01*
X102617668Y-72859688D01*
X102665690Y-72863373D01*
X102705069Y-72864997D01*
X102740781Y-72865672D01*
X102740781Y-72739955D01*
X102705230Y-72738726D01*
X102657906Y-72734266D01*
X102627535Y-72726397D01*
X102605928Y-72712207D01*
X102593306Y-72698917D01*
X102566878Y-72651802D01*
X102563347Y-72602505D01*
X102582361Y-72556593D01*
X102603669Y-72533638D01*
X102625141Y-72517096D01*
X102645687Y-72507421D01*
X102672426Y-72503174D01*
X102712477Y-72502920D01*
X102749362Y-72504228D01*
X102802053Y-72507043D01*
X102836228Y-72511505D01*
X102858520Y-72519548D01*
X102875558Y-72533103D01*
X102885297Y-72543845D01*
X102910877Y-72588777D01*
X102912153Y-72637249D01*
X102897001Y-72677894D01*
X102865358Y-72712567D01*
X102813380Y-72733224D01*
X102740781Y-72739955D01*
X102740781Y-72865672D01*
X102783379Y-72866479D01*
X102841944Y-72863948D01*
X102885993Y-72856362D01*
X102920752Y-72842681D01*
X102951449Y-72821865D01*
X102960564Y-72814147D01*
X103005979Y-72765889D01*
X103032507Y-72714128D01*
X103043621Y-72650828D01*
X103044529Y-72619961D01*
X103034852Y-72538261D01*
G36*
X102095030Y-67967419D02*
G01*
X102079403Y-67907315D01*
X102047152Y-67856979D01*
X102023060Y-67832607D01*
X101966105Y-67792655D01*
X101900035Y-67769758D01*
X101818818Y-67761892D01*
X101812252Y-67761852D01*
X101746237Y-67761782D01*
X101746237Y-68141736D01*
X101711658Y-68133637D01*
X101680341Y-68119013D01*
X101647709Y-68093419D01*
X101642500Y-68088065D01*
X101614306Y-68042057D01*
X101609525Y-67989590D01*
X101628074Y-67929197D01*
X101633069Y-67918960D01*
X101648255Y-67887561D01*
X101656906Y-67866530D01*
X101657707Y-67862861D01*
X101649937Y-67850052D01*
X101630928Y-67825622D01*
X101620540Y-67813221D01*
X101596679Y-67787524D01*
X101580923Y-67779085D01*
X101566429Y-67784942D01*
X101562466Y-67788072D01*
X101545121Y-67809275D01*
X101524041Y-67844262D01*
X101511735Y-67868663D01*
X101490054Y-67937928D01*
X101483029Y-68014612D01*
X101491353Y-68087235D01*
X101497314Y-68107574D01*
X101531048Y-68170524D01*
X101582955Y-68217185D01*
X101653541Y-68247827D01*
X101743308Y-68262718D01*
X101790247Y-68264353D01*
X101858587Y-68259579D01*
X101858587Y-68139010D01*
X101853535Y-68127348D01*
X101849571Y-68096002D01*
X101847232Y-68050429D01*
X101846831Y-68019554D01*
X101847217Y-67964019D01*
X101849025Y-67928967D01*
X101853227Y-67909738D01*
X101860797Y-67901670D01*
X101871782Y-67900099D01*
X101905619Y-67910879D01*
X101939060Y-67938020D01*
X101964728Y-67973723D01*
X101975228Y-68009440D01*
X101965914Y-68057952D01*
X101938987Y-68099947D01*
X101900173Y-68129064D01*
X101858587Y-68139010D01*
X101858587Y-68259579D01*
X101889764Y-68257401D01*
X101969051Y-68235945D01*
X102028737Y-68199530D01*
X102069451Y-68147703D01*
X102091821Y-68080010D01*
X102096129Y-68043338D01*
X102095030Y-67967419D01*
G37*
X102095030Y-67967419D02*
X102079403Y-67907315D01*
X102047152Y-67856979D01*
X102023060Y-67832607D01*
X101966105Y-67792655D01*
X101900035Y-67769758D01*
X101818818Y-67761892D01*
X101812252Y-67761852D01*
X101746237Y-67761782D01*
X101746237Y-68141736D01*
X101711658Y-68133637D01*
X101680341Y-68119013D01*
X101647709Y-68093419D01*
X101642500Y-68088065D01*
X101614306Y-68042057D01*
X101609525Y-67989590D01*
X101628074Y-67929197D01*
X101633069Y-67918960D01*
X101648255Y-67887561D01*
X101656906Y-67866530D01*
X101657707Y-67862861D01*
X101649937Y-67850052D01*
X101630928Y-67825622D01*
X101620540Y-67813221D01*
X101596679Y-67787524D01*
X101580923Y-67779085D01*
X101566429Y-67784942D01*
X101562466Y-67788072D01*
X101545121Y-67809275D01*
X101524041Y-67844262D01*
X101511735Y-67868663D01*
X101490054Y-67937928D01*
X101483029Y-68014612D01*
X101491353Y-68087235D01*
X101497314Y-68107574D01*
X101531048Y-68170524D01*
X101582955Y-68217185D01*
X101653541Y-68247827D01*
X101743308Y-68262718D01*
X101790247Y-68264353D01*
X101858587Y-68259579D01*
X101858587Y-68139010D01*
X101853535Y-68127348D01*
X101849571Y-68096002D01*
X101847232Y-68050429D01*
X101846831Y-68019554D01*
X101847217Y-67964019D01*
X101849025Y-67928967D01*
X101853227Y-67909738D01*
X101860797Y-67901670D01*
X101871782Y-67900099D01*
X101905619Y-67910879D01*
X101939060Y-67938020D01*
X101964728Y-67973723D01*
X101975228Y-68009440D01*
X101965914Y-68057952D01*
X101938987Y-68099947D01*
X101900173Y-68129064D01*
X101858587Y-68139010D01*
X101858587Y-68259579D01*
X101889764Y-68257401D01*
X101969051Y-68235945D01*
X102028737Y-68199530D01*
X102069451Y-68147703D01*
X102091821Y-68080010D01*
X102096129Y-68043338D01*
X102095030Y-67967419D01*
G36*
X102098514Y-68364745D02*
G01*
X102088985Y-68316405D01*
X102074875Y-68288886D01*
X102051432Y-68259936D01*
X101999429Y-68301124D01*
X101967936Y-68326518D01*
X101952572Y-68343762D01*
X101950224Y-68360898D01*
X101957783Y-68385973D01*
X101962059Y-68397743D01*
X101968369Y-68445730D01*
X101954844Y-68489676D01*
X101924290Y-68521940D01*
X101914548Y-68527181D01*
X101888742Y-68532888D01*
X101841183Y-68537294D01*
X101775242Y-68540189D01*
X101694290Y-68541369D01*
X101682774Y-68541386D01*
X101482178Y-68541386D01*
X101482178Y-68679703D01*
X102098317Y-68679703D01*
X102098317Y-68610544D01*
X102097275Y-68570667D01*
X102092642Y-68549893D01*
X102082151Y-68542211D01*
X102072255Y-68541386D01*
X102046194Y-68541386D01*
X102072255Y-68508255D01*
X102090035Y-68470265D01*
X102098826Y-68419230D01*
X102098514Y-68364745D01*
G37*
X102098514Y-68364745D02*
X102088985Y-68316405D01*
X102074875Y-68288886D01*
X102051432Y-68259936D01*
X101999429Y-68301124D01*
X101967936Y-68326518D01*
X101952572Y-68343762D01*
X101950224Y-68360898D01*
X101957783Y-68385973D01*
X101962059Y-68397743D01*
X101968369Y-68445730D01*
X101954844Y-68489676D01*
X101924290Y-68521940D01*
X101914548Y-68527181D01*
X101888742Y-68532888D01*
X101841183Y-68537294D01*
X101775242Y-68540189D01*
X101694290Y-68541369D01*
X101682774Y-68541386D01*
X101482178Y-68541386D01*
X101482178Y-68679703D01*
X102098317Y-68679703D01*
X102098317Y-68610544D01*
X102097275Y-68570667D01*
X102092642Y-68549893D01*
X102082151Y-68542211D01*
X102072255Y-68541386D01*
X102046194Y-68541386D01*
X102072255Y-68508255D01*
X102090035Y-68470265D01*
X102098826Y-68419230D01*
X102098514Y-68364745D01*
G36*
X102094583Y-68961589D02*
G01*
X102081710Y-68908589D01*
X102074890Y-68893269D01*
X102057026Y-68863572D01*
X102036907Y-68840780D01*
X102011038Y-68823917D01*
X101975927Y-68812002D01*
X101928080Y-68804058D01*
X101864004Y-68799106D01*
X101780206Y-68796169D01*
X101724232Y-68795053D01*
X101482178Y-68790948D01*
X101482178Y-68861068D01*
X101483962Y-68903607D01*
X101490058Y-68925524D01*
X101500294Y-68931188D01*
X101511363Y-68934179D01*
X101509246Y-68947549D01*
X101500371Y-68965767D01*
X101486767Y-69011376D01*
X101483101Y-69069993D01*
X101489097Y-69131646D01*
X101504479Y-69186362D01*
X101506614Y-69191270D01*
X101541745Y-69241277D01*
X101590581Y-69274244D01*
X101647667Y-69289413D01*
X101668176Y-69288254D01*
X101668176Y-69164492D01*
X101640575Y-69153587D01*
X101620796Y-69121255D01*
X101610181Y-69069090D01*
X101608772Y-69041213D01*
X101612380Y-68994753D01*
X101626403Y-68963871D01*
X101633069Y-68956336D01*
X101669334Y-68935924D01*
X101702227Y-68931188D01*
X101746237Y-68931188D01*
X101746237Y-68992487D01*
X101742605Y-69063744D01*
X101731182Y-69113724D01*
X101711176Y-69145304D01*
X101702257Y-69152374D01*
X101668176Y-69164492D01*
X101668176Y-69288254D01*
X101707544Y-69286029D01*
X101764756Y-69263337D01*
X101803420Y-69232376D01*
X101820136Y-69213624D01*
X101831122Y-69195267D01*
X101837820Y-69171381D01*
X101841674Y-69136043D01*
X101844127Y-69083331D01*
X101844832Y-69062423D01*
X101849121Y-68931188D01*
X101888842Y-68931380D01*
X101930595Y-68936463D01*
X101955842Y-68954838D01*
X101971970Y-68991961D01*
X101972258Y-68992957D01*
X101978600Y-69045590D01*
X101970316Y-69097094D01*
X101950173Y-69135370D01*
X101940227Y-69150728D01*
X101941603Y-69167270D01*
X101956013Y-69192725D01*
X101966183Y-69207672D01*
X101987912Y-69236909D01*
X102004200Y-69255020D01*
X102008863Y-69257926D01*
X102032995Y-69245960D01*
X102061815Y-69210604D01*
X102071539Y-69195247D01*
X102088286Y-69151099D01*
X102097773Y-69091602D01*
X102099905Y-69025513D01*
X102094583Y-68961589D01*
G37*
X102094583Y-68961589D02*
X102081710Y-68908589D01*
X102074890Y-68893269D01*
X102057026Y-68863572D01*
X102036907Y-68840780D01*
X102011038Y-68823917D01*
X101975927Y-68812002D01*
X101928080Y-68804058D01*
X101864004Y-68799106D01*
X101780206Y-68796169D01*
X101724232Y-68795053D01*
X101482178Y-68790948D01*
X101482178Y-68861068D01*
X101483962Y-68903607D01*
X101490058Y-68925524D01*
X101500294Y-68931188D01*
X101511363Y-68934179D01*
X101509246Y-68947549D01*
X101500371Y-68965767D01*
X101486767Y-69011376D01*
X101483101Y-69069993D01*
X101489097Y-69131646D01*
X101504479Y-69186362D01*
X101506614Y-69191270D01*
X101541745Y-69241277D01*
X101590581Y-69274244D01*
X101647667Y-69289413D01*
X101668176Y-69288254D01*
X101668176Y-69164492D01*
X101640575Y-69153587D01*
X101620796Y-69121255D01*
X101610181Y-69069090D01*
X101608772Y-69041213D01*
X101612380Y-68994753D01*
X101626403Y-68963871D01*
X101633069Y-68956336D01*
X101669334Y-68935924D01*
X101702227Y-68931188D01*
X101746237Y-68931188D01*
X101746237Y-68992487D01*
X101742605Y-69063744D01*
X101731182Y-69113724D01*
X101711176Y-69145304D01*
X101702257Y-69152374D01*
X101668176Y-69164492D01*
X101668176Y-69288254D01*
X101707544Y-69286029D01*
X101764756Y-69263337D01*
X101803420Y-69232376D01*
X101820136Y-69213624D01*
X101831122Y-69195267D01*
X101837820Y-69171381D01*
X101841674Y-69136043D01*
X101844127Y-69083331D01*
X101844832Y-69062423D01*
X101849121Y-68931188D01*
X101888842Y-68931380D01*
X101930595Y-68936463D01*
X101955842Y-68954838D01*
X101971970Y-68991961D01*
X101972258Y-68992957D01*
X101978600Y-69045590D01*
X101970316Y-69097094D01*
X101950173Y-69135370D01*
X101940227Y-69150728D01*
X101941603Y-69167270D01*
X101956013Y-69192725D01*
X101966183Y-69207672D01*
X101987912Y-69236909D01*
X102004200Y-69255020D01*
X102008863Y-69257926D01*
X102032995Y-69245960D01*
X102061815Y-69210604D01*
X102071539Y-69195247D01*
X102088286Y-69151099D01*
X102097773Y-69091602D01*
X102099905Y-69025513D01*
X102094583Y-68961589D01*
G36*
X102095763Y-69718476D02*
G01*
X102092029Y-69668745D01*
X101702227Y-69538709D01*
X101771386Y-69518322D01*
X101814126Y-69506054D01*
X101871885Y-69489915D01*
X101935375Y-69472488D01*
X101969430Y-69463274D01*
X102098317Y-69428612D01*
X102098317Y-69285609D01*
X101963143Y-69328354D01*
X101896658Y-69349404D01*
X101816461Y-69374833D01*
X101732807Y-69401390D01*
X101658218Y-69425098D01*
X101488465Y-69479098D01*
X101484672Y-69537402D01*
X101480878Y-69595705D01*
X101585266Y-69627321D01*
X101650111Y-69646818D01*
X101721600Y-69668096D01*
X101784737Y-69686692D01*
X101787250Y-69687426D01*
X101830031Y-69701316D01*
X101859221Y-69713571D01*
X101870259Y-69722154D01*
X101868982Y-69723918D01*
X101851870Y-69730109D01*
X101815213Y-69741872D01*
X101763622Y-69757775D01*
X101701706Y-69776386D01*
X101667648Y-69786457D01*
X101482178Y-69840993D01*
X101482178Y-69956736D01*
X101774529Y-70049263D01*
X101856538Y-70075256D01*
X101931013Y-70098934D01*
X101994456Y-70119180D01*
X102043368Y-70134874D01*
X102074251Y-70144898D01*
X102083274Y-70147945D01*
X102092513Y-70145533D01*
X102096559Y-70126592D01*
X102096154Y-70087177D01*
X102095848Y-70081007D01*
X102092029Y-70007914D01*
X101915990Y-69960043D01*
X101851789Y-69942447D01*
X101795351Y-69926723D01*
X101751578Y-69914254D01*
X101725370Y-69906426D01*
X101721097Y-69904980D01*
X101726010Y-69898986D01*
X101751468Y-69886899D01*
X101794003Y-69870107D01*
X101850150Y-69849997D01*
X101900870Y-69832997D01*
X102099496Y-69768206D01*
X102095763Y-69718476D01*
G37*
X102095763Y-69718476D02*
X102092029Y-69668745D01*
X101702227Y-69538709D01*
X101771386Y-69518322D01*
X101814126Y-69506054D01*
X101871885Y-69489915D01*
X101935375Y-69472488D01*
X101969430Y-69463274D01*
X102098317Y-69428612D01*
X102098317Y-69285609D01*
X101963143Y-69328354D01*
X101896658Y-69349404D01*
X101816461Y-69374833D01*
X101732807Y-69401390D01*
X101658218Y-69425098D01*
X101488465Y-69479098D01*
X101484672Y-69537402D01*
X101480878Y-69595705D01*
X101585266Y-69627321D01*
X101650111Y-69646818D01*
X101721600Y-69668096D01*
X101784737Y-69686692D01*
X101787250Y-69687426D01*
X101830031Y-69701316D01*
X101859221Y-69713571D01*
X101870259Y-69722154D01*
X101868982Y-69723918D01*
X101851870Y-69730109D01*
X101815213Y-69741872D01*
X101763622Y-69757775D01*
X101701706Y-69776386D01*
X101667648Y-69786457D01*
X101482178Y-69840993D01*
X101482178Y-69956736D01*
X101774529Y-70049263D01*
X101856538Y-70075256D01*
X101931013Y-70098934D01*
X101994456Y-70119180D01*
X102043368Y-70134874D01*
X102074251Y-70144898D01*
X102083274Y-70147945D01*
X102092513Y-70145533D01*
X102096559Y-70126592D01*
X102096154Y-70087177D01*
X102095848Y-70081007D01*
X102092029Y-70007914D01*
X101915990Y-69960043D01*
X101851789Y-69942447D01*
X101795351Y-69926723D01*
X101751578Y-69914254D01*
X101725370Y-69906426D01*
X101721097Y-69904980D01*
X101726010Y-69898986D01*
X101751468Y-69886899D01*
X101794003Y-69870107D01*
X101850150Y-69849997D01*
X101900870Y-69832997D01*
X102099496Y-69768206D01*
X102095763Y-69718476D01*
G36*
X101482178Y-70201188D02*
G01*
X101482178Y-70270346D01*
X101483355Y-70310488D01*
X101488228Y-70331394D01*
X101498814Y-70338922D01*
X101505971Y-70339505D01*
X101520324Y-70340774D01*
X101523077Y-70348779D01*
X101514229Y-70369815D01*
X101505971Y-70386173D01*
X101486403Y-70448977D01*
X101485271Y-70517248D01*
X101499865Y-70572752D01*
X101535123Y-70624438D01*
X101587165Y-70663838D01*
X101648550Y-70685413D01*
X101651982Y-70685962D01*
X101689429Y-70689167D01*
X101743187Y-70690761D01*
X101783845Y-70690633D01*
X101783845Y-70553279D01*
X101729806Y-70550097D01*
X101685265Y-70542859D01*
X101660112Y-70533060D01*
X101625740Y-70495989D01*
X101613418Y-70451974D01*
X101623382Y-70406584D01*
X101653105Y-70367797D01*
X101673095Y-70353108D01*
X101696950Y-70344519D01*
X101731770Y-70340496D01*
X101784070Y-70339505D01*
X101835861Y-70341278D01*
X101881366Y-70345963D01*
X101911819Y-70352603D01*
X101914548Y-70353710D01*
X101947000Y-70380491D01*
X101964817Y-70419579D01*
X101967694Y-70463315D01*
X101955326Y-70504038D01*
X101927407Y-70534087D01*
X101921852Y-70537204D01*
X101887978Y-70546961D01*
X101839272Y-70552277D01*
X101783845Y-70553279D01*
X101783845Y-70690633D01*
X101804460Y-70690568D01*
X101837437Y-70689664D01*
X101919019Y-70683514D01*
X101980270Y-70670733D01*
X102025551Y-70649471D01*
X102059221Y-70617878D01*
X102078986Y-70587207D01*
X102092880Y-70544354D01*
X102097646Y-70491056D01*
X102093764Y-70436480D01*
X102081718Y-70389792D01*
X102067307Y-70365124D01*
X102044122Y-70339505D01*
X102337227Y-70339505D01*
X102337227Y-70201188D01*
X101482178Y-70201188D01*
G37*
X101482178Y-70201188D02*
X101482178Y-70270346D01*
X101483355Y-70310488D01*
X101488228Y-70331394D01*
X101498814Y-70338922D01*
X101505971Y-70339505D01*
X101520324Y-70340774D01*
X101523077Y-70348779D01*
X101514229Y-70369815D01*
X101505971Y-70386173D01*
X101486403Y-70448977D01*
X101485271Y-70517248D01*
X101499865Y-70572752D01*
X101535123Y-70624438D01*
X101587165Y-70663838D01*
X101648550Y-70685413D01*
X101651982Y-70685962D01*
X101689429Y-70689167D01*
X101743187Y-70690761D01*
X101783845Y-70690633D01*
X101783845Y-70553279D01*
X101729806Y-70550097D01*
X101685265Y-70542859D01*
X101660112Y-70533060D01*
X101625740Y-70495989D01*
X101613418Y-70451974D01*
X101623382Y-70406584D01*
X101653105Y-70367797D01*
X101673095Y-70353108D01*
X101696950Y-70344519D01*
X101731770Y-70340496D01*
X101784070Y-70339505D01*
X101835861Y-70341278D01*
X101881366Y-70345963D01*
X101911819Y-70352603D01*
X101914548Y-70353710D01*
X101947000Y-70380491D01*
X101964817Y-70419579D01*
X101967694Y-70463315D01*
X101955326Y-70504038D01*
X101927407Y-70534087D01*
X101921852Y-70537204D01*
X101887978Y-70546961D01*
X101839272Y-70552277D01*
X101783845Y-70553279D01*
X101783845Y-70690633D01*
X101804460Y-70690568D01*
X101837437Y-70689664D01*
X101919019Y-70683514D01*
X101980270Y-70670733D01*
X102025551Y-70649471D01*
X102059221Y-70617878D01*
X102078986Y-70587207D01*
X102092880Y-70544354D01*
X102097646Y-70491056D01*
X102093764Y-70436480D01*
X102081718Y-70389792D01*
X102067307Y-70365124D01*
X102044122Y-70339505D01*
X102337227Y-70339505D01*
X102337227Y-70201188D01*
X101482178Y-70201188D01*
G36*
X102096980Y-70993356D02*
G01*
X102091340Y-70974539D01*
X102078947Y-70968473D01*
X102073353Y-70968218D01*
X102057770Y-70967129D01*
X102055324Y-70959632D01*
X102066007Y-70939381D01*
X102073306Y-70927351D01*
X102088937Y-70889400D01*
X102096666Y-70844072D01*
X102097260Y-70796544D01*
X102091487Y-70751995D01*
X102080116Y-70715602D01*
X102063912Y-70692543D01*
X102043645Y-70687996D01*
X102038157Y-70690291D01*
X102015374Y-70707020D01*
X101987353Y-70732963D01*
X101982823Y-70737655D01*
X101961995Y-70762383D01*
X101955265Y-70783718D01*
X101959962Y-70813555D01*
X101963083Y-70825508D01*
X101970579Y-70862705D01*
X101967208Y-70888859D01*
X101955319Y-70910946D01*
X101939365Y-70931178D01*
X101919300Y-70946079D01*
X101891298Y-70956434D01*
X101851533Y-70963029D01*
X101796177Y-70966649D01*
X101721406Y-70968078D01*
X101676260Y-70968218D01*
X101482178Y-70968218D01*
X101482178Y-71093960D01*
X102098317Y-71093960D01*
X102098317Y-71031089D01*
X102096980Y-70993356D01*
G37*
X102096980Y-70993356D02*
X102091340Y-70974539D01*
X102078947Y-70968473D01*
X102073353Y-70968218D01*
X102057770Y-70967129D01*
X102055324Y-70959632D01*
X102066007Y-70939381D01*
X102073306Y-70927351D01*
X102088937Y-70889400D01*
X102096666Y-70844072D01*
X102097260Y-70796544D01*
X102091487Y-70751995D01*
X102080116Y-70715602D01*
X102063912Y-70692543D01*
X102043645Y-70687996D01*
X102038157Y-70690291D01*
X102015374Y-70707020D01*
X101987353Y-70732963D01*
X101982823Y-70737655D01*
X101961995Y-70762383D01*
X101955265Y-70783718D01*
X101959962Y-70813555D01*
X101963083Y-70825508D01*
X101970579Y-70862705D01*
X101967208Y-70888859D01*
X101955319Y-70910946D01*
X101939365Y-70931178D01*
X101919300Y-70946079D01*
X101891298Y-70956434D01*
X101851533Y-70963029D01*
X101796177Y-70966649D01*
X101721406Y-70968078D01*
X101676260Y-70968218D01*
X101482178Y-70968218D01*
X101482178Y-71093960D01*
X102098317Y-71093960D01*
X102098317Y-71031089D01*
X102096980Y-70993356D01*
G36*
X102093445Y-71384210D02*
G01*
X102077661Y-71325055D01*
X102049052Y-71280023D01*
X102011581Y-71248246D01*
X101995589Y-71238366D01*
X101978837Y-71231073D01*
X101957408Y-71225974D01*
X101927384Y-71222679D01*
X101884846Y-71220797D01*
X101825878Y-71219937D01*
X101746560Y-71219707D01*
X101725516Y-71219703D01*
X101482178Y-71219703D01*
X101482178Y-71280059D01*
X101484874Y-71318557D01*
X101491705Y-71347023D01*
X101495917Y-71354155D01*
X101503187Y-71373652D01*
X101495917Y-71393566D01*
X101486840Y-71426353D01*
X101483187Y-71473978D01*
X101484772Y-71526764D01*
X101491411Y-71575036D01*
X101499928Y-71603218D01*
X101534937Y-71657753D01*
X101583521Y-71691835D01*
X101648118Y-71707157D01*
X101649777Y-71707299D01*
X101678434Y-71705955D01*
X101678434Y-71584356D01*
X101645839Y-71573726D01*
X101627495Y-71556410D01*
X101613621Y-71521652D01*
X101608083Y-71475773D01*
X101610809Y-71428988D01*
X101621726Y-71391514D01*
X101628731Y-71381015D01*
X101661096Y-71362668D01*
X101697889Y-71358020D01*
X101746237Y-71358020D01*
X101746237Y-71427582D01*
X101741150Y-71493667D01*
X101726737Y-71543764D01*
X101704271Y-71574929D01*
X101678434Y-71584356D01*
X101678434Y-71705955D01*
X101720353Y-71703987D01*
X101776155Y-71680710D01*
X101818353Y-71636948D01*
X101822192Y-71630899D01*
X101834691Y-71604907D01*
X101842260Y-71572735D01*
X101845939Y-71527760D01*
X101846784Y-71474331D01*
X101846831Y-71358020D01*
X101895589Y-71358020D01*
X101933419Y-71362953D01*
X101958764Y-71375543D01*
X101960113Y-71377017D01*
X101971200Y-71405034D01*
X101975497Y-71447326D01*
X101973385Y-71494064D01*
X101965244Y-71535418D01*
X101953035Y-71559957D01*
X101943254Y-71573253D01*
X101941387Y-71587294D01*
X101949400Y-71606671D01*
X101969261Y-71635976D01*
X102002937Y-71679803D01*
X102006091Y-71683825D01*
X102017764Y-71681764D01*
X102037178Y-71664568D01*
X102058752Y-71638433D01*
X102076904Y-71609552D01*
X102081191Y-71600478D01*
X102089744Y-71567380D01*
X102095845Y-71518880D01*
X102098292Y-71464695D01*
X102098297Y-71462161D01*
X102093445Y-71384210D01*
G37*
X102093445Y-71384210D02*
X102077661Y-71325055D01*
X102049052Y-71280023D01*
X102011581Y-71248246D01*
X101995589Y-71238366D01*
X101978837Y-71231073D01*
X101957408Y-71225974D01*
X101927384Y-71222679D01*
X101884846Y-71220797D01*
X101825878Y-71219937D01*
X101746560Y-71219707D01*
X101725516Y-71219703D01*
X101482178Y-71219703D01*
X101482178Y-71280059D01*
X101484874Y-71318557D01*
X101491705Y-71347023D01*
X101495917Y-71354155D01*
X101503187Y-71373652D01*
X101495917Y-71393566D01*
X101486840Y-71426353D01*
X101483187Y-71473978D01*
X101484772Y-71526764D01*
X101491411Y-71575036D01*
X101499928Y-71603218D01*
X101534937Y-71657753D01*
X101583521Y-71691835D01*
X101648118Y-71707157D01*
X101649777Y-71707299D01*
X101678434Y-71705955D01*
X101678434Y-71584356D01*
X101645839Y-71573726D01*
X101627495Y-71556410D01*
X101613621Y-71521652D01*
X101608083Y-71475773D01*
X101610809Y-71428988D01*
X101621726Y-71391514D01*
X101628731Y-71381015D01*
X101661096Y-71362668D01*
X101697889Y-71358020D01*
X101746237Y-71358020D01*
X101746237Y-71427582D01*
X101741150Y-71493667D01*
X101726737Y-71543764D01*
X101704271Y-71574929D01*
X101678434Y-71584356D01*
X101678434Y-71705955D01*
X101720353Y-71703987D01*
X101776155Y-71680710D01*
X101818353Y-71636948D01*
X101822192Y-71630899D01*
X101834691Y-71604907D01*
X101842260Y-71572735D01*
X101845939Y-71527760D01*
X101846784Y-71474331D01*
X101846831Y-71358020D01*
X101895589Y-71358020D01*
X101933419Y-71362953D01*
X101958764Y-71375543D01*
X101960113Y-71377017D01*
X101971200Y-71405034D01*
X101975497Y-71447326D01*
X101973385Y-71494064D01*
X101965244Y-71535418D01*
X101953035Y-71559957D01*
X101943254Y-71573253D01*
X101941387Y-71587294D01*
X101949400Y-71606671D01*
X101969261Y-71635976D01*
X102002937Y-71679803D01*
X102006091Y-71683825D01*
X102017764Y-71681764D01*
X102037178Y-71664568D01*
X102058752Y-71638433D01*
X102076904Y-71609552D01*
X102081191Y-71600478D01*
X102089744Y-71567380D01*
X102095845Y-71518880D01*
X102098292Y-71464695D01*
X102098297Y-71462161D01*
X102093445Y-71384210D01*
G36*
X103030816Y-71908759D02*
G01*
X103017718Y-71882247D01*
X102994894Y-71849553D01*
X102970004Y-71825725D01*
X102938751Y-71809406D01*
X102896834Y-71799240D01*
X102839956Y-71793872D01*
X102763816Y-71791944D01*
X102731083Y-71791831D01*
X102659344Y-71792161D01*
X102608073Y-71793527D01*
X102572596Y-71796500D01*
X102548237Y-71801649D01*
X102530320Y-71809543D01*
X102518098Y-71817757D01*
X102466095Y-71870187D01*
X102434816Y-71931930D01*
X102425408Y-71998536D01*
X102439020Y-72065558D01*
X102448646Y-72086792D01*
X102475141Y-72137624D01*
X102059948Y-72137624D01*
X102079132Y-72100525D01*
X102093975Y-72051643D01*
X102097778Y-71991561D01*
X102090757Y-71931564D01*
X102074987Y-71886256D01*
X102044953Y-71848675D01*
X102001976Y-71816564D01*
X101997564Y-71814150D01*
X101976779Y-71803967D01*
X101955830Y-71796530D01*
X101930452Y-71791411D01*
X101896382Y-71788181D01*
X101849359Y-71786413D01*
X101785118Y-71785677D01*
X101712824Y-71785544D01*
X101482178Y-71785544D01*
X101482178Y-71923861D01*
X101907467Y-71923861D01*
X101940021Y-71962549D01*
X101966060Y-72002738D01*
X101970795Y-72040797D01*
X101958611Y-72079066D01*
X101946680Y-72099462D01*
X101929687Y-72114642D01*
X101904005Y-72125438D01*
X101866009Y-72132683D01*
X101812074Y-72137208D01*
X101738575Y-72139844D01*
X101689653Y-72140772D01*
X101488465Y-72143911D01*
X101484664Y-72209926D01*
X101480864Y-72275940D01*
X102729350Y-72275940D01*
X102729350Y-72137624D01*
X102659746Y-72134097D01*
X102611431Y-72122215D01*
X102581369Y-72100020D01*
X102566529Y-72065559D01*
X102563564Y-72030742D01*
X102566972Y-71991329D01*
X102580383Y-71965171D01*
X102598104Y-71948814D01*
X102617165Y-71935937D01*
X102638399Y-71928272D01*
X102668151Y-71924861D01*
X102712764Y-71924749D01*
X102750120Y-71925897D01*
X102806396Y-71928532D01*
X102843342Y-71932456D01*
X102866777Y-71939063D01*
X102882520Y-71949749D01*
X102891620Y-71959833D01*
X102911463Y-72001970D01*
X102914668Y-72051840D01*
X102907832Y-72080476D01*
X102883536Y-72108828D01*
X102836272Y-72127609D01*
X102766376Y-72136712D01*
X102729350Y-72137624D01*
X102729350Y-72275940D01*
X103041386Y-72275940D01*
X103041386Y-72206782D01*
X103039744Y-72165260D01*
X103033913Y-72143838D01*
X103022539Y-72137626D01*
X103022202Y-72137624D01*
X103011062Y-72134742D01*
X103012327Y-72122030D01*
X103024567Y-72096757D01*
X103043293Y-72037869D01*
X103045261Y-71971615D01*
X103030816Y-71908759D01*
G37*
X103030816Y-71908759D02*
X103017718Y-71882247D01*
X102994894Y-71849553D01*
X102970004Y-71825725D01*
X102938751Y-71809406D01*
X102896834Y-71799240D01*
X102839956Y-71793872D01*
X102763816Y-71791944D01*
X102731083Y-71791831D01*
X102659344Y-71792161D01*
X102608073Y-71793527D01*
X102572596Y-71796500D01*
X102548237Y-71801649D01*
X102530320Y-71809543D01*
X102518098Y-71817757D01*
X102466095Y-71870187D01*
X102434816Y-71931930D01*
X102425408Y-71998536D01*
X102439020Y-72065558D01*
X102448646Y-72086792D01*
X102475141Y-72137624D01*
X102059948Y-72137624D01*
X102079132Y-72100525D01*
X102093975Y-72051643D01*
X102097778Y-71991561D01*
X102090757Y-71931564D01*
X102074987Y-71886256D01*
X102044953Y-71848675D01*
X102001976Y-71816564D01*
X101997564Y-71814150D01*
X101976779Y-71803967D01*
X101955830Y-71796530D01*
X101930452Y-71791411D01*
X101896382Y-71788181D01*
X101849359Y-71786413D01*
X101785118Y-71785677D01*
X101712824Y-71785544D01*
X101482178Y-71785544D01*
X101482178Y-71923861D01*
X101907467Y-71923861D01*
X101940021Y-71962549D01*
X101966060Y-72002738D01*
X101970795Y-72040797D01*
X101958611Y-72079066D01*
X101946680Y-72099462D01*
X101929687Y-72114642D01*
X101904005Y-72125438D01*
X101866009Y-72132683D01*
X101812074Y-72137208D01*
X101738575Y-72139844D01*
X101689653Y-72140772D01*
X101488465Y-72143911D01*
X101484664Y-72209926D01*
X101480864Y-72275940D01*
X102729350Y-72275940D01*
X102729350Y-72137624D01*
X102659746Y-72134097D01*
X102611431Y-72122215D01*
X102581369Y-72100020D01*
X102566529Y-72065559D01*
X102563564Y-72030742D01*
X102566972Y-71991329D01*
X102580383Y-71965171D01*
X102598104Y-71948814D01*
X102617165Y-71935937D01*
X102638399Y-71928272D01*
X102668151Y-71924861D01*
X102712764Y-71924749D01*
X102750120Y-71925897D01*
X102806396Y-71928532D01*
X102843342Y-71932456D01*
X102866777Y-71939063D01*
X102882520Y-71949749D01*
X102891620Y-71959833D01*
X102911463Y-72001970D01*
X102914668Y-72051840D01*
X102907832Y-72080476D01*
X102883536Y-72108828D01*
X102836272Y-72127609D01*
X102766376Y-72136712D01*
X102729350Y-72137624D01*
X102729350Y-72275940D01*
X103041386Y-72275940D01*
X103041386Y-72206782D01*
X103039744Y-72165260D01*
X103033913Y-72143838D01*
X103022539Y-72137626D01*
X103022202Y-72137624D01*
X103011062Y-72134742D01*
X103012327Y-72122030D01*
X103024567Y-72096757D01*
X103043293Y-72037869D01*
X103045261Y-71971615D01*
X103030816Y-71908759D01*
D14*
%TO.C,U2*%
X124000000Y-74000000D02*
X124000000Y-69000000D01*
X118000000Y-74000000D02*
X124000000Y-74000000D01*
X118000000Y-69000000D02*
X118000000Y-74000000D01*
X132450000Y-58000000D02*
X132450000Y-58000000D01*
X109550000Y-58000000D02*
X109550000Y-58000000D01*
X109550000Y-58000000D02*
G75*
G03*
X132450000Y-58000000I11450000J0D01*
G01*
X132450000Y-58000000D02*
G75*
G03*
X109550000Y-58000000I-11450000J0D01*
G01*
D10*
%TO.C,R16*%
X131318000Y-81257000D02*
X131318000Y-80207000D01*
%TO.C,R15*%
X127508000Y-80207000D02*
X127508000Y-81257000D01*
%TO.C,R12*%
X112268000Y-80207000D02*
X112268000Y-81257000D01*
%TO.C,R11*%
X116078000Y-81257000D02*
X116078000Y-80207000D01*
%TO.C,R16*%
D15*
X132025142Y-79497619D02*
X132391809Y-78973809D01*
X132653714Y-79497619D02*
X132653714Y-78397619D01*
X132234666Y-78397619D01*
X132129904Y-78450000D01*
X132077523Y-78502380D01*
X132025142Y-78607142D01*
X132025142Y-78764285D01*
X132077523Y-78869047D01*
X132129904Y-78921428D01*
X132234666Y-78973809D01*
X132653714Y-78973809D01*
X130977523Y-79497619D02*
X131606095Y-79497619D01*
X131291809Y-79497619D02*
X131291809Y-78397619D01*
X131396571Y-78554761D01*
X131501333Y-78659523D01*
X131606095Y-78711904D01*
X130034666Y-78397619D02*
X130244190Y-78397619D01*
X130348952Y-78450000D01*
X130401333Y-78502380D01*
X130506095Y-78659523D01*
X130558476Y-78869047D01*
X130558476Y-79288095D01*
X130506095Y-79392857D01*
X130453714Y-79445238D01*
X130348952Y-79497619D01*
X130139428Y-79497619D01*
X130034666Y-79445238D01*
X129982285Y-79392857D01*
X129929904Y-79288095D01*
X129929904Y-79026190D01*
X129982285Y-78921428D01*
X130034666Y-78869047D01*
X130139428Y-78816666D01*
X130348952Y-78816666D01*
X130453714Y-78869047D01*
X130506095Y-78921428D01*
X130558476Y-79026190D01*
%TO.C,R15*%
X128215142Y-79497619D02*
X128581809Y-78973809D01*
X128843714Y-79497619D02*
X128843714Y-78397619D01*
X128424666Y-78397619D01*
X128319904Y-78450000D01*
X128267523Y-78502380D01*
X128215142Y-78607142D01*
X128215142Y-78764285D01*
X128267523Y-78869047D01*
X128319904Y-78921428D01*
X128424666Y-78973809D01*
X128843714Y-78973809D01*
X127167523Y-79497619D02*
X127796095Y-79497619D01*
X127481809Y-79497619D02*
X127481809Y-78397619D01*
X127586571Y-78554761D01*
X127691333Y-78659523D01*
X127796095Y-78711904D01*
X126172285Y-78397619D02*
X126696095Y-78397619D01*
X126748476Y-78921428D01*
X126696095Y-78869047D01*
X126591333Y-78816666D01*
X126329428Y-78816666D01*
X126224666Y-78869047D01*
X126172285Y-78921428D01*
X126119904Y-79026190D01*
X126119904Y-79288095D01*
X126172285Y-79392857D01*
X126224666Y-79445238D01*
X126329428Y-79497619D01*
X126591333Y-79497619D01*
X126696095Y-79445238D01*
X126748476Y-79392857D01*
%TO.C,R12*%
X112975142Y-79497619D02*
X113341809Y-78973809D01*
X113603714Y-79497619D02*
X113603714Y-78397619D01*
X113184666Y-78397619D01*
X113079904Y-78450000D01*
X113027523Y-78502380D01*
X112975142Y-78607142D01*
X112975142Y-78764285D01*
X113027523Y-78869047D01*
X113079904Y-78921428D01*
X113184666Y-78973809D01*
X113603714Y-78973809D01*
X111927523Y-79497619D02*
X112556095Y-79497619D01*
X112241809Y-79497619D02*
X112241809Y-78397619D01*
X112346571Y-78554761D01*
X112451333Y-78659523D01*
X112556095Y-78711904D01*
X111508476Y-78502380D02*
X111456095Y-78450000D01*
X111351333Y-78397619D01*
X111089428Y-78397619D01*
X110984666Y-78450000D01*
X110932285Y-78502380D01*
X110879904Y-78607142D01*
X110879904Y-78711904D01*
X110932285Y-78869047D01*
X111560857Y-79497619D01*
X110879904Y-79497619D01*
%TO.C,R11*%
X116785142Y-79497619D02*
X117151809Y-78973809D01*
X117413714Y-79497619D02*
X117413714Y-78397619D01*
X116994666Y-78397619D01*
X116889904Y-78450000D01*
X116837523Y-78502380D01*
X116785142Y-78607142D01*
X116785142Y-78764285D01*
X116837523Y-78869047D01*
X116889904Y-78921428D01*
X116994666Y-78973809D01*
X117413714Y-78973809D01*
X115737523Y-79497619D02*
X116366095Y-79497619D01*
X116051809Y-79497619D02*
X116051809Y-78397619D01*
X116156571Y-78554761D01*
X116261333Y-78659523D01*
X116366095Y-78711904D01*
X114689904Y-79497619D02*
X115318476Y-79497619D01*
X115004190Y-79497619D02*
X115004190Y-78397619D01*
X115108952Y-78554761D01*
X115213714Y-78659523D01*
X115318476Y-78711904D01*
%TO.C,C3*%
X129547333Y-84892857D02*
X129599714Y-84945238D01*
X129756857Y-84997619D01*
X129861619Y-84997619D01*
X130018761Y-84945238D01*
X130123523Y-84840476D01*
X130175904Y-84735714D01*
X130228285Y-84526190D01*
X130228285Y-84369047D01*
X130175904Y-84159523D01*
X130123523Y-84054761D01*
X130018761Y-83950000D01*
X129861619Y-83897619D01*
X129756857Y-83897619D01*
X129599714Y-83950000D01*
X129547333Y-84002380D01*
X129180666Y-83897619D02*
X128499714Y-83897619D01*
X128866380Y-84316666D01*
X128709238Y-84316666D01*
X128604476Y-84369047D01*
X128552095Y-84421428D01*
X128499714Y-84526190D01*
X128499714Y-84788095D01*
X128552095Y-84892857D01*
X128604476Y-84945238D01*
X128709238Y-84997619D01*
X129023523Y-84997619D01*
X129128285Y-84945238D01*
X129180666Y-84892857D01*
%TO.C,C2*%
X114405333Y-84892857D02*
X114457714Y-84945238D01*
X114614857Y-84997619D01*
X114719619Y-84997619D01*
X114876761Y-84945238D01*
X114981523Y-84840476D01*
X115033904Y-84735714D01*
X115086285Y-84526190D01*
X115086285Y-84369047D01*
X115033904Y-84159523D01*
X114981523Y-84054761D01*
X114876761Y-83950000D01*
X114719619Y-83897619D01*
X114614857Y-83897619D01*
X114457714Y-83950000D01*
X114405333Y-84002380D01*
X113986285Y-84002380D02*
X113933904Y-83950000D01*
X113829142Y-83897619D01*
X113567238Y-83897619D01*
X113462476Y-83950000D01*
X113410095Y-84002380D01*
X113357714Y-84107142D01*
X113357714Y-84211904D01*
X113410095Y-84369047D01*
X114038666Y-84997619D01*
X113357714Y-84997619D01*
%TD*%
%LPC*%
D16*
%TO.C,S1*%
X111796000Y-87998000D03*
X111796000Y-75498000D03*
X116296000Y-87998000D03*
X116296000Y-75498000D03*
%TD*%
%TO.C,S2*%
X127036000Y-87998000D03*
X127036000Y-75498000D03*
X131536000Y-87998000D03*
X131536000Y-75498000D03*
%TD*%
D17*
%TO.C,U2*%
X121000000Y-51500000D03*
X121000000Y-71500000D03*
%TD*%
D18*
%TO.C,U1*%
X114680000Y-31980000D03*
X117220000Y-31980000D03*
X119760000Y-31980000D03*
X122300000Y-31980000D03*
X124840000Y-31980000D03*
X127380000Y-31980000D03*
X127380000Y-42140000D03*
X124840000Y-42140000D03*
X122300000Y-42140000D03*
X119760000Y-42140000D03*
X117220000Y-42140000D03*
D19*
X114680000Y-42140000D03*
%TD*%
D20*
%TO.C,R16*%
X132268000Y-80732000D03*
X130368000Y-80732000D03*
%TD*%
%TO.C,R15*%
X126558000Y-80732000D03*
X128458000Y-80732000D03*
%TD*%
%TO.C,R12*%
X111318000Y-80732000D03*
X113218000Y-80732000D03*
%TD*%
%TO.C,R11*%
X117028000Y-80732000D03*
X115128000Y-80732000D03*
%TD*%
D21*
%TO.C,LS1*%
X109000000Y-69100000D03*
X109000000Y-61500000D03*
%TD*%
D22*
%TO.C,J1*%
X127380000Y-37314000D03*
X124840000Y-37314000D03*
X122300000Y-37314000D03*
X119760000Y-37314000D03*
X117220000Y-37314000D03*
D23*
X114680000Y-37314000D03*
%TD*%
D24*
%TO.C,C3*%
X130204000Y-83018000D03*
X128524000Y-83018000D03*
%TD*%
%TO.C,C2*%
X115062000Y-83018000D03*
X113382000Y-83018000D03*
%TD*%
M02*
