%TF.GenerationSoftware,KiCad,Pcbnew,(5.1.10)-1*%
%TF.CreationDate,2021-07-01T22:54:37+02:00*%
%TF.ProjectId,BytesCounter,42797465-7343-46f7-956e-7465722e6b69,rev?*%
%TF.SameCoordinates,Original*%
%TF.FileFunction,Copper,L1,Top*%
%TF.FilePolarity,Positive*%
%FSLAX46Y46*%
G04 Gerber Fmt 4.6, Leading zero omitted, Abs format (unit mm)*
G04 Created by KiCad (PCBNEW (5.1.10)-1) date 2021-07-01 22:54:37*
%MOMM*%
%LPD*%
G01*
G04 APERTURE LIST*
%TA.AperFunction,ComponentPad*%
%ADD10C,1.850000*%
%TD*%
%TA.AperFunction,ComponentPad*%
%ADD11C,1.950000*%
%TD*%
%TA.AperFunction,ComponentPad*%
%ADD12C,1.500000*%
%TD*%
%TA.AperFunction,ComponentPad*%
%ADD13R,1.500000X1.500000*%
%TD*%
%TA.AperFunction,SMDPad,CuDef*%
%ADD14R,1.000000X1.400000*%
%TD*%
%TA.AperFunction,SMDPad,CuDef*%
%ADD15R,1.400000X1.000000*%
%TD*%
%TA.AperFunction,SMDPad,CuDef*%
%ADD16R,0.600000X1.250000*%
%TD*%
%TA.AperFunction,ComponentPad*%
%ADD17C,1.300000*%
%TD*%
%TA.AperFunction,SMDPad,CuDef*%
%ADD18R,1.400000X0.950000*%
%TD*%
%TA.AperFunction,ComponentPad*%
%ADD19C,1.725000*%
%TD*%
%TA.AperFunction,ComponentPad*%
%ADD20R,1.725000X1.725000*%
%TD*%
%TA.AperFunction,SMDPad,CuDef*%
%ADD21R,0.650000X1.850000*%
%TD*%
%TA.AperFunction,SMDPad,CuDef*%
%ADD22R,1.470000X1.050000*%
%TD*%
%TA.AperFunction,ViaPad*%
%ADD23C,3.750000*%
%TD*%
%TA.AperFunction,ViaPad*%
%ADD24C,0.800000*%
%TD*%
%TA.AperFunction,Conductor*%
%ADD25C,0.250000*%
%TD*%
%TA.AperFunction,Conductor*%
%ADD26C,0.200000*%
%TD*%
%TA.AperFunction,Conductor*%
%ADD27C,0.254000*%
%TD*%
%TA.AperFunction,Conductor*%
%ADD28C,0.100000*%
%TD*%
G04 APERTURE END LIST*
D10*
%TO.P,S1,4*%
%TO.N,Net-(R11-Pad1)*%
X111796000Y-87998000D03*
%TO.P,S1,3*%
X111796000Y-75498000D03*
%TO.P,S1,2*%
%TO.N,gnd*%
X116296000Y-87998000D03*
%TO.P,S1,1*%
X116296000Y-75498000D03*
%TD*%
%TO.P,S2,4*%
%TO.N,Net-(R15-Pad1)*%
X127036000Y-87998000D03*
%TO.P,S2,3*%
X127036000Y-75498000D03*
%TO.P,S2,2*%
%TO.N,gnd*%
X131536000Y-87998000D03*
%TO.P,S2,1*%
X131536000Y-75498000D03*
%TD*%
D11*
%TO.P,U2,2*%
%TO.N,gnd*%
X121000000Y-51500000D03*
%TO.P,U2,1*%
%TO.N,+3V*%
X121000000Y-71500000D03*
%TD*%
D12*
%TO.P,U1,12*%
%TO.N,/CC_1*%
X114680000Y-31980000D03*
%TO.P,U1,11*%
%TO.N,/D_a*%
X117220000Y-31980000D03*
%TO.P,U1,10*%
%TO.N,/D_f*%
X119760000Y-31980000D03*
%TO.P,U1,9*%
%TO.N,/CC_2*%
X122300000Y-31980000D03*
%TO.P,U1,8*%
%TO.N,/CC_3*%
X124840000Y-31980000D03*
%TO.P,U1,7*%
%TO.N,/D_b*%
X127380000Y-31980000D03*
%TO.P,U1,6*%
%TO.N,/CC_4*%
X127380000Y-42140000D03*
%TO.P,U1,5*%
%TO.N,/D_g*%
X124840000Y-42140000D03*
%TO.P,U1,4*%
%TO.N,/D_c*%
X122300000Y-42140000D03*
%TO.P,U1,3*%
%TO.N,/D_dp*%
X119760000Y-42140000D03*
%TO.P,U1,2*%
%TO.N,/D_d*%
X117220000Y-42140000D03*
D13*
%TO.P,U1,1*%
%TO.N,/D_e*%
X114680000Y-42140000D03*
%TD*%
D14*
%TO.P,R14,2*%
%TO.N,Net-(Q5-Pad3)*%
X120046000Y-67936000D03*
%TO.P,R14,1*%
%TO.N,+3V*%
X118146000Y-67936000D03*
%TD*%
%TO.P,R13,2*%
%TO.N,Net-(Q5-Pad1)*%
X119950000Y-61500000D03*
%TO.P,R13,1*%
%TO.N,/C_Buzzer*%
X118050000Y-61500000D03*
%TD*%
D15*
%TO.P,R10,2*%
%TO.N,/CC_4*%
X133222000Y-46254000D03*
%TO.P,R10,1*%
%TO.N,Net-(Q4-Pad3)*%
X133222000Y-48154000D03*
%TD*%
%TO.P,R9,2*%
%TO.N,Net-(Q4-Pad1)*%
X132206000Y-53874000D03*
%TO.P,R9,1*%
%TO.N,/C_4*%
X132206000Y-55774000D03*
%TD*%
%TO.P,R8,2*%
%TO.N,/CC_3*%
X125094000Y-46254000D03*
%TO.P,R8,1*%
%TO.N,Net-(Q3-Pad3)*%
X125094000Y-48154000D03*
%TD*%
%TO.P,R7,2*%
%TO.N,Net-(Q3-Pad1)*%
X124078000Y-53874000D03*
%TO.P,R7,1*%
%TO.N,/C_3*%
X124078000Y-55774000D03*
%TD*%
%TO.P,R6,2*%
%TO.N,/CC_2*%
X116966000Y-46254000D03*
%TO.P,R6,1*%
%TO.N,Net-(Q2-Pad3)*%
X116966000Y-48154000D03*
%TD*%
%TO.P,R5,2*%
%TO.N,Net-(Q2-Pad1)*%
X115950000Y-53874000D03*
%TO.P,R5,1*%
%TO.N,/C_2*%
X115950000Y-55774000D03*
%TD*%
%TO.P,R4,2*%
%TO.N,/CC_1*%
X108838000Y-46254000D03*
%TO.P,R4,1*%
%TO.N,Net-(Q1-Pad3)*%
X108838000Y-48154000D03*
%TD*%
%TO.P,R3,2*%
%TO.N,Net-(LED1-Pad2)*%
X122826000Y-63459000D03*
%TO.P,R3,1*%
%TO.N,Net-(IC1-Pad3)*%
X122826000Y-61559000D03*
%TD*%
%TO.P,R2,2*%
%TO.N,/MCLR*%
X138540000Y-61814000D03*
%TO.P,R2,1*%
%TO.N,+3V*%
X138540000Y-63714000D03*
%TD*%
%TO.P,R1,2*%
%TO.N,Net-(Q1-Pad1)*%
X107822000Y-53874000D03*
%TO.P,R1,1*%
%TO.N,/C_1*%
X107822000Y-55774000D03*
%TD*%
D16*
%TO.P,Q5,3*%
%TO.N,Net-(Q5-Pad3)*%
X119096000Y-65684000D03*
%TO.P,Q5,2*%
%TO.N,Net-(LS1-Pad1)*%
X118141000Y-63584000D03*
%TO.P,Q5,1*%
%TO.N,Net-(Q5-Pad1)*%
X120051000Y-63584000D03*
%TD*%
%TO.P,Q4,3*%
%TO.N,Net-(Q4-Pad3)*%
X133222000Y-49964000D03*
%TO.P,Q4,2*%
%TO.N,gnd*%
X134177000Y-52064000D03*
%TO.P,Q4,1*%
%TO.N,Net-(Q4-Pad1)*%
X132267000Y-52064000D03*
%TD*%
%TO.P,Q3,3*%
%TO.N,Net-(Q3-Pad3)*%
X125094000Y-49964000D03*
%TO.P,Q3,2*%
%TO.N,gnd*%
X126049000Y-52064000D03*
%TO.P,Q3,1*%
%TO.N,Net-(Q3-Pad1)*%
X124139000Y-52064000D03*
%TD*%
%TO.P,Q2,3*%
%TO.N,Net-(Q2-Pad3)*%
X116966000Y-49964000D03*
%TO.P,Q2,2*%
%TO.N,gnd*%
X117921000Y-52064000D03*
%TO.P,Q2,1*%
%TO.N,Net-(Q2-Pad1)*%
X116011000Y-52064000D03*
%TD*%
%TO.P,Q1,3*%
%TO.N,Net-(Q1-Pad3)*%
X108838000Y-49964000D03*
%TO.P,Q1,2*%
%TO.N,gnd*%
X109793000Y-52064000D03*
%TO.P,Q1,1*%
%TO.N,Net-(Q1-Pad1)*%
X107883000Y-52064000D03*
%TD*%
D17*
%TO.P,LS1,2*%
%TO.N,gnd*%
X109000000Y-69100000D03*
%TO.P,LS1,1*%
%TO.N,Net-(LS1-Pad1)*%
X109000000Y-61500000D03*
%TD*%
D18*
%TO.P,LED1,2*%
%TO.N,Net-(LED1-Pad2)*%
X122792000Y-65492000D03*
%TO.P,LED1,1*%
%TO.N,gnd*%
X122792000Y-67392000D03*
%TD*%
D19*
%TO.P,J1,6*%
%TO.N,Net-(J1-Pad6)*%
X127380000Y-37314000D03*
%TO.P,J1,5*%
%TO.N,/B_2*%
X124840000Y-37314000D03*
%TO.P,J1,4*%
%TO.N,/B_1*%
X122300000Y-37314000D03*
%TO.P,J1,3*%
%TO.N,gnd*%
X119760000Y-37314000D03*
%TO.P,J1,2*%
%TO.N,+3V*%
X117220000Y-37314000D03*
D20*
%TO.P,J1,1*%
%TO.N,/MCLR*%
X114680000Y-37314000D03*
%TD*%
D21*
%TO.P,IC1,20*%
%TO.N,gnd*%
X136381000Y-69151000D03*
%TO.P,IC1,19*%
%TO.N,/B_1*%
X135111000Y-69151000D03*
%TO.P,IC1,18*%
%TO.N,/B_2*%
X133841000Y-69151000D03*
%TO.P,IC1,17*%
%TO.N,Net-(IC1-Pad17)*%
X132571000Y-69151000D03*
%TO.P,IC1,16*%
%TO.N,/D_a*%
X131301000Y-69151000D03*
%TO.P,IC1,15*%
%TO.N,/D_b*%
X130031000Y-69151000D03*
%TO.P,IC1,14*%
%TO.N,/D_c*%
X128761000Y-69151000D03*
%TO.P,IC1,13*%
%TO.N,/C_1*%
X127491000Y-69151000D03*
%TO.P,IC1,12*%
%TO.N,/C_2*%
X126221000Y-69151000D03*
%TO.P,IC1,11*%
%TO.N,/C_3*%
X124951000Y-69151000D03*
%TO.P,IC1,10*%
%TO.N,/C_4*%
X124951000Y-59801000D03*
%TO.P,IC1,9*%
%TO.N,/D_dp*%
X126221000Y-59801000D03*
%TO.P,IC1,8*%
%TO.N,/D_g*%
X127491000Y-59801000D03*
%TO.P,IC1,7*%
%TO.N,/D_d*%
X128761000Y-59801000D03*
%TO.P,IC1,6*%
%TO.N,/D_e*%
X130031000Y-59801000D03*
%TO.P,IC1,5*%
%TO.N,/D_f*%
X131301000Y-59801000D03*
%TO.P,IC1,4*%
%TO.N,/MCLR*%
X132571000Y-59801000D03*
%TO.P,IC1,3*%
%TO.N,Net-(IC1-Pad3)*%
X133841000Y-59801000D03*
%TO.P,IC1,2*%
%TO.N,/C_Buzzer*%
X135111000Y-59801000D03*
%TO.P,IC1,1*%
%TO.N,+3V*%
X136381000Y-59801000D03*
%TD*%
D22*
%TO.P,C1,2*%
%TO.N,gnd*%
X138540000Y-67094000D03*
%TO.P,C1,1*%
%TO.N,+3V*%
X138540000Y-65414000D03*
%TD*%
D23*
%TO.N,gnd*%
X138000000Y-29000000D03*
X138000000Y-88000000D03*
X104000000Y-88000000D03*
X104000000Y-29000000D03*
D24*
%TO.N,+3V*%
X135461000Y-62784300D03*
%TO.N,/B_2*%
X112644600Y-78628200D03*
X136900100Y-63638100D03*
%TO.N,/B_1*%
X135211000Y-70999700D03*
%TO.N,/D_c*%
X130516400Y-62262300D03*
%TO.N,/D_d*%
X128668100Y-56221100D03*
%TO.N,/D_e*%
X129208200Y-57501900D03*
%TO.N,/MCLR*%
X135471000Y-58252400D03*
X132621100Y-58240100D03*
%TD*%
D25*
%TO.N,gnd*%
X117921000Y-52064000D02*
X117295700Y-52064000D01*
X109793000Y-52064000D02*
X110418300Y-52064000D01*
X110418300Y-52064000D02*
X111371100Y-51111200D01*
X111371100Y-51111200D02*
X116499200Y-51111200D01*
X116499200Y-51111200D02*
X117295700Y-51907700D01*
X117295700Y-51907700D02*
X117295700Y-52064000D01*
X109000000Y-69100000D02*
X107997200Y-68097200D01*
X107997200Y-68097200D02*
X107997200Y-59420600D01*
X107997200Y-59420600D02*
X109793000Y-57624800D01*
X109793000Y-57624800D02*
X109793000Y-52064000D01*
X136381000Y-69151000D02*
X136381000Y-70855500D01*
X136381000Y-70855500D02*
X131738500Y-75498000D01*
X131738500Y-75498000D02*
X131536000Y-75498000D01*
X136381000Y-68638400D02*
X136381000Y-69151000D01*
X121000000Y-51500000D02*
X121386800Y-51113200D01*
X121386800Y-51113200D02*
X124629200Y-51113200D01*
X124629200Y-51113200D02*
X125423700Y-51907700D01*
X125423700Y-51907700D02*
X125423700Y-52064000D01*
X121000000Y-51500000D02*
X119110300Y-51500000D01*
X119110300Y-51500000D02*
X118546300Y-52064000D01*
X126049000Y-52064000D02*
X125423700Y-52064000D01*
X117921000Y-52064000D02*
X118546300Y-52064000D01*
X139600300Y-67094000D02*
X139600300Y-56862000D01*
X139600300Y-56862000D02*
X134802300Y-52064000D01*
X131536000Y-87998000D02*
X131536000Y-75498000D01*
X122792000Y-67392000D02*
X122792000Y-68192300D01*
X116296000Y-75498000D02*
X118860000Y-75498000D01*
X118860000Y-75498000D02*
X122792000Y-71566000D01*
X122792000Y-71566000D02*
X122792000Y-68192300D01*
X138540000Y-67094000D02*
X139600300Y-67094000D01*
X138000000Y-29000000D02*
X138000000Y-48866300D01*
X138000000Y-48866300D02*
X134802300Y-52064000D01*
X134177000Y-52064000D02*
X134802300Y-52064000D01*
X136381000Y-68638400D02*
X136381000Y-67900700D01*
X138540000Y-67094000D02*
X137479700Y-67094000D01*
X137479700Y-67094000D02*
X136673000Y-67900700D01*
X136673000Y-67900700D02*
X136381000Y-67900700D01*
%TO.N,+3V*%
X136381000Y-62734300D02*
X135511000Y-62734300D01*
X135511000Y-62734300D02*
X135461000Y-62784300D01*
X138540000Y-62888700D02*
X136535400Y-62888700D01*
X136535400Y-62888700D02*
X136381000Y-62734300D01*
X136381000Y-62734300D02*
X136381000Y-61051300D01*
X118146000Y-67936000D02*
X118146000Y-68961300D01*
X121000000Y-71500000D02*
X118461300Y-68961300D01*
X118461300Y-68961300D02*
X118146000Y-68961300D01*
X136381000Y-59801000D02*
X136381000Y-61051300D01*
X138540000Y-63714000D02*
X138540000Y-62888700D01*
X138540000Y-65414000D02*
X138540000Y-63714000D01*
D26*
%TO.N,/B_2*%
X133841000Y-69151000D02*
X133841000Y-70376300D01*
X133841000Y-70376300D02*
X131098700Y-73118600D01*
X131098700Y-73118600D02*
X127682500Y-73118600D01*
X127682500Y-73118600D02*
X122172900Y-78628200D01*
X122172900Y-78628200D02*
X112644600Y-78628200D01*
X136900100Y-63638100D02*
X133841000Y-66697200D01*
X133841000Y-66697200D02*
X133841000Y-69151000D01*
%TO.N,/B_1*%
X135111000Y-69151000D02*
X135111000Y-70899700D01*
X135111000Y-70899700D02*
X135211000Y-70999700D01*
%TO.N,/D_a*%
X131301000Y-70376300D02*
X130900700Y-70776600D01*
X130900700Y-70776600D02*
X128274100Y-70776600D01*
X128274100Y-70776600D02*
X121488400Y-77562300D01*
X121488400Y-77562300D02*
X112071200Y-77562300D01*
X112071200Y-77562300D02*
X106795700Y-72286800D01*
X106795700Y-72286800D02*
X106795700Y-48479800D01*
X106795700Y-48479800D02*
X107921900Y-47353600D01*
X107921900Y-47353600D02*
X109413500Y-47353600D01*
X109413500Y-47353600D02*
X113200700Y-43566400D01*
X113200700Y-43566400D02*
X113200700Y-35999300D01*
X113200700Y-35999300D02*
X117220000Y-31980000D01*
X131301000Y-69151000D02*
X131301000Y-70376300D01*
%TO.N,/D_b*%
X130031000Y-69151000D02*
X130031000Y-65566400D01*
X130031000Y-65566400D02*
X134472500Y-61124900D01*
X134472500Y-61124900D02*
X134472500Y-53969500D01*
X134472500Y-53969500D02*
X133576600Y-53073600D01*
X133576600Y-53073600D02*
X133576600Y-51288600D01*
X133576600Y-51288600D02*
X134244000Y-50621200D01*
X134244000Y-50621200D02*
X134244000Y-38844000D01*
X134244000Y-38844000D02*
X127380000Y-31980000D01*
%TO.N,/D_c*%
X128761000Y-69151000D02*
X128761000Y-64017700D01*
X128761000Y-64017700D02*
X130516400Y-62262300D01*
%TO.N,/C_1*%
X107822000Y-56574300D02*
X107570600Y-56825700D01*
X107570600Y-56825700D02*
X107570600Y-69120000D01*
X107570600Y-69120000D02*
X115612600Y-77162000D01*
X115612600Y-77162000D02*
X120705300Y-77162000D01*
X120705300Y-77162000D02*
X127491000Y-70376300D01*
X107822000Y-55774000D02*
X107822000Y-56574300D01*
X127491000Y-69151000D02*
X127491000Y-70376300D01*
%TO.N,/C_2*%
X115950000Y-55774000D02*
X115950000Y-56574300D01*
X126221000Y-69151000D02*
X126221000Y-69583400D01*
X126221000Y-69583400D02*
X125428000Y-70376400D01*
X125428000Y-70376400D02*
X124463400Y-70376400D01*
X124463400Y-70376400D02*
X124039200Y-69952200D01*
X124039200Y-69952200D02*
X124039200Y-67000400D01*
X124039200Y-67000400D02*
X123655400Y-66616600D01*
X123655400Y-66616600D02*
X121725500Y-66616600D01*
X121725500Y-66616600D02*
X119207500Y-64098600D01*
X119207500Y-64098600D02*
X119207500Y-62725900D01*
X119207500Y-62725900D02*
X119149600Y-62668000D01*
X119149600Y-62668000D02*
X119149600Y-59773900D01*
X119149600Y-59773900D02*
X115950000Y-56574300D01*
%TO.N,/C_3*%
X124078000Y-55774000D02*
X124078000Y-56574300D01*
X124951000Y-69151000D02*
X124951000Y-63956100D01*
X124951000Y-63956100D02*
X123653500Y-62658600D01*
X123653500Y-62658600D02*
X122250500Y-62658600D01*
X122250500Y-62658600D02*
X121825600Y-62233700D01*
X121825600Y-62233700D02*
X121825600Y-58826700D01*
X121825600Y-58826700D02*
X124078000Y-56574300D01*
%TO.N,/C_4*%
X132206000Y-55774000D02*
X132206000Y-56574300D01*
X124951000Y-59801000D02*
X124951000Y-61026300D01*
X124951000Y-61026300D02*
X131817100Y-61026300D01*
X131817100Y-61026300D02*
X131945700Y-60897700D01*
X131945700Y-60897700D02*
X131945700Y-58600600D01*
X131945700Y-58600600D02*
X131884100Y-58539000D01*
X131884100Y-58539000D02*
X131884100Y-56896200D01*
X131884100Y-56896200D02*
X132206000Y-56574300D01*
%TO.N,/D_dp*%
X126221000Y-59801000D02*
X126221000Y-58575700D01*
X126221000Y-58575700D02*
X126649400Y-58147300D01*
X126649400Y-58147300D02*
X126649400Y-48077100D01*
X126649400Y-48077100D02*
X125925900Y-47353600D01*
X125925900Y-47353600D02*
X124531500Y-47353600D01*
X124531500Y-47353600D02*
X119760000Y-42582100D01*
X119760000Y-42582100D02*
X119760000Y-42140000D01*
%TO.N,/D_g*%
X124840000Y-42140000D02*
X127491000Y-44791000D01*
X127491000Y-44791000D02*
X127491000Y-58575700D01*
X127491000Y-59801000D02*
X127491000Y-58575700D01*
%TO.N,/D_d*%
X128668100Y-56221100D02*
X128507900Y-56381300D01*
X128507900Y-56381300D02*
X128507900Y-58322600D01*
X128507900Y-58322600D02*
X128761000Y-58575700D01*
X128761000Y-59801000D02*
X128761000Y-58575700D01*
%TO.N,/D_e*%
X130031000Y-59801000D02*
X130031000Y-58324700D01*
X130031000Y-58324700D02*
X129208200Y-57501900D01*
%TO.N,/D_f*%
X131301000Y-59801000D02*
X131301000Y-58575700D01*
X131301000Y-58575700D02*
X130974300Y-58249000D01*
X130974300Y-58249000D02*
X130974300Y-47708000D01*
X130974300Y-47708000D02*
X126110000Y-42843700D01*
X126110000Y-42843700D02*
X126110000Y-31762500D01*
X126110000Y-31762500D02*
X125244300Y-30896800D01*
X125244300Y-30896800D02*
X120843200Y-30896800D01*
X120843200Y-30896800D02*
X119760000Y-31980000D01*
%TO.N,Net-(IC1-Pad3)*%
X122826000Y-61559000D02*
X123826300Y-61559000D01*
X123826300Y-61559000D02*
X133308300Y-61559000D01*
X133308300Y-61559000D02*
X133841000Y-61026300D01*
X133841000Y-59801000D02*
X133841000Y-61026300D01*
%TO.N,/C_Buzzer*%
X118050000Y-62500300D02*
X118415600Y-62500300D01*
X118415600Y-62500300D02*
X118781000Y-62865700D01*
X118781000Y-62865700D02*
X118781000Y-64613800D01*
X118781000Y-64613800D02*
X115064300Y-68330500D01*
X115064300Y-68330500D02*
X115064300Y-76047600D01*
X115064300Y-76047600D02*
X115778400Y-76761700D01*
X115778400Y-76761700D02*
X120329800Y-76761700D01*
X120329800Y-76761700D02*
X126846400Y-70245100D01*
X126846400Y-70245100D02*
X126846400Y-68120000D01*
X126846400Y-68120000D02*
X127040800Y-67925600D01*
X127040800Y-67925600D02*
X127985100Y-67925600D01*
X127985100Y-67925600D02*
X128116400Y-68056900D01*
X128116400Y-68056900D02*
X128116400Y-70227800D01*
X128116400Y-70227800D02*
X128264900Y-70376300D01*
X128264900Y-70376300D02*
X130541500Y-70376300D01*
X130541500Y-70376300D02*
X130666000Y-70251800D01*
X130666000Y-70251800D02*
X130666000Y-66063800D01*
X130666000Y-66063800D02*
X135111000Y-61618800D01*
X135111000Y-61618800D02*
X135111000Y-59801000D01*
X118050000Y-61500000D02*
X118050000Y-62500300D01*
%TO.N,Net-(LED1-Pad2)*%
X122792000Y-65492000D02*
X122792000Y-64716700D01*
X122792000Y-64716700D02*
X122826000Y-64682700D01*
X122826000Y-64682700D02*
X122826000Y-63459000D01*
D25*
%TO.N,Net-(LS1-Pad1)*%
X118141000Y-63584000D02*
X117515700Y-63584000D01*
X109000000Y-61500000D02*
X115431700Y-61500000D01*
X115431700Y-61500000D02*
X117515700Y-63584000D01*
D26*
%TO.N,Net-(Q1-Pad3)*%
X108838000Y-49964000D02*
X108838000Y-48154000D01*
%TO.N,Net-(Q1-Pad1)*%
X107883000Y-52064000D02*
X107883000Y-52989300D01*
X107883000Y-52989300D02*
X107822000Y-53050300D01*
X107822000Y-53050300D02*
X107822000Y-53874000D01*
%TO.N,Net-(Q2-Pad3)*%
X116966000Y-49964000D02*
X116966000Y-48154000D01*
%TO.N,Net-(Q2-Pad1)*%
X116011000Y-52064000D02*
X116011000Y-52989300D01*
X116011000Y-52989300D02*
X115950000Y-53050300D01*
X115950000Y-53050300D02*
X115950000Y-53874000D01*
%TO.N,Net-(Q3-Pad3)*%
X125094000Y-49964000D02*
X125094000Y-48154000D01*
%TO.N,Net-(Q3-Pad1)*%
X124139000Y-52064000D02*
X124139000Y-52989300D01*
X124139000Y-52989300D02*
X124078000Y-53050300D01*
X124078000Y-53050300D02*
X124078000Y-53874000D01*
%TO.N,Net-(Q4-Pad3)*%
X133222000Y-49964000D02*
X133222000Y-48154000D01*
%TO.N,Net-(Q4-Pad1)*%
X132267000Y-52064000D02*
X132267000Y-52989300D01*
X132267000Y-52989300D02*
X132206000Y-53050300D01*
X132206000Y-53050300D02*
X132206000Y-53874000D01*
D25*
%TO.N,Net-(Q5-Pad3)*%
X120046000Y-67936000D02*
X120046000Y-66910700D01*
X119096000Y-65684000D02*
X119721300Y-65684000D01*
X119721300Y-65684000D02*
X119721300Y-66586000D01*
X119721300Y-66586000D02*
X120046000Y-66910700D01*
D26*
%TO.N,Net-(Q5-Pad1)*%
X119950000Y-61500000D02*
X119950000Y-62500300D01*
X120051000Y-63584000D02*
X120051000Y-62601300D01*
X120051000Y-62601300D02*
X119950000Y-62500300D01*
%TO.N,/CC_1*%
X108838000Y-46254000D02*
X108838000Y-37822000D01*
X108838000Y-37822000D02*
X114680000Y-31980000D01*
%TO.N,/CC_2*%
X116966000Y-46254000D02*
X116966000Y-45453700D01*
X116966000Y-45453700D02*
X118490000Y-43929700D01*
X118490000Y-43929700D02*
X118490000Y-35790000D01*
X118490000Y-35790000D02*
X122300000Y-31980000D01*
%TO.N,/CC_3*%
X125094000Y-46254000D02*
X125094000Y-45453700D01*
X125094000Y-45453700D02*
X123649400Y-44009100D01*
X123649400Y-44009100D02*
X123649400Y-33170600D01*
X123649400Y-33170600D02*
X124840000Y-31980000D01*
%TO.N,/CC_4*%
X133222000Y-46254000D02*
X132221700Y-46254000D01*
X132221700Y-46254000D02*
X128107700Y-42140000D01*
X128107700Y-42140000D02*
X127380000Y-42140000D01*
%TO.N,Net-(R15-Pad1)*%
X127036000Y-75498000D02*
X127036000Y-87998000D01*
%TO.N,/MCLR*%
X135471000Y-58252400D02*
X136510400Y-58252400D01*
X136510400Y-58252400D02*
X138540000Y-60282000D01*
X138540000Y-60282000D02*
X138540000Y-61814000D01*
X132621100Y-58240100D02*
X132621100Y-58525600D01*
X132621100Y-58525600D02*
X132571000Y-58575700D01*
X132571000Y-59801000D02*
X132571000Y-58575700D01*
%TD*%
D27*
%TO.N,gnd*%
X139249899Y-26737907D02*
X139490285Y-26810484D01*
X139711991Y-26928368D01*
X139906577Y-27087068D01*
X140066635Y-27280545D01*
X140186064Y-27501424D01*
X140260317Y-27741297D01*
X140290000Y-28023716D01*
X140290001Y-88965269D01*
X140262093Y-89249899D01*
X140189517Y-89490282D01*
X140071633Y-89711989D01*
X139912929Y-89906580D01*
X139719455Y-90066635D01*
X139498576Y-90186064D01*
X139258701Y-90260317D01*
X138976291Y-90290000D01*
X103034721Y-90290000D01*
X102750101Y-90262093D01*
X102509718Y-90189517D01*
X102288011Y-90071633D01*
X102093420Y-89912929D01*
X101933365Y-89719455D01*
X101813936Y-89498576D01*
X101739683Y-89258701D01*
X101710000Y-88976291D01*
X101710000Y-87844353D01*
X110236000Y-87844353D01*
X110236000Y-88151647D01*
X110295950Y-88453035D01*
X110413546Y-88736937D01*
X110584269Y-88992442D01*
X110801558Y-89209731D01*
X111057063Y-89380454D01*
X111340965Y-89498050D01*
X111642353Y-89558000D01*
X111949647Y-89558000D01*
X112251035Y-89498050D01*
X112534937Y-89380454D01*
X112790442Y-89209731D01*
X112920256Y-89079917D01*
X115393688Y-89079917D01*
X115480393Y-89336653D01*
X115757223Y-89470048D01*
X116054757Y-89546873D01*
X116361562Y-89564176D01*
X116665848Y-89521292D01*
X116955921Y-89419868D01*
X117111607Y-89336653D01*
X117198312Y-89079917D01*
X116296000Y-88177605D01*
X115393688Y-89079917D01*
X112920256Y-89079917D01*
X113007731Y-88992442D01*
X113178454Y-88736937D01*
X113296050Y-88453035D01*
X113356000Y-88151647D01*
X113356000Y-88063562D01*
X114729824Y-88063562D01*
X114772708Y-88367848D01*
X114874132Y-88657921D01*
X114957347Y-88813607D01*
X115214083Y-88900312D01*
X116116395Y-87998000D01*
X116475605Y-87998000D01*
X117377917Y-88900312D01*
X117634653Y-88813607D01*
X117768048Y-88536777D01*
X117844873Y-88239243D01*
X117862176Y-87932438D01*
X117819292Y-87628152D01*
X117717868Y-87338079D01*
X117634653Y-87182393D01*
X117377917Y-87095688D01*
X116475605Y-87998000D01*
X116116395Y-87998000D01*
X115214083Y-87095688D01*
X114957347Y-87182393D01*
X114823952Y-87459223D01*
X114747127Y-87756757D01*
X114729824Y-88063562D01*
X113356000Y-88063562D01*
X113356000Y-87844353D01*
X113296050Y-87542965D01*
X113178454Y-87259063D01*
X113007731Y-87003558D01*
X112920256Y-86916083D01*
X115393688Y-86916083D01*
X116296000Y-87818395D01*
X117198312Y-86916083D01*
X117111607Y-86659347D01*
X116834777Y-86525952D01*
X116537243Y-86449127D01*
X116230438Y-86431824D01*
X115926152Y-86474708D01*
X115636079Y-86576132D01*
X115480393Y-86659347D01*
X115393688Y-86916083D01*
X112920256Y-86916083D01*
X112790442Y-86786269D01*
X112534937Y-86615546D01*
X112251035Y-86497950D01*
X111949647Y-86438000D01*
X111642353Y-86438000D01*
X111340965Y-86497950D01*
X111057063Y-86615546D01*
X110801558Y-86786269D01*
X110584269Y-87003558D01*
X110413546Y-87259063D01*
X110295950Y-87542965D01*
X110236000Y-87844353D01*
X101710000Y-87844353D01*
X101710000Y-48479800D01*
X106057144Y-48479800D01*
X106060701Y-48515915D01*
X106060700Y-72250695D01*
X106057144Y-72286800D01*
X106071335Y-72430885D01*
X106072967Y-72436264D01*
X106113363Y-72569432D01*
X106181613Y-72697119D01*
X106273462Y-72809037D01*
X106301508Y-72832054D01*
X111525946Y-78056493D01*
X111548962Y-78084538D01*
X111577006Y-78107553D01*
X111660880Y-78176387D01*
X111702301Y-78198527D01*
X111649374Y-78326302D01*
X111609600Y-78526261D01*
X111609600Y-78730139D01*
X111649374Y-78930098D01*
X111727395Y-79118456D01*
X111840663Y-79287974D01*
X111984826Y-79432137D01*
X112154344Y-79545405D01*
X112342702Y-79623426D01*
X112542661Y-79663200D01*
X112746539Y-79663200D01*
X112946498Y-79623426D01*
X113134856Y-79545405D01*
X113304374Y-79432137D01*
X113373311Y-79363200D01*
X122136795Y-79363200D01*
X122172900Y-79366756D01*
X122209005Y-79363200D01*
X122316985Y-79352565D01*
X122455533Y-79310537D01*
X122583220Y-79242287D01*
X122695138Y-79150438D01*
X122718159Y-79122387D01*
X125638920Y-76201627D01*
X125653546Y-76236937D01*
X125824269Y-76492442D01*
X126041558Y-76709731D01*
X126297063Y-76880454D01*
X126301000Y-76882085D01*
X126301001Y-86613915D01*
X126297063Y-86615546D01*
X126041558Y-86786269D01*
X125824269Y-87003558D01*
X125653546Y-87259063D01*
X125535950Y-87542965D01*
X125476000Y-87844353D01*
X125476000Y-88151647D01*
X125535950Y-88453035D01*
X125653546Y-88736937D01*
X125824269Y-88992442D01*
X126041558Y-89209731D01*
X126297063Y-89380454D01*
X126580965Y-89498050D01*
X126882353Y-89558000D01*
X127189647Y-89558000D01*
X127491035Y-89498050D01*
X127774937Y-89380454D01*
X128030442Y-89209731D01*
X128160256Y-89079917D01*
X130633688Y-89079917D01*
X130720393Y-89336653D01*
X130997223Y-89470048D01*
X131294757Y-89546873D01*
X131601562Y-89564176D01*
X131905848Y-89521292D01*
X132195921Y-89419868D01*
X132351607Y-89336653D01*
X132438312Y-89079917D01*
X131536000Y-88177605D01*
X130633688Y-89079917D01*
X128160256Y-89079917D01*
X128247731Y-88992442D01*
X128418454Y-88736937D01*
X128536050Y-88453035D01*
X128596000Y-88151647D01*
X128596000Y-88063562D01*
X129969824Y-88063562D01*
X130012708Y-88367848D01*
X130114132Y-88657921D01*
X130197347Y-88813607D01*
X130454083Y-88900312D01*
X131356395Y-87998000D01*
X131715605Y-87998000D01*
X132617917Y-88900312D01*
X132874653Y-88813607D01*
X133008048Y-88536777D01*
X133084873Y-88239243D01*
X133102176Y-87932438D01*
X133059292Y-87628152D01*
X132957868Y-87338079D01*
X132874653Y-87182393D01*
X132617917Y-87095688D01*
X131715605Y-87998000D01*
X131356395Y-87998000D01*
X130454083Y-87095688D01*
X130197347Y-87182393D01*
X130063952Y-87459223D01*
X129987127Y-87756757D01*
X129969824Y-88063562D01*
X128596000Y-88063562D01*
X128596000Y-87844353D01*
X128536050Y-87542965D01*
X128418454Y-87259063D01*
X128247731Y-87003558D01*
X128160256Y-86916083D01*
X130633688Y-86916083D01*
X131536000Y-87818395D01*
X132438312Y-86916083D01*
X132351607Y-86659347D01*
X132074777Y-86525952D01*
X131777243Y-86449127D01*
X131470438Y-86431824D01*
X131166152Y-86474708D01*
X130876079Y-86576132D01*
X130720393Y-86659347D01*
X130633688Y-86916083D01*
X128160256Y-86916083D01*
X128030442Y-86786269D01*
X127774937Y-86615546D01*
X127771000Y-86613915D01*
X127771000Y-76882085D01*
X127774937Y-76880454D01*
X128030442Y-76709731D01*
X128160256Y-76579917D01*
X130633688Y-76579917D01*
X130720393Y-76836653D01*
X130997223Y-76970048D01*
X131294757Y-77046873D01*
X131601562Y-77064176D01*
X131905848Y-77021292D01*
X132195921Y-76919868D01*
X132351607Y-76836653D01*
X132438312Y-76579917D01*
X131536000Y-75677605D01*
X130633688Y-76579917D01*
X128160256Y-76579917D01*
X128247731Y-76492442D01*
X128418454Y-76236937D01*
X128536050Y-75953035D01*
X128596000Y-75651647D01*
X128596000Y-75563562D01*
X129969824Y-75563562D01*
X130012708Y-75867848D01*
X130114132Y-76157921D01*
X130197347Y-76313607D01*
X130454083Y-76400312D01*
X131356395Y-75498000D01*
X131715605Y-75498000D01*
X132617917Y-76400312D01*
X132874653Y-76313607D01*
X133008048Y-76036777D01*
X133084873Y-75739243D01*
X133102176Y-75432438D01*
X133059292Y-75128152D01*
X132957868Y-74838079D01*
X132874653Y-74682393D01*
X132617917Y-74595688D01*
X131715605Y-75498000D01*
X131356395Y-75498000D01*
X130454083Y-74595688D01*
X130197347Y-74682393D01*
X130063952Y-74959223D01*
X129987127Y-75256757D01*
X129969824Y-75563562D01*
X128596000Y-75563562D01*
X128596000Y-75344353D01*
X128536050Y-75042965D01*
X128418454Y-74759063D01*
X128247731Y-74503558D01*
X128160256Y-74416083D01*
X130633688Y-74416083D01*
X131536000Y-75318395D01*
X132438312Y-74416083D01*
X132351607Y-74159347D01*
X132074777Y-74025952D01*
X131777243Y-73949127D01*
X131470438Y-73931824D01*
X131166152Y-73974708D01*
X130876079Y-74076132D01*
X130720393Y-74159347D01*
X130633688Y-74416083D01*
X128160256Y-74416083D01*
X128030442Y-74286269D01*
X127774937Y-74115546D01*
X127739627Y-74100920D01*
X127986947Y-73853600D01*
X131062595Y-73853600D01*
X131098700Y-73857156D01*
X131134805Y-73853600D01*
X131242785Y-73842965D01*
X131381333Y-73800937D01*
X131509020Y-73732687D01*
X131620938Y-73640838D01*
X131643959Y-73612787D01*
X134176000Y-71080747D01*
X134176000Y-71101639D01*
X134215774Y-71301598D01*
X134293795Y-71489956D01*
X134407063Y-71659474D01*
X134551226Y-71803637D01*
X134720744Y-71916905D01*
X134909102Y-71994926D01*
X135109061Y-72034700D01*
X135312939Y-72034700D01*
X135512898Y-71994926D01*
X135701256Y-71916905D01*
X135870774Y-71803637D01*
X136014937Y-71659474D01*
X136128205Y-71489956D01*
X136206226Y-71301598D01*
X136246000Y-71101639D01*
X136246000Y-70897761D01*
X136206226Y-70697802D01*
X136177587Y-70628663D01*
X136254000Y-70552250D01*
X136254000Y-69278000D01*
X136508000Y-69278000D01*
X136508000Y-70552250D01*
X136666750Y-70711000D01*
X136706000Y-70714072D01*
X136830482Y-70701812D01*
X136950180Y-70665502D01*
X137060494Y-70606537D01*
X137157185Y-70527185D01*
X137236537Y-70430494D01*
X137295502Y-70320180D01*
X137331812Y-70200482D01*
X137344072Y-70076000D01*
X137341000Y-69436750D01*
X137182250Y-69278000D01*
X136508000Y-69278000D01*
X136254000Y-69278000D01*
X136234000Y-69278000D01*
X136234000Y-69024000D01*
X136254000Y-69024000D01*
X136254000Y-67749750D01*
X136508000Y-67749750D01*
X136508000Y-69024000D01*
X137182250Y-69024000D01*
X137341000Y-68865250D01*
X137344072Y-68226000D01*
X137331812Y-68101518D01*
X137303832Y-68009280D01*
X137353815Y-68070185D01*
X137450506Y-68149537D01*
X137560820Y-68208502D01*
X137680518Y-68244812D01*
X137805000Y-68257072D01*
X138254250Y-68254000D01*
X138413000Y-68095250D01*
X138413000Y-67221000D01*
X138667000Y-67221000D01*
X138667000Y-68095250D01*
X138825750Y-68254000D01*
X139275000Y-68257072D01*
X139399482Y-68244812D01*
X139519180Y-68208502D01*
X139629494Y-68149537D01*
X139726185Y-68070185D01*
X139805537Y-67973494D01*
X139864502Y-67863180D01*
X139900812Y-67743482D01*
X139913072Y-67619000D01*
X139910000Y-67379750D01*
X139751250Y-67221000D01*
X138667000Y-67221000D01*
X138413000Y-67221000D01*
X137328750Y-67221000D01*
X137170000Y-67379750D01*
X137166928Y-67619000D01*
X137179188Y-67743482D01*
X137207168Y-67835720D01*
X137157185Y-67774815D01*
X137060494Y-67695463D01*
X136950180Y-67636498D01*
X136830482Y-67600188D01*
X136706000Y-67587928D01*
X136666750Y-67591000D01*
X136508000Y-67749750D01*
X136254000Y-67749750D01*
X136095250Y-67591000D01*
X136056000Y-67587928D01*
X135931518Y-67600188D01*
X135811820Y-67636498D01*
X135746000Y-67671680D01*
X135680180Y-67636498D01*
X135560482Y-67600188D01*
X135436000Y-67587928D01*
X134786000Y-67587928D01*
X134661518Y-67600188D01*
X134576000Y-67626130D01*
X134576000Y-67001646D01*
X136904547Y-64673100D01*
X137002039Y-64673100D01*
X137201998Y-64633326D01*
X137227228Y-64622875D01*
X137215498Y-64644820D01*
X137179188Y-64764518D01*
X137166928Y-64889000D01*
X137166928Y-65939000D01*
X137179188Y-66063482D01*
X137215498Y-66183180D01*
X137253353Y-66254000D01*
X137215498Y-66324820D01*
X137179188Y-66444518D01*
X137166928Y-66569000D01*
X137170000Y-66808250D01*
X137328750Y-66967000D01*
X138413000Y-66967000D01*
X138413000Y-66947000D01*
X138667000Y-66947000D01*
X138667000Y-66967000D01*
X139751250Y-66967000D01*
X139910000Y-66808250D01*
X139913072Y-66569000D01*
X139900812Y-66444518D01*
X139864502Y-66324820D01*
X139826647Y-66254000D01*
X139864502Y-66183180D01*
X139900812Y-66063482D01*
X139913072Y-65939000D01*
X139913072Y-64889000D01*
X139900812Y-64764518D01*
X139864502Y-64644820D01*
X139805537Y-64534506D01*
X139795343Y-64522085D01*
X139829502Y-64458180D01*
X139865812Y-64338482D01*
X139878072Y-64214000D01*
X139878072Y-63214000D01*
X139865812Y-63089518D01*
X139829502Y-62969820D01*
X139770537Y-62859506D01*
X139692158Y-62764000D01*
X139770537Y-62668494D01*
X139829502Y-62558180D01*
X139865812Y-62438482D01*
X139878072Y-62314000D01*
X139878072Y-61314000D01*
X139865812Y-61189518D01*
X139829502Y-61069820D01*
X139770537Y-60959506D01*
X139691185Y-60862815D01*
X139594494Y-60783463D01*
X139484180Y-60724498D01*
X139364482Y-60688188D01*
X139275000Y-60679375D01*
X139275000Y-60318105D01*
X139278556Y-60282000D01*
X139264365Y-60137915D01*
X139222337Y-59999367D01*
X139154087Y-59871680D01*
X139110117Y-59818103D01*
X139085253Y-59787806D01*
X139085250Y-59787803D01*
X139062237Y-59759762D01*
X139034197Y-59736750D01*
X137055658Y-57758212D01*
X137032638Y-57730162D01*
X136920720Y-57638313D01*
X136793033Y-57570063D01*
X136654485Y-57528035D01*
X136546505Y-57517400D01*
X136510400Y-57513844D01*
X136474295Y-57517400D01*
X136199711Y-57517400D01*
X136130774Y-57448463D01*
X135961256Y-57335195D01*
X135772898Y-57257174D01*
X135572939Y-57217400D01*
X135369061Y-57217400D01*
X135207500Y-57249536D01*
X135207500Y-54005605D01*
X135211056Y-53969500D01*
X135196865Y-53825415D01*
X135175789Y-53755937D01*
X135154837Y-53686867D01*
X135086587Y-53559180D01*
X134994738Y-53447262D01*
X134966693Y-53424246D01*
X134786196Y-53243750D01*
X134831494Y-53219537D01*
X134928185Y-53140185D01*
X135007537Y-53043494D01*
X135066502Y-52933180D01*
X135102812Y-52813482D01*
X135115072Y-52689000D01*
X135112000Y-52349750D01*
X134953250Y-52191000D01*
X134311600Y-52191000D01*
X134311600Y-51937000D01*
X134953250Y-51937000D01*
X135112000Y-51778250D01*
X135115072Y-51439000D01*
X135102812Y-51314518D01*
X135066502Y-51194820D01*
X135007537Y-51084506D01*
X134928185Y-50987815D01*
X134895698Y-50961154D01*
X134926337Y-50903833D01*
X134959531Y-50794407D01*
X134968365Y-50765286D01*
X134974543Y-50702556D01*
X134979000Y-50657305D01*
X134979000Y-50657298D01*
X134982555Y-50621201D01*
X134979000Y-50585104D01*
X134979000Y-38880105D01*
X134982556Y-38844000D01*
X134968365Y-38699915D01*
X134961337Y-38676747D01*
X134926337Y-38561367D01*
X134858087Y-38433680D01*
X134766238Y-38321762D01*
X134738193Y-38298746D01*
X128730301Y-32290855D01*
X128765000Y-32116411D01*
X128765000Y-31843589D01*
X128711775Y-31576011D01*
X128607371Y-31323957D01*
X128455799Y-31097114D01*
X128262886Y-30904201D01*
X128036043Y-30752629D01*
X127783989Y-30648225D01*
X127516411Y-30595000D01*
X127243589Y-30595000D01*
X126976011Y-30648225D01*
X126723957Y-30752629D01*
X126497114Y-30904201D01*
X126394131Y-31007184D01*
X125789558Y-30402612D01*
X125766538Y-30374562D01*
X125654620Y-30282713D01*
X125526933Y-30214463D01*
X125388385Y-30172435D01*
X125280405Y-30161800D01*
X125244300Y-30158244D01*
X125208195Y-30161800D01*
X120879296Y-30161800D01*
X120843199Y-30158245D01*
X120807102Y-30161800D01*
X120807095Y-30161800D01*
X120713332Y-30171035D01*
X120699114Y-30172435D01*
X120657086Y-30185184D01*
X120560567Y-30214463D01*
X120432880Y-30282713D01*
X120320962Y-30374562D01*
X120297946Y-30402607D01*
X120070854Y-30629699D01*
X119896411Y-30595000D01*
X119623589Y-30595000D01*
X119356011Y-30648225D01*
X119103957Y-30752629D01*
X118877114Y-30904201D01*
X118684201Y-31097114D01*
X118532629Y-31323957D01*
X118490000Y-31426873D01*
X118447371Y-31323957D01*
X118295799Y-31097114D01*
X118102886Y-30904201D01*
X117876043Y-30752629D01*
X117623989Y-30648225D01*
X117356411Y-30595000D01*
X117083589Y-30595000D01*
X116816011Y-30648225D01*
X116563957Y-30752629D01*
X116337114Y-30904201D01*
X116144201Y-31097114D01*
X115992629Y-31323957D01*
X115950000Y-31426873D01*
X115907371Y-31323957D01*
X115755799Y-31097114D01*
X115562886Y-30904201D01*
X115336043Y-30752629D01*
X115083989Y-30648225D01*
X114816411Y-30595000D01*
X114543589Y-30595000D01*
X114276011Y-30648225D01*
X114023957Y-30752629D01*
X113797114Y-30904201D01*
X113604201Y-31097114D01*
X113452629Y-31323957D01*
X113348225Y-31576011D01*
X113295000Y-31843589D01*
X113295000Y-32116411D01*
X113329699Y-32290854D01*
X108343808Y-37276746D01*
X108315763Y-37299762D01*
X108223914Y-37411680D01*
X108197290Y-37461491D01*
X108155664Y-37539367D01*
X108113635Y-37677915D01*
X108099444Y-37822000D01*
X108103001Y-37858115D01*
X108103000Y-45119375D01*
X108013518Y-45128188D01*
X107893820Y-45164498D01*
X107783506Y-45223463D01*
X107686815Y-45302815D01*
X107607463Y-45399506D01*
X107548498Y-45509820D01*
X107512188Y-45629518D01*
X107499928Y-45754000D01*
X107499928Y-46749076D01*
X107399662Y-46831362D01*
X107376647Y-46859406D01*
X106301508Y-47934546D01*
X106273463Y-47957562D01*
X106181614Y-48069480D01*
X106155736Y-48117895D01*
X106113364Y-48197167D01*
X106071335Y-48335715D01*
X106057144Y-48479800D01*
X101710000Y-48479800D01*
X101710000Y-28034721D01*
X101737907Y-27750101D01*
X101810484Y-27509715D01*
X101928368Y-27288009D01*
X102087068Y-27093423D01*
X102280545Y-26933365D01*
X102501424Y-26813936D01*
X102741297Y-26739683D01*
X103023716Y-26710000D01*
X138965279Y-26710000D01*
X139249899Y-26737907D01*
%TA.AperFunction,Conductor*%
D28*
G36*
X139249899Y-26737907D02*
G01*
X139490285Y-26810484D01*
X139711991Y-26928368D01*
X139906577Y-27087068D01*
X140066635Y-27280545D01*
X140186064Y-27501424D01*
X140260317Y-27741297D01*
X140290000Y-28023716D01*
X140290001Y-88965269D01*
X140262093Y-89249899D01*
X140189517Y-89490282D01*
X140071633Y-89711989D01*
X139912929Y-89906580D01*
X139719455Y-90066635D01*
X139498576Y-90186064D01*
X139258701Y-90260317D01*
X138976291Y-90290000D01*
X103034721Y-90290000D01*
X102750101Y-90262093D01*
X102509718Y-90189517D01*
X102288011Y-90071633D01*
X102093420Y-89912929D01*
X101933365Y-89719455D01*
X101813936Y-89498576D01*
X101739683Y-89258701D01*
X101710000Y-88976291D01*
X101710000Y-87844353D01*
X110236000Y-87844353D01*
X110236000Y-88151647D01*
X110295950Y-88453035D01*
X110413546Y-88736937D01*
X110584269Y-88992442D01*
X110801558Y-89209731D01*
X111057063Y-89380454D01*
X111340965Y-89498050D01*
X111642353Y-89558000D01*
X111949647Y-89558000D01*
X112251035Y-89498050D01*
X112534937Y-89380454D01*
X112790442Y-89209731D01*
X112920256Y-89079917D01*
X115393688Y-89079917D01*
X115480393Y-89336653D01*
X115757223Y-89470048D01*
X116054757Y-89546873D01*
X116361562Y-89564176D01*
X116665848Y-89521292D01*
X116955921Y-89419868D01*
X117111607Y-89336653D01*
X117198312Y-89079917D01*
X116296000Y-88177605D01*
X115393688Y-89079917D01*
X112920256Y-89079917D01*
X113007731Y-88992442D01*
X113178454Y-88736937D01*
X113296050Y-88453035D01*
X113356000Y-88151647D01*
X113356000Y-88063562D01*
X114729824Y-88063562D01*
X114772708Y-88367848D01*
X114874132Y-88657921D01*
X114957347Y-88813607D01*
X115214083Y-88900312D01*
X116116395Y-87998000D01*
X116475605Y-87998000D01*
X117377917Y-88900312D01*
X117634653Y-88813607D01*
X117768048Y-88536777D01*
X117844873Y-88239243D01*
X117862176Y-87932438D01*
X117819292Y-87628152D01*
X117717868Y-87338079D01*
X117634653Y-87182393D01*
X117377917Y-87095688D01*
X116475605Y-87998000D01*
X116116395Y-87998000D01*
X115214083Y-87095688D01*
X114957347Y-87182393D01*
X114823952Y-87459223D01*
X114747127Y-87756757D01*
X114729824Y-88063562D01*
X113356000Y-88063562D01*
X113356000Y-87844353D01*
X113296050Y-87542965D01*
X113178454Y-87259063D01*
X113007731Y-87003558D01*
X112920256Y-86916083D01*
X115393688Y-86916083D01*
X116296000Y-87818395D01*
X117198312Y-86916083D01*
X117111607Y-86659347D01*
X116834777Y-86525952D01*
X116537243Y-86449127D01*
X116230438Y-86431824D01*
X115926152Y-86474708D01*
X115636079Y-86576132D01*
X115480393Y-86659347D01*
X115393688Y-86916083D01*
X112920256Y-86916083D01*
X112790442Y-86786269D01*
X112534937Y-86615546D01*
X112251035Y-86497950D01*
X111949647Y-86438000D01*
X111642353Y-86438000D01*
X111340965Y-86497950D01*
X111057063Y-86615546D01*
X110801558Y-86786269D01*
X110584269Y-87003558D01*
X110413546Y-87259063D01*
X110295950Y-87542965D01*
X110236000Y-87844353D01*
X101710000Y-87844353D01*
X101710000Y-48479800D01*
X106057144Y-48479800D01*
X106060701Y-48515915D01*
X106060700Y-72250695D01*
X106057144Y-72286800D01*
X106071335Y-72430885D01*
X106072967Y-72436264D01*
X106113363Y-72569432D01*
X106181613Y-72697119D01*
X106273462Y-72809037D01*
X106301508Y-72832054D01*
X111525946Y-78056493D01*
X111548962Y-78084538D01*
X111577006Y-78107553D01*
X111660880Y-78176387D01*
X111702301Y-78198527D01*
X111649374Y-78326302D01*
X111609600Y-78526261D01*
X111609600Y-78730139D01*
X111649374Y-78930098D01*
X111727395Y-79118456D01*
X111840663Y-79287974D01*
X111984826Y-79432137D01*
X112154344Y-79545405D01*
X112342702Y-79623426D01*
X112542661Y-79663200D01*
X112746539Y-79663200D01*
X112946498Y-79623426D01*
X113134856Y-79545405D01*
X113304374Y-79432137D01*
X113373311Y-79363200D01*
X122136795Y-79363200D01*
X122172900Y-79366756D01*
X122209005Y-79363200D01*
X122316985Y-79352565D01*
X122455533Y-79310537D01*
X122583220Y-79242287D01*
X122695138Y-79150438D01*
X122718159Y-79122387D01*
X125638920Y-76201627D01*
X125653546Y-76236937D01*
X125824269Y-76492442D01*
X126041558Y-76709731D01*
X126297063Y-76880454D01*
X126301000Y-76882085D01*
X126301001Y-86613915D01*
X126297063Y-86615546D01*
X126041558Y-86786269D01*
X125824269Y-87003558D01*
X125653546Y-87259063D01*
X125535950Y-87542965D01*
X125476000Y-87844353D01*
X125476000Y-88151647D01*
X125535950Y-88453035D01*
X125653546Y-88736937D01*
X125824269Y-88992442D01*
X126041558Y-89209731D01*
X126297063Y-89380454D01*
X126580965Y-89498050D01*
X126882353Y-89558000D01*
X127189647Y-89558000D01*
X127491035Y-89498050D01*
X127774937Y-89380454D01*
X128030442Y-89209731D01*
X128160256Y-89079917D01*
X130633688Y-89079917D01*
X130720393Y-89336653D01*
X130997223Y-89470048D01*
X131294757Y-89546873D01*
X131601562Y-89564176D01*
X131905848Y-89521292D01*
X132195921Y-89419868D01*
X132351607Y-89336653D01*
X132438312Y-89079917D01*
X131536000Y-88177605D01*
X130633688Y-89079917D01*
X128160256Y-89079917D01*
X128247731Y-88992442D01*
X128418454Y-88736937D01*
X128536050Y-88453035D01*
X128596000Y-88151647D01*
X128596000Y-88063562D01*
X129969824Y-88063562D01*
X130012708Y-88367848D01*
X130114132Y-88657921D01*
X130197347Y-88813607D01*
X130454083Y-88900312D01*
X131356395Y-87998000D01*
X131715605Y-87998000D01*
X132617917Y-88900312D01*
X132874653Y-88813607D01*
X133008048Y-88536777D01*
X133084873Y-88239243D01*
X133102176Y-87932438D01*
X133059292Y-87628152D01*
X132957868Y-87338079D01*
X132874653Y-87182393D01*
X132617917Y-87095688D01*
X131715605Y-87998000D01*
X131356395Y-87998000D01*
X130454083Y-87095688D01*
X130197347Y-87182393D01*
X130063952Y-87459223D01*
X129987127Y-87756757D01*
X129969824Y-88063562D01*
X128596000Y-88063562D01*
X128596000Y-87844353D01*
X128536050Y-87542965D01*
X128418454Y-87259063D01*
X128247731Y-87003558D01*
X128160256Y-86916083D01*
X130633688Y-86916083D01*
X131536000Y-87818395D01*
X132438312Y-86916083D01*
X132351607Y-86659347D01*
X132074777Y-86525952D01*
X131777243Y-86449127D01*
X131470438Y-86431824D01*
X131166152Y-86474708D01*
X130876079Y-86576132D01*
X130720393Y-86659347D01*
X130633688Y-86916083D01*
X128160256Y-86916083D01*
X128030442Y-86786269D01*
X127774937Y-86615546D01*
X127771000Y-86613915D01*
X127771000Y-76882085D01*
X127774937Y-76880454D01*
X128030442Y-76709731D01*
X128160256Y-76579917D01*
X130633688Y-76579917D01*
X130720393Y-76836653D01*
X130997223Y-76970048D01*
X131294757Y-77046873D01*
X131601562Y-77064176D01*
X131905848Y-77021292D01*
X132195921Y-76919868D01*
X132351607Y-76836653D01*
X132438312Y-76579917D01*
X131536000Y-75677605D01*
X130633688Y-76579917D01*
X128160256Y-76579917D01*
X128247731Y-76492442D01*
X128418454Y-76236937D01*
X128536050Y-75953035D01*
X128596000Y-75651647D01*
X128596000Y-75563562D01*
X129969824Y-75563562D01*
X130012708Y-75867848D01*
X130114132Y-76157921D01*
X130197347Y-76313607D01*
X130454083Y-76400312D01*
X131356395Y-75498000D01*
X131715605Y-75498000D01*
X132617917Y-76400312D01*
X132874653Y-76313607D01*
X133008048Y-76036777D01*
X133084873Y-75739243D01*
X133102176Y-75432438D01*
X133059292Y-75128152D01*
X132957868Y-74838079D01*
X132874653Y-74682393D01*
X132617917Y-74595688D01*
X131715605Y-75498000D01*
X131356395Y-75498000D01*
X130454083Y-74595688D01*
X130197347Y-74682393D01*
X130063952Y-74959223D01*
X129987127Y-75256757D01*
X129969824Y-75563562D01*
X128596000Y-75563562D01*
X128596000Y-75344353D01*
X128536050Y-75042965D01*
X128418454Y-74759063D01*
X128247731Y-74503558D01*
X128160256Y-74416083D01*
X130633688Y-74416083D01*
X131536000Y-75318395D01*
X132438312Y-74416083D01*
X132351607Y-74159347D01*
X132074777Y-74025952D01*
X131777243Y-73949127D01*
X131470438Y-73931824D01*
X131166152Y-73974708D01*
X130876079Y-74076132D01*
X130720393Y-74159347D01*
X130633688Y-74416083D01*
X128160256Y-74416083D01*
X128030442Y-74286269D01*
X127774937Y-74115546D01*
X127739627Y-74100920D01*
X127986947Y-73853600D01*
X131062595Y-73853600D01*
X131098700Y-73857156D01*
X131134805Y-73853600D01*
X131242785Y-73842965D01*
X131381333Y-73800937D01*
X131509020Y-73732687D01*
X131620938Y-73640838D01*
X131643959Y-73612787D01*
X134176000Y-71080747D01*
X134176000Y-71101639D01*
X134215774Y-71301598D01*
X134293795Y-71489956D01*
X134407063Y-71659474D01*
X134551226Y-71803637D01*
X134720744Y-71916905D01*
X134909102Y-71994926D01*
X135109061Y-72034700D01*
X135312939Y-72034700D01*
X135512898Y-71994926D01*
X135701256Y-71916905D01*
X135870774Y-71803637D01*
X136014937Y-71659474D01*
X136128205Y-71489956D01*
X136206226Y-71301598D01*
X136246000Y-71101639D01*
X136246000Y-70897761D01*
X136206226Y-70697802D01*
X136177587Y-70628663D01*
X136254000Y-70552250D01*
X136254000Y-69278000D01*
X136508000Y-69278000D01*
X136508000Y-70552250D01*
X136666750Y-70711000D01*
X136706000Y-70714072D01*
X136830482Y-70701812D01*
X136950180Y-70665502D01*
X137060494Y-70606537D01*
X137157185Y-70527185D01*
X137236537Y-70430494D01*
X137295502Y-70320180D01*
X137331812Y-70200482D01*
X137344072Y-70076000D01*
X137341000Y-69436750D01*
X137182250Y-69278000D01*
X136508000Y-69278000D01*
X136254000Y-69278000D01*
X136234000Y-69278000D01*
X136234000Y-69024000D01*
X136254000Y-69024000D01*
X136254000Y-67749750D01*
X136508000Y-67749750D01*
X136508000Y-69024000D01*
X137182250Y-69024000D01*
X137341000Y-68865250D01*
X137344072Y-68226000D01*
X137331812Y-68101518D01*
X137303832Y-68009280D01*
X137353815Y-68070185D01*
X137450506Y-68149537D01*
X137560820Y-68208502D01*
X137680518Y-68244812D01*
X137805000Y-68257072D01*
X138254250Y-68254000D01*
X138413000Y-68095250D01*
X138413000Y-67221000D01*
X138667000Y-67221000D01*
X138667000Y-68095250D01*
X138825750Y-68254000D01*
X139275000Y-68257072D01*
X139399482Y-68244812D01*
X139519180Y-68208502D01*
X139629494Y-68149537D01*
X139726185Y-68070185D01*
X139805537Y-67973494D01*
X139864502Y-67863180D01*
X139900812Y-67743482D01*
X139913072Y-67619000D01*
X139910000Y-67379750D01*
X139751250Y-67221000D01*
X138667000Y-67221000D01*
X138413000Y-67221000D01*
X137328750Y-67221000D01*
X137170000Y-67379750D01*
X137166928Y-67619000D01*
X137179188Y-67743482D01*
X137207168Y-67835720D01*
X137157185Y-67774815D01*
X137060494Y-67695463D01*
X136950180Y-67636498D01*
X136830482Y-67600188D01*
X136706000Y-67587928D01*
X136666750Y-67591000D01*
X136508000Y-67749750D01*
X136254000Y-67749750D01*
X136095250Y-67591000D01*
X136056000Y-67587928D01*
X135931518Y-67600188D01*
X135811820Y-67636498D01*
X135746000Y-67671680D01*
X135680180Y-67636498D01*
X135560482Y-67600188D01*
X135436000Y-67587928D01*
X134786000Y-67587928D01*
X134661518Y-67600188D01*
X134576000Y-67626130D01*
X134576000Y-67001646D01*
X136904547Y-64673100D01*
X137002039Y-64673100D01*
X137201998Y-64633326D01*
X137227228Y-64622875D01*
X137215498Y-64644820D01*
X137179188Y-64764518D01*
X137166928Y-64889000D01*
X137166928Y-65939000D01*
X137179188Y-66063482D01*
X137215498Y-66183180D01*
X137253353Y-66254000D01*
X137215498Y-66324820D01*
X137179188Y-66444518D01*
X137166928Y-66569000D01*
X137170000Y-66808250D01*
X137328750Y-66967000D01*
X138413000Y-66967000D01*
X138413000Y-66947000D01*
X138667000Y-66947000D01*
X138667000Y-66967000D01*
X139751250Y-66967000D01*
X139910000Y-66808250D01*
X139913072Y-66569000D01*
X139900812Y-66444518D01*
X139864502Y-66324820D01*
X139826647Y-66254000D01*
X139864502Y-66183180D01*
X139900812Y-66063482D01*
X139913072Y-65939000D01*
X139913072Y-64889000D01*
X139900812Y-64764518D01*
X139864502Y-64644820D01*
X139805537Y-64534506D01*
X139795343Y-64522085D01*
X139829502Y-64458180D01*
X139865812Y-64338482D01*
X139878072Y-64214000D01*
X139878072Y-63214000D01*
X139865812Y-63089518D01*
X139829502Y-62969820D01*
X139770537Y-62859506D01*
X139692158Y-62764000D01*
X139770537Y-62668494D01*
X139829502Y-62558180D01*
X139865812Y-62438482D01*
X139878072Y-62314000D01*
X139878072Y-61314000D01*
X139865812Y-61189518D01*
X139829502Y-61069820D01*
X139770537Y-60959506D01*
X139691185Y-60862815D01*
X139594494Y-60783463D01*
X139484180Y-60724498D01*
X139364482Y-60688188D01*
X139275000Y-60679375D01*
X139275000Y-60318105D01*
X139278556Y-60282000D01*
X139264365Y-60137915D01*
X139222337Y-59999367D01*
X139154087Y-59871680D01*
X139110117Y-59818103D01*
X139085253Y-59787806D01*
X139085250Y-59787803D01*
X139062237Y-59759762D01*
X139034197Y-59736750D01*
X137055658Y-57758212D01*
X137032638Y-57730162D01*
X136920720Y-57638313D01*
X136793033Y-57570063D01*
X136654485Y-57528035D01*
X136546505Y-57517400D01*
X136510400Y-57513844D01*
X136474295Y-57517400D01*
X136199711Y-57517400D01*
X136130774Y-57448463D01*
X135961256Y-57335195D01*
X135772898Y-57257174D01*
X135572939Y-57217400D01*
X135369061Y-57217400D01*
X135207500Y-57249536D01*
X135207500Y-54005605D01*
X135211056Y-53969500D01*
X135196865Y-53825415D01*
X135175789Y-53755937D01*
X135154837Y-53686867D01*
X135086587Y-53559180D01*
X134994738Y-53447262D01*
X134966693Y-53424246D01*
X134786196Y-53243750D01*
X134831494Y-53219537D01*
X134928185Y-53140185D01*
X135007537Y-53043494D01*
X135066502Y-52933180D01*
X135102812Y-52813482D01*
X135115072Y-52689000D01*
X135112000Y-52349750D01*
X134953250Y-52191000D01*
X134311600Y-52191000D01*
X134311600Y-51937000D01*
X134953250Y-51937000D01*
X135112000Y-51778250D01*
X135115072Y-51439000D01*
X135102812Y-51314518D01*
X135066502Y-51194820D01*
X135007537Y-51084506D01*
X134928185Y-50987815D01*
X134895698Y-50961154D01*
X134926337Y-50903833D01*
X134959531Y-50794407D01*
X134968365Y-50765286D01*
X134974543Y-50702556D01*
X134979000Y-50657305D01*
X134979000Y-50657298D01*
X134982555Y-50621201D01*
X134979000Y-50585104D01*
X134979000Y-38880105D01*
X134982556Y-38844000D01*
X134968365Y-38699915D01*
X134961337Y-38676747D01*
X134926337Y-38561367D01*
X134858087Y-38433680D01*
X134766238Y-38321762D01*
X134738193Y-38298746D01*
X128730301Y-32290855D01*
X128765000Y-32116411D01*
X128765000Y-31843589D01*
X128711775Y-31576011D01*
X128607371Y-31323957D01*
X128455799Y-31097114D01*
X128262886Y-30904201D01*
X128036043Y-30752629D01*
X127783989Y-30648225D01*
X127516411Y-30595000D01*
X127243589Y-30595000D01*
X126976011Y-30648225D01*
X126723957Y-30752629D01*
X126497114Y-30904201D01*
X126394131Y-31007184D01*
X125789558Y-30402612D01*
X125766538Y-30374562D01*
X125654620Y-30282713D01*
X125526933Y-30214463D01*
X125388385Y-30172435D01*
X125280405Y-30161800D01*
X125244300Y-30158244D01*
X125208195Y-30161800D01*
X120879296Y-30161800D01*
X120843199Y-30158245D01*
X120807102Y-30161800D01*
X120807095Y-30161800D01*
X120713332Y-30171035D01*
X120699114Y-30172435D01*
X120657086Y-30185184D01*
X120560567Y-30214463D01*
X120432880Y-30282713D01*
X120320962Y-30374562D01*
X120297946Y-30402607D01*
X120070854Y-30629699D01*
X119896411Y-30595000D01*
X119623589Y-30595000D01*
X119356011Y-30648225D01*
X119103957Y-30752629D01*
X118877114Y-30904201D01*
X118684201Y-31097114D01*
X118532629Y-31323957D01*
X118490000Y-31426873D01*
X118447371Y-31323957D01*
X118295799Y-31097114D01*
X118102886Y-30904201D01*
X117876043Y-30752629D01*
X117623989Y-30648225D01*
X117356411Y-30595000D01*
X117083589Y-30595000D01*
X116816011Y-30648225D01*
X116563957Y-30752629D01*
X116337114Y-30904201D01*
X116144201Y-31097114D01*
X115992629Y-31323957D01*
X115950000Y-31426873D01*
X115907371Y-31323957D01*
X115755799Y-31097114D01*
X115562886Y-30904201D01*
X115336043Y-30752629D01*
X115083989Y-30648225D01*
X114816411Y-30595000D01*
X114543589Y-30595000D01*
X114276011Y-30648225D01*
X114023957Y-30752629D01*
X113797114Y-30904201D01*
X113604201Y-31097114D01*
X113452629Y-31323957D01*
X113348225Y-31576011D01*
X113295000Y-31843589D01*
X113295000Y-32116411D01*
X113329699Y-32290854D01*
X108343808Y-37276746D01*
X108315763Y-37299762D01*
X108223914Y-37411680D01*
X108197290Y-37461491D01*
X108155664Y-37539367D01*
X108113635Y-37677915D01*
X108099444Y-37822000D01*
X108103001Y-37858115D01*
X108103000Y-45119375D01*
X108013518Y-45128188D01*
X107893820Y-45164498D01*
X107783506Y-45223463D01*
X107686815Y-45302815D01*
X107607463Y-45399506D01*
X107548498Y-45509820D01*
X107512188Y-45629518D01*
X107499928Y-45754000D01*
X107499928Y-46749076D01*
X107399662Y-46831362D01*
X107376647Y-46859406D01*
X106301508Y-47934546D01*
X106273463Y-47957562D01*
X106181614Y-48069480D01*
X106155736Y-48117895D01*
X106113364Y-48197167D01*
X106071335Y-48335715D01*
X106057144Y-48479800D01*
X101710000Y-48479800D01*
X101710000Y-28034721D01*
X101737907Y-27750101D01*
X101810484Y-27509715D01*
X101928368Y-27288009D01*
X102087068Y-27093423D01*
X102280545Y-26933365D01*
X102501424Y-26813936D01*
X102741297Y-26739683D01*
X103023716Y-26710000D01*
X138965279Y-26710000D01*
X139249899Y-26737907D01*
G37*
%TD.AperFunction*%
D27*
X121180246Y-67110793D02*
X121203262Y-67138838D01*
X121261944Y-67186997D01*
X121315180Y-67230687D01*
X121442866Y-67298937D01*
X121581415Y-67340965D01*
X121725500Y-67355156D01*
X121761605Y-67351600D01*
X122939000Y-67351600D01*
X122939000Y-67519000D01*
X122919000Y-67519000D01*
X122919000Y-68343250D01*
X123077750Y-68502000D01*
X123304200Y-68503679D01*
X123304200Y-69916095D01*
X123300644Y-69952200D01*
X123314835Y-70096285D01*
X123327584Y-70138313D01*
X123356863Y-70234832D01*
X123425113Y-70362519D01*
X123516962Y-70474437D01*
X123545008Y-70497454D01*
X123918141Y-70870587D01*
X123941162Y-70898638D01*
X124053080Y-70990487D01*
X124180767Y-71058737D01*
X124319315Y-71100765D01*
X124427295Y-71111400D01*
X124427304Y-71111400D01*
X124463399Y-71114955D01*
X124499494Y-71111400D01*
X124940653Y-71111400D01*
X120025354Y-76026700D01*
X117770650Y-76026700D01*
X117844873Y-75739243D01*
X117862176Y-75432438D01*
X117819292Y-75128152D01*
X117717868Y-74838079D01*
X117634653Y-74682393D01*
X117377917Y-74595688D01*
X116475605Y-75498000D01*
X116489748Y-75512143D01*
X116310143Y-75691748D01*
X116296000Y-75677605D01*
X116281858Y-75691748D01*
X116102253Y-75512143D01*
X116116395Y-75498000D01*
X116102253Y-75483858D01*
X116281858Y-75304253D01*
X116296000Y-75318395D01*
X117198312Y-74416083D01*
X117111607Y-74159347D01*
X116834777Y-74025952D01*
X116537243Y-73949127D01*
X116230438Y-73931824D01*
X115926152Y-73974708D01*
X115799300Y-74019062D01*
X115799300Y-68634946D01*
X117007928Y-67426318D01*
X117007928Y-68636000D01*
X117020188Y-68760482D01*
X117056498Y-68880180D01*
X117115463Y-68990494D01*
X117194815Y-69087185D01*
X117291506Y-69166537D01*
X117401820Y-69225502D01*
X117435000Y-69235567D01*
X117440454Y-69253547D01*
X117511026Y-69385576D01*
X117605999Y-69501301D01*
X117721724Y-69596274D01*
X117853753Y-69666846D01*
X117997014Y-69710303D01*
X118108667Y-69721300D01*
X118146000Y-69724977D01*
X118149801Y-69724603D01*
X119452957Y-71027758D01*
X119451871Y-71030380D01*
X119390000Y-71341429D01*
X119390000Y-71658571D01*
X119451871Y-71969620D01*
X119573237Y-72262621D01*
X119749431Y-72526315D01*
X119973685Y-72750569D01*
X120237379Y-72926763D01*
X120530380Y-73048129D01*
X120841429Y-73110000D01*
X121158571Y-73110000D01*
X121469620Y-73048129D01*
X121762621Y-72926763D01*
X122026315Y-72750569D01*
X122250569Y-72526315D01*
X122426763Y-72262621D01*
X122548129Y-71969620D01*
X122610000Y-71658571D01*
X122610000Y-71341429D01*
X122548129Y-71030380D01*
X122426763Y-70737379D01*
X122250569Y-70473685D01*
X122026315Y-70249431D01*
X121762621Y-70073237D01*
X121469620Y-69951871D01*
X121158571Y-69890000D01*
X120841429Y-69890000D01*
X120530380Y-69951871D01*
X120527758Y-69952957D01*
X119848873Y-69274072D01*
X120546000Y-69274072D01*
X120670482Y-69261812D01*
X120790180Y-69225502D01*
X120900494Y-69166537D01*
X120997185Y-69087185D01*
X121076537Y-68990494D01*
X121135502Y-68880180D01*
X121171812Y-68760482D01*
X121184072Y-68636000D01*
X121184072Y-67867000D01*
X121453928Y-67867000D01*
X121466188Y-67991482D01*
X121502498Y-68111180D01*
X121561463Y-68221494D01*
X121640815Y-68318185D01*
X121737506Y-68397537D01*
X121847820Y-68456502D01*
X121967518Y-68492812D01*
X122092000Y-68505072D01*
X122506250Y-68502000D01*
X122665000Y-68343250D01*
X122665000Y-67519000D01*
X121615750Y-67519000D01*
X121457000Y-67677750D01*
X121453928Y-67867000D01*
X121184072Y-67867000D01*
X121184072Y-67236000D01*
X121171812Y-67111518D01*
X121167824Y-67098371D01*
X121180246Y-67110793D01*
%TA.AperFunction,Conductor*%
D28*
G36*
X121180246Y-67110793D02*
G01*
X121203262Y-67138838D01*
X121261944Y-67186997D01*
X121315180Y-67230687D01*
X121442866Y-67298937D01*
X121581415Y-67340965D01*
X121725500Y-67355156D01*
X121761605Y-67351600D01*
X122939000Y-67351600D01*
X122939000Y-67519000D01*
X122919000Y-67519000D01*
X122919000Y-68343250D01*
X123077750Y-68502000D01*
X123304200Y-68503679D01*
X123304200Y-69916095D01*
X123300644Y-69952200D01*
X123314835Y-70096285D01*
X123327584Y-70138313D01*
X123356863Y-70234832D01*
X123425113Y-70362519D01*
X123516962Y-70474437D01*
X123545008Y-70497454D01*
X123918141Y-70870587D01*
X123941162Y-70898638D01*
X124053080Y-70990487D01*
X124180767Y-71058737D01*
X124319315Y-71100765D01*
X124427295Y-71111400D01*
X124427304Y-71111400D01*
X124463399Y-71114955D01*
X124499494Y-71111400D01*
X124940653Y-71111400D01*
X120025354Y-76026700D01*
X117770650Y-76026700D01*
X117844873Y-75739243D01*
X117862176Y-75432438D01*
X117819292Y-75128152D01*
X117717868Y-74838079D01*
X117634653Y-74682393D01*
X117377917Y-74595688D01*
X116475605Y-75498000D01*
X116489748Y-75512143D01*
X116310143Y-75691748D01*
X116296000Y-75677605D01*
X116281858Y-75691748D01*
X116102253Y-75512143D01*
X116116395Y-75498000D01*
X116102253Y-75483858D01*
X116281858Y-75304253D01*
X116296000Y-75318395D01*
X117198312Y-74416083D01*
X117111607Y-74159347D01*
X116834777Y-74025952D01*
X116537243Y-73949127D01*
X116230438Y-73931824D01*
X115926152Y-73974708D01*
X115799300Y-74019062D01*
X115799300Y-68634946D01*
X117007928Y-67426318D01*
X117007928Y-68636000D01*
X117020188Y-68760482D01*
X117056498Y-68880180D01*
X117115463Y-68990494D01*
X117194815Y-69087185D01*
X117291506Y-69166537D01*
X117401820Y-69225502D01*
X117435000Y-69235567D01*
X117440454Y-69253547D01*
X117511026Y-69385576D01*
X117605999Y-69501301D01*
X117721724Y-69596274D01*
X117853753Y-69666846D01*
X117997014Y-69710303D01*
X118108667Y-69721300D01*
X118146000Y-69724977D01*
X118149801Y-69724603D01*
X119452957Y-71027758D01*
X119451871Y-71030380D01*
X119390000Y-71341429D01*
X119390000Y-71658571D01*
X119451871Y-71969620D01*
X119573237Y-72262621D01*
X119749431Y-72526315D01*
X119973685Y-72750569D01*
X120237379Y-72926763D01*
X120530380Y-73048129D01*
X120841429Y-73110000D01*
X121158571Y-73110000D01*
X121469620Y-73048129D01*
X121762621Y-72926763D01*
X122026315Y-72750569D01*
X122250569Y-72526315D01*
X122426763Y-72262621D01*
X122548129Y-71969620D01*
X122610000Y-71658571D01*
X122610000Y-71341429D01*
X122548129Y-71030380D01*
X122426763Y-70737379D01*
X122250569Y-70473685D01*
X122026315Y-70249431D01*
X121762621Y-70073237D01*
X121469620Y-69951871D01*
X121158571Y-69890000D01*
X120841429Y-69890000D01*
X120530380Y-69951871D01*
X120527758Y-69952957D01*
X119848873Y-69274072D01*
X120546000Y-69274072D01*
X120670482Y-69261812D01*
X120790180Y-69225502D01*
X120900494Y-69166537D01*
X120997185Y-69087185D01*
X121076537Y-68990494D01*
X121135502Y-68880180D01*
X121171812Y-68760482D01*
X121184072Y-68636000D01*
X121184072Y-67867000D01*
X121453928Y-67867000D01*
X121466188Y-67991482D01*
X121502498Y-68111180D01*
X121561463Y-68221494D01*
X121640815Y-68318185D01*
X121737506Y-68397537D01*
X121847820Y-68456502D01*
X121967518Y-68492812D01*
X122092000Y-68505072D01*
X122506250Y-68502000D01*
X122665000Y-68343250D01*
X122665000Y-67519000D01*
X121615750Y-67519000D01*
X121457000Y-67677750D01*
X121453928Y-67867000D01*
X121184072Y-67867000D01*
X121184072Y-67236000D01*
X121171812Y-67111518D01*
X121167824Y-67098371D01*
X121180246Y-67110793D01*
G37*
%TD.AperFunction*%
D27*
X116951901Y-64095003D02*
X116975699Y-64124001D01*
X117004697Y-64147799D01*
X117091423Y-64218974D01*
X117191340Y-64272381D01*
X117210161Y-64282441D01*
X117215188Y-64333482D01*
X117251498Y-64453180D01*
X117310463Y-64563494D01*
X117389815Y-64660185D01*
X117486506Y-64739537D01*
X117570774Y-64784580D01*
X114570108Y-67785246D01*
X114542062Y-67808263D01*
X114450213Y-67920181D01*
X114381963Y-68047868D01*
X114362758Y-68111180D01*
X114339935Y-68186415D01*
X114325744Y-68330500D01*
X114329300Y-68366605D01*
X114329301Y-74839254D01*
X109662322Y-70172276D01*
X109705922Y-69985527D01*
X109000000Y-69279605D01*
X108985858Y-69293748D01*
X108806253Y-69114143D01*
X108820395Y-69100000D01*
X109179605Y-69100000D01*
X109885527Y-69805922D01*
X110114201Y-69752534D01*
X110220095Y-69522626D01*
X110279102Y-69276476D01*
X110288952Y-69023545D01*
X110249270Y-68773551D01*
X110161578Y-68536104D01*
X110114201Y-68447466D01*
X109885527Y-68394078D01*
X109179605Y-69100000D01*
X108820395Y-69100000D01*
X108806253Y-69085858D01*
X108985858Y-68906253D01*
X109000000Y-68920395D01*
X109705922Y-68214473D01*
X109652534Y-67985799D01*
X109422626Y-67879905D01*
X109176476Y-67820898D01*
X108923545Y-67811048D01*
X108673551Y-67850730D01*
X108436104Y-67938422D01*
X108347466Y-67985799D01*
X108305600Y-68165121D01*
X108305600Y-62581474D01*
X108391324Y-62638753D01*
X108625179Y-62735619D01*
X108873439Y-62785000D01*
X109126561Y-62785000D01*
X109374821Y-62735619D01*
X109608676Y-62638753D01*
X109819140Y-62498125D01*
X109998125Y-62319140D01*
X110037641Y-62260000D01*
X115116899Y-62260000D01*
X116951901Y-64095003D01*
%TA.AperFunction,Conductor*%
D28*
G36*
X116951901Y-64095003D02*
G01*
X116975699Y-64124001D01*
X117004697Y-64147799D01*
X117091423Y-64218974D01*
X117191340Y-64272381D01*
X117210161Y-64282441D01*
X117215188Y-64333482D01*
X117251498Y-64453180D01*
X117310463Y-64563494D01*
X117389815Y-64660185D01*
X117486506Y-64739537D01*
X117570774Y-64784580D01*
X114570108Y-67785246D01*
X114542062Y-67808263D01*
X114450213Y-67920181D01*
X114381963Y-68047868D01*
X114362758Y-68111180D01*
X114339935Y-68186415D01*
X114325744Y-68330500D01*
X114329300Y-68366605D01*
X114329301Y-74839254D01*
X109662322Y-70172276D01*
X109705922Y-69985527D01*
X109000000Y-69279605D01*
X108985858Y-69293748D01*
X108806253Y-69114143D01*
X108820395Y-69100000D01*
X109179605Y-69100000D01*
X109885527Y-69805922D01*
X110114201Y-69752534D01*
X110220095Y-69522626D01*
X110279102Y-69276476D01*
X110288952Y-69023545D01*
X110249270Y-68773551D01*
X110161578Y-68536104D01*
X110114201Y-68447466D01*
X109885527Y-68394078D01*
X109179605Y-69100000D01*
X108820395Y-69100000D01*
X108806253Y-69085858D01*
X108985858Y-68906253D01*
X109000000Y-68920395D01*
X109705922Y-68214473D01*
X109652534Y-67985799D01*
X109422626Y-67879905D01*
X109176476Y-67820898D01*
X108923545Y-67811048D01*
X108673551Y-67850730D01*
X108436104Y-67938422D01*
X108347466Y-67985799D01*
X108305600Y-68165121D01*
X108305600Y-62581474D01*
X108391324Y-62638753D01*
X108625179Y-62735619D01*
X108873439Y-62785000D01*
X109126561Y-62785000D01*
X109374821Y-62735619D01*
X109608676Y-62638753D01*
X109819140Y-62498125D01*
X109998125Y-62319140D01*
X110037641Y-62260000D01*
X115116899Y-62260000D01*
X116951901Y-64095003D01*
G37*
%TD.AperFunction*%
D27*
X119356011Y-43471775D02*
X119623589Y-43525000D01*
X119663454Y-43525000D01*
X123759203Y-47620750D01*
X123755928Y-47654000D01*
X123755928Y-48654000D01*
X123768188Y-48778482D01*
X123804498Y-48898180D01*
X123863463Y-49008494D01*
X123942815Y-49105185D01*
X124039506Y-49184537D01*
X124149820Y-49243502D01*
X124164883Y-49248071D01*
X124155928Y-49339000D01*
X124155928Y-50589000D01*
X124168188Y-50713482D01*
X124194714Y-50800928D01*
X123839000Y-50800928D01*
X123714518Y-50813188D01*
X123594820Y-50849498D01*
X123484506Y-50908463D01*
X123387815Y-50987815D01*
X123308463Y-51084506D01*
X123249498Y-51194820D01*
X123213188Y-51314518D01*
X123200928Y-51439000D01*
X123200928Y-52689000D01*
X123208114Y-52761961D01*
X123133820Y-52784498D01*
X123023506Y-52843463D01*
X122926815Y-52922815D01*
X122847463Y-53019506D01*
X122788498Y-53129820D01*
X122752188Y-53249518D01*
X122739928Y-53374000D01*
X122739928Y-54374000D01*
X122752188Y-54498482D01*
X122788498Y-54618180D01*
X122847463Y-54728494D01*
X122925842Y-54824000D01*
X122847463Y-54919506D01*
X122788498Y-55029820D01*
X122752188Y-55149518D01*
X122739928Y-55274000D01*
X122739928Y-56274000D01*
X122752188Y-56398482D01*
X122788498Y-56518180D01*
X122847463Y-56628494D01*
X122909169Y-56703684D01*
X121331408Y-58281446D01*
X121303363Y-58304462D01*
X121211514Y-58416380D01*
X121155323Y-58521506D01*
X121143264Y-58544067D01*
X121101235Y-58682615D01*
X121087044Y-58826700D01*
X121090601Y-58862815D01*
X121090600Y-62197595D01*
X121087044Y-62233700D01*
X121101235Y-62377784D01*
X121143263Y-62516332D01*
X121211513Y-62644019D01*
X121303362Y-62755937D01*
X121331408Y-62778954D01*
X121490037Y-62937583D01*
X121487928Y-62959000D01*
X121487928Y-63959000D01*
X121500188Y-64083482D01*
X121536498Y-64203180D01*
X121595463Y-64313494D01*
X121674815Y-64410185D01*
X121755827Y-64476670D01*
X121737506Y-64486463D01*
X121640815Y-64565815D01*
X121561463Y-64662506D01*
X121502498Y-64772820D01*
X121466188Y-64892518D01*
X121453928Y-65017000D01*
X121453928Y-65305581D01*
X120805046Y-64656699D01*
X120881537Y-64563494D01*
X120940502Y-64453180D01*
X120976812Y-64333482D01*
X120989072Y-64209000D01*
X120989072Y-62959000D01*
X120976812Y-62834518D01*
X120940502Y-62714820D01*
X120904396Y-62647272D01*
X120980537Y-62554494D01*
X121039502Y-62444180D01*
X121075812Y-62324482D01*
X121088072Y-62200000D01*
X121088072Y-60800000D01*
X121075812Y-60675518D01*
X121039502Y-60555820D01*
X120980537Y-60445506D01*
X120901185Y-60348815D01*
X120804494Y-60269463D01*
X120694180Y-60210498D01*
X120574482Y-60174188D01*
X120450000Y-60161928D01*
X119884600Y-60161928D01*
X119884600Y-59810005D01*
X119888156Y-59773900D01*
X119873965Y-59629815D01*
X119831937Y-59491266D01*
X119763687Y-59363580D01*
X119711561Y-59300065D01*
X119671838Y-59251662D01*
X119643793Y-59228646D01*
X117118830Y-56703684D01*
X117180537Y-56628494D01*
X117239502Y-56518180D01*
X117275812Y-56398482D01*
X117288072Y-56274000D01*
X117288072Y-55274000D01*
X117275812Y-55149518D01*
X117239502Y-55029820D01*
X117180537Y-54919506D01*
X117102158Y-54824000D01*
X117180537Y-54728494D01*
X117239502Y-54618180D01*
X117275812Y-54498482D01*
X117288072Y-54374000D01*
X117288072Y-53374000D01*
X117275812Y-53249518D01*
X117266758Y-53219672D01*
X117376820Y-53278502D01*
X117496518Y-53314812D01*
X117621000Y-53327072D01*
X117635250Y-53324000D01*
X117794000Y-53165250D01*
X117794000Y-52191000D01*
X118048000Y-52191000D01*
X118048000Y-53165250D01*
X118206750Y-53324000D01*
X118221000Y-53327072D01*
X118345482Y-53314812D01*
X118465180Y-53278502D01*
X118575494Y-53219537D01*
X118672185Y-53140185D01*
X118751537Y-53043494D01*
X118810502Y-52933180D01*
X118846812Y-52813482D01*
X118859072Y-52689000D01*
X118858426Y-52617584D01*
X120062021Y-52617584D01*
X120154766Y-52879429D01*
X120440120Y-53017820D01*
X120746990Y-53097883D01*
X121063584Y-53116540D01*
X121377733Y-53073074D01*
X121677367Y-52969156D01*
X121845234Y-52879429D01*
X121937979Y-52617584D01*
X121000000Y-51679605D01*
X120062021Y-52617584D01*
X118858426Y-52617584D01*
X118856000Y-52349750D01*
X118697250Y-52191000D01*
X118048000Y-52191000D01*
X117794000Y-52191000D01*
X117144750Y-52191000D01*
X116986000Y-52349750D01*
X116982928Y-52689000D01*
X116995188Y-52813482D01*
X117004242Y-52843328D01*
X116937392Y-52807596D01*
X116949072Y-52689000D01*
X116949072Y-51439000D01*
X116936812Y-51314518D01*
X116910286Y-51227072D01*
X117021714Y-51227072D01*
X116995188Y-51314518D01*
X116982928Y-51439000D01*
X116986000Y-51778250D01*
X117144750Y-51937000D01*
X117794000Y-51937000D01*
X117794000Y-50962750D01*
X118048000Y-50962750D01*
X118048000Y-51937000D01*
X118697250Y-51937000D01*
X118856000Y-51778250D01*
X118857943Y-51563584D01*
X119383460Y-51563584D01*
X119426926Y-51877733D01*
X119530844Y-52177367D01*
X119620571Y-52345234D01*
X119882416Y-52437979D01*
X120820395Y-51500000D01*
X121179605Y-51500000D01*
X122117584Y-52437979D01*
X122379429Y-52345234D01*
X122517820Y-52059880D01*
X122597883Y-51753010D01*
X122616540Y-51436416D01*
X122573074Y-51122267D01*
X122469156Y-50822633D01*
X122379429Y-50654766D01*
X122117584Y-50562021D01*
X121179605Y-51500000D01*
X120820395Y-51500000D01*
X119882416Y-50562021D01*
X119620571Y-50654766D01*
X119482180Y-50940120D01*
X119402117Y-51246990D01*
X119383460Y-51563584D01*
X118857943Y-51563584D01*
X118859072Y-51439000D01*
X118846812Y-51314518D01*
X118810502Y-51194820D01*
X118751537Y-51084506D01*
X118672185Y-50987815D01*
X118575494Y-50908463D01*
X118465180Y-50849498D01*
X118345482Y-50813188D01*
X118221000Y-50800928D01*
X118206750Y-50804000D01*
X118048000Y-50962750D01*
X117794000Y-50962750D01*
X117786714Y-50955464D01*
X117796537Y-50943494D01*
X117855502Y-50833180D01*
X117891812Y-50713482D01*
X117904072Y-50589000D01*
X117904072Y-50382416D01*
X120062021Y-50382416D01*
X121000000Y-51320395D01*
X121937979Y-50382416D01*
X121845234Y-50120571D01*
X121559880Y-49982180D01*
X121253010Y-49902117D01*
X120936416Y-49883460D01*
X120622267Y-49926926D01*
X120322633Y-50030844D01*
X120154766Y-50120571D01*
X120062021Y-50382416D01*
X117904072Y-50382416D01*
X117904072Y-49339000D01*
X117895117Y-49248071D01*
X117910180Y-49243502D01*
X118020494Y-49184537D01*
X118117185Y-49105185D01*
X118196537Y-49008494D01*
X118255502Y-48898180D01*
X118291812Y-48778482D01*
X118304072Y-48654000D01*
X118304072Y-47654000D01*
X118291812Y-47529518D01*
X118255502Y-47409820D01*
X118196537Y-47299506D01*
X118118158Y-47204000D01*
X118196537Y-47108494D01*
X118255502Y-46998180D01*
X118291812Y-46878482D01*
X118304072Y-46754000D01*
X118304072Y-45754000D01*
X118291812Y-45629518D01*
X118255502Y-45509820D01*
X118196537Y-45399506D01*
X118134830Y-45324316D01*
X118984197Y-44474950D01*
X119012237Y-44451938D01*
X119035250Y-44423897D01*
X119035253Y-44423894D01*
X119104086Y-44340021D01*
X119104087Y-44340020D01*
X119172337Y-44212333D01*
X119214365Y-44073785D01*
X119225000Y-43965805D01*
X119225000Y-43965796D01*
X119228555Y-43929701D01*
X119225000Y-43893606D01*
X119225000Y-43417509D01*
X119356011Y-43471775D01*
%TA.AperFunction,Conductor*%
D28*
G36*
X119356011Y-43471775D02*
G01*
X119623589Y-43525000D01*
X119663454Y-43525000D01*
X123759203Y-47620750D01*
X123755928Y-47654000D01*
X123755928Y-48654000D01*
X123768188Y-48778482D01*
X123804498Y-48898180D01*
X123863463Y-49008494D01*
X123942815Y-49105185D01*
X124039506Y-49184537D01*
X124149820Y-49243502D01*
X124164883Y-49248071D01*
X124155928Y-49339000D01*
X124155928Y-50589000D01*
X124168188Y-50713482D01*
X124194714Y-50800928D01*
X123839000Y-50800928D01*
X123714518Y-50813188D01*
X123594820Y-50849498D01*
X123484506Y-50908463D01*
X123387815Y-50987815D01*
X123308463Y-51084506D01*
X123249498Y-51194820D01*
X123213188Y-51314518D01*
X123200928Y-51439000D01*
X123200928Y-52689000D01*
X123208114Y-52761961D01*
X123133820Y-52784498D01*
X123023506Y-52843463D01*
X122926815Y-52922815D01*
X122847463Y-53019506D01*
X122788498Y-53129820D01*
X122752188Y-53249518D01*
X122739928Y-53374000D01*
X122739928Y-54374000D01*
X122752188Y-54498482D01*
X122788498Y-54618180D01*
X122847463Y-54728494D01*
X122925842Y-54824000D01*
X122847463Y-54919506D01*
X122788498Y-55029820D01*
X122752188Y-55149518D01*
X122739928Y-55274000D01*
X122739928Y-56274000D01*
X122752188Y-56398482D01*
X122788498Y-56518180D01*
X122847463Y-56628494D01*
X122909169Y-56703684D01*
X121331408Y-58281446D01*
X121303363Y-58304462D01*
X121211514Y-58416380D01*
X121155323Y-58521506D01*
X121143264Y-58544067D01*
X121101235Y-58682615D01*
X121087044Y-58826700D01*
X121090601Y-58862815D01*
X121090600Y-62197595D01*
X121087044Y-62233700D01*
X121101235Y-62377784D01*
X121143263Y-62516332D01*
X121211513Y-62644019D01*
X121303362Y-62755937D01*
X121331408Y-62778954D01*
X121490037Y-62937583D01*
X121487928Y-62959000D01*
X121487928Y-63959000D01*
X121500188Y-64083482D01*
X121536498Y-64203180D01*
X121595463Y-64313494D01*
X121674815Y-64410185D01*
X121755827Y-64476670D01*
X121737506Y-64486463D01*
X121640815Y-64565815D01*
X121561463Y-64662506D01*
X121502498Y-64772820D01*
X121466188Y-64892518D01*
X121453928Y-65017000D01*
X121453928Y-65305581D01*
X120805046Y-64656699D01*
X120881537Y-64563494D01*
X120940502Y-64453180D01*
X120976812Y-64333482D01*
X120989072Y-64209000D01*
X120989072Y-62959000D01*
X120976812Y-62834518D01*
X120940502Y-62714820D01*
X120904396Y-62647272D01*
X120980537Y-62554494D01*
X121039502Y-62444180D01*
X121075812Y-62324482D01*
X121088072Y-62200000D01*
X121088072Y-60800000D01*
X121075812Y-60675518D01*
X121039502Y-60555820D01*
X120980537Y-60445506D01*
X120901185Y-60348815D01*
X120804494Y-60269463D01*
X120694180Y-60210498D01*
X120574482Y-60174188D01*
X120450000Y-60161928D01*
X119884600Y-60161928D01*
X119884600Y-59810005D01*
X119888156Y-59773900D01*
X119873965Y-59629815D01*
X119831937Y-59491266D01*
X119763687Y-59363580D01*
X119711561Y-59300065D01*
X119671838Y-59251662D01*
X119643793Y-59228646D01*
X117118830Y-56703684D01*
X117180537Y-56628494D01*
X117239502Y-56518180D01*
X117275812Y-56398482D01*
X117288072Y-56274000D01*
X117288072Y-55274000D01*
X117275812Y-55149518D01*
X117239502Y-55029820D01*
X117180537Y-54919506D01*
X117102158Y-54824000D01*
X117180537Y-54728494D01*
X117239502Y-54618180D01*
X117275812Y-54498482D01*
X117288072Y-54374000D01*
X117288072Y-53374000D01*
X117275812Y-53249518D01*
X117266758Y-53219672D01*
X117376820Y-53278502D01*
X117496518Y-53314812D01*
X117621000Y-53327072D01*
X117635250Y-53324000D01*
X117794000Y-53165250D01*
X117794000Y-52191000D01*
X118048000Y-52191000D01*
X118048000Y-53165250D01*
X118206750Y-53324000D01*
X118221000Y-53327072D01*
X118345482Y-53314812D01*
X118465180Y-53278502D01*
X118575494Y-53219537D01*
X118672185Y-53140185D01*
X118751537Y-53043494D01*
X118810502Y-52933180D01*
X118846812Y-52813482D01*
X118859072Y-52689000D01*
X118858426Y-52617584D01*
X120062021Y-52617584D01*
X120154766Y-52879429D01*
X120440120Y-53017820D01*
X120746990Y-53097883D01*
X121063584Y-53116540D01*
X121377733Y-53073074D01*
X121677367Y-52969156D01*
X121845234Y-52879429D01*
X121937979Y-52617584D01*
X121000000Y-51679605D01*
X120062021Y-52617584D01*
X118858426Y-52617584D01*
X118856000Y-52349750D01*
X118697250Y-52191000D01*
X118048000Y-52191000D01*
X117794000Y-52191000D01*
X117144750Y-52191000D01*
X116986000Y-52349750D01*
X116982928Y-52689000D01*
X116995188Y-52813482D01*
X117004242Y-52843328D01*
X116937392Y-52807596D01*
X116949072Y-52689000D01*
X116949072Y-51439000D01*
X116936812Y-51314518D01*
X116910286Y-51227072D01*
X117021714Y-51227072D01*
X116995188Y-51314518D01*
X116982928Y-51439000D01*
X116986000Y-51778250D01*
X117144750Y-51937000D01*
X117794000Y-51937000D01*
X117794000Y-50962750D01*
X118048000Y-50962750D01*
X118048000Y-51937000D01*
X118697250Y-51937000D01*
X118856000Y-51778250D01*
X118857943Y-51563584D01*
X119383460Y-51563584D01*
X119426926Y-51877733D01*
X119530844Y-52177367D01*
X119620571Y-52345234D01*
X119882416Y-52437979D01*
X120820395Y-51500000D01*
X121179605Y-51500000D01*
X122117584Y-52437979D01*
X122379429Y-52345234D01*
X122517820Y-52059880D01*
X122597883Y-51753010D01*
X122616540Y-51436416D01*
X122573074Y-51122267D01*
X122469156Y-50822633D01*
X122379429Y-50654766D01*
X122117584Y-50562021D01*
X121179605Y-51500000D01*
X120820395Y-51500000D01*
X119882416Y-50562021D01*
X119620571Y-50654766D01*
X119482180Y-50940120D01*
X119402117Y-51246990D01*
X119383460Y-51563584D01*
X118857943Y-51563584D01*
X118859072Y-51439000D01*
X118846812Y-51314518D01*
X118810502Y-51194820D01*
X118751537Y-51084506D01*
X118672185Y-50987815D01*
X118575494Y-50908463D01*
X118465180Y-50849498D01*
X118345482Y-50813188D01*
X118221000Y-50800928D01*
X118206750Y-50804000D01*
X118048000Y-50962750D01*
X117794000Y-50962750D01*
X117786714Y-50955464D01*
X117796537Y-50943494D01*
X117855502Y-50833180D01*
X117891812Y-50713482D01*
X117904072Y-50589000D01*
X117904072Y-50382416D01*
X120062021Y-50382416D01*
X121000000Y-51320395D01*
X121937979Y-50382416D01*
X121845234Y-50120571D01*
X121559880Y-49982180D01*
X121253010Y-49902117D01*
X120936416Y-49883460D01*
X120622267Y-49926926D01*
X120322633Y-50030844D01*
X120154766Y-50120571D01*
X120062021Y-50382416D01*
X117904072Y-50382416D01*
X117904072Y-49339000D01*
X117895117Y-49248071D01*
X117910180Y-49243502D01*
X118020494Y-49184537D01*
X118117185Y-49105185D01*
X118196537Y-49008494D01*
X118255502Y-48898180D01*
X118291812Y-48778482D01*
X118304072Y-48654000D01*
X118304072Y-47654000D01*
X118291812Y-47529518D01*
X118255502Y-47409820D01*
X118196537Y-47299506D01*
X118118158Y-47204000D01*
X118196537Y-47108494D01*
X118255502Y-46998180D01*
X118291812Y-46878482D01*
X118304072Y-46754000D01*
X118304072Y-45754000D01*
X118291812Y-45629518D01*
X118255502Y-45509820D01*
X118196537Y-45399506D01*
X118134830Y-45324316D01*
X118984197Y-44474950D01*
X119012237Y-44451938D01*
X119035250Y-44423897D01*
X119035253Y-44423894D01*
X119104086Y-44340021D01*
X119104087Y-44340020D01*
X119172337Y-44212333D01*
X119214365Y-44073785D01*
X119225000Y-43965805D01*
X119225000Y-43965796D01*
X119228555Y-43929701D01*
X119225000Y-43893606D01*
X119225000Y-43417509D01*
X119356011Y-43471775D01*
G37*
%TD.AperFunction*%
D27*
X116144201Y-43022886D02*
X116337114Y-43215799D01*
X116563957Y-43367371D01*
X116816011Y-43471775D01*
X117083589Y-43525000D01*
X117356411Y-43525000D01*
X117623989Y-43471775D01*
X117755000Y-43417509D01*
X117755000Y-43625253D01*
X116471808Y-44908446D01*
X116443763Y-44931462D01*
X116351914Y-45043380D01*
X116313136Y-45115928D01*
X116266000Y-45115928D01*
X116141518Y-45128188D01*
X116021820Y-45164498D01*
X115911506Y-45223463D01*
X115814815Y-45302815D01*
X115735463Y-45399506D01*
X115676498Y-45509820D01*
X115640188Y-45629518D01*
X115627928Y-45754000D01*
X115627928Y-46754000D01*
X115640188Y-46878482D01*
X115676498Y-46998180D01*
X115735463Y-47108494D01*
X115813842Y-47204000D01*
X115735463Y-47299506D01*
X115676498Y-47409820D01*
X115640188Y-47529518D01*
X115627928Y-47654000D01*
X115627928Y-48654000D01*
X115640188Y-48778482D01*
X115676498Y-48898180D01*
X115735463Y-49008494D01*
X115814815Y-49105185D01*
X115911506Y-49184537D01*
X116021820Y-49243502D01*
X116036883Y-49248071D01*
X116027928Y-49339000D01*
X116027928Y-50589000D01*
X116040188Y-50713482D01*
X116066714Y-50800928D01*
X115711000Y-50800928D01*
X115586518Y-50813188D01*
X115466820Y-50849498D01*
X115356506Y-50908463D01*
X115259815Y-50987815D01*
X115180463Y-51084506D01*
X115121498Y-51194820D01*
X115085188Y-51314518D01*
X115072928Y-51439000D01*
X115072928Y-52689000D01*
X115080114Y-52761961D01*
X115005820Y-52784498D01*
X114895506Y-52843463D01*
X114798815Y-52922815D01*
X114719463Y-53019506D01*
X114660498Y-53129820D01*
X114624188Y-53249518D01*
X114611928Y-53374000D01*
X114611928Y-54374000D01*
X114624188Y-54498482D01*
X114660498Y-54618180D01*
X114719463Y-54728494D01*
X114797842Y-54824000D01*
X114719463Y-54919506D01*
X114660498Y-55029820D01*
X114624188Y-55149518D01*
X114611928Y-55274000D01*
X114611928Y-56274000D01*
X114624188Y-56398482D01*
X114660498Y-56518180D01*
X114719463Y-56628494D01*
X114798815Y-56725185D01*
X114895506Y-56804537D01*
X115005820Y-56863502D01*
X115125518Y-56899812D01*
X115250000Y-56912072D01*
X115297136Y-56912072D01*
X115335914Y-56984620D01*
X115427763Y-57096538D01*
X115455808Y-57119554D01*
X118414601Y-60078348D01*
X118414601Y-60161928D01*
X117550000Y-60161928D01*
X117425518Y-60174188D01*
X117305820Y-60210498D01*
X117195506Y-60269463D01*
X117098815Y-60348815D01*
X117019463Y-60445506D01*
X116960498Y-60555820D01*
X116924188Y-60675518D01*
X116911928Y-60800000D01*
X116911928Y-61905427D01*
X115995504Y-60989003D01*
X115971701Y-60959999D01*
X115855976Y-60865026D01*
X115723947Y-60794454D01*
X115580686Y-60750997D01*
X115469033Y-60740000D01*
X115469022Y-60740000D01*
X115431700Y-60736324D01*
X115394378Y-60740000D01*
X110037641Y-60740000D01*
X109998125Y-60680860D01*
X109819140Y-60501875D01*
X109608676Y-60361247D01*
X109374821Y-60264381D01*
X109126561Y-60215000D01*
X108873439Y-60215000D01*
X108625179Y-60264381D01*
X108391324Y-60361247D01*
X108305600Y-60418526D01*
X108305600Y-57130146D01*
X108316187Y-57119559D01*
X108344238Y-57096538D01*
X108436087Y-56984620D01*
X108474865Y-56912072D01*
X108522000Y-56912072D01*
X108646482Y-56899812D01*
X108766180Y-56863502D01*
X108876494Y-56804537D01*
X108973185Y-56725185D01*
X109052537Y-56628494D01*
X109111502Y-56518180D01*
X109147812Y-56398482D01*
X109160072Y-56274000D01*
X109160072Y-55274000D01*
X109147812Y-55149518D01*
X109111502Y-55029820D01*
X109052537Y-54919506D01*
X108974158Y-54824000D01*
X109052537Y-54728494D01*
X109111502Y-54618180D01*
X109147812Y-54498482D01*
X109160072Y-54374000D01*
X109160072Y-53374000D01*
X109147812Y-53249518D01*
X109138758Y-53219672D01*
X109248820Y-53278502D01*
X109368518Y-53314812D01*
X109493000Y-53327072D01*
X109507250Y-53324000D01*
X109666000Y-53165250D01*
X109666000Y-52191000D01*
X109920000Y-52191000D01*
X109920000Y-53165250D01*
X110078750Y-53324000D01*
X110093000Y-53327072D01*
X110217482Y-53314812D01*
X110337180Y-53278502D01*
X110447494Y-53219537D01*
X110544185Y-53140185D01*
X110623537Y-53043494D01*
X110682502Y-52933180D01*
X110718812Y-52813482D01*
X110731072Y-52689000D01*
X110728000Y-52349750D01*
X110569250Y-52191000D01*
X109920000Y-52191000D01*
X109666000Y-52191000D01*
X109016750Y-52191000D01*
X108858000Y-52349750D01*
X108854928Y-52689000D01*
X108867188Y-52813482D01*
X108876242Y-52843328D01*
X108809392Y-52807596D01*
X108821072Y-52689000D01*
X108821072Y-51439000D01*
X108808812Y-51314518D01*
X108782286Y-51227072D01*
X108893714Y-51227072D01*
X108867188Y-51314518D01*
X108854928Y-51439000D01*
X108858000Y-51778250D01*
X109016750Y-51937000D01*
X109666000Y-51937000D01*
X109666000Y-50962750D01*
X109920000Y-50962750D01*
X109920000Y-51937000D01*
X110569250Y-51937000D01*
X110728000Y-51778250D01*
X110731072Y-51439000D01*
X110718812Y-51314518D01*
X110682502Y-51194820D01*
X110623537Y-51084506D01*
X110544185Y-50987815D01*
X110447494Y-50908463D01*
X110337180Y-50849498D01*
X110217482Y-50813188D01*
X110093000Y-50800928D01*
X110078750Y-50804000D01*
X109920000Y-50962750D01*
X109666000Y-50962750D01*
X109658714Y-50955464D01*
X109668537Y-50943494D01*
X109727502Y-50833180D01*
X109763812Y-50713482D01*
X109776072Y-50589000D01*
X109776072Y-49339000D01*
X109767117Y-49248071D01*
X109782180Y-49243502D01*
X109892494Y-49184537D01*
X109989185Y-49105185D01*
X110068537Y-49008494D01*
X110127502Y-48898180D01*
X110163812Y-48778482D01*
X110176072Y-48654000D01*
X110176072Y-47654000D01*
X110173963Y-47632583D01*
X113694897Y-44111650D01*
X113722937Y-44088638D01*
X113745950Y-44060597D01*
X113745953Y-44060594D01*
X113814787Y-43976720D01*
X113883037Y-43849034D01*
X113925065Y-43710485D01*
X113939256Y-43566400D01*
X113935700Y-43530295D01*
X113935700Y-43528072D01*
X115430000Y-43528072D01*
X115554482Y-43515812D01*
X115674180Y-43479502D01*
X115784494Y-43420537D01*
X115881185Y-43341185D01*
X115960537Y-43244494D01*
X116019502Y-43134180D01*
X116055812Y-43014482D01*
X116066445Y-42906517D01*
X116144201Y-43022886D01*
%TA.AperFunction,Conductor*%
D28*
G36*
X116144201Y-43022886D02*
G01*
X116337114Y-43215799D01*
X116563957Y-43367371D01*
X116816011Y-43471775D01*
X117083589Y-43525000D01*
X117356411Y-43525000D01*
X117623989Y-43471775D01*
X117755000Y-43417509D01*
X117755000Y-43625253D01*
X116471808Y-44908446D01*
X116443763Y-44931462D01*
X116351914Y-45043380D01*
X116313136Y-45115928D01*
X116266000Y-45115928D01*
X116141518Y-45128188D01*
X116021820Y-45164498D01*
X115911506Y-45223463D01*
X115814815Y-45302815D01*
X115735463Y-45399506D01*
X115676498Y-45509820D01*
X115640188Y-45629518D01*
X115627928Y-45754000D01*
X115627928Y-46754000D01*
X115640188Y-46878482D01*
X115676498Y-46998180D01*
X115735463Y-47108494D01*
X115813842Y-47204000D01*
X115735463Y-47299506D01*
X115676498Y-47409820D01*
X115640188Y-47529518D01*
X115627928Y-47654000D01*
X115627928Y-48654000D01*
X115640188Y-48778482D01*
X115676498Y-48898180D01*
X115735463Y-49008494D01*
X115814815Y-49105185D01*
X115911506Y-49184537D01*
X116021820Y-49243502D01*
X116036883Y-49248071D01*
X116027928Y-49339000D01*
X116027928Y-50589000D01*
X116040188Y-50713482D01*
X116066714Y-50800928D01*
X115711000Y-50800928D01*
X115586518Y-50813188D01*
X115466820Y-50849498D01*
X115356506Y-50908463D01*
X115259815Y-50987815D01*
X115180463Y-51084506D01*
X115121498Y-51194820D01*
X115085188Y-51314518D01*
X115072928Y-51439000D01*
X115072928Y-52689000D01*
X115080114Y-52761961D01*
X115005820Y-52784498D01*
X114895506Y-52843463D01*
X114798815Y-52922815D01*
X114719463Y-53019506D01*
X114660498Y-53129820D01*
X114624188Y-53249518D01*
X114611928Y-53374000D01*
X114611928Y-54374000D01*
X114624188Y-54498482D01*
X114660498Y-54618180D01*
X114719463Y-54728494D01*
X114797842Y-54824000D01*
X114719463Y-54919506D01*
X114660498Y-55029820D01*
X114624188Y-55149518D01*
X114611928Y-55274000D01*
X114611928Y-56274000D01*
X114624188Y-56398482D01*
X114660498Y-56518180D01*
X114719463Y-56628494D01*
X114798815Y-56725185D01*
X114895506Y-56804537D01*
X115005820Y-56863502D01*
X115125518Y-56899812D01*
X115250000Y-56912072D01*
X115297136Y-56912072D01*
X115335914Y-56984620D01*
X115427763Y-57096538D01*
X115455808Y-57119554D01*
X118414601Y-60078348D01*
X118414601Y-60161928D01*
X117550000Y-60161928D01*
X117425518Y-60174188D01*
X117305820Y-60210498D01*
X117195506Y-60269463D01*
X117098815Y-60348815D01*
X117019463Y-60445506D01*
X116960498Y-60555820D01*
X116924188Y-60675518D01*
X116911928Y-60800000D01*
X116911928Y-61905427D01*
X115995504Y-60989003D01*
X115971701Y-60959999D01*
X115855976Y-60865026D01*
X115723947Y-60794454D01*
X115580686Y-60750997D01*
X115469033Y-60740000D01*
X115469022Y-60740000D01*
X115431700Y-60736324D01*
X115394378Y-60740000D01*
X110037641Y-60740000D01*
X109998125Y-60680860D01*
X109819140Y-60501875D01*
X109608676Y-60361247D01*
X109374821Y-60264381D01*
X109126561Y-60215000D01*
X108873439Y-60215000D01*
X108625179Y-60264381D01*
X108391324Y-60361247D01*
X108305600Y-60418526D01*
X108305600Y-57130146D01*
X108316187Y-57119559D01*
X108344238Y-57096538D01*
X108436087Y-56984620D01*
X108474865Y-56912072D01*
X108522000Y-56912072D01*
X108646482Y-56899812D01*
X108766180Y-56863502D01*
X108876494Y-56804537D01*
X108973185Y-56725185D01*
X109052537Y-56628494D01*
X109111502Y-56518180D01*
X109147812Y-56398482D01*
X109160072Y-56274000D01*
X109160072Y-55274000D01*
X109147812Y-55149518D01*
X109111502Y-55029820D01*
X109052537Y-54919506D01*
X108974158Y-54824000D01*
X109052537Y-54728494D01*
X109111502Y-54618180D01*
X109147812Y-54498482D01*
X109160072Y-54374000D01*
X109160072Y-53374000D01*
X109147812Y-53249518D01*
X109138758Y-53219672D01*
X109248820Y-53278502D01*
X109368518Y-53314812D01*
X109493000Y-53327072D01*
X109507250Y-53324000D01*
X109666000Y-53165250D01*
X109666000Y-52191000D01*
X109920000Y-52191000D01*
X109920000Y-53165250D01*
X110078750Y-53324000D01*
X110093000Y-53327072D01*
X110217482Y-53314812D01*
X110337180Y-53278502D01*
X110447494Y-53219537D01*
X110544185Y-53140185D01*
X110623537Y-53043494D01*
X110682502Y-52933180D01*
X110718812Y-52813482D01*
X110731072Y-52689000D01*
X110728000Y-52349750D01*
X110569250Y-52191000D01*
X109920000Y-52191000D01*
X109666000Y-52191000D01*
X109016750Y-52191000D01*
X108858000Y-52349750D01*
X108854928Y-52689000D01*
X108867188Y-52813482D01*
X108876242Y-52843328D01*
X108809392Y-52807596D01*
X108821072Y-52689000D01*
X108821072Y-51439000D01*
X108808812Y-51314518D01*
X108782286Y-51227072D01*
X108893714Y-51227072D01*
X108867188Y-51314518D01*
X108854928Y-51439000D01*
X108858000Y-51778250D01*
X109016750Y-51937000D01*
X109666000Y-51937000D01*
X109666000Y-50962750D01*
X109920000Y-50962750D01*
X109920000Y-51937000D01*
X110569250Y-51937000D01*
X110728000Y-51778250D01*
X110731072Y-51439000D01*
X110718812Y-51314518D01*
X110682502Y-51194820D01*
X110623537Y-51084506D01*
X110544185Y-50987815D01*
X110447494Y-50908463D01*
X110337180Y-50849498D01*
X110217482Y-50813188D01*
X110093000Y-50800928D01*
X110078750Y-50804000D01*
X109920000Y-50962750D01*
X109666000Y-50962750D01*
X109658714Y-50955464D01*
X109668537Y-50943494D01*
X109727502Y-50833180D01*
X109763812Y-50713482D01*
X109776072Y-50589000D01*
X109776072Y-49339000D01*
X109767117Y-49248071D01*
X109782180Y-49243502D01*
X109892494Y-49184537D01*
X109989185Y-49105185D01*
X110068537Y-49008494D01*
X110127502Y-48898180D01*
X110163812Y-48778482D01*
X110176072Y-48654000D01*
X110176072Y-47654000D01*
X110173963Y-47632583D01*
X113694897Y-44111650D01*
X113722937Y-44088638D01*
X113745950Y-44060597D01*
X113745953Y-44060594D01*
X113814787Y-43976720D01*
X113883037Y-43849034D01*
X113925065Y-43710485D01*
X113939256Y-43566400D01*
X113935700Y-43530295D01*
X113935700Y-43528072D01*
X115430000Y-43528072D01*
X115554482Y-43515812D01*
X115674180Y-43479502D01*
X115784494Y-43420537D01*
X115881185Y-43341185D01*
X115960537Y-43244494D01*
X116019502Y-43134180D01*
X116055812Y-43014482D01*
X116066445Y-42906517D01*
X116144201Y-43022886D01*
G37*
%TD.AperFunction*%
D27*
X125123188Y-51314518D02*
X125110928Y-51439000D01*
X125114000Y-51778250D01*
X125272750Y-51937000D01*
X125914401Y-51937000D01*
X125914401Y-52191000D01*
X125272750Y-52191000D01*
X125114000Y-52349750D01*
X125110928Y-52689000D01*
X125123188Y-52813482D01*
X125132242Y-52843328D01*
X125065392Y-52807596D01*
X125077072Y-52689000D01*
X125077072Y-51439000D01*
X125064812Y-51314518D01*
X125038286Y-51227072D01*
X125149714Y-51227072D01*
X125123188Y-51314518D01*
%TA.AperFunction,Conductor*%
D28*
G36*
X125123188Y-51314518D02*
G01*
X125110928Y-51439000D01*
X125114000Y-51778250D01*
X125272750Y-51937000D01*
X125914401Y-51937000D01*
X125914401Y-52191000D01*
X125272750Y-52191000D01*
X125114000Y-52349750D01*
X125110928Y-52689000D01*
X125123188Y-52813482D01*
X125132242Y-52843328D01*
X125065392Y-52807596D01*
X125077072Y-52689000D01*
X125077072Y-51439000D01*
X125064812Y-51314518D01*
X125038286Y-51227072D01*
X125149714Y-51227072D01*
X125123188Y-51314518D01*
G37*
%TD.AperFunction*%
D27*
X122914401Y-35947611D02*
X122736805Y-35874048D01*
X122447491Y-35816500D01*
X122152509Y-35816500D01*
X121863195Y-35874048D01*
X121590668Y-35986933D01*
X121345399Y-36150816D01*
X121136816Y-36359399D01*
X121024160Y-36528001D01*
X120797319Y-36456286D01*
X119939605Y-37314000D01*
X120797319Y-38171714D01*
X121024160Y-38099999D01*
X121136816Y-38268601D01*
X121345399Y-38477184D01*
X121590668Y-38641067D01*
X121863195Y-38753952D01*
X122152509Y-38811500D01*
X122447491Y-38811500D01*
X122736805Y-38753952D01*
X122914400Y-38680389D01*
X122914400Y-40895380D01*
X122703989Y-40808225D01*
X122436411Y-40755000D01*
X122163589Y-40755000D01*
X121896011Y-40808225D01*
X121643957Y-40912629D01*
X121417114Y-41064201D01*
X121224201Y-41257114D01*
X121072629Y-41483957D01*
X121030000Y-41586873D01*
X120987371Y-41483957D01*
X120835799Y-41257114D01*
X120642886Y-41064201D01*
X120416043Y-40912629D01*
X120163989Y-40808225D01*
X119896411Y-40755000D01*
X119623589Y-40755000D01*
X119356011Y-40808225D01*
X119225000Y-40862491D01*
X119225000Y-38718021D01*
X119247606Y-38728820D01*
X119533468Y-38801597D01*
X119828037Y-38817208D01*
X120119991Y-38775051D01*
X120398111Y-38676747D01*
X120538566Y-38601670D01*
X120617714Y-38351319D01*
X119760000Y-37493605D01*
X119745858Y-37507748D01*
X119566253Y-37328143D01*
X119580395Y-37314000D01*
X119566253Y-37299858D01*
X119745858Y-37120253D01*
X119760000Y-37134395D01*
X120617714Y-36276681D01*
X120538566Y-36026330D01*
X120272394Y-35899180D01*
X119986532Y-35826403D01*
X119691963Y-35810792D01*
X119477718Y-35841728D01*
X121989146Y-33330301D01*
X122163589Y-33365000D01*
X122436411Y-33365000D01*
X122703989Y-33311775D01*
X122914401Y-33224620D01*
X122914401Y-35947611D01*
%TA.AperFunction,Conductor*%
D28*
G36*
X122914401Y-35947611D02*
G01*
X122736805Y-35874048D01*
X122447491Y-35816500D01*
X122152509Y-35816500D01*
X121863195Y-35874048D01*
X121590668Y-35986933D01*
X121345399Y-36150816D01*
X121136816Y-36359399D01*
X121024160Y-36528001D01*
X120797319Y-36456286D01*
X119939605Y-37314000D01*
X120797319Y-38171714D01*
X121024160Y-38099999D01*
X121136816Y-38268601D01*
X121345399Y-38477184D01*
X121590668Y-38641067D01*
X121863195Y-38753952D01*
X122152509Y-38811500D01*
X122447491Y-38811500D01*
X122736805Y-38753952D01*
X122914400Y-38680389D01*
X122914400Y-40895380D01*
X122703989Y-40808225D01*
X122436411Y-40755000D01*
X122163589Y-40755000D01*
X121896011Y-40808225D01*
X121643957Y-40912629D01*
X121417114Y-41064201D01*
X121224201Y-41257114D01*
X121072629Y-41483957D01*
X121030000Y-41586873D01*
X120987371Y-41483957D01*
X120835799Y-41257114D01*
X120642886Y-41064201D01*
X120416043Y-40912629D01*
X120163989Y-40808225D01*
X119896411Y-40755000D01*
X119623589Y-40755000D01*
X119356011Y-40808225D01*
X119225000Y-40862491D01*
X119225000Y-38718021D01*
X119247606Y-38728820D01*
X119533468Y-38801597D01*
X119828037Y-38817208D01*
X120119991Y-38775051D01*
X120398111Y-38676747D01*
X120538566Y-38601670D01*
X120617714Y-38351319D01*
X119760000Y-37493605D01*
X119745858Y-37507748D01*
X119566253Y-37328143D01*
X119580395Y-37314000D01*
X119566253Y-37299858D01*
X119745858Y-37120253D01*
X119760000Y-37134395D01*
X120617714Y-36276681D01*
X120538566Y-36026330D01*
X120272394Y-35899180D01*
X119986532Y-35826403D01*
X119691963Y-35810792D01*
X119477718Y-35841728D01*
X121989146Y-33330301D01*
X122163589Y-33365000D01*
X122436411Y-33365000D01*
X122703989Y-33311775D01*
X122914401Y-33224620D01*
X122914401Y-35947611D01*
G37*
%TD.AperFunction*%
%TD*%
M02*
