%TF.GenerationSoftware,KiCad,Pcbnew,(5.1.10)-1*%
%TF.CreationDate,2021-07-01T22:54:37+02:00*%
%TF.ProjectId,BytesCounter,42797465-7343-46f7-956e-7465722e6b69,rev?*%
%TF.SameCoordinates,Original*%
%TF.FileFunction,Legend,Bot*%
%TF.FilePolarity,Positive*%
%FSLAX46Y46*%
G04 Gerber Fmt 4.6, Leading zero omitted, Abs format (unit mm)*
G04 Created by KiCad (PCBNEW (5.1.10)-1) date 2021-07-01 22:54:37*
%MOMM*%
%LPD*%
G01*
G04 APERTURE LIST*
%ADD10C,0.200000*%
%ADD11C,0.300000*%
%ADD12C,0.275000*%
%ADD13C,0.010000*%
%ADD14C,0.100000*%
%ADD15C,0.254000*%
G04 APERTURE END LIST*
D10*
X104578571Y-56807142D02*
X104526190Y-56650000D01*
X104473809Y-56597619D01*
X104369047Y-56545238D01*
X104211904Y-56545238D01*
X104107142Y-56597619D01*
X104054761Y-56650000D01*
X104002380Y-56754761D01*
X104002380Y-57173809D01*
X105102380Y-57173809D01*
X105102380Y-56807142D01*
X105050000Y-56702380D01*
X104997619Y-56650000D01*
X104892857Y-56597619D01*
X104788095Y-56597619D01*
X104683333Y-56650000D01*
X104630952Y-56702380D01*
X104578571Y-56807142D01*
X104578571Y-57173809D01*
X104735714Y-56178571D02*
X104002380Y-55916666D01*
X104735714Y-55654761D02*
X104002380Y-55916666D01*
X103740476Y-56021428D01*
X103688095Y-56073809D01*
X103635714Y-56178571D01*
X104735714Y-55392857D02*
X104735714Y-54973809D01*
X105102380Y-55235714D02*
X104159523Y-55235714D01*
X104054761Y-55183333D01*
X104002380Y-55078571D01*
X104002380Y-54973809D01*
X104054761Y-54188095D02*
X104002380Y-54292857D01*
X104002380Y-54502380D01*
X104054761Y-54607142D01*
X104159523Y-54659523D01*
X104578571Y-54659523D01*
X104683333Y-54607142D01*
X104735714Y-54502380D01*
X104735714Y-54292857D01*
X104683333Y-54188095D01*
X104578571Y-54135714D01*
X104473809Y-54135714D01*
X104369047Y-54659523D01*
X104054761Y-53716666D02*
X104002380Y-53611904D01*
X104002380Y-53402380D01*
X104054761Y-53297619D01*
X104159523Y-53245238D01*
X104211904Y-53245238D01*
X104316666Y-53297619D01*
X104369047Y-53402380D01*
X104369047Y-53559523D01*
X104421428Y-53664285D01*
X104526190Y-53716666D01*
X104578571Y-53716666D01*
X104683333Y-53664285D01*
X104735714Y-53559523D01*
X104735714Y-53402380D01*
X104683333Y-53297619D01*
X104107142Y-51307142D02*
X104054761Y-51359523D01*
X104002380Y-51516666D01*
X104002380Y-51621428D01*
X104054761Y-51778571D01*
X104159523Y-51883333D01*
X104264285Y-51935714D01*
X104473809Y-51988095D01*
X104630952Y-51988095D01*
X104840476Y-51935714D01*
X104945238Y-51883333D01*
X105050000Y-51778571D01*
X105102380Y-51621428D01*
X105102380Y-51516666D01*
X105050000Y-51359523D01*
X104997619Y-51307142D01*
X104002380Y-50678571D02*
X104054761Y-50783333D01*
X104107142Y-50835714D01*
X104211904Y-50888095D01*
X104526190Y-50888095D01*
X104630952Y-50835714D01*
X104683333Y-50783333D01*
X104735714Y-50678571D01*
X104735714Y-50521428D01*
X104683333Y-50416666D01*
X104630952Y-50364285D01*
X104526190Y-50311904D01*
X104211904Y-50311904D01*
X104107142Y-50364285D01*
X104054761Y-50416666D01*
X104002380Y-50521428D01*
X104002380Y-50678571D01*
X104735714Y-49369047D02*
X104002380Y-49369047D01*
X104735714Y-49840476D02*
X104159523Y-49840476D01*
X104054761Y-49788095D01*
X104002380Y-49683333D01*
X104002380Y-49526190D01*
X104054761Y-49421428D01*
X104107142Y-49369047D01*
X104735714Y-48845238D02*
X104002380Y-48845238D01*
X104630952Y-48845238D02*
X104683333Y-48792857D01*
X104735714Y-48688095D01*
X104735714Y-48530952D01*
X104683333Y-48426190D01*
X104578571Y-48373809D01*
X104002380Y-48373809D01*
X104735714Y-48007142D02*
X104735714Y-47588095D01*
X105102380Y-47850000D02*
X104159523Y-47850000D01*
X104054761Y-47797619D01*
X104002380Y-47692857D01*
X104002380Y-47588095D01*
X104054761Y-46802380D02*
X104002380Y-46907142D01*
X104002380Y-47116666D01*
X104054761Y-47221428D01*
X104159523Y-47273809D01*
X104578571Y-47273809D01*
X104683333Y-47221428D01*
X104735714Y-47116666D01*
X104735714Y-46907142D01*
X104683333Y-46802380D01*
X104578571Y-46750000D01*
X104473809Y-46750000D01*
X104369047Y-47273809D01*
X104002380Y-46278571D02*
X104735714Y-46278571D01*
X104526190Y-46278571D02*
X104630952Y-46226190D01*
X104683333Y-46173809D01*
X104735714Y-46069047D01*
X104735714Y-45964285D01*
X104735714Y-44864285D02*
X104002380Y-44602380D01*
X104735714Y-44340476D01*
X105102380Y-43711904D02*
X105102380Y-43607142D01*
X105050000Y-43502380D01*
X104997619Y-43450000D01*
X104892857Y-43397619D01*
X104683333Y-43345238D01*
X104421428Y-43345238D01*
X104211904Y-43397619D01*
X104107142Y-43450000D01*
X104054761Y-43502380D01*
X104002380Y-43607142D01*
X104002380Y-43711904D01*
X104054761Y-43816666D01*
X104107142Y-43869047D01*
X104211904Y-43921428D01*
X104421428Y-43973809D01*
X104683333Y-43973809D01*
X104892857Y-43921428D01*
X104997619Y-43869047D01*
X105050000Y-43816666D01*
X105102380Y-43711904D01*
X104107142Y-42873809D02*
X104054761Y-42821428D01*
X104002380Y-42873809D01*
X104054761Y-42926190D01*
X104107142Y-42873809D01*
X104002380Y-42873809D01*
X104002380Y-41773809D02*
X104002380Y-42402380D01*
X104002380Y-42088095D02*
X105102380Y-42088095D01*
X104945238Y-42192857D01*
X104840476Y-42297619D01*
X104788095Y-42402380D01*
X102002380Y-57235714D02*
X103102380Y-57235714D01*
X102578571Y-57235714D02*
X102578571Y-56607142D01*
X102002380Y-56607142D02*
X103102380Y-56607142D01*
X102735714Y-56240476D02*
X102735714Y-55821428D01*
X103102380Y-56083333D02*
X102159523Y-56083333D01*
X102054761Y-56030952D01*
X102002380Y-55926190D01*
X102002380Y-55821428D01*
X102735714Y-55611904D02*
X102735714Y-55192857D01*
X103102380Y-55454761D02*
X102159523Y-55454761D01*
X102054761Y-55402380D01*
X102002380Y-55297619D01*
X102002380Y-55192857D01*
X102735714Y-54826190D02*
X101635714Y-54826190D01*
X102683333Y-54826190D02*
X102735714Y-54721428D01*
X102735714Y-54511904D01*
X102683333Y-54407142D01*
X102630952Y-54354761D01*
X102526190Y-54302380D01*
X102211904Y-54302380D01*
X102107142Y-54354761D01*
X102054761Y-54407142D01*
X102002380Y-54511904D01*
X102002380Y-54721428D01*
X102054761Y-54826190D01*
X102054761Y-53883333D02*
X102002380Y-53778571D01*
X102002380Y-53569047D01*
X102054761Y-53464285D01*
X102159523Y-53411904D01*
X102211904Y-53411904D01*
X102316666Y-53464285D01*
X102369047Y-53569047D01*
X102369047Y-53726190D01*
X102421428Y-53830952D01*
X102526190Y-53883333D01*
X102578571Y-53883333D01*
X102683333Y-53830952D01*
X102735714Y-53726190D01*
X102735714Y-53569047D01*
X102683333Y-53464285D01*
X102107142Y-52940476D02*
X102054761Y-52888095D01*
X102002380Y-52940476D01*
X102054761Y-52992857D01*
X102107142Y-52940476D01*
X102002380Y-52940476D01*
X102683333Y-52940476D02*
X102630952Y-52888095D01*
X102578571Y-52940476D01*
X102630952Y-52992857D01*
X102683333Y-52940476D01*
X102578571Y-52940476D01*
X103154761Y-51630952D02*
X101740476Y-52573809D01*
X103154761Y-50478571D02*
X101740476Y-51421428D01*
X102002380Y-50111904D02*
X102735714Y-50111904D01*
X102630952Y-50111904D02*
X102683333Y-50059523D01*
X102735714Y-49954761D01*
X102735714Y-49797619D01*
X102683333Y-49692857D01*
X102578571Y-49640476D01*
X102002380Y-49640476D01*
X102578571Y-49640476D02*
X102683333Y-49588095D01*
X102735714Y-49483333D01*
X102735714Y-49326190D01*
X102683333Y-49221428D01*
X102578571Y-49169047D01*
X102002380Y-49169047D01*
X102002380Y-48173809D02*
X102578571Y-48173809D01*
X102683333Y-48226190D01*
X102735714Y-48330952D01*
X102735714Y-48540476D01*
X102683333Y-48645238D01*
X102054761Y-48173809D02*
X102002380Y-48278571D01*
X102002380Y-48540476D01*
X102054761Y-48645238D01*
X102159523Y-48697619D01*
X102264285Y-48697619D01*
X102369047Y-48645238D01*
X102421428Y-48540476D01*
X102421428Y-48278571D01*
X102473809Y-48173809D01*
X102002380Y-47650000D02*
X103102380Y-47650000D01*
X102421428Y-47545238D02*
X102002380Y-47230952D01*
X102735714Y-47230952D02*
X102316666Y-47650000D01*
X102002380Y-46759523D02*
X102735714Y-46759523D01*
X103102380Y-46759523D02*
X103050000Y-46811904D01*
X102997619Y-46759523D01*
X103050000Y-46707142D01*
X103102380Y-46759523D01*
X102997619Y-46759523D01*
X102735714Y-46235714D02*
X102002380Y-46235714D01*
X102630952Y-46235714D02*
X102683333Y-46183333D01*
X102735714Y-46078571D01*
X102735714Y-45921428D01*
X102683333Y-45816666D01*
X102578571Y-45764285D01*
X102002380Y-45764285D01*
X102735714Y-44769047D02*
X101845238Y-44769047D01*
X101740476Y-44821428D01*
X101688095Y-44873809D01*
X101635714Y-44978571D01*
X101635714Y-45135714D01*
X101688095Y-45240476D01*
X102054761Y-44769047D02*
X102002380Y-44873809D01*
X102002380Y-45083333D01*
X102054761Y-45188095D01*
X102107142Y-45240476D01*
X102211904Y-45292857D01*
X102526190Y-45292857D01*
X102630952Y-45240476D01*
X102683333Y-45188095D01*
X102735714Y-45083333D01*
X102735714Y-44873809D01*
X102683333Y-44769047D01*
X102002380Y-43773809D02*
X103102380Y-43773809D01*
X102054761Y-43773809D02*
X102002380Y-43878571D01*
X102002380Y-44088095D01*
X102054761Y-44192857D01*
X102107142Y-44245238D01*
X102211904Y-44297619D01*
X102526190Y-44297619D01*
X102630952Y-44245238D01*
X102683333Y-44192857D01*
X102735714Y-44088095D01*
X102735714Y-43878571D01*
X102683333Y-43773809D01*
X102054761Y-42830952D02*
X102002380Y-42935714D01*
X102002380Y-43145238D01*
X102054761Y-43250000D01*
X102159523Y-43302380D01*
X102578571Y-43302380D01*
X102683333Y-43250000D01*
X102735714Y-43145238D01*
X102735714Y-42935714D01*
X102683333Y-42830952D01*
X102578571Y-42778571D01*
X102473809Y-42778571D01*
X102369047Y-43302380D01*
X102735714Y-42411904D02*
X102002380Y-42150000D01*
X102735714Y-41888095D01*
X102002380Y-41469047D02*
X102735714Y-41469047D01*
X103102380Y-41469047D02*
X103050000Y-41521428D01*
X102997619Y-41469047D01*
X103050000Y-41416666D01*
X103102380Y-41469047D01*
X102997619Y-41469047D01*
X102054761Y-40473809D02*
X102002380Y-40578571D01*
X102002380Y-40788095D01*
X102054761Y-40892857D01*
X102107142Y-40945238D01*
X102211904Y-40997619D01*
X102526190Y-40997619D01*
X102630952Y-40945238D01*
X102683333Y-40892857D01*
X102735714Y-40788095D01*
X102735714Y-40578571D01*
X102683333Y-40473809D01*
X102054761Y-39583333D02*
X102002380Y-39688095D01*
X102002380Y-39897619D01*
X102054761Y-40002380D01*
X102159523Y-40054761D01*
X102578571Y-40054761D01*
X102683333Y-40002380D01*
X102735714Y-39897619D01*
X102735714Y-39688095D01*
X102683333Y-39583333D01*
X102578571Y-39530952D01*
X102473809Y-39530952D01*
X102369047Y-40054761D01*
X102054761Y-39111904D02*
X102002380Y-39007142D01*
X102002380Y-38797619D01*
X102054761Y-38692857D01*
X102159523Y-38640476D01*
X102211904Y-38640476D01*
X102316666Y-38692857D01*
X102369047Y-38797619D01*
X102369047Y-38954761D01*
X102421428Y-39059523D01*
X102526190Y-39111904D01*
X102578571Y-39111904D01*
X102683333Y-39059523D01*
X102735714Y-38954761D01*
X102735714Y-38797619D01*
X102683333Y-38692857D01*
X102107142Y-38169047D02*
X102054761Y-38116666D01*
X102002380Y-38169047D01*
X102054761Y-38221428D01*
X102107142Y-38169047D01*
X102002380Y-38169047D01*
X102054761Y-37173809D02*
X102002380Y-37278571D01*
X102002380Y-37488095D01*
X102054761Y-37592857D01*
X102107142Y-37645238D01*
X102211904Y-37697619D01*
X102526190Y-37697619D01*
X102630952Y-37645238D01*
X102683333Y-37592857D01*
X102735714Y-37488095D01*
X102735714Y-37278571D01*
X102683333Y-37173809D01*
X102002380Y-36545238D02*
X102054761Y-36650000D01*
X102107142Y-36702380D01*
X102211904Y-36754761D01*
X102526190Y-36754761D01*
X102630952Y-36702380D01*
X102683333Y-36650000D01*
X102735714Y-36545238D01*
X102735714Y-36388095D01*
X102683333Y-36283333D01*
X102630952Y-36230952D01*
X102526190Y-36178571D01*
X102211904Y-36178571D01*
X102107142Y-36230952D01*
X102054761Y-36283333D01*
X102002380Y-36388095D01*
X102002380Y-36545238D01*
X102002380Y-35707142D02*
X102735714Y-35707142D01*
X102630952Y-35707142D02*
X102683333Y-35654761D01*
X102735714Y-35550000D01*
X102735714Y-35392857D01*
X102683333Y-35288095D01*
X102578571Y-35235714D01*
X102002380Y-35235714D01*
X102578571Y-35235714D02*
X102683333Y-35183333D01*
X102735714Y-35078571D01*
X102735714Y-34921428D01*
X102683333Y-34816666D01*
X102578571Y-34764285D01*
X102002380Y-34764285D01*
D11*
X123214285Y-35678571D02*
X123214285Y-34178571D01*
X121642857Y-35535714D02*
X121714285Y-35607142D01*
X121928571Y-35678571D01*
X122071428Y-35678571D01*
X122285714Y-35607142D01*
X122428571Y-35464285D01*
X122500000Y-35321428D01*
X122571428Y-35035714D01*
X122571428Y-34821428D01*
X122500000Y-34535714D01*
X122428571Y-34392857D01*
X122285714Y-34250000D01*
X122071428Y-34178571D01*
X121928571Y-34178571D01*
X121714285Y-34250000D01*
X121642857Y-34321428D01*
X121071428Y-35607142D02*
X120857142Y-35678571D01*
X120500000Y-35678571D01*
X120357142Y-35607142D01*
X120285714Y-35535714D01*
X120214285Y-35392857D01*
X120214285Y-35250000D01*
X120285714Y-35107142D01*
X120357142Y-35035714D01*
X120500000Y-34964285D01*
X120785714Y-34892857D01*
X120928571Y-34821428D01*
X121000000Y-34750000D01*
X121071428Y-34607142D01*
X121071428Y-34464285D01*
X121000000Y-34321428D01*
X120928571Y-34250000D01*
X120785714Y-34178571D01*
X120428571Y-34178571D01*
X120214285Y-34250000D01*
X119571428Y-35678571D02*
X119571428Y-34178571D01*
X119000000Y-34178571D01*
X118857142Y-34250000D01*
X118785714Y-34321428D01*
X118714285Y-34464285D01*
X118714285Y-34678571D01*
X118785714Y-34821428D01*
X118857142Y-34892857D01*
X119000000Y-34964285D01*
X119571428Y-34964285D01*
D12*
X123778571Y-57421428D02*
X123621428Y-57473809D01*
X123569047Y-57526190D01*
X123516666Y-57630952D01*
X123516666Y-57788095D01*
X123569047Y-57892857D01*
X123621428Y-57945238D01*
X123726190Y-57997619D01*
X124145238Y-57997619D01*
X124145238Y-56897619D01*
X123778571Y-56897619D01*
X123673809Y-56950000D01*
X123621428Y-57002380D01*
X123569047Y-57107142D01*
X123569047Y-57211904D01*
X123621428Y-57316666D01*
X123673809Y-57369047D01*
X123778571Y-57421428D01*
X124145238Y-57421428D01*
X122573809Y-57997619D02*
X122573809Y-57421428D01*
X122626190Y-57316666D01*
X122730952Y-57264285D01*
X122940476Y-57264285D01*
X123045238Y-57316666D01*
X122573809Y-57945238D02*
X122678571Y-57997619D01*
X122940476Y-57997619D01*
X123045238Y-57945238D01*
X123097619Y-57840476D01*
X123097619Y-57735714D01*
X123045238Y-57630952D01*
X122940476Y-57578571D01*
X122678571Y-57578571D01*
X122573809Y-57526190D01*
X122207142Y-57264285D02*
X121788095Y-57264285D01*
X122050000Y-56897619D02*
X122050000Y-57840476D01*
X121997619Y-57945238D01*
X121892857Y-57997619D01*
X121788095Y-57997619D01*
X121578571Y-57264285D02*
X121159523Y-57264285D01*
X121421428Y-56897619D02*
X121421428Y-57840476D01*
X121369047Y-57945238D01*
X121264285Y-57997619D01*
X121159523Y-57997619D01*
X120373809Y-57945238D02*
X120478571Y-57997619D01*
X120688095Y-57997619D01*
X120792857Y-57945238D01*
X120845238Y-57840476D01*
X120845238Y-57421428D01*
X120792857Y-57316666D01*
X120688095Y-57264285D01*
X120478571Y-57264285D01*
X120373809Y-57316666D01*
X120321428Y-57421428D01*
X120321428Y-57526190D01*
X120845238Y-57630952D01*
X119850000Y-57997619D02*
X119850000Y-57264285D01*
X119850000Y-57473809D02*
X119797619Y-57369047D01*
X119745238Y-57316666D01*
X119640476Y-57264285D01*
X119535714Y-57264285D01*
X119273809Y-57264285D02*
X119011904Y-57997619D01*
X118750000Y-57264285D02*
X119011904Y-57997619D01*
X119116666Y-58259523D01*
X119169047Y-58311904D01*
X119273809Y-58364285D01*
D11*
D13*
%TO.C,REF\u002A\u002A*%
G36*
X103030816Y-62908759D02*
G01*
X103017718Y-62882247D01*
X102994894Y-62849553D01*
X102970004Y-62825725D01*
X102938751Y-62809406D01*
X102896834Y-62799240D01*
X102839956Y-62793872D01*
X102763816Y-62791944D01*
X102731083Y-62791831D01*
X102659344Y-62792161D01*
X102608073Y-62793527D01*
X102572596Y-62796500D01*
X102548237Y-62801649D01*
X102530320Y-62809543D01*
X102518098Y-62817757D01*
X102466095Y-62870187D01*
X102434816Y-62931930D01*
X102425408Y-62998536D01*
X102439020Y-63065558D01*
X102448646Y-63086792D01*
X102475141Y-63137624D01*
X102059948Y-63137624D01*
X102079132Y-63100525D01*
X102093975Y-63051643D01*
X102097778Y-62991561D01*
X102090757Y-62931564D01*
X102074987Y-62886256D01*
X102044953Y-62848675D01*
X102001976Y-62816564D01*
X101997564Y-62814150D01*
X101976779Y-62803967D01*
X101955830Y-62796530D01*
X101930452Y-62791411D01*
X101896382Y-62788181D01*
X101849359Y-62786413D01*
X101785118Y-62785677D01*
X101712824Y-62785544D01*
X101482178Y-62785544D01*
X101482178Y-62923861D01*
X101907467Y-62923861D01*
X101940021Y-62962549D01*
X101966060Y-63002738D01*
X101970795Y-63040797D01*
X101958611Y-63079066D01*
X101946680Y-63099462D01*
X101929687Y-63114642D01*
X101904005Y-63125438D01*
X101866009Y-63132683D01*
X101812074Y-63137208D01*
X101738575Y-63139844D01*
X101689653Y-63140772D01*
X101488465Y-63143911D01*
X101484664Y-63209926D01*
X101480864Y-63275940D01*
X102729350Y-63275940D01*
X102729350Y-63137624D01*
X102659746Y-63134097D01*
X102611431Y-63122215D01*
X102581369Y-63100020D01*
X102566529Y-63065559D01*
X102563564Y-63030742D01*
X102566972Y-62991329D01*
X102580383Y-62965171D01*
X102598104Y-62948814D01*
X102617165Y-62935937D01*
X102638399Y-62928272D01*
X102668151Y-62924861D01*
X102712764Y-62924749D01*
X102750120Y-62925897D01*
X102806396Y-62928532D01*
X102843342Y-62932456D01*
X102866777Y-62939063D01*
X102882520Y-62949749D01*
X102891620Y-62959833D01*
X102911463Y-63001970D01*
X102914668Y-63051840D01*
X102907832Y-63080476D01*
X102883536Y-63108828D01*
X102836272Y-63127609D01*
X102766376Y-63136712D01*
X102729350Y-63137624D01*
X102729350Y-63275940D01*
X103041386Y-63275940D01*
X103041386Y-63206782D01*
X103039744Y-63165260D01*
X103033913Y-63143838D01*
X103022539Y-63137626D01*
X103022202Y-63137624D01*
X103011062Y-63134742D01*
X103012327Y-63122030D01*
X103024567Y-63096757D01*
X103043293Y-63037869D01*
X103045261Y-62971615D01*
X103030816Y-62908759D01*
G37*
X103030816Y-62908759D02*
X103017718Y-62882247D01*
X102994894Y-62849553D01*
X102970004Y-62825725D01*
X102938751Y-62809406D01*
X102896834Y-62799240D01*
X102839956Y-62793872D01*
X102763816Y-62791944D01*
X102731083Y-62791831D01*
X102659344Y-62792161D01*
X102608073Y-62793527D01*
X102572596Y-62796500D01*
X102548237Y-62801649D01*
X102530320Y-62809543D01*
X102518098Y-62817757D01*
X102466095Y-62870187D01*
X102434816Y-62931930D01*
X102425408Y-62998536D01*
X102439020Y-63065558D01*
X102448646Y-63086792D01*
X102475141Y-63137624D01*
X102059948Y-63137624D01*
X102079132Y-63100525D01*
X102093975Y-63051643D01*
X102097778Y-62991561D01*
X102090757Y-62931564D01*
X102074987Y-62886256D01*
X102044953Y-62848675D01*
X102001976Y-62816564D01*
X101997564Y-62814150D01*
X101976779Y-62803967D01*
X101955830Y-62796530D01*
X101930452Y-62791411D01*
X101896382Y-62788181D01*
X101849359Y-62786413D01*
X101785118Y-62785677D01*
X101712824Y-62785544D01*
X101482178Y-62785544D01*
X101482178Y-62923861D01*
X101907467Y-62923861D01*
X101940021Y-62962549D01*
X101966060Y-63002738D01*
X101970795Y-63040797D01*
X101958611Y-63079066D01*
X101946680Y-63099462D01*
X101929687Y-63114642D01*
X101904005Y-63125438D01*
X101866009Y-63132683D01*
X101812074Y-63137208D01*
X101738575Y-63139844D01*
X101689653Y-63140772D01*
X101488465Y-63143911D01*
X101484664Y-63209926D01*
X101480864Y-63275940D01*
X102729350Y-63275940D01*
X102729350Y-63137624D01*
X102659746Y-63134097D01*
X102611431Y-63122215D01*
X102581369Y-63100020D01*
X102566529Y-63065559D01*
X102563564Y-63030742D01*
X102566972Y-62991329D01*
X102580383Y-62965171D01*
X102598104Y-62948814D01*
X102617165Y-62935937D01*
X102638399Y-62928272D01*
X102668151Y-62924861D01*
X102712764Y-62924749D01*
X102750120Y-62925897D01*
X102806396Y-62928532D01*
X102843342Y-62932456D01*
X102866777Y-62939063D01*
X102882520Y-62949749D01*
X102891620Y-62959833D01*
X102911463Y-63001970D01*
X102914668Y-63051840D01*
X102907832Y-63080476D01*
X102883536Y-63108828D01*
X102836272Y-63127609D01*
X102766376Y-63136712D01*
X102729350Y-63137624D01*
X102729350Y-63275940D01*
X103041386Y-63275940D01*
X103041386Y-63206782D01*
X103039744Y-63165260D01*
X103033913Y-63143838D01*
X103022539Y-63137626D01*
X103022202Y-63137624D01*
X103011062Y-63134742D01*
X103012327Y-63122030D01*
X103024567Y-63096757D01*
X103043293Y-63037869D01*
X103045261Y-62971615D01*
X103030816Y-62908759D01*
G36*
X102093445Y-62384210D02*
G01*
X102077661Y-62325055D01*
X102049052Y-62280023D01*
X102011581Y-62248246D01*
X101995589Y-62238366D01*
X101978837Y-62231073D01*
X101957408Y-62225974D01*
X101927384Y-62222679D01*
X101884846Y-62220797D01*
X101825878Y-62219937D01*
X101746560Y-62219707D01*
X101725516Y-62219703D01*
X101482178Y-62219703D01*
X101482178Y-62280059D01*
X101484874Y-62318557D01*
X101491705Y-62347023D01*
X101495917Y-62354155D01*
X101503187Y-62373652D01*
X101495917Y-62393566D01*
X101486840Y-62426353D01*
X101483187Y-62473978D01*
X101484772Y-62526764D01*
X101491411Y-62575036D01*
X101499928Y-62603218D01*
X101534937Y-62657753D01*
X101583521Y-62691835D01*
X101648118Y-62707157D01*
X101649777Y-62707299D01*
X101678434Y-62705955D01*
X101678434Y-62584356D01*
X101645839Y-62573726D01*
X101627495Y-62556410D01*
X101613621Y-62521652D01*
X101608083Y-62475773D01*
X101610809Y-62428988D01*
X101621726Y-62391514D01*
X101628731Y-62381015D01*
X101661096Y-62362668D01*
X101697889Y-62358020D01*
X101746237Y-62358020D01*
X101746237Y-62427582D01*
X101741150Y-62493667D01*
X101726737Y-62543764D01*
X101704271Y-62574929D01*
X101678434Y-62584356D01*
X101678434Y-62705955D01*
X101720353Y-62703987D01*
X101776155Y-62680710D01*
X101818353Y-62636948D01*
X101822192Y-62630899D01*
X101834691Y-62604907D01*
X101842260Y-62572735D01*
X101845939Y-62527760D01*
X101846784Y-62474331D01*
X101846831Y-62358020D01*
X101895589Y-62358020D01*
X101933419Y-62362953D01*
X101958764Y-62375543D01*
X101960113Y-62377017D01*
X101971200Y-62405034D01*
X101975497Y-62447326D01*
X101973385Y-62494064D01*
X101965244Y-62535418D01*
X101953035Y-62559957D01*
X101943254Y-62573253D01*
X101941387Y-62587294D01*
X101949400Y-62606671D01*
X101969261Y-62635976D01*
X102002937Y-62679803D01*
X102006091Y-62683825D01*
X102017764Y-62681764D01*
X102037178Y-62664568D01*
X102058752Y-62638433D01*
X102076904Y-62609552D01*
X102081191Y-62600478D01*
X102089744Y-62567380D01*
X102095845Y-62518880D01*
X102098292Y-62464695D01*
X102098297Y-62462161D01*
X102093445Y-62384210D01*
G37*
X102093445Y-62384210D02*
X102077661Y-62325055D01*
X102049052Y-62280023D01*
X102011581Y-62248246D01*
X101995589Y-62238366D01*
X101978837Y-62231073D01*
X101957408Y-62225974D01*
X101927384Y-62222679D01*
X101884846Y-62220797D01*
X101825878Y-62219937D01*
X101746560Y-62219707D01*
X101725516Y-62219703D01*
X101482178Y-62219703D01*
X101482178Y-62280059D01*
X101484874Y-62318557D01*
X101491705Y-62347023D01*
X101495917Y-62354155D01*
X101503187Y-62373652D01*
X101495917Y-62393566D01*
X101486840Y-62426353D01*
X101483187Y-62473978D01*
X101484772Y-62526764D01*
X101491411Y-62575036D01*
X101499928Y-62603218D01*
X101534937Y-62657753D01*
X101583521Y-62691835D01*
X101648118Y-62707157D01*
X101649777Y-62707299D01*
X101678434Y-62705955D01*
X101678434Y-62584356D01*
X101645839Y-62573726D01*
X101627495Y-62556410D01*
X101613621Y-62521652D01*
X101608083Y-62475773D01*
X101610809Y-62428988D01*
X101621726Y-62391514D01*
X101628731Y-62381015D01*
X101661096Y-62362668D01*
X101697889Y-62358020D01*
X101746237Y-62358020D01*
X101746237Y-62427582D01*
X101741150Y-62493667D01*
X101726737Y-62543764D01*
X101704271Y-62574929D01*
X101678434Y-62584356D01*
X101678434Y-62705955D01*
X101720353Y-62703987D01*
X101776155Y-62680710D01*
X101818353Y-62636948D01*
X101822192Y-62630899D01*
X101834691Y-62604907D01*
X101842260Y-62572735D01*
X101845939Y-62527760D01*
X101846784Y-62474331D01*
X101846831Y-62358020D01*
X101895589Y-62358020D01*
X101933419Y-62362953D01*
X101958764Y-62375543D01*
X101960113Y-62377017D01*
X101971200Y-62405034D01*
X101975497Y-62447326D01*
X101973385Y-62494064D01*
X101965244Y-62535418D01*
X101953035Y-62559957D01*
X101943254Y-62573253D01*
X101941387Y-62587294D01*
X101949400Y-62606671D01*
X101969261Y-62635976D01*
X102002937Y-62679803D01*
X102006091Y-62683825D01*
X102017764Y-62681764D01*
X102037178Y-62664568D01*
X102058752Y-62638433D01*
X102076904Y-62609552D01*
X102081191Y-62600478D01*
X102089744Y-62567380D01*
X102095845Y-62518880D01*
X102098292Y-62464695D01*
X102098297Y-62462161D01*
X102093445Y-62384210D01*
G36*
X102096980Y-61993356D02*
G01*
X102091340Y-61974539D01*
X102078947Y-61968473D01*
X102073353Y-61968218D01*
X102057770Y-61967129D01*
X102055324Y-61959632D01*
X102066007Y-61939381D01*
X102073306Y-61927351D01*
X102088937Y-61889400D01*
X102096666Y-61844072D01*
X102097260Y-61796544D01*
X102091487Y-61751995D01*
X102080116Y-61715602D01*
X102063912Y-61692543D01*
X102043645Y-61687996D01*
X102038157Y-61690291D01*
X102015374Y-61707020D01*
X101987353Y-61732963D01*
X101982823Y-61737655D01*
X101961995Y-61762383D01*
X101955265Y-61783718D01*
X101959962Y-61813555D01*
X101963083Y-61825508D01*
X101970579Y-61862705D01*
X101967208Y-61888859D01*
X101955319Y-61910946D01*
X101939365Y-61931178D01*
X101919300Y-61946079D01*
X101891298Y-61956434D01*
X101851533Y-61963029D01*
X101796177Y-61966649D01*
X101721406Y-61968078D01*
X101676260Y-61968218D01*
X101482178Y-61968218D01*
X101482178Y-62093960D01*
X102098317Y-62093960D01*
X102098317Y-62031089D01*
X102096980Y-61993356D01*
G37*
X102096980Y-61993356D02*
X102091340Y-61974539D01*
X102078947Y-61968473D01*
X102073353Y-61968218D01*
X102057770Y-61967129D01*
X102055324Y-61959632D01*
X102066007Y-61939381D01*
X102073306Y-61927351D01*
X102088937Y-61889400D01*
X102096666Y-61844072D01*
X102097260Y-61796544D01*
X102091487Y-61751995D01*
X102080116Y-61715602D01*
X102063912Y-61692543D01*
X102043645Y-61687996D01*
X102038157Y-61690291D01*
X102015374Y-61707020D01*
X101987353Y-61732963D01*
X101982823Y-61737655D01*
X101961995Y-61762383D01*
X101955265Y-61783718D01*
X101959962Y-61813555D01*
X101963083Y-61825508D01*
X101970579Y-61862705D01*
X101967208Y-61888859D01*
X101955319Y-61910946D01*
X101939365Y-61931178D01*
X101919300Y-61946079D01*
X101891298Y-61956434D01*
X101851533Y-61963029D01*
X101796177Y-61966649D01*
X101721406Y-61968078D01*
X101676260Y-61968218D01*
X101482178Y-61968218D01*
X101482178Y-62093960D01*
X102098317Y-62093960D01*
X102098317Y-62031089D01*
X102096980Y-61993356D01*
G36*
X101482178Y-61201188D02*
G01*
X101482178Y-61270346D01*
X101483355Y-61310488D01*
X101488228Y-61331394D01*
X101498814Y-61338922D01*
X101505971Y-61339505D01*
X101520324Y-61340774D01*
X101523077Y-61348779D01*
X101514229Y-61369815D01*
X101505971Y-61386173D01*
X101486403Y-61448977D01*
X101485271Y-61517248D01*
X101499865Y-61572752D01*
X101535123Y-61624438D01*
X101587165Y-61663838D01*
X101648550Y-61685413D01*
X101651982Y-61685962D01*
X101689429Y-61689167D01*
X101743187Y-61690761D01*
X101783845Y-61690633D01*
X101783845Y-61553279D01*
X101729806Y-61550097D01*
X101685265Y-61542859D01*
X101660112Y-61533060D01*
X101625740Y-61495989D01*
X101613418Y-61451974D01*
X101623382Y-61406584D01*
X101653105Y-61367797D01*
X101673095Y-61353108D01*
X101696950Y-61344519D01*
X101731770Y-61340496D01*
X101784070Y-61339505D01*
X101835861Y-61341278D01*
X101881366Y-61345963D01*
X101911819Y-61352603D01*
X101914548Y-61353710D01*
X101947000Y-61380491D01*
X101964817Y-61419579D01*
X101967694Y-61463315D01*
X101955326Y-61504038D01*
X101927407Y-61534087D01*
X101921852Y-61537204D01*
X101887978Y-61546961D01*
X101839272Y-61552277D01*
X101783845Y-61553279D01*
X101783845Y-61690633D01*
X101804460Y-61690568D01*
X101837437Y-61689664D01*
X101919019Y-61683514D01*
X101980270Y-61670733D01*
X102025551Y-61649471D01*
X102059221Y-61617878D01*
X102078986Y-61587207D01*
X102092880Y-61544354D01*
X102097646Y-61491056D01*
X102093764Y-61436480D01*
X102081718Y-61389792D01*
X102067307Y-61365124D01*
X102044122Y-61339505D01*
X102337227Y-61339505D01*
X102337227Y-61201188D01*
X101482178Y-61201188D01*
G37*
X101482178Y-61201188D02*
X101482178Y-61270346D01*
X101483355Y-61310488D01*
X101488228Y-61331394D01*
X101498814Y-61338922D01*
X101505971Y-61339505D01*
X101520324Y-61340774D01*
X101523077Y-61348779D01*
X101514229Y-61369815D01*
X101505971Y-61386173D01*
X101486403Y-61448977D01*
X101485271Y-61517248D01*
X101499865Y-61572752D01*
X101535123Y-61624438D01*
X101587165Y-61663838D01*
X101648550Y-61685413D01*
X101651982Y-61685962D01*
X101689429Y-61689167D01*
X101743187Y-61690761D01*
X101783845Y-61690633D01*
X101783845Y-61553279D01*
X101729806Y-61550097D01*
X101685265Y-61542859D01*
X101660112Y-61533060D01*
X101625740Y-61495989D01*
X101613418Y-61451974D01*
X101623382Y-61406584D01*
X101653105Y-61367797D01*
X101673095Y-61353108D01*
X101696950Y-61344519D01*
X101731770Y-61340496D01*
X101784070Y-61339505D01*
X101835861Y-61341278D01*
X101881366Y-61345963D01*
X101911819Y-61352603D01*
X101914548Y-61353710D01*
X101947000Y-61380491D01*
X101964817Y-61419579D01*
X101967694Y-61463315D01*
X101955326Y-61504038D01*
X101927407Y-61534087D01*
X101921852Y-61537204D01*
X101887978Y-61546961D01*
X101839272Y-61552277D01*
X101783845Y-61553279D01*
X101783845Y-61690633D01*
X101804460Y-61690568D01*
X101837437Y-61689664D01*
X101919019Y-61683514D01*
X101980270Y-61670733D01*
X102025551Y-61649471D01*
X102059221Y-61617878D01*
X102078986Y-61587207D01*
X102092880Y-61544354D01*
X102097646Y-61491056D01*
X102093764Y-61436480D01*
X102081718Y-61389792D01*
X102067307Y-61365124D01*
X102044122Y-61339505D01*
X102337227Y-61339505D01*
X102337227Y-61201188D01*
X101482178Y-61201188D01*
G36*
X102095763Y-60718476D02*
G01*
X102092029Y-60668745D01*
X101702227Y-60538709D01*
X101771386Y-60518322D01*
X101814126Y-60506054D01*
X101871885Y-60489915D01*
X101935375Y-60472488D01*
X101969430Y-60463274D01*
X102098317Y-60428612D01*
X102098317Y-60285609D01*
X101963143Y-60328354D01*
X101896658Y-60349404D01*
X101816461Y-60374833D01*
X101732807Y-60401390D01*
X101658218Y-60425098D01*
X101488465Y-60479098D01*
X101484672Y-60537402D01*
X101480878Y-60595705D01*
X101585266Y-60627321D01*
X101650111Y-60646818D01*
X101721600Y-60668096D01*
X101784737Y-60686692D01*
X101787250Y-60687426D01*
X101830031Y-60701316D01*
X101859221Y-60713571D01*
X101870259Y-60722154D01*
X101868982Y-60723918D01*
X101851870Y-60730109D01*
X101815213Y-60741872D01*
X101763622Y-60757775D01*
X101701706Y-60776386D01*
X101667648Y-60786457D01*
X101482178Y-60840993D01*
X101482178Y-60956736D01*
X101774529Y-61049263D01*
X101856538Y-61075256D01*
X101931013Y-61098934D01*
X101994456Y-61119180D01*
X102043368Y-61134874D01*
X102074251Y-61144898D01*
X102083274Y-61147945D01*
X102092513Y-61145533D01*
X102096559Y-61126592D01*
X102096154Y-61087177D01*
X102095848Y-61081007D01*
X102092029Y-61007914D01*
X101915990Y-60960043D01*
X101851789Y-60942447D01*
X101795351Y-60926723D01*
X101751578Y-60914254D01*
X101725370Y-60906426D01*
X101721097Y-60904980D01*
X101726010Y-60898986D01*
X101751468Y-60886899D01*
X101794003Y-60870107D01*
X101850150Y-60849997D01*
X101900870Y-60832997D01*
X102099496Y-60768206D01*
X102095763Y-60718476D01*
G37*
X102095763Y-60718476D02*
X102092029Y-60668745D01*
X101702227Y-60538709D01*
X101771386Y-60518322D01*
X101814126Y-60506054D01*
X101871885Y-60489915D01*
X101935375Y-60472488D01*
X101969430Y-60463274D01*
X102098317Y-60428612D01*
X102098317Y-60285609D01*
X101963143Y-60328354D01*
X101896658Y-60349404D01*
X101816461Y-60374833D01*
X101732807Y-60401390D01*
X101658218Y-60425098D01*
X101488465Y-60479098D01*
X101484672Y-60537402D01*
X101480878Y-60595705D01*
X101585266Y-60627321D01*
X101650111Y-60646818D01*
X101721600Y-60668096D01*
X101784737Y-60686692D01*
X101787250Y-60687426D01*
X101830031Y-60701316D01*
X101859221Y-60713571D01*
X101870259Y-60722154D01*
X101868982Y-60723918D01*
X101851870Y-60730109D01*
X101815213Y-60741872D01*
X101763622Y-60757775D01*
X101701706Y-60776386D01*
X101667648Y-60786457D01*
X101482178Y-60840993D01*
X101482178Y-60956736D01*
X101774529Y-61049263D01*
X101856538Y-61075256D01*
X101931013Y-61098934D01*
X101994456Y-61119180D01*
X102043368Y-61134874D01*
X102074251Y-61144898D01*
X102083274Y-61147945D01*
X102092513Y-61145533D01*
X102096559Y-61126592D01*
X102096154Y-61087177D01*
X102095848Y-61081007D01*
X102092029Y-61007914D01*
X101915990Y-60960043D01*
X101851789Y-60942447D01*
X101795351Y-60926723D01*
X101751578Y-60914254D01*
X101725370Y-60906426D01*
X101721097Y-60904980D01*
X101726010Y-60898986D01*
X101751468Y-60886899D01*
X101794003Y-60870107D01*
X101850150Y-60849997D01*
X101900870Y-60832997D01*
X102099496Y-60768206D01*
X102095763Y-60718476D01*
G36*
X102094583Y-59961589D02*
G01*
X102081710Y-59908589D01*
X102074890Y-59893269D01*
X102057026Y-59863572D01*
X102036907Y-59840780D01*
X102011038Y-59823917D01*
X101975927Y-59812002D01*
X101928080Y-59804058D01*
X101864004Y-59799106D01*
X101780206Y-59796169D01*
X101724232Y-59795053D01*
X101482178Y-59790948D01*
X101482178Y-59861068D01*
X101483962Y-59903607D01*
X101490058Y-59925524D01*
X101500294Y-59931188D01*
X101511363Y-59934179D01*
X101509246Y-59947549D01*
X101500371Y-59965767D01*
X101486767Y-60011376D01*
X101483101Y-60069993D01*
X101489097Y-60131646D01*
X101504479Y-60186362D01*
X101506614Y-60191270D01*
X101541745Y-60241277D01*
X101590581Y-60274244D01*
X101647667Y-60289413D01*
X101668176Y-60288254D01*
X101668176Y-60164492D01*
X101640575Y-60153587D01*
X101620796Y-60121255D01*
X101610181Y-60069090D01*
X101608772Y-60041213D01*
X101612380Y-59994753D01*
X101626403Y-59963871D01*
X101633069Y-59956336D01*
X101669334Y-59935924D01*
X101702227Y-59931188D01*
X101746237Y-59931188D01*
X101746237Y-59992487D01*
X101742605Y-60063744D01*
X101731182Y-60113724D01*
X101711176Y-60145304D01*
X101702257Y-60152374D01*
X101668176Y-60164492D01*
X101668176Y-60288254D01*
X101707544Y-60286029D01*
X101764756Y-60263337D01*
X101803420Y-60232376D01*
X101820136Y-60213624D01*
X101831122Y-60195267D01*
X101837820Y-60171381D01*
X101841674Y-60136043D01*
X101844127Y-60083331D01*
X101844832Y-60062423D01*
X101849121Y-59931188D01*
X101888842Y-59931380D01*
X101930595Y-59936463D01*
X101955842Y-59954838D01*
X101971970Y-59991961D01*
X101972258Y-59992957D01*
X101978600Y-60045590D01*
X101970316Y-60097094D01*
X101950173Y-60135370D01*
X101940227Y-60150728D01*
X101941603Y-60167270D01*
X101956013Y-60192725D01*
X101966183Y-60207672D01*
X101987912Y-60236909D01*
X102004200Y-60255020D01*
X102008863Y-60257926D01*
X102032995Y-60245960D01*
X102061815Y-60210604D01*
X102071539Y-60195247D01*
X102088286Y-60151099D01*
X102097773Y-60091602D01*
X102099905Y-60025513D01*
X102094583Y-59961589D01*
G37*
X102094583Y-59961589D02*
X102081710Y-59908589D01*
X102074890Y-59893269D01*
X102057026Y-59863572D01*
X102036907Y-59840780D01*
X102011038Y-59823917D01*
X101975927Y-59812002D01*
X101928080Y-59804058D01*
X101864004Y-59799106D01*
X101780206Y-59796169D01*
X101724232Y-59795053D01*
X101482178Y-59790948D01*
X101482178Y-59861068D01*
X101483962Y-59903607D01*
X101490058Y-59925524D01*
X101500294Y-59931188D01*
X101511363Y-59934179D01*
X101509246Y-59947549D01*
X101500371Y-59965767D01*
X101486767Y-60011376D01*
X101483101Y-60069993D01*
X101489097Y-60131646D01*
X101504479Y-60186362D01*
X101506614Y-60191270D01*
X101541745Y-60241277D01*
X101590581Y-60274244D01*
X101647667Y-60289413D01*
X101668176Y-60288254D01*
X101668176Y-60164492D01*
X101640575Y-60153587D01*
X101620796Y-60121255D01*
X101610181Y-60069090D01*
X101608772Y-60041213D01*
X101612380Y-59994753D01*
X101626403Y-59963871D01*
X101633069Y-59956336D01*
X101669334Y-59935924D01*
X101702227Y-59931188D01*
X101746237Y-59931188D01*
X101746237Y-59992487D01*
X101742605Y-60063744D01*
X101731182Y-60113724D01*
X101711176Y-60145304D01*
X101702257Y-60152374D01*
X101668176Y-60164492D01*
X101668176Y-60288254D01*
X101707544Y-60286029D01*
X101764756Y-60263337D01*
X101803420Y-60232376D01*
X101820136Y-60213624D01*
X101831122Y-60195267D01*
X101837820Y-60171381D01*
X101841674Y-60136043D01*
X101844127Y-60083331D01*
X101844832Y-60062423D01*
X101849121Y-59931188D01*
X101888842Y-59931380D01*
X101930595Y-59936463D01*
X101955842Y-59954838D01*
X101971970Y-59991961D01*
X101972258Y-59992957D01*
X101978600Y-60045590D01*
X101970316Y-60097094D01*
X101950173Y-60135370D01*
X101940227Y-60150728D01*
X101941603Y-60167270D01*
X101956013Y-60192725D01*
X101966183Y-60207672D01*
X101987912Y-60236909D01*
X102004200Y-60255020D01*
X102008863Y-60257926D01*
X102032995Y-60245960D01*
X102061815Y-60210604D01*
X102071539Y-60195247D01*
X102088286Y-60151099D01*
X102097773Y-60091602D01*
X102099905Y-60025513D01*
X102094583Y-59961589D01*
G36*
X102098514Y-59364745D02*
G01*
X102088985Y-59316405D01*
X102074875Y-59288886D01*
X102051432Y-59259936D01*
X101999429Y-59301124D01*
X101967936Y-59326518D01*
X101952572Y-59343762D01*
X101950224Y-59360898D01*
X101957783Y-59385973D01*
X101962059Y-59397743D01*
X101968369Y-59445730D01*
X101954844Y-59489676D01*
X101924290Y-59521940D01*
X101914548Y-59527181D01*
X101888742Y-59532888D01*
X101841183Y-59537294D01*
X101775242Y-59540189D01*
X101694290Y-59541369D01*
X101682774Y-59541386D01*
X101482178Y-59541386D01*
X101482178Y-59679703D01*
X102098317Y-59679703D01*
X102098317Y-59610544D01*
X102097275Y-59570667D01*
X102092642Y-59549893D01*
X102082151Y-59542211D01*
X102072255Y-59541386D01*
X102046194Y-59541386D01*
X102072255Y-59508255D01*
X102090035Y-59470265D01*
X102098826Y-59419230D01*
X102098514Y-59364745D01*
G37*
X102098514Y-59364745D02*
X102088985Y-59316405D01*
X102074875Y-59288886D01*
X102051432Y-59259936D01*
X101999429Y-59301124D01*
X101967936Y-59326518D01*
X101952572Y-59343762D01*
X101950224Y-59360898D01*
X101957783Y-59385973D01*
X101962059Y-59397743D01*
X101968369Y-59445730D01*
X101954844Y-59489676D01*
X101924290Y-59521940D01*
X101914548Y-59527181D01*
X101888742Y-59532888D01*
X101841183Y-59537294D01*
X101775242Y-59540189D01*
X101694290Y-59541369D01*
X101682774Y-59541386D01*
X101482178Y-59541386D01*
X101482178Y-59679703D01*
X102098317Y-59679703D01*
X102098317Y-59610544D01*
X102097275Y-59570667D01*
X102092642Y-59549893D01*
X102082151Y-59542211D01*
X102072255Y-59541386D01*
X102046194Y-59541386D01*
X102072255Y-59508255D01*
X102090035Y-59470265D01*
X102098826Y-59419230D01*
X102098514Y-59364745D01*
G36*
X102095030Y-58967419D02*
G01*
X102079403Y-58907315D01*
X102047152Y-58856979D01*
X102023060Y-58832607D01*
X101966105Y-58792655D01*
X101900035Y-58769758D01*
X101818818Y-58761892D01*
X101812252Y-58761852D01*
X101746237Y-58761782D01*
X101746237Y-59141736D01*
X101711658Y-59133637D01*
X101680341Y-59119013D01*
X101647709Y-59093419D01*
X101642500Y-59088065D01*
X101614306Y-59042057D01*
X101609525Y-58989590D01*
X101628074Y-58929197D01*
X101633069Y-58918960D01*
X101648255Y-58887561D01*
X101656906Y-58866530D01*
X101657707Y-58862861D01*
X101649937Y-58850052D01*
X101630928Y-58825622D01*
X101620540Y-58813221D01*
X101596679Y-58787524D01*
X101580923Y-58779085D01*
X101566429Y-58784942D01*
X101562466Y-58788072D01*
X101545121Y-58809275D01*
X101524041Y-58844262D01*
X101511735Y-58868663D01*
X101490054Y-58937928D01*
X101483029Y-59014612D01*
X101491353Y-59087235D01*
X101497314Y-59107574D01*
X101531048Y-59170524D01*
X101582955Y-59217185D01*
X101653541Y-59247827D01*
X101743308Y-59262718D01*
X101790247Y-59264353D01*
X101858587Y-59259579D01*
X101858587Y-59139010D01*
X101853535Y-59127348D01*
X101849571Y-59096002D01*
X101847232Y-59050429D01*
X101846831Y-59019554D01*
X101847217Y-58964019D01*
X101849025Y-58928967D01*
X101853227Y-58909738D01*
X101860797Y-58901670D01*
X101871782Y-58900099D01*
X101905619Y-58910879D01*
X101939060Y-58938020D01*
X101964728Y-58973723D01*
X101975228Y-59009440D01*
X101965914Y-59057952D01*
X101938987Y-59099947D01*
X101900173Y-59129064D01*
X101858587Y-59139010D01*
X101858587Y-59259579D01*
X101889764Y-59257401D01*
X101969051Y-59235945D01*
X102028737Y-59199530D01*
X102069451Y-59147703D01*
X102091821Y-59080010D01*
X102096129Y-59043338D01*
X102095030Y-58967419D01*
G37*
X102095030Y-58967419D02*
X102079403Y-58907315D01*
X102047152Y-58856979D01*
X102023060Y-58832607D01*
X101966105Y-58792655D01*
X101900035Y-58769758D01*
X101818818Y-58761892D01*
X101812252Y-58761852D01*
X101746237Y-58761782D01*
X101746237Y-59141736D01*
X101711658Y-59133637D01*
X101680341Y-59119013D01*
X101647709Y-59093419D01*
X101642500Y-59088065D01*
X101614306Y-59042057D01*
X101609525Y-58989590D01*
X101628074Y-58929197D01*
X101633069Y-58918960D01*
X101648255Y-58887561D01*
X101656906Y-58866530D01*
X101657707Y-58862861D01*
X101649937Y-58850052D01*
X101630928Y-58825622D01*
X101620540Y-58813221D01*
X101596679Y-58787524D01*
X101580923Y-58779085D01*
X101566429Y-58784942D01*
X101562466Y-58788072D01*
X101545121Y-58809275D01*
X101524041Y-58844262D01*
X101511735Y-58868663D01*
X101490054Y-58937928D01*
X101483029Y-59014612D01*
X101491353Y-59087235D01*
X101497314Y-59107574D01*
X101531048Y-59170524D01*
X101582955Y-59217185D01*
X101653541Y-59247827D01*
X101743308Y-59262718D01*
X101790247Y-59264353D01*
X101858587Y-59259579D01*
X101858587Y-59139010D01*
X101853535Y-59127348D01*
X101849571Y-59096002D01*
X101847232Y-59050429D01*
X101846831Y-59019554D01*
X101847217Y-58964019D01*
X101849025Y-58928967D01*
X101853227Y-58909738D01*
X101860797Y-58901670D01*
X101871782Y-58900099D01*
X101905619Y-58910879D01*
X101939060Y-58938020D01*
X101964728Y-58973723D01*
X101975228Y-59009440D01*
X101965914Y-59057952D01*
X101938987Y-59099947D01*
X101900173Y-59129064D01*
X101858587Y-59139010D01*
X101858587Y-59259579D01*
X101889764Y-59257401D01*
X101969051Y-59235945D01*
X102028737Y-59199530D01*
X102069451Y-59147703D01*
X102091821Y-59080010D01*
X102096129Y-59043338D01*
X102095030Y-58967419D01*
G36*
X103034852Y-63538261D02*
G01*
X103005769Y-63472479D01*
X102957207Y-63422540D01*
X102889092Y-63388374D01*
X102801349Y-63369907D01*
X102787649Y-63368583D01*
X102691061Y-63367546D01*
X102606398Y-63380993D01*
X102537779Y-63408108D01*
X102515706Y-63422627D01*
X102468989Y-63473201D01*
X102438732Y-63537609D01*
X102426176Y-63609666D01*
X102432561Y-63683185D01*
X102452228Y-63739072D01*
X102485371Y-63787132D01*
X102528825Y-63826412D01*
X102529842Y-63827092D01*
X102556662Y-63843044D01*
X102583632Y-63853410D01*
X102617668Y-63859688D01*
X102665690Y-63863373D01*
X102705069Y-63864997D01*
X102740781Y-63865672D01*
X102740781Y-63739955D01*
X102705230Y-63738726D01*
X102657906Y-63734266D01*
X102627535Y-63726397D01*
X102605928Y-63712207D01*
X102593306Y-63698917D01*
X102566878Y-63651802D01*
X102563347Y-63602505D01*
X102582361Y-63556593D01*
X102603669Y-63533638D01*
X102625141Y-63517096D01*
X102645687Y-63507421D01*
X102672426Y-63503174D01*
X102712477Y-63502920D01*
X102749362Y-63504228D01*
X102802053Y-63507043D01*
X102836228Y-63511505D01*
X102858520Y-63519548D01*
X102875558Y-63533103D01*
X102885297Y-63543845D01*
X102910877Y-63588777D01*
X102912153Y-63637249D01*
X102897001Y-63677894D01*
X102865358Y-63712567D01*
X102813380Y-63733224D01*
X102740781Y-63739955D01*
X102740781Y-63865672D01*
X102783379Y-63866479D01*
X102841944Y-63863948D01*
X102885993Y-63856362D01*
X102920752Y-63842681D01*
X102951449Y-63821865D01*
X102960564Y-63814147D01*
X103005979Y-63765889D01*
X103032507Y-63714128D01*
X103043621Y-63650828D01*
X103044529Y-63619961D01*
X103034852Y-63538261D01*
G37*
X103034852Y-63538261D02*
X103005769Y-63472479D01*
X102957207Y-63422540D01*
X102889092Y-63388374D01*
X102801349Y-63369907D01*
X102787649Y-63368583D01*
X102691061Y-63367546D01*
X102606398Y-63380993D01*
X102537779Y-63408108D01*
X102515706Y-63422627D01*
X102468989Y-63473201D01*
X102438732Y-63537609D01*
X102426176Y-63609666D01*
X102432561Y-63683185D01*
X102452228Y-63739072D01*
X102485371Y-63787132D01*
X102528825Y-63826412D01*
X102529842Y-63827092D01*
X102556662Y-63843044D01*
X102583632Y-63853410D01*
X102617668Y-63859688D01*
X102665690Y-63863373D01*
X102705069Y-63864997D01*
X102740781Y-63865672D01*
X102740781Y-63739955D01*
X102705230Y-63738726D01*
X102657906Y-63734266D01*
X102627535Y-63726397D01*
X102605928Y-63712207D01*
X102593306Y-63698917D01*
X102566878Y-63651802D01*
X102563347Y-63602505D01*
X102582361Y-63556593D01*
X102603669Y-63533638D01*
X102625141Y-63517096D01*
X102645687Y-63507421D01*
X102672426Y-63503174D01*
X102712477Y-63502920D01*
X102749362Y-63504228D01*
X102802053Y-63507043D01*
X102836228Y-63511505D01*
X102858520Y-63519548D01*
X102875558Y-63533103D01*
X102885297Y-63543845D01*
X102910877Y-63588777D01*
X102912153Y-63637249D01*
X102897001Y-63677894D01*
X102865358Y-63712567D01*
X102813380Y-63733224D01*
X102740781Y-63739955D01*
X102740781Y-63865672D01*
X102783379Y-63866479D01*
X102841944Y-63863948D01*
X102885993Y-63856362D01*
X102920752Y-63842681D01*
X102951449Y-63821865D01*
X102960564Y-63814147D01*
X103005979Y-63765889D01*
X103032507Y-63714128D01*
X103043621Y-63650828D01*
X103044529Y-63619961D01*
X103034852Y-63538261D01*
G36*
X103027386Y-62356699D02*
G01*
X103021486Y-62344168D01*
X102989717Y-62300799D01*
X102943354Y-62259790D01*
X102892304Y-62229168D01*
X102868834Y-62220459D01*
X102826909Y-62212512D01*
X102776243Y-62207774D01*
X102755321Y-62207199D01*
X102689307Y-62207129D01*
X102689307Y-62587083D01*
X102654727Y-62578983D01*
X102613830Y-62559104D01*
X102578486Y-62524347D01*
X102555718Y-62482998D01*
X102550990Y-62456649D01*
X102556727Y-62420916D01*
X102571118Y-62378282D01*
X102577738Y-62363799D01*
X102604487Y-62310240D01*
X102569624Y-62264533D01*
X102546045Y-62238158D01*
X102526583Y-62224124D01*
X102520871Y-62223414D01*
X102507027Y-62235951D01*
X102485988Y-62263428D01*
X102469575Y-62288366D01*
X102440070Y-62355664D01*
X102426716Y-62431110D01*
X102430188Y-62505888D01*
X102448337Y-62565495D01*
X102487216Y-62626941D01*
X102538405Y-62670608D01*
X102604633Y-62697926D01*
X102688629Y-62710322D01*
X102727064Y-62711421D01*
X102815139Y-62707022D01*
X102817701Y-62706482D01*
X102817701Y-62580582D01*
X102809442Y-62577115D01*
X102804887Y-62562863D01*
X102802935Y-62533470D01*
X102802483Y-62484575D01*
X102802475Y-62465748D01*
X102803157Y-62408467D01*
X102805636Y-62372141D01*
X102810557Y-62352604D01*
X102818566Y-62345690D01*
X102821138Y-62345445D01*
X102841577Y-62353336D01*
X102870211Y-62373085D01*
X102880237Y-62381575D01*
X102908592Y-62413094D01*
X102919741Y-62445949D01*
X102920673Y-62463651D01*
X102909019Y-62511539D01*
X102877715Y-62551699D01*
X102832248Y-62577173D01*
X102830767Y-62577625D01*
X102817701Y-62580582D01*
X102817701Y-62706482D01*
X102884490Y-62692392D01*
X102939975Y-62666038D01*
X102979361Y-62633807D01*
X103022069Y-62574217D01*
X103044891Y-62504168D01*
X103046954Y-62429661D01*
X103027386Y-62356699D01*
G37*
X103027386Y-62356699D02*
X103021486Y-62344168D01*
X102989717Y-62300799D01*
X102943354Y-62259790D01*
X102892304Y-62229168D01*
X102868834Y-62220459D01*
X102826909Y-62212512D01*
X102776243Y-62207774D01*
X102755321Y-62207199D01*
X102689307Y-62207129D01*
X102689307Y-62587083D01*
X102654727Y-62578983D01*
X102613830Y-62559104D01*
X102578486Y-62524347D01*
X102555718Y-62482998D01*
X102550990Y-62456649D01*
X102556727Y-62420916D01*
X102571118Y-62378282D01*
X102577738Y-62363799D01*
X102604487Y-62310240D01*
X102569624Y-62264533D01*
X102546045Y-62238158D01*
X102526583Y-62224124D01*
X102520871Y-62223414D01*
X102507027Y-62235951D01*
X102485988Y-62263428D01*
X102469575Y-62288366D01*
X102440070Y-62355664D01*
X102426716Y-62431110D01*
X102430188Y-62505888D01*
X102448337Y-62565495D01*
X102487216Y-62626941D01*
X102538405Y-62670608D01*
X102604633Y-62697926D01*
X102688629Y-62710322D01*
X102727064Y-62711421D01*
X102815139Y-62707022D01*
X102817701Y-62706482D01*
X102817701Y-62580582D01*
X102809442Y-62577115D01*
X102804887Y-62562863D01*
X102802935Y-62533470D01*
X102802483Y-62484575D01*
X102802475Y-62465748D01*
X102803157Y-62408467D01*
X102805636Y-62372141D01*
X102810557Y-62352604D01*
X102818566Y-62345690D01*
X102821138Y-62345445D01*
X102841577Y-62353336D01*
X102870211Y-62373085D01*
X102880237Y-62381575D01*
X102908592Y-62413094D01*
X102919741Y-62445949D01*
X102920673Y-62463651D01*
X102909019Y-62511539D01*
X102877715Y-62551699D01*
X102832248Y-62577173D01*
X102830767Y-62577625D01*
X102817701Y-62580582D01*
X102817701Y-62706482D01*
X102884490Y-62692392D01*
X102939975Y-62666038D01*
X102979361Y-62633807D01*
X103022069Y-62574217D01*
X103044891Y-62504168D01*
X103046954Y-62429661D01*
X103027386Y-62356699D01*
G36*
X103043548Y-60985983D02*
G01*
X103034518Y-60938366D01*
X103015630Y-60888966D01*
X103013223Y-60883688D01*
X102993524Y-60846226D01*
X102975219Y-60820283D01*
X102963492Y-60811897D01*
X102944368Y-60819883D01*
X102916150Y-60839280D01*
X102905616Y-60847890D01*
X102864153Y-60883372D01*
X102891142Y-60929115D01*
X102909122Y-60972650D01*
X102918733Y-61022950D01*
X102919340Y-61071188D01*
X102910309Y-61108533D01*
X102904673Y-61117495D01*
X102878829Y-61134563D01*
X102849059Y-61136637D01*
X102825803Y-61123866D01*
X102821292Y-61116312D01*
X102815691Y-61093675D01*
X102809108Y-61053885D01*
X102802817Y-61004834D01*
X102801830Y-60995785D01*
X102788202Y-60917004D01*
X102765054Y-60859864D01*
X102730248Y-60821970D01*
X102681646Y-60800921D01*
X102622282Y-60794365D01*
X102554802Y-60803423D01*
X102501812Y-60832836D01*
X102463217Y-60882722D01*
X102438919Y-60953200D01*
X102429333Y-61031435D01*
X102429448Y-61095234D01*
X102438155Y-61146984D01*
X102450175Y-61182327D01*
X102471120Y-61226983D01*
X102495426Y-61268253D01*
X102506124Y-61282921D01*
X102536916Y-61320643D01*
X102582951Y-61275148D01*
X102628987Y-61229653D01*
X102594757Y-61177928D01*
X102569048Y-61126048D01*
X102555601Y-61070649D01*
X102554182Y-61017395D01*
X102564557Y-60971951D01*
X102586493Y-60939984D01*
X102605002Y-60929662D01*
X102634686Y-60931211D01*
X102657385Y-60956860D01*
X102673060Y-61006540D01*
X102680305Y-61060969D01*
X102694127Y-61144736D01*
X102720204Y-61206967D01*
X102759301Y-61248493D01*
X102812180Y-61270147D01*
X102874874Y-61273147D01*
X102940358Y-61258329D01*
X102989856Y-61224546D01*
X103023592Y-61171495D01*
X103041793Y-61098874D01*
X103045361Y-61045072D01*
X103043548Y-60985983D01*
G37*
X103043548Y-60985983D02*
X103034518Y-60938366D01*
X103015630Y-60888966D01*
X103013223Y-60883688D01*
X102993524Y-60846226D01*
X102975219Y-60820283D01*
X102963492Y-60811897D01*
X102944368Y-60819883D01*
X102916150Y-60839280D01*
X102905616Y-60847890D01*
X102864153Y-60883372D01*
X102891142Y-60929115D01*
X102909122Y-60972650D01*
X102918733Y-61022950D01*
X102919340Y-61071188D01*
X102910309Y-61108533D01*
X102904673Y-61117495D01*
X102878829Y-61134563D01*
X102849059Y-61136637D01*
X102825803Y-61123866D01*
X102821292Y-61116312D01*
X102815691Y-61093675D01*
X102809108Y-61053885D01*
X102802817Y-61004834D01*
X102801830Y-60995785D01*
X102788202Y-60917004D01*
X102765054Y-60859864D01*
X102730248Y-60821970D01*
X102681646Y-60800921D01*
X102622282Y-60794365D01*
X102554802Y-60803423D01*
X102501812Y-60832836D01*
X102463217Y-60882722D01*
X102438919Y-60953200D01*
X102429333Y-61031435D01*
X102429448Y-61095234D01*
X102438155Y-61146984D01*
X102450175Y-61182327D01*
X102471120Y-61226983D01*
X102495426Y-61268253D01*
X102506124Y-61282921D01*
X102536916Y-61320643D01*
X102582951Y-61275148D01*
X102628987Y-61229653D01*
X102594757Y-61177928D01*
X102569048Y-61126048D01*
X102555601Y-61070649D01*
X102554182Y-61017395D01*
X102564557Y-60971951D01*
X102586493Y-60939984D01*
X102605002Y-60929662D01*
X102634686Y-60931211D01*
X102657385Y-60956860D01*
X102673060Y-61006540D01*
X102680305Y-61060969D01*
X102694127Y-61144736D01*
X102720204Y-61206967D01*
X102759301Y-61248493D01*
X102812180Y-61270147D01*
X102874874Y-61273147D01*
X102940358Y-61258329D01*
X102989856Y-61224546D01*
X103023592Y-61171495D01*
X103041793Y-61098874D01*
X103045361Y-61045072D01*
X103043548Y-60985983D01*
G36*
X103033945Y-60389238D02*
G01*
X102999308Y-60325637D01*
X102944628Y-60275877D01*
X102900158Y-60252432D01*
X102860879Y-60242366D01*
X102804884Y-60235844D01*
X102740379Y-60233049D01*
X102675571Y-60234164D01*
X102618666Y-60239374D01*
X102588273Y-60245459D01*
X102546694Y-60265986D01*
X102502532Y-60301537D01*
X102463913Y-60344381D01*
X102438966Y-60386789D01*
X102438570Y-60387823D01*
X102427669Y-60440447D01*
X102427399Y-60502812D01*
X102437324Y-60562076D01*
X102445278Y-60584960D01*
X102478700Y-60643898D01*
X102522489Y-60686110D01*
X102580462Y-60713844D01*
X102656435Y-60729349D01*
X102696229Y-60732857D01*
X102746234Y-60732410D01*
X102746234Y-60597624D01*
X102673268Y-60593083D01*
X102617666Y-60580014D01*
X102582139Y-60559244D01*
X102571980Y-60544448D01*
X102564896Y-60506536D01*
X102566993Y-60461473D01*
X102577188Y-60422513D01*
X102582796Y-60412296D01*
X102615462Y-60385341D01*
X102665455Y-60367549D01*
X102726295Y-60359976D01*
X102791503Y-60363675D01*
X102830747Y-60371943D01*
X102876195Y-60395680D01*
X102904604Y-60433151D01*
X102914427Y-60478280D01*
X102904113Y-60524989D01*
X102878888Y-60560868D01*
X102858075Y-60579723D01*
X102837561Y-60590728D01*
X102809797Y-60595974D01*
X102767238Y-60597551D01*
X102746234Y-60597624D01*
X102746234Y-60732410D01*
X102802420Y-60731906D01*
X102889499Y-60714612D01*
X102957470Y-60680971D01*
X103006336Y-60630982D01*
X103036101Y-60564644D01*
X103039552Y-60550399D01*
X103047655Y-60464790D01*
X103033945Y-60389238D01*
G37*
X103033945Y-60389238D02*
X102999308Y-60325637D01*
X102944628Y-60275877D01*
X102900158Y-60252432D01*
X102860879Y-60242366D01*
X102804884Y-60235844D01*
X102740379Y-60233049D01*
X102675571Y-60234164D01*
X102618666Y-60239374D01*
X102588273Y-60245459D01*
X102546694Y-60265986D01*
X102502532Y-60301537D01*
X102463913Y-60344381D01*
X102438966Y-60386789D01*
X102438570Y-60387823D01*
X102427669Y-60440447D01*
X102427399Y-60502812D01*
X102437324Y-60562076D01*
X102445278Y-60584960D01*
X102478700Y-60643898D01*
X102522489Y-60686110D01*
X102580462Y-60713844D01*
X102656435Y-60729349D01*
X102696229Y-60732857D01*
X102746234Y-60732410D01*
X102746234Y-60597624D01*
X102673268Y-60593083D01*
X102617666Y-60580014D01*
X102582139Y-60559244D01*
X102571980Y-60544448D01*
X102564896Y-60506536D01*
X102566993Y-60461473D01*
X102577188Y-60422513D01*
X102582796Y-60412296D01*
X102615462Y-60385341D01*
X102665455Y-60367549D01*
X102726295Y-60359976D01*
X102791503Y-60363675D01*
X102830747Y-60371943D01*
X102876195Y-60395680D01*
X102904604Y-60433151D01*
X102914427Y-60478280D01*
X102904113Y-60524989D01*
X102878888Y-60560868D01*
X102858075Y-60579723D01*
X102837561Y-60590728D01*
X102809797Y-60595974D01*
X102767238Y-60597551D01*
X102746234Y-60597624D01*
X102746234Y-60732410D01*
X102802420Y-60731906D01*
X102889499Y-60714612D01*
X102957470Y-60680971D01*
X103006336Y-60630982D01*
X103036101Y-60564644D01*
X103039552Y-60550399D01*
X103047655Y-60464790D01*
X103033945Y-60389238D01*
G36*
X102845658Y-60006633D02*
G01*
X102753437Y-60005445D01*
X102683390Y-60001103D01*
X102632619Y-59992442D01*
X102598228Y-59978296D01*
X102577321Y-59957500D01*
X102567000Y-59928890D01*
X102564364Y-59893465D01*
X102567318Y-59856364D01*
X102578111Y-59828182D01*
X102599640Y-59807757D01*
X102634801Y-59793921D01*
X102686490Y-59785509D01*
X102757606Y-59781357D01*
X102845658Y-59780297D01*
X103041386Y-59780297D01*
X103041386Y-59641980D01*
X102437821Y-59641980D01*
X102437821Y-59711138D01*
X102439511Y-59752830D01*
X102445444Y-59774299D01*
X102456707Y-59780297D01*
X102466739Y-59783909D01*
X102464617Y-59798286D01*
X102450420Y-59827264D01*
X102428520Y-59893681D01*
X102430072Y-59964125D01*
X102453853Y-60031623D01*
X102472638Y-60063767D01*
X102492978Y-60088285D01*
X102518427Y-60106196D01*
X102552542Y-60118521D01*
X102598879Y-60126277D01*
X102660993Y-60130484D01*
X102742439Y-60132160D01*
X102805422Y-60132376D01*
X103041386Y-60132376D01*
X103041386Y-60006633D01*
X102845658Y-60006633D01*
G37*
X102845658Y-60006633D02*
X102753437Y-60005445D01*
X102683390Y-60001103D01*
X102632619Y-59992442D01*
X102598228Y-59978296D01*
X102577321Y-59957500D01*
X102567000Y-59928890D01*
X102564364Y-59893465D01*
X102567318Y-59856364D01*
X102578111Y-59828182D01*
X102599640Y-59807757D01*
X102634801Y-59793921D01*
X102686490Y-59785509D01*
X102757606Y-59781357D01*
X102845658Y-59780297D01*
X103041386Y-59780297D01*
X103041386Y-59641980D01*
X102437821Y-59641980D01*
X102437821Y-59711138D01*
X102439511Y-59752830D01*
X102445444Y-59774299D01*
X102456707Y-59780297D01*
X102466739Y-59783909D01*
X102464617Y-59798286D01*
X102450420Y-59827264D01*
X102428520Y-59893681D01*
X102430072Y-59964125D01*
X102453853Y-60031623D01*
X102472638Y-60063767D01*
X102492978Y-60088285D01*
X102518427Y-60106196D01*
X102552542Y-60118521D01*
X102598879Y-60126277D01*
X102660993Y-60130484D01*
X102742439Y-60132160D01*
X102805422Y-60132376D01*
X103041386Y-60132376D01*
X103041386Y-60006633D01*
X102845658Y-60006633D01*
G36*
X103036120Y-58782774D02*
G01*
X103005170Y-58709920D01*
X102990105Y-58686973D01*
X102966952Y-58657646D01*
X102948747Y-58639236D01*
X102942817Y-58636039D01*
X102929660Y-58645065D01*
X102907333Y-58668163D01*
X102891750Y-58686656D01*
X102851074Y-58737272D01*
X102884705Y-58777240D01*
X102906416Y-58808126D01*
X102913910Y-58838241D01*
X102912080Y-58872708D01*
X102898472Y-58927439D01*
X102870228Y-58965114D01*
X102824567Y-58988009D01*
X102758711Y-58998403D01*
X102758669Y-58998405D01*
X102685061Y-58997506D01*
X102631054Y-58983537D01*
X102594284Y-58955672D01*
X102581832Y-58936675D01*
X102566327Y-58886224D01*
X102566317Y-58832337D01*
X102581362Y-58785454D01*
X102588713Y-58774356D01*
X102607489Y-58746524D01*
X102610566Y-58724764D01*
X102596591Y-58701296D01*
X102571490Y-58675351D01*
X102529120Y-58634284D01*
X102491536Y-58679879D01*
X102449118Y-58750326D01*
X102428215Y-58829767D01*
X102429728Y-58912785D01*
X102443589Y-58967306D01*
X102477865Y-59031030D01*
X102531788Y-59081995D01*
X102569851Y-59105149D01*
X102624464Y-59123901D01*
X102693631Y-59133285D01*
X102768593Y-59133357D01*
X102840591Y-59124176D01*
X102900863Y-59105801D01*
X102907042Y-59102907D01*
X102967649Y-59060048D01*
X103011776Y-59002021D01*
X103038507Y-58933409D01*
X103046927Y-58858799D01*
X103036120Y-58782774D01*
G37*
X103036120Y-58782774D02*
X103005170Y-58709920D01*
X102990105Y-58686973D01*
X102966952Y-58657646D01*
X102948747Y-58639236D01*
X102942817Y-58636039D01*
X102929660Y-58645065D01*
X102907333Y-58668163D01*
X102891750Y-58686656D01*
X102851074Y-58737272D01*
X102884705Y-58777240D01*
X102906416Y-58808126D01*
X102913910Y-58838241D01*
X102912080Y-58872708D01*
X102898472Y-58927439D01*
X102870228Y-58965114D01*
X102824567Y-58988009D01*
X102758711Y-58998403D01*
X102758669Y-58998405D01*
X102685061Y-58997506D01*
X102631054Y-58983537D01*
X102594284Y-58955672D01*
X102581832Y-58936675D01*
X102566327Y-58886224D01*
X102566317Y-58832337D01*
X102581362Y-58785454D01*
X102588713Y-58774356D01*
X102607489Y-58746524D01*
X102610566Y-58724764D01*
X102596591Y-58701296D01*
X102571490Y-58675351D01*
X102529120Y-58634284D01*
X102491536Y-58679879D01*
X102449118Y-58750326D01*
X102428215Y-58829767D01*
X102429728Y-58912785D01*
X102443589Y-58967306D01*
X102477865Y-59031030D01*
X102531788Y-59081995D01*
X102569851Y-59105149D01*
X102624464Y-59123901D01*
X102693631Y-59133285D01*
X102768593Y-59133357D01*
X102840591Y-59124176D01*
X102900863Y-59105801D01*
X102907042Y-59102907D01*
X102967649Y-59060048D01*
X103011776Y-59002021D01*
X103038507Y-58933409D01*
X103046927Y-58858799D01*
X103036120Y-58782774D01*
G36*
X103043543Y-58322102D02*
G01*
X103035721Y-58289904D01*
X103007079Y-58228175D01*
X102963333Y-58175390D01*
X102910883Y-58138859D01*
X102899107Y-58133840D01*
X102868260Y-58126955D01*
X102822629Y-58122136D01*
X102776508Y-58120495D01*
X102689307Y-58120495D01*
X102689307Y-58302822D01*
X102689022Y-58378021D01*
X102687296Y-58430997D01*
X102682819Y-58464675D01*
X102674280Y-58481980D01*
X102660370Y-58485837D01*
X102639778Y-58479171D01*
X102615685Y-58467230D01*
X102575475Y-58433920D01*
X102555442Y-58387632D01*
X102556095Y-58331056D01*
X102577899Y-58266969D01*
X102604807Y-58211583D01*
X102568468Y-58165625D01*
X102532128Y-58119667D01*
X102492181Y-58162904D01*
X102454437Y-58220626D01*
X102431680Y-58291614D01*
X102425312Y-58367971D01*
X102436732Y-58441801D01*
X102440607Y-58453713D01*
X102474494Y-58518601D01*
X102525014Y-58566870D01*
X102593675Y-58599535D01*
X102681986Y-58617615D01*
X102683879Y-58617825D01*
X102780122Y-58619444D01*
X102814458Y-58612900D01*
X102814458Y-58485148D01*
X102809178Y-58473416D01*
X102805133Y-58441562D01*
X102802824Y-58394603D01*
X102802475Y-58364846D01*
X102802694Y-58309352D01*
X102804084Y-58274654D01*
X102807749Y-58256399D01*
X102814790Y-58250234D01*
X102826310Y-58251805D01*
X102830767Y-58253122D01*
X102872645Y-58275618D01*
X102906396Y-58310997D01*
X102921227Y-58342220D01*
X102920332Y-58383699D01*
X102901836Y-58425731D01*
X102871214Y-58460988D01*
X102833938Y-58482146D01*
X102814458Y-58485148D01*
X102814458Y-58612900D01*
X102864771Y-58603310D01*
X102935809Y-58571302D01*
X102991221Y-58525299D01*
X103028991Y-58467179D01*
X103047104Y-58398820D01*
X103043543Y-58322102D01*
G37*
X103043543Y-58322102D02*
X103035721Y-58289904D01*
X103007079Y-58228175D01*
X102963333Y-58175390D01*
X102910883Y-58138859D01*
X102899107Y-58133840D01*
X102868260Y-58126955D01*
X102822629Y-58122136D01*
X102776508Y-58120495D01*
X102689307Y-58120495D01*
X102689307Y-58302822D01*
X102689022Y-58378021D01*
X102687296Y-58430997D01*
X102682819Y-58464675D01*
X102674280Y-58481980D01*
X102660370Y-58485837D01*
X102639778Y-58479171D01*
X102615685Y-58467230D01*
X102575475Y-58433920D01*
X102555442Y-58387632D01*
X102556095Y-58331056D01*
X102577899Y-58266969D01*
X102604807Y-58211583D01*
X102568468Y-58165625D01*
X102532128Y-58119667D01*
X102492181Y-58162904D01*
X102454437Y-58220626D01*
X102431680Y-58291614D01*
X102425312Y-58367971D01*
X102436732Y-58441801D01*
X102440607Y-58453713D01*
X102474494Y-58518601D01*
X102525014Y-58566870D01*
X102593675Y-58599535D01*
X102681986Y-58617615D01*
X102683879Y-58617825D01*
X102780122Y-58619444D01*
X102814458Y-58612900D01*
X102814458Y-58485148D01*
X102809178Y-58473416D01*
X102805133Y-58441562D01*
X102802824Y-58394603D01*
X102802475Y-58364846D01*
X102802694Y-58309352D01*
X102804084Y-58274654D01*
X102807749Y-58256399D01*
X102814790Y-58250234D01*
X102826310Y-58251805D01*
X102830767Y-58253122D01*
X102872645Y-58275618D01*
X102906396Y-58310997D01*
X102921227Y-58342220D01*
X102920332Y-58383699D01*
X102901836Y-58425731D01*
X102871214Y-58460988D01*
X102833938Y-58482146D01*
X102814458Y-58485148D01*
X102814458Y-58612900D01*
X102864771Y-58603310D01*
X102935809Y-58571302D01*
X102991221Y-58525299D01*
X103028991Y-58467179D01*
X103047104Y-58398820D01*
X103043543Y-58322102D01*
G36*
X103030998Y-61754012D02*
G01*
X103016050Y-61722717D01*
X102994459Y-61692409D01*
X102969609Y-61669318D01*
X102937913Y-61652500D01*
X102895786Y-61641006D01*
X102839642Y-61633891D01*
X102765894Y-61630207D01*
X102670956Y-61629008D01*
X102661015Y-61628989D01*
X102437821Y-61628713D01*
X102437821Y-61767030D01*
X102643582Y-61767030D01*
X102719811Y-61767128D01*
X102775061Y-61767809D01*
X102813499Y-61769651D01*
X102839294Y-61773233D01*
X102856616Y-61779132D01*
X102869632Y-61787927D01*
X102882493Y-61800180D01*
X102910127Y-61843047D01*
X102915255Y-61889843D01*
X102897783Y-61934424D01*
X102884779Y-61949928D01*
X102872553Y-61961310D01*
X102859460Y-61969481D01*
X102841385Y-61974974D01*
X102814213Y-61978320D01*
X102773830Y-61980051D01*
X102716121Y-61980697D01*
X102645868Y-61980792D01*
X102437821Y-61980792D01*
X102437821Y-62119109D01*
X103041386Y-62119109D01*
X103041386Y-62049950D01*
X103039744Y-62008428D01*
X103033913Y-61987006D01*
X103022539Y-61980795D01*
X103022202Y-61980792D01*
X103011062Y-61977910D01*
X103012326Y-61965199D01*
X103024566Y-61939926D01*
X103042576Y-61882605D01*
X103044579Y-61817037D01*
X103030998Y-61754012D01*
G37*
X103030998Y-61754012D02*
X103016050Y-61722717D01*
X102994459Y-61692409D01*
X102969609Y-61669318D01*
X102937913Y-61652500D01*
X102895786Y-61641006D01*
X102839642Y-61633891D01*
X102765894Y-61630207D01*
X102670956Y-61629008D01*
X102661015Y-61628989D01*
X102437821Y-61628713D01*
X102437821Y-61767030D01*
X102643582Y-61767030D01*
X102719811Y-61767128D01*
X102775061Y-61767809D01*
X102813499Y-61769651D01*
X102839294Y-61773233D01*
X102856616Y-61779132D01*
X102869632Y-61787927D01*
X102882493Y-61800180D01*
X102910127Y-61843047D01*
X102915255Y-61889843D01*
X102897783Y-61934424D01*
X102884779Y-61949928D01*
X102872553Y-61961310D01*
X102859460Y-61969481D01*
X102841385Y-61974974D01*
X102814213Y-61978320D01*
X102773830Y-61980051D01*
X102716121Y-61980697D01*
X102645868Y-61980792D01*
X102437821Y-61980792D01*
X102437821Y-62119109D01*
X103041386Y-62119109D01*
X103041386Y-62049950D01*
X103039744Y-62008428D01*
X103033913Y-61987006D01*
X103022539Y-61980795D01*
X103022202Y-61980792D01*
X103011062Y-61977910D01*
X103012326Y-61965199D01*
X103024566Y-61939926D01*
X103042576Y-61882605D01*
X103044579Y-61817037D01*
X103030998Y-61754012D01*
G36*
X103041970Y-59200540D02*
G01*
X103028755Y-59157289D01*
X103012059Y-59129442D01*
X102998855Y-59120371D01*
X102983203Y-59122868D01*
X102958615Y-59139069D01*
X102941200Y-59152768D01*
X102909717Y-59181008D01*
X102896471Y-59202225D01*
X102897336Y-59220312D01*
X102910990Y-59273965D01*
X102910370Y-59313370D01*
X102894896Y-59345368D01*
X102885839Y-59356110D01*
X102853973Y-59390495D01*
X102437821Y-59390495D01*
X102437821Y-59528812D01*
X103041386Y-59528812D01*
X103041386Y-59459653D01*
X103039744Y-59418131D01*
X103033913Y-59396709D01*
X103022539Y-59390498D01*
X103022202Y-59390495D01*
X103010287Y-59387561D01*
X103011841Y-59374296D01*
X103020437Y-59355916D01*
X103036432Y-59317954D01*
X103046055Y-59287128D01*
X103048522Y-59247464D01*
X103041970Y-59200540D01*
G37*
X103041970Y-59200540D02*
X103028755Y-59157289D01*
X103012059Y-59129442D01*
X102998855Y-59120371D01*
X102983203Y-59122868D01*
X102958615Y-59139069D01*
X102941200Y-59152768D01*
X102909717Y-59181008D01*
X102896471Y-59202225D01*
X102897336Y-59220312D01*
X102910990Y-59273965D01*
X102910370Y-59313370D01*
X102894896Y-59345368D01*
X102885839Y-59356110D01*
X102853973Y-59390495D01*
X102437821Y-59390495D01*
X102437821Y-59528812D01*
X103041386Y-59528812D01*
X103041386Y-59459653D01*
X103039744Y-59418131D01*
X103033913Y-59396709D01*
X103022539Y-59390498D01*
X103022202Y-59390495D01*
X103010287Y-59387561D01*
X103011841Y-59374296D01*
X103020437Y-59355916D01*
X103036432Y-59317954D01*
X103046055Y-59287128D01*
X103048522Y-59247464D01*
X103041970Y-59200540D01*
G36*
X107209982Y-60623036D02*
G01*
X106908430Y-60566188D01*
X106735488Y-60146662D01*
X106906605Y-59895016D01*
X106954250Y-59824542D01*
X106996790Y-59760837D01*
X107032285Y-59706874D01*
X107058790Y-59665627D01*
X107074364Y-59640066D01*
X107077722Y-59633105D01*
X107069086Y-59620565D01*
X107045208Y-59593769D01*
X107009141Y-59555720D01*
X106963933Y-59509421D01*
X106912636Y-59457877D01*
X106858299Y-59404091D01*
X106803972Y-59351065D01*
X106752705Y-59301805D01*
X106707549Y-59259313D01*
X106671554Y-59226593D01*
X106647770Y-59206649D01*
X106639810Y-59201881D01*
X106625135Y-59208743D01*
X106592986Y-59227980D01*
X106546508Y-59257570D01*
X106488844Y-59295490D01*
X106423140Y-59339718D01*
X106385664Y-59365346D01*
X106317232Y-59412059D01*
X106255480Y-59453568D01*
X106203481Y-59487860D01*
X106164308Y-59512920D01*
X106141035Y-59526736D01*
X106136145Y-59528812D01*
X106122245Y-59524105D01*
X106089850Y-59511277D01*
X106043515Y-59492262D01*
X105987794Y-59468997D01*
X105927242Y-59443416D01*
X105866414Y-59417455D01*
X105809864Y-59393050D01*
X105762148Y-59372137D01*
X105727819Y-59356651D01*
X105711432Y-59348528D01*
X105710788Y-59348048D01*
X105707659Y-59335293D01*
X105700679Y-59301323D01*
X105690533Y-59249660D01*
X105677908Y-59183824D01*
X105663491Y-59107336D01*
X105655177Y-59062710D01*
X105639616Y-58980979D01*
X105624808Y-58907157D01*
X105611564Y-58844979D01*
X105600695Y-58798178D01*
X105593011Y-58770491D01*
X105590573Y-58764926D01*
X105574070Y-58759474D01*
X105536800Y-58755076D01*
X105483120Y-58751728D01*
X105417388Y-58749426D01*
X105343963Y-58748168D01*
X105267204Y-58747952D01*
X105191468Y-58748773D01*
X105121114Y-58750629D01*
X105060500Y-58753518D01*
X105013984Y-58757435D01*
X104985925Y-58762378D01*
X104980084Y-58765343D01*
X104973083Y-58783066D01*
X104963073Y-58820619D01*
X104951231Y-58873036D01*
X104938733Y-58935348D01*
X104934690Y-58957100D01*
X104915480Y-59061976D01*
X104900009Y-59144820D01*
X104887663Y-59208370D01*
X104877827Y-59255363D01*
X104869886Y-59288537D01*
X104863224Y-59310629D01*
X104857227Y-59324376D01*
X104851281Y-59332516D01*
X104850106Y-59333655D01*
X104831174Y-59345023D01*
X104794331Y-59362365D01*
X104744087Y-59383950D01*
X104684954Y-59408046D01*
X104621444Y-59432921D01*
X104558068Y-59456843D01*
X104499338Y-59478081D01*
X104449765Y-59494903D01*
X104413861Y-59505578D01*
X104396138Y-59508373D01*
X104395517Y-59508140D01*
X104381030Y-59498669D01*
X104349156Y-59477182D01*
X104303211Y-59445937D01*
X104246515Y-59407193D01*
X104182383Y-59363207D01*
X104164158Y-59350681D01*
X104098086Y-59306016D01*
X104037800Y-59266712D01*
X103986765Y-59234912D01*
X103948440Y-59212755D01*
X103926289Y-59202383D01*
X103923568Y-59201881D01*
X103909264Y-59210595D01*
X103880928Y-59234675D01*
X103841604Y-59271024D01*
X103794339Y-59316547D01*
X103742177Y-59368148D01*
X103688165Y-59422733D01*
X103635347Y-59477206D01*
X103586769Y-59528471D01*
X103545477Y-59573433D01*
X103514515Y-59608996D01*
X103496930Y-59632065D01*
X103494059Y-59638446D01*
X103500822Y-59653301D01*
X103519061Y-59683714D01*
X103545703Y-59724732D01*
X103567148Y-59756291D01*
X103606497Y-59813475D01*
X103652829Y-59881194D01*
X103699087Y-59949120D01*
X103723845Y-59985639D01*
X103807453Y-60109248D01*
X103751350Y-60213009D01*
X103726772Y-60260280D01*
X103707669Y-60300477D01*
X103696773Y-60327674D01*
X103695257Y-60334598D01*
X103706451Y-60342923D01*
X103738083Y-60359346D01*
X103787235Y-60382643D01*
X103850990Y-60411586D01*
X103926429Y-60444950D01*
X104010636Y-60481509D01*
X104100692Y-60520036D01*
X104193679Y-60559306D01*
X104286680Y-60598092D01*
X104376777Y-60635170D01*
X104461052Y-60669311D01*
X104536587Y-60699292D01*
X104600466Y-60723884D01*
X104649769Y-60741864D01*
X104681579Y-60752003D01*
X104692504Y-60753634D01*
X104706439Y-60740709D01*
X104729060Y-60712411D01*
X104755667Y-60674654D01*
X104757772Y-60671485D01*
X104835886Y-60573900D01*
X104927018Y-60495214D01*
X105028255Y-60436109D01*
X105136682Y-60397268D01*
X105249386Y-60379372D01*
X105363452Y-60383103D01*
X105475966Y-60409143D01*
X105584015Y-60458175D01*
X105607655Y-60472600D01*
X105703113Y-60547631D01*
X105779768Y-60636270D01*
X105837220Y-60735451D01*
X105875071Y-60842105D01*
X105892922Y-60953164D01*
X105890375Y-61065561D01*
X105867030Y-61176227D01*
X105822490Y-61282094D01*
X105756355Y-61380095D01*
X105729513Y-61410410D01*
X105645488Y-61487562D01*
X105557034Y-61543782D01*
X105457885Y-61582347D01*
X105359697Y-61603826D01*
X105249303Y-61609128D01*
X105138360Y-61591448D01*
X105030619Y-61552581D01*
X104929831Y-61494323D01*
X104839744Y-61418469D01*
X104764108Y-61326817D01*
X104756136Y-61314772D01*
X104730026Y-61276611D01*
X104707405Y-61247601D01*
X104692961Y-61233732D01*
X104692504Y-61233531D01*
X104676879Y-61236508D01*
X104641418Y-61248311D01*
X104589038Y-61267714D01*
X104522655Y-61293488D01*
X104445186Y-61324409D01*
X104359550Y-61359249D01*
X104268663Y-61396783D01*
X104175441Y-61435783D01*
X104082803Y-61475023D01*
X103993665Y-61513276D01*
X103910945Y-61549317D01*
X103837559Y-61581917D01*
X103776425Y-61609852D01*
X103730459Y-61631895D01*
X103702579Y-61646818D01*
X103695257Y-61652828D01*
X103700959Y-61671191D01*
X103716251Y-61705552D01*
X103738401Y-61749984D01*
X103751350Y-61774417D01*
X103807453Y-61878178D01*
X103723845Y-62001787D01*
X103681013Y-62064886D01*
X103633878Y-62133970D01*
X103589497Y-62198707D01*
X103567148Y-62231134D01*
X103536523Y-62276741D01*
X103512253Y-62315360D01*
X103497413Y-62341952D01*
X103494276Y-62350590D01*
X103502739Y-62363161D01*
X103526364Y-62390984D01*
X103562698Y-62431361D01*
X103609289Y-62481595D01*
X103663683Y-62538988D01*
X103698608Y-62575286D01*
X103761004Y-62638790D01*
X103816812Y-62693673D01*
X103863646Y-62737714D01*
X103899118Y-62768695D01*
X103920839Y-62784398D01*
X103925248Y-62785905D01*
X103942015Y-62778914D01*
X103975918Y-62759594D01*
X104023524Y-62730091D01*
X104081401Y-62692545D01*
X104146116Y-62649100D01*
X104164158Y-62636745D01*
X104229733Y-62591727D01*
X104288772Y-62551340D01*
X104337958Y-62517840D01*
X104373972Y-62493486D01*
X104393498Y-62480536D01*
X104395517Y-62479285D01*
X104411078Y-62481156D01*
X104445291Y-62491087D01*
X104493645Y-62507347D01*
X104551629Y-62528205D01*
X104614730Y-62551927D01*
X104678437Y-62576784D01*
X104738239Y-62601042D01*
X104789624Y-62622971D01*
X104828081Y-62640838D01*
X104849098Y-62652913D01*
X104850106Y-62653771D01*
X104856112Y-62661154D01*
X104862052Y-62673625D01*
X104868540Y-62693920D01*
X104876191Y-62724778D01*
X104885620Y-62768934D01*
X104897441Y-62829126D01*
X104912271Y-62908093D01*
X104930723Y-63008570D01*
X104934690Y-63030325D01*
X104947147Y-63094802D01*
X104959334Y-63151011D01*
X104970074Y-63193987D01*
X104978191Y-63218760D01*
X104980084Y-63222082D01*
X104996862Y-63227556D01*
X105034355Y-63232006D01*
X105088206Y-63235428D01*
X105154056Y-63237819D01*
X105227547Y-63239177D01*
X105304320Y-63239499D01*
X105380017Y-63238781D01*
X105450280Y-63237021D01*
X105510750Y-63234216D01*
X105557070Y-63230362D01*
X105584881Y-63225457D01*
X105590573Y-63222500D01*
X105596314Y-63206037D01*
X105605655Y-63168551D01*
X105617785Y-63113775D01*
X105631893Y-63045445D01*
X105647170Y-62967294D01*
X105655177Y-62924716D01*
X105670279Y-62843929D01*
X105683960Y-62771887D01*
X105695533Y-62712111D01*
X105704313Y-62668121D01*
X105709613Y-62643439D01*
X105710788Y-62639377D01*
X105724035Y-62632511D01*
X105755943Y-62617998D01*
X105801953Y-62597771D01*
X105857508Y-62573766D01*
X105918047Y-62547918D01*
X105979014Y-62522160D01*
X106035849Y-62498427D01*
X106083994Y-62478654D01*
X106118890Y-62464776D01*
X106135979Y-62458726D01*
X106136726Y-62458614D01*
X106150207Y-62465472D01*
X106181230Y-62484698D01*
X106226711Y-62514272D01*
X106283568Y-62552173D01*
X106348717Y-62596380D01*
X106386138Y-62622079D01*
X106454753Y-62668907D01*
X106517048Y-62710499D01*
X106569871Y-62744825D01*
X106610073Y-62769857D01*
X106634500Y-62783565D01*
X106639976Y-62785544D01*
X106652722Y-62777034D01*
X106679937Y-62753507D01*
X106718572Y-62717968D01*
X106765577Y-62673423D01*
X106817905Y-62622877D01*
X106872505Y-62569336D01*
X106926330Y-62515805D01*
X106976330Y-62465289D01*
X107019457Y-62420794D01*
X107052661Y-62385325D01*
X107072894Y-62361887D01*
X107077722Y-62354046D01*
X107070933Y-62341280D01*
X107051858Y-62310744D01*
X107022439Y-62265410D01*
X106984619Y-62208244D01*
X106940339Y-62142216D01*
X106906605Y-62092410D01*
X106735488Y-61840764D01*
X106821959Y-61631001D01*
X106908430Y-61421237D01*
X107209982Y-61364389D01*
X107511534Y-61307540D01*
X107511534Y-60679885D01*
X107209982Y-60623036D01*
G37*
X107209982Y-60623036D02*
X106908430Y-60566188D01*
X106735488Y-60146662D01*
X106906605Y-59895016D01*
X106954250Y-59824542D01*
X106996790Y-59760837D01*
X107032285Y-59706874D01*
X107058790Y-59665627D01*
X107074364Y-59640066D01*
X107077722Y-59633105D01*
X107069086Y-59620565D01*
X107045208Y-59593769D01*
X107009141Y-59555720D01*
X106963933Y-59509421D01*
X106912636Y-59457877D01*
X106858299Y-59404091D01*
X106803972Y-59351065D01*
X106752705Y-59301805D01*
X106707549Y-59259313D01*
X106671554Y-59226593D01*
X106647770Y-59206649D01*
X106639810Y-59201881D01*
X106625135Y-59208743D01*
X106592986Y-59227980D01*
X106546508Y-59257570D01*
X106488844Y-59295490D01*
X106423140Y-59339718D01*
X106385664Y-59365346D01*
X106317232Y-59412059D01*
X106255480Y-59453568D01*
X106203481Y-59487860D01*
X106164308Y-59512920D01*
X106141035Y-59526736D01*
X106136145Y-59528812D01*
X106122245Y-59524105D01*
X106089850Y-59511277D01*
X106043515Y-59492262D01*
X105987794Y-59468997D01*
X105927242Y-59443416D01*
X105866414Y-59417455D01*
X105809864Y-59393050D01*
X105762148Y-59372137D01*
X105727819Y-59356651D01*
X105711432Y-59348528D01*
X105710788Y-59348048D01*
X105707659Y-59335293D01*
X105700679Y-59301323D01*
X105690533Y-59249660D01*
X105677908Y-59183824D01*
X105663491Y-59107336D01*
X105655177Y-59062710D01*
X105639616Y-58980979D01*
X105624808Y-58907157D01*
X105611564Y-58844979D01*
X105600695Y-58798178D01*
X105593011Y-58770491D01*
X105590573Y-58764926D01*
X105574070Y-58759474D01*
X105536800Y-58755076D01*
X105483120Y-58751728D01*
X105417388Y-58749426D01*
X105343963Y-58748168D01*
X105267204Y-58747952D01*
X105191468Y-58748773D01*
X105121114Y-58750629D01*
X105060500Y-58753518D01*
X105013984Y-58757435D01*
X104985925Y-58762378D01*
X104980084Y-58765343D01*
X104973083Y-58783066D01*
X104963073Y-58820619D01*
X104951231Y-58873036D01*
X104938733Y-58935348D01*
X104934690Y-58957100D01*
X104915480Y-59061976D01*
X104900009Y-59144820D01*
X104887663Y-59208370D01*
X104877827Y-59255363D01*
X104869886Y-59288537D01*
X104863224Y-59310629D01*
X104857227Y-59324376D01*
X104851281Y-59332516D01*
X104850106Y-59333655D01*
X104831174Y-59345023D01*
X104794331Y-59362365D01*
X104744087Y-59383950D01*
X104684954Y-59408046D01*
X104621444Y-59432921D01*
X104558068Y-59456843D01*
X104499338Y-59478081D01*
X104449765Y-59494903D01*
X104413861Y-59505578D01*
X104396138Y-59508373D01*
X104395517Y-59508140D01*
X104381030Y-59498669D01*
X104349156Y-59477182D01*
X104303211Y-59445937D01*
X104246515Y-59407193D01*
X104182383Y-59363207D01*
X104164158Y-59350681D01*
X104098086Y-59306016D01*
X104037800Y-59266712D01*
X103986765Y-59234912D01*
X103948440Y-59212755D01*
X103926289Y-59202383D01*
X103923568Y-59201881D01*
X103909264Y-59210595D01*
X103880928Y-59234675D01*
X103841604Y-59271024D01*
X103794339Y-59316547D01*
X103742177Y-59368148D01*
X103688165Y-59422733D01*
X103635347Y-59477206D01*
X103586769Y-59528471D01*
X103545477Y-59573433D01*
X103514515Y-59608996D01*
X103496930Y-59632065D01*
X103494059Y-59638446D01*
X103500822Y-59653301D01*
X103519061Y-59683714D01*
X103545703Y-59724732D01*
X103567148Y-59756291D01*
X103606497Y-59813475D01*
X103652829Y-59881194D01*
X103699087Y-59949120D01*
X103723845Y-59985639D01*
X103807453Y-60109248D01*
X103751350Y-60213009D01*
X103726772Y-60260280D01*
X103707669Y-60300477D01*
X103696773Y-60327674D01*
X103695257Y-60334598D01*
X103706451Y-60342923D01*
X103738083Y-60359346D01*
X103787235Y-60382643D01*
X103850990Y-60411586D01*
X103926429Y-60444950D01*
X104010636Y-60481509D01*
X104100692Y-60520036D01*
X104193679Y-60559306D01*
X104286680Y-60598092D01*
X104376777Y-60635170D01*
X104461052Y-60669311D01*
X104536587Y-60699292D01*
X104600466Y-60723884D01*
X104649769Y-60741864D01*
X104681579Y-60752003D01*
X104692504Y-60753634D01*
X104706439Y-60740709D01*
X104729060Y-60712411D01*
X104755667Y-60674654D01*
X104757772Y-60671485D01*
X104835886Y-60573900D01*
X104927018Y-60495214D01*
X105028255Y-60436109D01*
X105136682Y-60397268D01*
X105249386Y-60379372D01*
X105363452Y-60383103D01*
X105475966Y-60409143D01*
X105584015Y-60458175D01*
X105607655Y-60472600D01*
X105703113Y-60547631D01*
X105779768Y-60636270D01*
X105837220Y-60735451D01*
X105875071Y-60842105D01*
X105892922Y-60953164D01*
X105890375Y-61065561D01*
X105867030Y-61176227D01*
X105822490Y-61282094D01*
X105756355Y-61380095D01*
X105729513Y-61410410D01*
X105645488Y-61487562D01*
X105557034Y-61543782D01*
X105457885Y-61582347D01*
X105359697Y-61603826D01*
X105249303Y-61609128D01*
X105138360Y-61591448D01*
X105030619Y-61552581D01*
X104929831Y-61494323D01*
X104839744Y-61418469D01*
X104764108Y-61326817D01*
X104756136Y-61314772D01*
X104730026Y-61276611D01*
X104707405Y-61247601D01*
X104692961Y-61233732D01*
X104692504Y-61233531D01*
X104676879Y-61236508D01*
X104641418Y-61248311D01*
X104589038Y-61267714D01*
X104522655Y-61293488D01*
X104445186Y-61324409D01*
X104359550Y-61359249D01*
X104268663Y-61396783D01*
X104175441Y-61435783D01*
X104082803Y-61475023D01*
X103993665Y-61513276D01*
X103910945Y-61549317D01*
X103837559Y-61581917D01*
X103776425Y-61609852D01*
X103730459Y-61631895D01*
X103702579Y-61646818D01*
X103695257Y-61652828D01*
X103700959Y-61671191D01*
X103716251Y-61705552D01*
X103738401Y-61749984D01*
X103751350Y-61774417D01*
X103807453Y-61878178D01*
X103723845Y-62001787D01*
X103681013Y-62064886D01*
X103633878Y-62133970D01*
X103589497Y-62198707D01*
X103567148Y-62231134D01*
X103536523Y-62276741D01*
X103512253Y-62315360D01*
X103497413Y-62341952D01*
X103494276Y-62350590D01*
X103502739Y-62363161D01*
X103526364Y-62390984D01*
X103562698Y-62431361D01*
X103609289Y-62481595D01*
X103663683Y-62538988D01*
X103698608Y-62575286D01*
X103761004Y-62638790D01*
X103816812Y-62693673D01*
X103863646Y-62737714D01*
X103899118Y-62768695D01*
X103920839Y-62784398D01*
X103925248Y-62785905D01*
X103942015Y-62778914D01*
X103975918Y-62759594D01*
X104023524Y-62730091D01*
X104081401Y-62692545D01*
X104146116Y-62649100D01*
X104164158Y-62636745D01*
X104229733Y-62591727D01*
X104288772Y-62551340D01*
X104337958Y-62517840D01*
X104373972Y-62493486D01*
X104393498Y-62480536D01*
X104395517Y-62479285D01*
X104411078Y-62481156D01*
X104445291Y-62491087D01*
X104493645Y-62507347D01*
X104551629Y-62528205D01*
X104614730Y-62551927D01*
X104678437Y-62576784D01*
X104738239Y-62601042D01*
X104789624Y-62622971D01*
X104828081Y-62640838D01*
X104849098Y-62652913D01*
X104850106Y-62653771D01*
X104856112Y-62661154D01*
X104862052Y-62673625D01*
X104868540Y-62693920D01*
X104876191Y-62724778D01*
X104885620Y-62768934D01*
X104897441Y-62829126D01*
X104912271Y-62908093D01*
X104930723Y-63008570D01*
X104934690Y-63030325D01*
X104947147Y-63094802D01*
X104959334Y-63151011D01*
X104970074Y-63193987D01*
X104978191Y-63218760D01*
X104980084Y-63222082D01*
X104996862Y-63227556D01*
X105034355Y-63232006D01*
X105088206Y-63235428D01*
X105154056Y-63237819D01*
X105227547Y-63239177D01*
X105304320Y-63239499D01*
X105380017Y-63238781D01*
X105450280Y-63237021D01*
X105510750Y-63234216D01*
X105557070Y-63230362D01*
X105584881Y-63225457D01*
X105590573Y-63222500D01*
X105596314Y-63206037D01*
X105605655Y-63168551D01*
X105617785Y-63113775D01*
X105631893Y-63045445D01*
X105647170Y-62967294D01*
X105655177Y-62924716D01*
X105670279Y-62843929D01*
X105683960Y-62771887D01*
X105695533Y-62712111D01*
X105704313Y-62668121D01*
X105709613Y-62643439D01*
X105710788Y-62639377D01*
X105724035Y-62632511D01*
X105755943Y-62617998D01*
X105801953Y-62597771D01*
X105857508Y-62573766D01*
X105918047Y-62547918D01*
X105979014Y-62522160D01*
X106035849Y-62498427D01*
X106083994Y-62478654D01*
X106118890Y-62464776D01*
X106135979Y-62458726D01*
X106136726Y-62458614D01*
X106150207Y-62465472D01*
X106181230Y-62484698D01*
X106226711Y-62514272D01*
X106283568Y-62552173D01*
X106348717Y-62596380D01*
X106386138Y-62622079D01*
X106454753Y-62668907D01*
X106517048Y-62710499D01*
X106569871Y-62744825D01*
X106610073Y-62769857D01*
X106634500Y-62783565D01*
X106639976Y-62785544D01*
X106652722Y-62777034D01*
X106679937Y-62753507D01*
X106718572Y-62717968D01*
X106765577Y-62673423D01*
X106817905Y-62622877D01*
X106872505Y-62569336D01*
X106926330Y-62515805D01*
X106976330Y-62465289D01*
X107019457Y-62420794D01*
X107052661Y-62385325D01*
X107072894Y-62361887D01*
X107077722Y-62354046D01*
X107070933Y-62341280D01*
X107051858Y-62310744D01*
X107022439Y-62265410D01*
X106984619Y-62208244D01*
X106940339Y-62142216D01*
X106906605Y-62092410D01*
X106735488Y-61840764D01*
X106821959Y-61631001D01*
X106908430Y-61421237D01*
X107209982Y-61364389D01*
X107511534Y-61307540D01*
X107511534Y-60679885D01*
X107209982Y-60623036D01*
D14*
%TO.C,U2*%
X109550000Y-58000000D02*
X109550000Y-58000000D01*
X132450000Y-58000000D02*
X132450000Y-58000000D01*
X118000000Y-69000000D02*
X118000000Y-74000000D01*
X118000000Y-74000000D02*
X124000000Y-74000000D01*
X124000000Y-74000000D02*
X124000000Y-69000000D01*
X109550000Y-58000000D02*
G75*
G03*
X132450000Y-58000000I11450000J0D01*
G01*
X132450000Y-58000000D02*
G75*
G03*
X109550000Y-58000000I-11450000J0D01*
G01*
D10*
%TO.C,R16*%
X131318000Y-81257000D02*
X131318000Y-80207000D01*
%TO.C,R15*%
X127508000Y-80207000D02*
X127508000Y-81257000D01*
%TO.C,R12*%
X112268000Y-80207000D02*
X112268000Y-81257000D01*
%TO.C,R11*%
X116078000Y-81257000D02*
X116078000Y-80207000D01*
%TO.C,R16*%
D15*
X132025142Y-79497619D02*
X132391809Y-78973809D01*
X132653714Y-79497619D02*
X132653714Y-78397619D01*
X132234666Y-78397619D01*
X132129904Y-78450000D01*
X132077523Y-78502380D01*
X132025142Y-78607142D01*
X132025142Y-78764285D01*
X132077523Y-78869047D01*
X132129904Y-78921428D01*
X132234666Y-78973809D01*
X132653714Y-78973809D01*
X130977523Y-79497619D02*
X131606095Y-79497619D01*
X131291809Y-79497619D02*
X131291809Y-78397619D01*
X131396571Y-78554761D01*
X131501333Y-78659523D01*
X131606095Y-78711904D01*
X130034666Y-78397619D02*
X130244190Y-78397619D01*
X130348952Y-78450000D01*
X130401333Y-78502380D01*
X130506095Y-78659523D01*
X130558476Y-78869047D01*
X130558476Y-79288095D01*
X130506095Y-79392857D01*
X130453714Y-79445238D01*
X130348952Y-79497619D01*
X130139428Y-79497619D01*
X130034666Y-79445238D01*
X129982285Y-79392857D01*
X129929904Y-79288095D01*
X129929904Y-79026190D01*
X129982285Y-78921428D01*
X130034666Y-78869047D01*
X130139428Y-78816666D01*
X130348952Y-78816666D01*
X130453714Y-78869047D01*
X130506095Y-78921428D01*
X130558476Y-79026190D01*
%TO.C,R15*%
X128215142Y-79497619D02*
X128581809Y-78973809D01*
X128843714Y-79497619D02*
X128843714Y-78397619D01*
X128424666Y-78397619D01*
X128319904Y-78450000D01*
X128267523Y-78502380D01*
X128215142Y-78607142D01*
X128215142Y-78764285D01*
X128267523Y-78869047D01*
X128319904Y-78921428D01*
X128424666Y-78973809D01*
X128843714Y-78973809D01*
X127167523Y-79497619D02*
X127796095Y-79497619D01*
X127481809Y-79497619D02*
X127481809Y-78397619D01*
X127586571Y-78554761D01*
X127691333Y-78659523D01*
X127796095Y-78711904D01*
X126172285Y-78397619D02*
X126696095Y-78397619D01*
X126748476Y-78921428D01*
X126696095Y-78869047D01*
X126591333Y-78816666D01*
X126329428Y-78816666D01*
X126224666Y-78869047D01*
X126172285Y-78921428D01*
X126119904Y-79026190D01*
X126119904Y-79288095D01*
X126172285Y-79392857D01*
X126224666Y-79445238D01*
X126329428Y-79497619D01*
X126591333Y-79497619D01*
X126696095Y-79445238D01*
X126748476Y-79392857D01*
%TO.C,R12*%
X112975142Y-79497619D02*
X113341809Y-78973809D01*
X113603714Y-79497619D02*
X113603714Y-78397619D01*
X113184666Y-78397619D01*
X113079904Y-78450000D01*
X113027523Y-78502380D01*
X112975142Y-78607142D01*
X112975142Y-78764285D01*
X113027523Y-78869047D01*
X113079904Y-78921428D01*
X113184666Y-78973809D01*
X113603714Y-78973809D01*
X111927523Y-79497619D02*
X112556095Y-79497619D01*
X112241809Y-79497619D02*
X112241809Y-78397619D01*
X112346571Y-78554761D01*
X112451333Y-78659523D01*
X112556095Y-78711904D01*
X111508476Y-78502380D02*
X111456095Y-78450000D01*
X111351333Y-78397619D01*
X111089428Y-78397619D01*
X110984666Y-78450000D01*
X110932285Y-78502380D01*
X110879904Y-78607142D01*
X110879904Y-78711904D01*
X110932285Y-78869047D01*
X111560857Y-79497619D01*
X110879904Y-79497619D01*
%TO.C,R11*%
X116785142Y-79497619D02*
X117151809Y-78973809D01*
X117413714Y-79497619D02*
X117413714Y-78397619D01*
X116994666Y-78397619D01*
X116889904Y-78450000D01*
X116837523Y-78502380D01*
X116785142Y-78607142D01*
X116785142Y-78764285D01*
X116837523Y-78869047D01*
X116889904Y-78921428D01*
X116994666Y-78973809D01*
X117413714Y-78973809D01*
X115737523Y-79497619D02*
X116366095Y-79497619D01*
X116051809Y-79497619D02*
X116051809Y-78397619D01*
X116156571Y-78554761D01*
X116261333Y-78659523D01*
X116366095Y-78711904D01*
X114689904Y-79497619D02*
X115318476Y-79497619D01*
X115004190Y-79497619D02*
X115004190Y-78397619D01*
X115108952Y-78554761D01*
X115213714Y-78659523D01*
X115318476Y-78711904D01*
%TO.C,C3*%
X129547333Y-84892857D02*
X129599714Y-84945238D01*
X129756857Y-84997619D01*
X129861619Y-84997619D01*
X130018761Y-84945238D01*
X130123523Y-84840476D01*
X130175904Y-84735714D01*
X130228285Y-84526190D01*
X130228285Y-84369047D01*
X130175904Y-84159523D01*
X130123523Y-84054761D01*
X130018761Y-83950000D01*
X129861619Y-83897619D01*
X129756857Y-83897619D01*
X129599714Y-83950000D01*
X129547333Y-84002380D01*
X129180666Y-83897619D02*
X128499714Y-83897619D01*
X128866380Y-84316666D01*
X128709238Y-84316666D01*
X128604476Y-84369047D01*
X128552095Y-84421428D01*
X128499714Y-84526190D01*
X128499714Y-84788095D01*
X128552095Y-84892857D01*
X128604476Y-84945238D01*
X128709238Y-84997619D01*
X129023523Y-84997619D01*
X129128285Y-84945238D01*
X129180666Y-84892857D01*
%TO.C,C2*%
X114405333Y-84892857D02*
X114457714Y-84945238D01*
X114614857Y-84997619D01*
X114719619Y-84997619D01*
X114876761Y-84945238D01*
X114981523Y-84840476D01*
X115033904Y-84735714D01*
X115086285Y-84526190D01*
X115086285Y-84369047D01*
X115033904Y-84159523D01*
X114981523Y-84054761D01*
X114876761Y-83950000D01*
X114719619Y-83897619D01*
X114614857Y-83897619D01*
X114457714Y-83950000D01*
X114405333Y-84002380D01*
X113986285Y-84002380D02*
X113933904Y-83950000D01*
X113829142Y-83897619D01*
X113567238Y-83897619D01*
X113462476Y-83950000D01*
X113410095Y-84002380D01*
X113357714Y-84107142D01*
X113357714Y-84211904D01*
X113410095Y-84369047D01*
X114038666Y-84997619D01*
X113357714Y-84997619D01*
%TD*%
M02*
